M48
; DRILL file KiCad 10.0.1 date 2026-06-07T05:50:31
; FORMAT={-:-/ absolute / metric / decimal}
; #@! TF.CreationDate,2026-06-07T05:50:31+01:00
; #@! TF.GenerationSoftware,Kicad,Pcbnew,10.0.1
; #@! TF.FileFunction,NonPlated,1,2,NPTH
FMAT,2
METRIC
; #@! TA.AperFunction,NonPlated,NPTH,ComponentDrill
T1C1.700
; #@! TA.AperFunction,NonPlated,NPTH,ComponentDrill
T2C3.200
; #@! TA.AperFunction,NonPlated,NPTH,ComponentDrill
T3C5.000
%
G90
G05
T1
X21.0Y-22.5
X21.0Y-40.5
X21.0Y-58.5
X32.0Y-22.5
X32.0Y-40.5
X32.0Y-58.5
X39.0Y-22.5
X39.0Y-40.5
X39.0Y-58.5
X50.0Y-22.5
X50.0Y-40.5
X50.0Y-58.5
X57.0Y-22.5
X57.0Y-40.5
X57.0Y-58.5
X68.0Y-22.5
X68.0Y-40.5
X68.0Y-58.5
T2
X15.5Y-15.5
X15.5Y-68.5
X73.5Y-15.5
X73.5Y-68.5
T3
X26.5Y-22.5
X26.5Y-40.5
X26.5Y-58.5
X44.5Y-22.5
X44.5Y-40.5
X44.5Y-58.5
X62.5Y-22.5
X62.5Y-40.5
X62.5Y-58.5
M30
