%TF.GenerationSoftware,KiCad,Pcbnew,10.0.1*%
%TF.CreationDate,2026-05-25T16:05:46-07:00*%
%TF.ProjectId,ButtonMatrix3x3,42757474-6f6e-44d6-9174-726978337833,rev?*%
%TF.SameCoordinates,Original*%
%TF.FileFunction,Copper,L2,Bot*%
%TF.FilePolarity,Positive*%
%FSLAX46Y46*%
G04 Gerber Fmt 4.6, Leading zero omitted, Abs format (unit mm)*
G04 Created by KiCad (PCBNEW 10.0.1) date 2026-05-25 16:05:46*
%MOMM*%
%LPD*%
G01*
G04 APERTURE LIST*
G04 Aperture macros list*
%AMRoundRect*
0 Rectangle with rounded corners*
0 $1 Rounding radius*
0 $2 $3 $4 $5 $6 $7 $8 $9 X,Y pos of 4 corners*
0 Add a 4 corners polygon primitive as box body*
4,1,4,$2,$3,$4,$5,$6,$7,$8,$9,$2,$3,0*
0 Add four circle primitives for the rounded corners*
1,1,$1+$1,$2,$3*
1,1,$1+$1,$4,$5*
1,1,$1+$1,$6,$7*
1,1,$1+$1,$8,$9*
0 Add four rect primitives between the rounded corners*
20,1,$1+$1,$2,$3,$4,$5,0*
20,1,$1+$1,$4,$5,$6,$7,0*
20,1,$1+$1,$6,$7,$8,$9,0*
20,1,$1+$1,$8,$9,$2,$3,0*%
G04 Aperture macros list end*
%TA.AperFunction,ComponentPad*%
%ADD10C,3.300000*%
%TD*%
%TA.AperFunction,SMDPad,CuDef*%
%ADD11RoundRect,0.225000X-0.375000X0.225000X-0.375000X-0.225000X0.375000X-0.225000X0.375000X0.225000X0*%
%TD*%
%TA.AperFunction,SMDPad,CuDef*%
%ADD12RoundRect,0.200000X-0.200000X-0.275000X0.200000X-0.275000X0.200000X0.275000X-0.200000X0.275000X0*%
%TD*%
%TA.AperFunction,ComponentPad*%
%ADD13R,1.700000X1.700000*%
%TD*%
%TA.AperFunction,ComponentPad*%
%ADD14C,1.700000*%
%TD*%
%TA.AperFunction,ViaPad*%
%ADD15C,0.600000*%
%TD*%
%TA.AperFunction,Conductor*%
%ADD16C,0.200000*%
%TD*%
G04 APERTURE END LIST*
D10*
%TO.P,Choc6,1,1_1*%
%TO.N,Net-(D6-K)*%
X67500000Y-44250000D03*
%TO.P,Choc6,2,2_2*%
%TO.N,BUTTON_ROW_1*%
X62500000Y-46450000D03*
%TD*%
%TO.P,Choc9,1,1_1*%
%TO.N,Net-(D9-K)*%
X67500000Y-62250000D03*
%TO.P,Choc9,2,2_2*%
%TO.N,BUTTON_ROW_2*%
X62500000Y-64450000D03*
%TD*%
%TO.P,Choc4,1,1_1*%
%TO.N,Net-(D4-K)*%
X31500000Y-44250000D03*
%TO.P,Choc4,2,2_2*%
%TO.N,BUTTON_ROW_1*%
X26500000Y-46450000D03*
%TD*%
%TO.P,Choc5,1,1_1*%
%TO.N,Net-(D5-K)*%
X49500000Y-44250000D03*
%TO.P,Choc5,2,2_2*%
%TO.N,BUTTON_ROW_1*%
X44500000Y-46450000D03*
%TD*%
%TO.P,Choc8,1,1_1*%
%TO.N,Net-(D8-K)*%
X49500000Y-62250000D03*
%TO.P,Choc8,2,2_2*%
%TO.N,BUTTON_ROW_2*%
X44500000Y-64450000D03*
%TD*%
%TO.P,Choc1,1,1_1*%
%TO.N,Net-(D1-K)*%
X31500000Y-26250000D03*
%TO.P,Choc1,2,2_2*%
%TO.N,BUTTON_ROW_0*%
X26500000Y-28450000D03*
%TD*%
%TO.P,Choc3,1,1_1*%
%TO.N,Net-(D3-K)*%
X67500000Y-26250000D03*
%TO.P,Choc3,2,2_2*%
%TO.N,BUTTON_ROW_0*%
X62500000Y-28450000D03*
%TD*%
%TO.P,Choc2,1,1_1*%
%TO.N,Net-(D2-K)*%
X49500000Y-26250000D03*
%TO.P,Choc2,2,2_2*%
%TO.N,BUTTON_ROW_0*%
X44500000Y-28450000D03*
%TD*%
%TO.P,Choc7,1,1_1*%
%TO.N,Net-(D7-K)*%
X31500000Y-62250000D03*
%TO.P,Choc7,2,2_2*%
%TO.N,BUTTON_ROW_2*%
X26500000Y-64450000D03*
%TD*%
D11*
%TO.P,D8,1,K_1*%
%TO.N,Net-(D8-K)*%
X36000000Y-56850000D03*
%TO.P,D8,2,A_2*%
%TO.N,BUTTON_COL_1*%
X36000000Y-60150000D03*
%TD*%
%TO.P,D1,1,K_1*%
%TO.N,Net-(D1-K)*%
X18000000Y-20850000D03*
%TO.P,D1,2,A_2*%
%TO.N,BUTTON_COL_0*%
X18000000Y-24150000D03*
%TD*%
%TO.P,D2,1,K_1*%
%TO.N,Net-(D2-K)*%
X36000000Y-20850000D03*
%TO.P,D2,2,A_2*%
%TO.N,BUTTON_COL_1*%
X36000000Y-24150000D03*
%TD*%
%TO.P,D6,1,K_1*%
%TO.N,Net-(D6-K)*%
X54000000Y-38850000D03*
%TO.P,D6,2,A_2*%
%TO.N,BUTTON_COL_2*%
X54000000Y-42150000D03*
%TD*%
%TO.P,D9,1,K_1*%
%TO.N,Net-(D9-K)*%
X54000000Y-56850000D03*
%TO.P,D9,2,A_2*%
%TO.N,BUTTON_COL_2*%
X54000000Y-60150000D03*
%TD*%
D12*
%TO.P,R2,1*%
%TO.N,+3V3*%
X51175000Y-67000000D03*
%TO.P,R2,2*%
%TO.N,BUTTON_COL_1*%
X52825000Y-67000000D03*
%TD*%
D11*
%TO.P,D5,1,K_1*%
%TO.N,Net-(D5-K)*%
X36000000Y-38850000D03*
%TO.P,D5,2,A_2*%
%TO.N,BUTTON_COL_1*%
X36000000Y-42150000D03*
%TD*%
%TO.P,D3,1,K_1*%
%TO.N,Net-(D3-K)*%
X54000000Y-20850000D03*
%TO.P,D3,2,A_2*%
%TO.N,BUTTON_COL_2*%
X54000000Y-24150000D03*
%TD*%
%TO.P,D4,1,K_1*%
%TO.N,Net-(D4-K)*%
X18000000Y-38850000D03*
%TO.P,D4,2,A_2*%
%TO.N,BUTTON_COL_0*%
X18000000Y-42150000D03*
%TD*%
%TO.P,D7,1,K_1*%
%TO.N,Net-(D7-K)*%
X18000000Y-56850000D03*
%TO.P,D7,2,A_2*%
%TO.N,BUTTON_COL_0*%
X18000000Y-60150000D03*
%TD*%
D12*
%TO.P,R1,1*%
%TO.N,+3V3*%
X47175000Y-67000000D03*
%TO.P,R1,2*%
%TO.N,BUTTON_COL_0*%
X48825000Y-67000000D03*
%TD*%
%TO.P,R3,1*%
%TO.N,+3V3*%
X55175000Y-67000000D03*
%TO.P,R3,2*%
%TO.N,BUTTON_COL_2*%
X56825000Y-67000000D03*
%TD*%
D13*
%TO.P,J1,1,Pin_1_1*%
%TO.N,+3V3*%
X44500000Y-69500000D03*
D14*
%TO.P,J1,2,Pin_2_2*%
%TO.N,GND*%
X47040000Y-69500000D03*
%TO.P,J1,3,Pin_3_3*%
%TO.N,BUTTON_ROW_0*%
X49580000Y-69500000D03*
%TO.P,J1,4,Pin_4_4*%
%TO.N,BUTTON_ROW_1*%
X52120000Y-69500000D03*
%TO.P,J1,5,Pin_5_5*%
%TO.N,BUTTON_ROW_2*%
X54660000Y-69500000D03*
%TO.P,J1,6,Pin_6_6*%
%TO.N,BUTTON_COL_0*%
X57200000Y-69500000D03*
%TO.P,J1,7,Pin_7_7*%
%TO.N,BUTTON_COL_1*%
X59740000Y-69500000D03*
%TO.P,J1,8,Pin_8_8*%
%TO.N,BUTTON_COL_2*%
X62280000Y-69500000D03*
%TD*%
D15*
%TO.N,BUTTON_COL_2*%
X54000000Y-58600000D03*
X54000000Y-53400000D03*
%TO.N,BUTTON_COL_1*%
X37400000Y-60600000D03*
X52720000Y-60450000D03*
%TO.N,+3V3*%
X50400000Y-67000000D03*
X47800000Y-67000000D03*
X51520000Y-66000000D03*
X53800000Y-65775000D03*
%TO.N,BUTTON_COL_1*%
X54250000Y-67750000D03*
X58750000Y-69000000D03*
%TO.N,BUTTON_COL_2*%
X60250000Y-67750000D03*
X58000000Y-67000000D03*
%TD*%
%TO.N,BUTTON_COL_2*%
D16*
X54000000Y-42150000D02*
X54000000Y-53400000D01*
X54000000Y-58600000D02*
X54000000Y-60150000D01*
X54000000Y-24150000D02*
X53100000Y-25050000D01*
X53100000Y-25050000D02*
X53100000Y-41250000D01*
X53100000Y-41250000D02*
X54000000Y-42150000D01*
X54000000Y-60150000D02*
X54000000Y-64175000D01*
X54000000Y-64175000D02*
X56825000Y-67000000D01*
%TO.N,BUTTON_COL_1*%
X36450000Y-60600000D02*
X36000000Y-60150000D01*
X52825000Y-67000000D02*
X52800000Y-66974998D01*
X52720000Y-66894998D02*
X52720000Y-60450000D01*
X52800000Y-66974998D02*
X52720000Y-66894998D01*
X37400000Y-60600000D02*
X36450000Y-60600000D01*
%TO.N,+3V3*%
X53800000Y-65775000D02*
X54200000Y-65775000D01*
X54200000Y-65775000D02*
X55175000Y-66750000D01*
X55175000Y-66750000D02*
X55175000Y-67000000D01*
X47175000Y-67000000D02*
X47800000Y-67000000D01*
X50400000Y-67000000D02*
X51175000Y-67000000D01*
X51520000Y-66000000D02*
X51520000Y-66655000D01*
X51520000Y-66655000D02*
X51175000Y-67000000D01*
%TO.N,BUTTON_COL_0*%
X57200000Y-69500000D02*
X56050000Y-70650000D01*
X48430000Y-67395000D02*
X48825000Y-67000000D01*
X56050000Y-70650000D02*
X49103654Y-70650000D01*
X48430000Y-69976346D02*
X48430000Y-67395000D01*
X49103654Y-70650000D02*
X48430000Y-69976346D01*
%TO.N,BUTTON_COL_2*%
X58000000Y-67000000D02*
X56825000Y-67000000D01*
%TO.N,+3V3*%
X44500000Y-69500000D02*
X47000000Y-67000000D01*
X47000000Y-67000000D02*
X47175000Y-67000000D01*
%TO.N,BUTTON_COL_1*%
X54250000Y-67750000D02*
X53825000Y-67750000D01*
X53825000Y-67750000D02*
X53075000Y-67000000D01*
X53075000Y-67000000D02*
X52825000Y-67000000D01*
X59250000Y-69500000D02*
X58750000Y-69000000D01*
X59740000Y-69500000D02*
X59250000Y-69500000D01*
%TO.N,BUTTON_COL_2*%
X62280000Y-69500000D02*
X60530000Y-67750000D01*
X60530000Y-67750000D02*
X60250000Y-67750000D01*
%TO.N,BUTTON_ROW_2*%
X54660000Y-69500000D02*
X55810000Y-68350000D01*
X55810000Y-68350000D02*
X58600000Y-68350000D01*
X58600000Y-68350000D02*
X62500000Y-64450000D01*
%TO.N,BUTTON_ROW_1*%
X52120000Y-69500000D02*
X52120000Y-56830000D01*
X52120000Y-56830000D02*
X62500000Y-46450000D01*
%TO.N,Net-(D6-K)*%
X65850000Y-42600000D02*
X67500000Y-44250000D01*
X54000000Y-38850000D02*
X55200000Y-37650000D01*
X63680509Y-37650000D02*
X65850000Y-39819491D01*
X65850000Y-39819491D02*
X65850000Y-42600000D01*
X55200000Y-37650000D02*
X63680509Y-37650000D01*
%TO.N,Net-(D9-K)*%
X55200000Y-55650000D02*
X63680509Y-55650000D01*
X54000000Y-56850000D02*
X55200000Y-55650000D01*
X65850000Y-57819491D02*
X65850000Y-60600000D01*
X65850000Y-60600000D02*
X67500000Y-62250000D01*
X63680509Y-55650000D02*
X65850000Y-57819491D01*
%TO.N,Net-(D4-K)*%
X19200000Y-37650000D02*
X27680509Y-37650000D01*
X30500000Y-40469491D02*
X30500000Y-43250000D01*
X18000000Y-38850000D02*
X19200000Y-37650000D01*
X30500000Y-43250000D02*
X31500000Y-44250000D01*
X27680509Y-37650000D02*
X30500000Y-40469491D01*
%TO.N,Net-(D5-K)*%
X36000000Y-38850000D02*
X37200000Y-37650000D01*
X48250000Y-40219491D02*
X48250000Y-43000000D01*
X45680509Y-37650000D02*
X48250000Y-40219491D01*
X48250000Y-43000000D02*
X49500000Y-44250000D01*
X37200000Y-37650000D02*
X45680509Y-37650000D01*
%TO.N,Net-(D8-K)*%
X48500000Y-58469491D02*
X48500000Y-61250000D01*
X37200000Y-55650000D02*
X45680509Y-55650000D01*
X48500000Y-61250000D02*
X49500000Y-62250000D01*
X36000000Y-56850000D02*
X37200000Y-55650000D01*
X45680509Y-55650000D02*
X48500000Y-58469491D01*
%TO.N,Net-(D1-K)*%
X29850000Y-24600000D02*
X31500000Y-26250000D01*
X19200000Y-19650000D02*
X27680509Y-19650000D01*
X29850000Y-21819491D02*
X29850000Y-24600000D01*
X18000000Y-20850000D02*
X19200000Y-19650000D01*
X27680509Y-19650000D02*
X29850000Y-21819491D01*
%TO.N,Net-(D3-K)*%
X63680509Y-19650000D02*
X65850000Y-21819491D01*
X54000000Y-20850000D02*
X55200000Y-19650000D01*
X65850000Y-24600000D02*
X67500000Y-26250000D01*
X55200000Y-19650000D02*
X63680509Y-19650000D01*
X65850000Y-21819491D02*
X65850000Y-24600000D01*
%TO.N,Net-(D2-K)*%
X48800000Y-22769491D02*
X48800000Y-25550000D01*
X36000000Y-20850000D02*
X37200000Y-19650000D01*
X45680509Y-19650000D02*
X48800000Y-22769491D01*
X37200000Y-19650000D02*
X45680509Y-19650000D01*
X48800000Y-25550000D02*
X49500000Y-26250000D01*
%TO.N,Net-(D7-K)*%
X18000000Y-56850000D02*
X19200000Y-55650000D01*
X29850000Y-57819491D02*
X29850000Y-60600000D01*
X19200000Y-55650000D02*
X27680509Y-55650000D01*
X27680509Y-55650000D02*
X29850000Y-57819491D01*
X29850000Y-60600000D02*
X31500000Y-62250000D01*
%TO.N,BUTTON_COL_1*%
X34000000Y-58150000D02*
X36000000Y-60150000D01*
X36000000Y-24150000D02*
X35100000Y-25050000D01*
X35100000Y-41250000D02*
X36000000Y-42150000D01*
X34000000Y-44150000D02*
X34000000Y-58150000D01*
X36000000Y-42150000D02*
X34000000Y-44150000D01*
X35100000Y-25050000D02*
X35100000Y-41250000D01*
%TO.N,BUTTON_COL_0*%
X18000000Y-42150000D02*
X17100000Y-43050000D01*
X16500000Y-25650000D02*
X16500000Y-40650000D01*
X17100000Y-43050000D02*
X17100000Y-59250000D01*
X17100000Y-59250000D02*
X18000000Y-60150000D01*
X18000000Y-24150000D02*
X16500000Y-25650000D01*
X16500000Y-40650000D02*
X18000000Y-42150000D01*
%TO.N,BUTTON_ROW_0*%
X49580000Y-66538676D02*
X49580000Y-69500000D01*
X51450000Y-35400000D02*
X51450000Y-64668676D01*
X51450000Y-64668676D02*
X49580000Y-66538676D01*
X44500000Y-28450000D02*
X51450000Y-35400000D01*
%TO.N,BUTTON_COL_0*%
X48825000Y-67000000D02*
X48050000Y-66225000D01*
X48050000Y-66225000D02*
X45482717Y-66225000D01*
X45482717Y-66225000D02*
X45307717Y-66400000D01*
X45307717Y-66400000D02*
X24250000Y-66400000D01*
X24250000Y-66400000D02*
X18000000Y-60150000D01*
%TD*%
M02*
