%TF.GenerationSoftware,KiCad,Pcbnew,10.0.1*%
%TF.CreationDate,2026-06-07T05:50:28+01:00*%
%TF.ProjectId,ButtonMatrix3x3,42757474-6f6e-44d6-9174-726978337833,rev?*%
%TF.SameCoordinates,Original*%
%TF.FileFunction,Legend,Top*%
%TF.FilePolarity,Positive*%
%FSLAX46Y46*%
G04 Gerber Fmt 4.6, Leading zero omitted, Abs format (unit mm)*
G04 Created by KiCad (PCBNEW 10.0.1) date 2026-06-07 05:50:28*
%MOMM*%
%LPD*%
G01*
G04 APERTURE LIST*
G04 Aperture macros list*
%AMRoundRect*
0 Rectangle with rounded corners*
0 $1 Rounding radius*
0 $2 $3 $4 $5 $6 $7 $8 $9 X,Y pos of 4 corners*
0 Add a 4 corners polygon primitive as box body*
4,1,4,$2,$3,$4,$5,$6,$7,$8,$9,$2,$3,0*
0 Add four circle primitives for the rounded corners*
1,1,$1+$1,$2,$3*
1,1,$1+$1,$4,$5*
1,1,$1+$1,$6,$7*
1,1,$1+$1,$8,$9*
0 Add four rect primitives between the rounded corners*
20,1,$1+$1,$2,$3,$4,$5,0*
20,1,$1+$1,$4,$5,$6,$7,0*
20,1,$1+$1,$6,$7,$8,$9,0*
20,1,$1+$1,$8,$9,$2,$3,0*%
G04 Aperture macros list end*
%ADD10C,0.150000*%
%ADD11C,0.120000*%
%ADD12C,1.700000*%
%ADD13C,5.000000*%
%ADD14C,3.300000*%
%ADD15RoundRect,0.260000X-1.065000X-1.040000X1.065000X-1.040000X1.065000X1.040000X-1.065000X1.040000X0*%
%ADD16C,3.200000*%
%ADD17R,1.700000X1.700000*%
G04 APERTURE END LIST*
D10*
X72166666Y-11804819D02*
X71833333Y-11328628D01*
X71595238Y-11804819D02*
X71595238Y-10804819D01*
X71595238Y-10804819D02*
X71976190Y-10804819D01*
X71976190Y-10804819D02*
X72071428Y-10852438D01*
X72071428Y-10852438D02*
X72119047Y-10900057D01*
X72119047Y-10900057D02*
X72166666Y-10995295D01*
X72166666Y-10995295D02*
X72166666Y-11138152D01*
X72166666Y-11138152D02*
X72119047Y-11233390D01*
X72119047Y-11233390D02*
X72071428Y-11281009D01*
X72071428Y-11281009D02*
X71976190Y-11328628D01*
X71976190Y-11328628D02*
X71595238Y-11328628D01*
X72595238Y-11281009D02*
X72928571Y-11281009D01*
X73071428Y-11804819D02*
X72595238Y-11804819D01*
X72595238Y-11804819D02*
X72595238Y-10804819D01*
X72595238Y-10804819D02*
X73071428Y-10804819D01*
X73833333Y-11281009D02*
X73500000Y-11281009D01*
X73500000Y-11804819D02*
X73500000Y-10804819D01*
X73500000Y-10804819D02*
X73976190Y-10804819D01*
X74500000Y-10804819D02*
X74500000Y-11042914D01*
X74261905Y-10947676D02*
X74500000Y-11042914D01*
X74500000Y-11042914D02*
X74738095Y-10947676D01*
X74357143Y-11233390D02*
X74500000Y-11042914D01*
X74500000Y-11042914D02*
X74642857Y-11233390D01*
X75261905Y-10804819D02*
X75261905Y-11042914D01*
X75023810Y-10947676D02*
X75261905Y-11042914D01*
X75261905Y-11042914D02*
X75500000Y-10947676D01*
X75119048Y-11233390D02*
X75261905Y-11042914D01*
X75261905Y-11042914D02*
X75404762Y-11233390D01*
X14166666Y-64804819D02*
X13833333Y-64328628D01*
X13595238Y-64804819D02*
X13595238Y-63804819D01*
X13595238Y-63804819D02*
X13976190Y-63804819D01*
X13976190Y-63804819D02*
X14071428Y-63852438D01*
X14071428Y-63852438D02*
X14119047Y-63900057D01*
X14119047Y-63900057D02*
X14166666Y-63995295D01*
X14166666Y-63995295D02*
X14166666Y-64138152D01*
X14166666Y-64138152D02*
X14119047Y-64233390D01*
X14119047Y-64233390D02*
X14071428Y-64281009D01*
X14071428Y-64281009D02*
X13976190Y-64328628D01*
X13976190Y-64328628D02*
X13595238Y-64328628D01*
X14595238Y-64281009D02*
X14928571Y-64281009D01*
X15071428Y-64804819D02*
X14595238Y-64804819D01*
X14595238Y-64804819D02*
X14595238Y-63804819D01*
X14595238Y-63804819D02*
X15071428Y-63804819D01*
X15833333Y-64281009D02*
X15500000Y-64281009D01*
X15500000Y-64804819D02*
X15500000Y-63804819D01*
X15500000Y-63804819D02*
X15976190Y-63804819D01*
X16500000Y-63804819D02*
X16500000Y-64042914D01*
X16261905Y-63947676D02*
X16500000Y-64042914D01*
X16500000Y-64042914D02*
X16738095Y-63947676D01*
X16357143Y-64233390D02*
X16500000Y-64042914D01*
X16500000Y-64042914D02*
X16642857Y-64233390D01*
X17261905Y-63804819D02*
X17261905Y-64042914D01*
X17023810Y-63947676D02*
X17261905Y-64042914D01*
X17261905Y-64042914D02*
X17500000Y-63947676D01*
X17119048Y-64233390D02*
X17261905Y-64042914D01*
X17261905Y-64042914D02*
X17404762Y-64233390D01*
X14166666Y-11804819D02*
X13833333Y-11328628D01*
X13595238Y-11804819D02*
X13595238Y-10804819D01*
X13595238Y-10804819D02*
X13976190Y-10804819D01*
X13976190Y-10804819D02*
X14071428Y-10852438D01*
X14071428Y-10852438D02*
X14119047Y-10900057D01*
X14119047Y-10900057D02*
X14166666Y-10995295D01*
X14166666Y-10995295D02*
X14166666Y-11138152D01*
X14166666Y-11138152D02*
X14119047Y-11233390D01*
X14119047Y-11233390D02*
X14071428Y-11281009D01*
X14071428Y-11281009D02*
X13976190Y-11328628D01*
X13976190Y-11328628D02*
X13595238Y-11328628D01*
X14595238Y-11281009D02*
X14928571Y-11281009D01*
X15071428Y-11804819D02*
X14595238Y-11804819D01*
X14595238Y-11804819D02*
X14595238Y-10804819D01*
X14595238Y-10804819D02*
X15071428Y-10804819D01*
X15833333Y-11281009D02*
X15500000Y-11281009D01*
X15500000Y-11804819D02*
X15500000Y-10804819D01*
X15500000Y-10804819D02*
X15976190Y-10804819D01*
X16500000Y-10804819D02*
X16500000Y-11042914D01*
X16261905Y-10947676D02*
X16500000Y-11042914D01*
X16500000Y-11042914D02*
X16738095Y-10947676D01*
X16357143Y-11233390D02*
X16500000Y-11042914D01*
X16500000Y-11042914D02*
X16642857Y-11233390D01*
X17261905Y-10804819D02*
X17261905Y-11042914D01*
X17023810Y-10947676D02*
X17261905Y-11042914D01*
X17261905Y-11042914D02*
X17500000Y-10947676D01*
X17119048Y-11233390D02*
X17261905Y-11042914D01*
X17261905Y-11042914D02*
X17404762Y-11233390D01*
X72166666Y-64804819D02*
X71833333Y-64328628D01*
X71595238Y-64804819D02*
X71595238Y-63804819D01*
X71595238Y-63804819D02*
X71976190Y-63804819D01*
X71976190Y-63804819D02*
X72071428Y-63852438D01*
X72071428Y-63852438D02*
X72119047Y-63900057D01*
X72119047Y-63900057D02*
X72166666Y-63995295D01*
X72166666Y-63995295D02*
X72166666Y-64138152D01*
X72166666Y-64138152D02*
X72119047Y-64233390D01*
X72119047Y-64233390D02*
X72071428Y-64281009D01*
X72071428Y-64281009D02*
X71976190Y-64328628D01*
X71976190Y-64328628D02*
X71595238Y-64328628D01*
X72595238Y-64281009D02*
X72928571Y-64281009D01*
X73071428Y-64804819D02*
X72595238Y-64804819D01*
X72595238Y-64804819D02*
X72595238Y-63804819D01*
X72595238Y-63804819D02*
X73071428Y-63804819D01*
X73833333Y-64281009D02*
X73500000Y-64281009D01*
X73500000Y-64804819D02*
X73500000Y-63804819D01*
X73500000Y-63804819D02*
X73976190Y-63804819D01*
X74500000Y-63804819D02*
X74500000Y-64042914D01*
X74261905Y-63947676D02*
X74500000Y-64042914D01*
X74500000Y-64042914D02*
X74738095Y-63947676D01*
X74357143Y-64233390D02*
X74500000Y-64042914D01*
X74500000Y-64042914D02*
X74642857Y-64233390D01*
X75261905Y-63804819D02*
X75261905Y-64042914D01*
X75023810Y-63947676D02*
X75261905Y-64042914D01*
X75261905Y-64042914D02*
X75500000Y-63947676D01*
X75119048Y-64233390D02*
X75261905Y-64042914D01*
X75261905Y-64042914D02*
X75404762Y-64233390D01*
%TO.C,Choc6*%
D11*
X60200000Y-47975000D02*
X61000000Y-48775000D01*
X61000000Y-44125000D02*
X60200000Y-44925000D01*
X61000000Y-44125000D02*
X62000000Y-44125000D01*
X61000000Y-48775000D02*
X62000000Y-48775000D01*
X70004000Y-41975000D02*
X69004000Y-41975000D01*
X70004000Y-41975000D02*
X70004000Y-42675000D01*
X69750000Y-45825000D02*
G75*
G02*
X68950000Y-46625000I-800000J0D01*
G01*
%TO.C,Choc9*%
X60200000Y-65975000D02*
X61000000Y-66775000D01*
X61000000Y-62125000D02*
X60200000Y-62925000D01*
X61000000Y-62125000D02*
X62000000Y-62125000D01*
X61000000Y-66775000D02*
X62000000Y-66775000D01*
X70004000Y-59975000D02*
X69004000Y-59975000D01*
X70004000Y-59975000D02*
X70004000Y-60675000D01*
X69750000Y-63825000D02*
G75*
G02*
X68950000Y-64625000I-800000J0D01*
G01*
%TO.C,Choc4*%
X24200000Y-47975000D02*
X25000000Y-48775000D01*
X25000000Y-44125000D02*
X24200000Y-44925000D01*
X25000000Y-44125000D02*
X26000000Y-44125000D01*
X25000000Y-48775000D02*
X26000000Y-48775000D01*
X34004000Y-41975000D02*
X33004000Y-41975000D01*
X34004000Y-41975000D02*
X34004000Y-42675000D01*
X33750000Y-45825000D02*
G75*
G02*
X32950000Y-46625000I-800000J0D01*
G01*
%TO.C,Choc5*%
X42200000Y-47975000D02*
X43000000Y-48775000D01*
X43000000Y-44125000D02*
X42200000Y-44925000D01*
X43000000Y-44125000D02*
X44000000Y-44125000D01*
X43000000Y-48775000D02*
X44000000Y-48775000D01*
X52004000Y-41975000D02*
X51004000Y-41975000D01*
X52004000Y-41975000D02*
X52004000Y-42675000D01*
X51750000Y-45825000D02*
G75*
G02*
X50950000Y-46625000I-800000J0D01*
G01*
%TO.C,Choc8*%
X42200000Y-65975000D02*
X43000000Y-66775000D01*
X43000000Y-62125000D02*
X42200000Y-62925000D01*
X43000000Y-62125000D02*
X44000000Y-62125000D01*
X43000000Y-66775000D02*
X44000000Y-66775000D01*
X52004000Y-59975000D02*
X51004000Y-59975000D01*
X52004000Y-59975000D02*
X52004000Y-60675000D01*
X51750000Y-63825000D02*
G75*
G02*
X50950000Y-64625000I-800000J0D01*
G01*
%TO.C,Choc1*%
X24200000Y-29975000D02*
X25000000Y-30775000D01*
X25000000Y-26125000D02*
X24200000Y-26925000D01*
X25000000Y-26125000D02*
X26000000Y-26125000D01*
X25000000Y-30775000D02*
X26000000Y-30775000D01*
X34004000Y-23975000D02*
X33004000Y-23975000D01*
X34004000Y-23975000D02*
X34004000Y-24675000D01*
X33750000Y-27825000D02*
G75*
G02*
X32950000Y-28625000I-800000J0D01*
G01*
%TO.C,Choc3*%
X60200000Y-29975000D02*
X61000000Y-30775000D01*
X61000000Y-26125000D02*
X60200000Y-26925000D01*
X61000000Y-26125000D02*
X62000000Y-26125000D01*
X61000000Y-30775000D02*
X62000000Y-30775000D01*
X70004000Y-23975000D02*
X69004000Y-23975000D01*
X70004000Y-23975000D02*
X70004000Y-24675000D01*
X69750000Y-27825000D02*
G75*
G02*
X68950000Y-28625000I-800000J0D01*
G01*
%TO.C,Choc2*%
X42200000Y-29975000D02*
X43000000Y-30775000D01*
X43000000Y-26125000D02*
X42200000Y-26925000D01*
X43000000Y-26125000D02*
X44000000Y-26125000D01*
X43000000Y-30775000D02*
X44000000Y-30775000D01*
X52004000Y-23975000D02*
X51004000Y-23975000D01*
X52004000Y-23975000D02*
X52004000Y-24675000D01*
X51750000Y-27825000D02*
G75*
G02*
X50950000Y-28625000I-800000J0D01*
G01*
%TO.C,Choc7*%
X24200000Y-65975000D02*
X25000000Y-66775000D01*
X25000000Y-62125000D02*
X24200000Y-62925000D01*
X25000000Y-62125000D02*
X26000000Y-62125000D01*
X25000000Y-66775000D02*
X26000000Y-66775000D01*
X34004000Y-59975000D02*
X33004000Y-59975000D01*
X34004000Y-59975000D02*
X34004000Y-60675000D01*
X33750000Y-63825000D02*
G75*
G02*
X32950000Y-64625000I-800000J0D01*
G01*
%TD*%
%LPC*%
D12*
%TO.C,Choc6*%
X57000000Y-40500000D03*
D13*
X62500000Y-40500000D03*
D12*
X68000000Y-40500000D03*
D14*
X67500000Y-44250000D03*
D15*
X70745000Y-44250000D03*
X59255000Y-46450000D03*
D14*
X62500000Y-46450000D03*
%TD*%
D12*
%TO.C,Choc9*%
X57000000Y-58500000D03*
D13*
X62500000Y-58500000D03*
D12*
X68000000Y-58500000D03*
D14*
X67500000Y-62250000D03*
D15*
X70745000Y-62250000D03*
X59255000Y-64450000D03*
D14*
X62500000Y-64450000D03*
%TD*%
D16*
%TO.C,REF\u002A\u002A*%
X73500000Y-15500000D03*
%TD*%
%TO.C,REF\u002A\u002A*%
X15500000Y-68500000D03*
%TD*%
D12*
%TO.C,Choc4*%
X21000000Y-40500000D03*
D13*
X26500000Y-40500000D03*
D12*
X32000000Y-40500000D03*
D14*
X31500000Y-44250000D03*
D15*
X34745000Y-44250000D03*
X23255000Y-46450000D03*
D14*
X26500000Y-46450000D03*
%TD*%
D12*
%TO.C,Choc5*%
X39000000Y-40500000D03*
D13*
X44500000Y-40500000D03*
D12*
X50000000Y-40500000D03*
D14*
X49500000Y-44250000D03*
D15*
X52745000Y-44250000D03*
X41255000Y-46450000D03*
D14*
X44500000Y-46450000D03*
%TD*%
D16*
%TO.C,REF\u002A\u002A*%
X15500000Y-15500000D03*
%TD*%
D12*
%TO.C,Choc8*%
X39000000Y-58500000D03*
D13*
X44500000Y-58500000D03*
D12*
X50000000Y-58500000D03*
D14*
X49500000Y-62250000D03*
D15*
X52745000Y-62250000D03*
X41255000Y-64450000D03*
D14*
X44500000Y-64450000D03*
%TD*%
D12*
%TO.C,Choc1*%
X21000000Y-22500000D03*
D13*
X26500000Y-22500000D03*
D12*
X32000000Y-22500000D03*
D14*
X31500000Y-26250000D03*
D15*
X34745000Y-26250000D03*
X23255000Y-28450000D03*
D14*
X26500000Y-28450000D03*
%TD*%
D12*
%TO.C,Choc3*%
X57000000Y-22500000D03*
D13*
X62500000Y-22500000D03*
D12*
X68000000Y-22500000D03*
D14*
X67500000Y-26250000D03*
D15*
X70745000Y-26250000D03*
X59255000Y-28450000D03*
D14*
X62500000Y-28450000D03*
%TD*%
D16*
%TO.C,REF\u002A\u002A*%
X73500000Y-68500000D03*
%TD*%
D12*
%TO.C,Choc2*%
X39000000Y-22500000D03*
D13*
X44500000Y-22500000D03*
D12*
X50000000Y-22500000D03*
D14*
X49500000Y-26250000D03*
D15*
X52745000Y-26250000D03*
X41255000Y-28450000D03*
D14*
X44500000Y-28450000D03*
%TD*%
D12*
%TO.C,Choc7*%
X21000000Y-58500000D03*
D13*
X26500000Y-58500000D03*
D12*
X32000000Y-58500000D03*
D14*
X31500000Y-62250000D03*
D15*
X34745000Y-62250000D03*
X23255000Y-64450000D03*
D14*
X26500000Y-64450000D03*
%TD*%
D17*
%TO.C,J1*%
X44500000Y-69500000D03*
D12*
X47040000Y-69500000D03*
X49580000Y-69500000D03*
X52120000Y-69500000D03*
X54660000Y-69500000D03*
X57200000Y-69500000D03*
X59740000Y-69500000D03*
X62280000Y-69500000D03*
%TD*%
%LPD*%
M02*
