M48
; DRILL file KiCad 10.0.1 date 2026-05-25T16:05:49
; FORMAT={-:-/ absolute / metric / decimal}
; #@! TF.CreationDate,2026-05-25T16:05:49-07:00
; #@! TF.GenerationSoftware,Kicad,Pcbnew,10.0.1
; #@! TF.FileFunction,Plated,1,2,PTH
FMAT,2
METRIC
; #@! TA.AperFunction,Plated,PTH,ViaDrill
T1C0.300
; #@! TA.AperFunction,Plated,PTH,ComponentDrill
T2C1.000
; #@! TA.AperFunction,Plated,PTH,ComponentDrill
T3C3.000
%
G90
G05
T1
X37.4Y-60.6
X47.8Y-67.0
X50.4Y-67.0
X51.52Y-66.0
X52.72Y-60.45
X53.8Y-65.775
X54.0Y-53.4
X54.0Y-58.6
X54.25Y-67.75
X58.0Y-67.0
X58.75Y-69.0
X60.25Y-67.75
T2
X44.5Y-69.5
X47.04Y-69.5
X49.58Y-69.5
X52.12Y-69.5
X54.66Y-69.5
X57.2Y-69.5
X59.74Y-69.5
X62.28Y-69.5
T3
X26.5Y-28.45
X26.5Y-46.45
X26.5Y-64.45
X31.5Y-26.25
X31.5Y-44.25
X31.5Y-62.25
X44.5Y-28.45
X44.5Y-46.45
X44.5Y-64.45
X49.5Y-26.25
X49.5Y-44.25
X49.5Y-62.25
X62.5Y-28.45
X62.5Y-46.45
X62.5Y-64.45
X67.5Y-26.25
X67.5Y-44.25
X67.5Y-62.25
M30
