%TF.GenerationSoftware,KiCad,Pcbnew,10.0.1*%
%TF.CreationDate,2026-05-25T16:05:46-07:00*%
%TF.ProjectId,ButtonMatrix3x3,42757474-6f6e-44d6-9174-726978337833,rev?*%
%TF.SameCoordinates,Original*%
%TF.FileFunction,Soldermask,Top*%
%TF.FilePolarity,Negative*%
%FSLAX46Y46*%
G04 Gerber Fmt 4.6, Leading zero omitted, Abs format (unit mm)*
G04 Created by KiCad (PCBNEW 10.0.1) date 2026-05-25 16:05:46*
%MOMM*%
%LPD*%
G01*
G04 APERTURE LIST*
G04 Aperture macros list*
%AMRoundRect*
0 Rectangle with rounded corners*
0 $1 Rounding radius*
0 $2 $3 $4 $5 $6 $7 $8 $9 X,Y pos of 4 corners*
0 Add a 4 corners polygon primitive as box body*
4,1,4,$2,$3,$4,$5,$6,$7,$8,$9,$2,$3,0*
0 Add four circle primitives for the rounded corners*
1,1,$1+$1,$2,$3*
1,1,$1+$1,$4,$5*
1,1,$1+$1,$6,$7*
1,1,$1+$1,$8,$9*
0 Add four rect primitives between the rounded corners*
20,1,$1+$1,$2,$3,$4,$5,0*
20,1,$1+$1,$4,$5,$6,$7,0*
20,1,$1+$1,$6,$7,$8,$9,0*
20,1,$1+$1,$8,$9,$2,$3,0*%
G04 Aperture macros list end*
%ADD10C,1.700000*%
%ADD11C,5.000000*%
%ADD12C,3.300000*%
%ADD13RoundRect,0.260000X-1.065000X-1.040000X1.065000X-1.040000X1.065000X1.040000X-1.065000X1.040000X0*%
%ADD14C,3.200000*%
%ADD15R,1.700000X1.700000*%
G04 APERTURE END LIST*
D10*
%TO.C,Choc6*%
X57000000Y-40500000D03*
D11*
X62500000Y-40500000D03*
D10*
X68000000Y-40500000D03*
D12*
X67500000Y-44250000D03*
D13*
X70745000Y-44250000D03*
X59255000Y-46450000D03*
D12*
X62500000Y-46450000D03*
%TD*%
D10*
%TO.C,Choc9*%
X57000000Y-58500000D03*
D11*
X62500000Y-58500000D03*
D10*
X68000000Y-58500000D03*
D12*
X67500000Y-62250000D03*
D13*
X70745000Y-62250000D03*
X59255000Y-64450000D03*
D12*
X62500000Y-64450000D03*
%TD*%
D14*
%TO.C,REF\u002A\u002A*%
X73500000Y-15500000D03*
%TD*%
%TO.C,REF\u002A\u002A*%
X15500000Y-68500000D03*
%TD*%
D10*
%TO.C,Choc4*%
X21000000Y-40500000D03*
D11*
X26500000Y-40500000D03*
D10*
X32000000Y-40500000D03*
D12*
X31500000Y-44250000D03*
D13*
X34745000Y-44250000D03*
X23255000Y-46450000D03*
D12*
X26500000Y-46450000D03*
%TD*%
D10*
%TO.C,Choc5*%
X39000000Y-40500000D03*
D11*
X44500000Y-40500000D03*
D10*
X50000000Y-40500000D03*
D12*
X49500000Y-44250000D03*
D13*
X52745000Y-44250000D03*
X41255000Y-46450000D03*
D12*
X44500000Y-46450000D03*
%TD*%
D14*
%TO.C,REF\u002A\u002A*%
X15500000Y-15500000D03*
%TD*%
D10*
%TO.C,Choc8*%
X39000000Y-58500000D03*
D11*
X44500000Y-58500000D03*
D10*
X50000000Y-58500000D03*
D12*
X49500000Y-62250000D03*
D13*
X52745000Y-62250000D03*
X41255000Y-64450000D03*
D12*
X44500000Y-64450000D03*
%TD*%
D10*
%TO.C,Choc1*%
X21000000Y-22500000D03*
D11*
X26500000Y-22500000D03*
D10*
X32000000Y-22500000D03*
D12*
X31500000Y-26250000D03*
D13*
X34745000Y-26250000D03*
X23255000Y-28450000D03*
D12*
X26500000Y-28450000D03*
%TD*%
D10*
%TO.C,Choc3*%
X57000000Y-22500000D03*
D11*
X62500000Y-22500000D03*
D10*
X68000000Y-22500000D03*
D12*
X67500000Y-26250000D03*
D13*
X70745000Y-26250000D03*
X59255000Y-28450000D03*
D12*
X62500000Y-28450000D03*
%TD*%
D14*
%TO.C,REF\u002A\u002A*%
X73500000Y-68500000D03*
%TD*%
D10*
%TO.C,Choc2*%
X39000000Y-22500000D03*
D11*
X44500000Y-22500000D03*
D10*
X50000000Y-22500000D03*
D12*
X49500000Y-26250000D03*
D13*
X52745000Y-26250000D03*
X41255000Y-28450000D03*
D12*
X44500000Y-28450000D03*
%TD*%
D10*
%TO.C,Choc7*%
X21000000Y-58500000D03*
D11*
X26500000Y-58500000D03*
D10*
X32000000Y-58500000D03*
D12*
X31500000Y-62250000D03*
D13*
X34745000Y-62250000D03*
X23255000Y-64450000D03*
D12*
X26500000Y-64450000D03*
%TD*%
D15*
%TO.C,J1*%
X44500000Y-69500000D03*
D10*
X47040000Y-69500000D03*
X49580000Y-69500000D03*
X52120000Y-69500000D03*
X54660000Y-69500000D03*
X57200000Y-69500000D03*
X59740000Y-69500000D03*
X62280000Y-69500000D03*
%TD*%
M02*
