%TF.GenerationSoftware,KiCad,Pcbnew,10.0.1*%
%TF.CreationDate,2026-05-25T16:05:46-07:00*%
%TF.ProjectId,ButtonMatrix3x3,42757474-6f6e-44d6-9174-726978337833,rev?*%
%TF.SameCoordinates,Original*%
%TF.FileFunction,Copper,L1,Top*%
%TF.FilePolarity,Positive*%
%FSLAX46Y46*%
G04 Gerber Fmt 4.6, Leading zero omitted, Abs format (unit mm)*
G04 Created by KiCad (PCBNEW 10.0.1) date 2026-05-25 16:05:46*
%MOMM*%
%LPD*%
G01*
G04 APERTURE LIST*
G04 Aperture macros list*
%AMRoundRect*
0 Rectangle with rounded corners*
0 $1 Rounding radius*
0 $2 $3 $4 $5 $6 $7 $8 $9 X,Y pos of 4 corners*
0 Add a 4 corners polygon primitive as box body*
4,1,4,$2,$3,$4,$5,$6,$7,$8,$9,$2,$3,0*
0 Add four circle primitives for the rounded corners*
1,1,$1+$1,$2,$3*
1,1,$1+$1,$4,$5*
1,1,$1+$1,$6,$7*
1,1,$1+$1,$8,$9*
0 Add four rect primitives between the rounded corners*
20,1,$1+$1,$2,$3,$4,$5,0*
20,1,$1+$1,$4,$5,$6,$7,0*
20,1,$1+$1,$6,$7,$8,$9,0*
20,1,$1+$1,$8,$9,$2,$3,0*%
G04 Aperture macros list end*
%ADD10C,0.300000*%
%TA.AperFunction,NonConductor*%
%ADD11C,0.300000*%
%TD*%
%TA.AperFunction,ComponentPad*%
%ADD12C,3.300000*%
%TD*%
%TA.AperFunction,SMDPad,CuDef*%
%ADD13R,1.200000X2.600000*%
%TD*%
%TA.AperFunction,SMDPad,CuDef*%
%ADD14RoundRect,0.260000X-1.065000X-1.040000X1.065000X-1.040000X1.065000X1.040000X-1.065000X1.040000X0*%
%TD*%
%TA.AperFunction,ComponentPad*%
%ADD15R,1.700000X1.700000*%
%TD*%
%TA.AperFunction,ComponentPad*%
%ADD16C,1.700000*%
%TD*%
%TA.AperFunction,ViaPad*%
%ADD17C,0.600000*%
%TD*%
%TA.AperFunction,Conductor*%
%ADD18C,0.200000*%
%TD*%
G04 APERTURE END LIST*
D10*
D11*
X23304510Y-70407971D02*
X23375939Y-70479400D01*
X23375939Y-70479400D02*
X23304510Y-70550828D01*
X23304510Y-70550828D02*
X23233082Y-70479400D01*
X23233082Y-70479400D02*
X23304510Y-70407971D01*
X23304510Y-70407971D02*
X23304510Y-70550828D01*
X23304510Y-69622257D02*
X23375939Y-69693685D01*
X23375939Y-69693685D02*
X23304510Y-69765114D01*
X23304510Y-69765114D02*
X23233082Y-69693685D01*
X23233082Y-69693685D02*
X23304510Y-69622257D01*
X23304510Y-69622257D02*
X23304510Y-69765114D01*
X23875939Y-71122257D02*
X23947368Y-71050828D01*
X23947368Y-71050828D02*
X24090225Y-70836542D01*
X24090225Y-70836542D02*
X24161654Y-70693685D01*
X24161654Y-70693685D02*
X24233082Y-70479400D01*
X24233082Y-70479400D02*
X24304511Y-70122257D01*
X24304511Y-70122257D02*
X24304511Y-69836542D01*
X24304511Y-69836542D02*
X24233082Y-69479400D01*
X24233082Y-69479400D02*
X24161654Y-69265114D01*
X24161654Y-69265114D02*
X24090225Y-69122257D01*
X24090225Y-69122257D02*
X23947368Y-68907971D01*
X23947368Y-68907971D02*
X23875939Y-68836542D01*
D12*
%TO.P,Choc6,1,1_1*%
%TO.N,Net-(D6-K)*%
X67500000Y-44250000D03*
D13*
X69050000Y-44250000D03*
D14*
X70745000Y-44250000D03*
%TO.P,Choc6,2,2_2*%
%TO.N,BUTTON_ROW_1*%
X59255000Y-46450000D03*
D13*
X60950000Y-46450000D03*
D12*
X62500000Y-46450000D03*
%TD*%
%TO.P,Choc9,1,1_1*%
%TO.N,Net-(D9-K)*%
X67500000Y-62250000D03*
D13*
X69050000Y-62250000D03*
D14*
X70745000Y-62250000D03*
%TO.P,Choc9,2,2_2*%
%TO.N,BUTTON_ROW_2*%
X59255000Y-64450000D03*
D13*
X60950000Y-64450000D03*
D12*
X62500000Y-64450000D03*
%TD*%
%TO.P,Choc4,1,1_1*%
%TO.N,Net-(D4-K)*%
X31500000Y-44250000D03*
D13*
X33050000Y-44250000D03*
D14*
X34745000Y-44250000D03*
%TO.P,Choc4,2,2_2*%
%TO.N,BUTTON_ROW_1*%
X23255000Y-46450000D03*
D13*
X24950000Y-46450000D03*
D12*
X26500000Y-46450000D03*
%TD*%
%TO.P,Choc5,1,1_1*%
%TO.N,Net-(D5-K)*%
X49500000Y-44250000D03*
D13*
X51050000Y-44250000D03*
D14*
X52745000Y-44250000D03*
%TO.P,Choc5,2,2_2*%
%TO.N,BUTTON_ROW_1*%
X41255000Y-46450000D03*
D13*
X42950000Y-46450000D03*
D12*
X44500000Y-46450000D03*
%TD*%
%TO.P,Choc8,1,1_1*%
%TO.N,Net-(D8-K)*%
X49500000Y-62250000D03*
D13*
X51050000Y-62250000D03*
D14*
X52745000Y-62250000D03*
%TO.P,Choc8,2,2_2*%
%TO.N,BUTTON_ROW_2*%
X41255000Y-64450000D03*
D13*
X42950000Y-64450000D03*
D12*
X44500000Y-64450000D03*
%TD*%
%TO.P,Choc1,1,1_1*%
%TO.N,Net-(D1-K)*%
X31500000Y-26250000D03*
D13*
X33050000Y-26250000D03*
D14*
X34745000Y-26250000D03*
%TO.P,Choc1,2,2_2*%
%TO.N,BUTTON_ROW_0*%
X23255000Y-28450000D03*
D13*
X24950000Y-28450000D03*
D12*
X26500000Y-28450000D03*
%TD*%
%TO.P,Choc3,1,1_1*%
%TO.N,Net-(D3-K)*%
X67500000Y-26250000D03*
D13*
X69050000Y-26250000D03*
D14*
X70745000Y-26250000D03*
%TO.P,Choc3,2,2_2*%
%TO.N,BUTTON_ROW_0*%
X59255000Y-28450000D03*
D13*
X60950000Y-28450000D03*
D12*
X62500000Y-28450000D03*
%TD*%
%TO.P,Choc2,1,1_1*%
%TO.N,Net-(D2-K)*%
X49500000Y-26250000D03*
D13*
X51050000Y-26250000D03*
D14*
X52745000Y-26250000D03*
%TO.P,Choc2,2,2_2*%
%TO.N,BUTTON_ROW_0*%
X41255000Y-28450000D03*
D13*
X42950000Y-28450000D03*
D12*
X44500000Y-28450000D03*
%TD*%
%TO.P,Choc7,1,1_1*%
%TO.N,Net-(D7-K)*%
X31500000Y-62250000D03*
D13*
X33050000Y-62250000D03*
D14*
X34745000Y-62250000D03*
%TO.P,Choc7,2,2_2*%
%TO.N,BUTTON_ROW_2*%
X23255000Y-64450000D03*
D13*
X24950000Y-64450000D03*
D12*
X26500000Y-64450000D03*
%TD*%
D15*
%TO.P,J1,1,Pin_1_1*%
%TO.N,+3V3*%
X44500000Y-69500000D03*
D16*
%TO.P,J1,2,Pin_2_2*%
%TO.N,GND*%
X47040000Y-69500000D03*
%TO.P,J1,3,Pin_3_3*%
%TO.N,BUTTON_ROW_0*%
X49580000Y-69500000D03*
%TO.P,J1,4,Pin_4_4*%
%TO.N,BUTTON_ROW_1*%
X52120000Y-69500000D03*
%TO.P,J1,5,Pin_5_5*%
%TO.N,BUTTON_ROW_2*%
X54660000Y-69500000D03*
%TO.P,J1,6,Pin_6_6*%
%TO.N,BUTTON_COL_0*%
X57200000Y-69500000D03*
%TO.P,J1,7,Pin_7_7*%
%TO.N,BUTTON_COL_1*%
X59740000Y-69500000D03*
%TO.P,J1,8,Pin_8_8*%
%TO.N,BUTTON_COL_2*%
X62280000Y-69500000D03*
%TD*%
D17*
%TO.N,BUTTON_COL_2*%
X54000000Y-58600000D03*
X54000000Y-53400000D03*
%TO.N,BUTTON_COL_1*%
X37400000Y-60600000D03*
X52720000Y-60450000D03*
%TO.N,+3V3*%
X50400000Y-67000000D03*
X47800000Y-67000000D03*
X51520000Y-66000000D03*
X53800000Y-65775000D03*
%TO.N,BUTTON_COL_1*%
X54250000Y-67750000D03*
X58750000Y-69000000D03*
%TO.N,BUTTON_COL_2*%
X60250000Y-67750000D03*
X58000000Y-67000000D03*
%TD*%
%TO.N,BUTTON_COL_2*%
D18*
X54000000Y-53400000D02*
X54000000Y-58600000D01*
%TO.N,BUTTON_COL_1*%
X46850000Y-61350000D02*
X38150000Y-61350000D01*
X48400000Y-59800000D02*
X46850000Y-61350000D01*
X52070000Y-59800000D02*
X48400000Y-59800000D01*
X38150000Y-61350000D02*
X37400000Y-60600000D01*
X52720000Y-60450000D02*
X52070000Y-59800000D01*
%TO.N,+3V3*%
X53800000Y-65775000D02*
X51745000Y-65775000D01*
X51745000Y-65775000D02*
X51520000Y-66000000D01*
X47800000Y-67000000D02*
X50400000Y-67000000D01*
%TO.N,BUTTON_COL_1*%
X57500000Y-67750000D02*
X54250000Y-67750000D01*
X58750000Y-69000000D02*
X57500000Y-67750000D01*
%TO.N,BUTTON_COL_2*%
X60250000Y-67750000D02*
X58750000Y-67750000D01*
X58750000Y-67750000D02*
X58000000Y-67000000D01*
%TO.N,BUTTON_ROW_1*%
X44500000Y-46450000D02*
X62500000Y-46450000D01*
X26500000Y-46450000D02*
X44500000Y-46450000D01*
%TO.N,BUTTON_ROW_2*%
X26500000Y-64450000D02*
X44500000Y-64450000D01*
X42950000Y-64450000D02*
X59255000Y-64450000D01*
%TO.N,BUTTON_ROW_0*%
X44500000Y-28450000D02*
X60950000Y-28450000D01*
X26500000Y-28450000D02*
X44500000Y-28450000D01*
%TD*%
M02*
