%TF.GenerationSoftware,KiCad,Pcbnew,10.0.1*%
%TF.CreationDate,2026-05-24T18:52:38-07:00*%
%TF.ProjectId,Amigo,416d6967-6f2e-46b6-9963-61645f706362,rev?*%
%TF.SameCoordinates,Original*%
%TF.FileFunction,Copper,L2,Bot*%
%TF.FilePolarity,Positive*%
%FSLAX46Y46*%
G04 Gerber Fmt 4.6, Leading zero omitted, Abs format (unit mm)*
G04 Created by KiCad (PCBNEW 10.0.1) date 2026-05-24 18:52:38*
%MOMM*%
%LPD*%
G01*
G04 APERTURE LIST*
G04 Aperture macros list*
%AMRoundRect*
0 Rectangle with rounded corners*
0 $1 Rounding radius*
0 $2 $3 $4 $5 $6 $7 $8 $9 X,Y pos of 4 corners*
0 Add a 4 corners polygon primitive as box body*
4,1,4,$2,$3,$4,$5,$6,$7,$8,$9,$2,$3,0*
0 Add four circle primitives for the rounded corners*
1,1,$1+$1,$2,$3*
1,1,$1+$1,$4,$5*
1,1,$1+$1,$6,$7*
1,1,$1+$1,$8,$9*
0 Add four rect primitives between the rounded corners*
20,1,$1+$1,$2,$3,$4,$5,0*
20,1,$1+$1,$4,$5,$6,$7,0*
20,1,$1+$1,$6,$7,$8,$9,0*
20,1,$1+$1,$8,$9,$2,$3,0*%
G04 Aperture macros list end*
%TA.AperFunction,ComponentPad*%
%ADD10R,1.700000X1.700000*%
%TD*%
%TA.AperFunction,ComponentPad*%
%ADD11C,1.700000*%
%TD*%
%TA.AperFunction,ComponentPad*%
%ADD12RoundRect,0.250000X-0.350000X-0.625000X0.350000X-0.625000X0.350000X0.625000X-0.350000X0.625000X0*%
%TD*%
%TA.AperFunction,ComponentPad*%
%ADD13O,1.200000X1.750000*%
%TD*%
%TA.AperFunction,HeatsinkPad*%
%ADD14C,0.500000*%
%TD*%
%TA.AperFunction,HeatsinkPad*%
%ADD15R,1.900000X2.900000*%
%TD*%
%TA.AperFunction,ComponentPad*%
%ADD16C,0.700000*%
%TD*%
%TA.AperFunction,ComponentPad*%
%ADD17O,0.900000X2.400000*%
%TD*%
%TA.AperFunction,ComponentPad*%
%ADD18O,0.900000X1.700000*%
%TD*%
%TA.AperFunction,HeatsinkPad*%
%ADD19C,0.600000*%
%TD*%
%TA.AperFunction,ViaPad*%
%ADD20C,0.600000*%
%TD*%
%TA.AperFunction,ViaPad*%
%ADD21C,0.800000*%
%TD*%
%TA.AperFunction,ViaPad*%
%ADD22C,0.500000*%
%TD*%
%TA.AperFunction,Conductor*%
%ADD23C,0.500000*%
%TD*%
%TA.AperFunction,Conductor*%
%ADD24C,0.250000*%
%TD*%
G04 APERTURE END LIST*
D10*
%TO.P,J6,1,Pin_1_1*%
%TO.N,+3V3*%
X14460000Y-52500000D03*
D11*
%TO.P,J6,2,Pin_2_2*%
%TO.N,GND*%
X17000000Y-52500000D03*
%TO.P,J6,3,Pin_3_3*%
%TO.N,BUTTON_ROW_0*%
X19540000Y-52500000D03*
%TO.P,J6,4,Pin_4_4*%
%TO.N,BUTTON_ROW_1*%
X22080000Y-52500000D03*
%TO.P,J6,5,Pin_5_5*%
%TO.N,BUTTON_ROW_2*%
X24620000Y-52500000D03*
%TO.P,J6,6,Pin_6_6*%
%TO.N,BUTTON_COL_0*%
X27160000Y-52500000D03*
%TO.P,J6,7,Pin_7_7*%
%TO.N,BUTTON_COL_1*%
X29700000Y-52500000D03*
%TO.P,J6,8,Pin_8_8*%
%TO.N,BUTTON_COL_2*%
X32240000Y-52500000D03*
%TD*%
D10*
%TO.P,J5,1,Pin_1_1*%
%TO.N,BAT+*%
X51500000Y-17275000D03*
D11*
%TO.P,J5,2,Pin_2_2*%
%TO.N,BAT_SW*%
X51500000Y-14735000D03*
%TD*%
D10*
%TO.P,J3,1,Pin_1_1*%
%TO.N,+3V3*%
X39000000Y-29420000D03*
D11*
%TO.P,J3,2,Pin_2_2*%
%TO.N,GND*%
X39000000Y-31960000D03*
%TO.P,J3,3,Pin_3_3*%
%TO.N,LCD_CS*%
X39000000Y-34500000D03*
%TO.P,J3,4,Pin_4_4*%
%TO.N,LCD_RST*%
X39000000Y-37040000D03*
%TO.P,J3,5,Pin_5_5*%
%TO.N,LCD_DC*%
X39000000Y-39580000D03*
%TO.P,J3,6,Pin_6_6*%
%TO.N,LCD_MOSI*%
X39000000Y-42120000D03*
%TO.P,J3,7,Pin_7_7*%
%TO.N,LCD_SCK*%
X39000000Y-44660000D03*
%TO.P,J3,8,Pin_8_8*%
%TO.N,LCD_BL*%
X39000000Y-47200000D03*
%TD*%
D12*
%TO.P,J2,1,Pin_1_1*%
%TO.N,BAT+*%
X55000000Y-22250000D03*
D13*
%TO.P,J2,2,Pin_2_2*%
%TO.N,GND*%
X57000000Y-22250000D03*
%TD*%
D14*
%TO.P,U1,9,EPAD_9*%
%TO.N,GND*%
X36700000Y-17200000D03*
X36700000Y-16000000D03*
X36700000Y-14800000D03*
D15*
X36000000Y-16000000D03*
D14*
X35300000Y-17200000D03*
X35300000Y-16000000D03*
X35300000Y-14800000D03*
%TD*%
D16*
%TO.P,J1,A1,GND_A1*%
%TO.N,GND*%
X28000000Y-18000000D03*
%TO.P,J1,A4,VBUS_A4*%
%TO.N,VBUS_5V*%
X27150000Y-18000000D03*
%TO.P,J1,A5,CC1_A5*%
%TO.N,USB_CC1*%
X26300000Y-18000000D03*
%TO.P,J1,A6,D+_A6*%
%TO.N,unconnected-(J1-D+-PadA6)*%
X25450000Y-18000000D03*
%TO.P,J1,A7,D-_A7*%
%TO.N,unconnected-(J1-D--PadA7)*%
X24600000Y-18000000D03*
%TO.P,J1,A8,SBU1_A8*%
%TO.N,unconnected-(J1-SBU1-PadA8)*%
X23750000Y-18000000D03*
%TO.P,J1,A9,VBUS_A9*%
%TO.N,VBUS_5V*%
X22900000Y-18000000D03*
%TO.P,J1,A12,GND_A12*%
%TO.N,GND*%
X22050000Y-18000000D03*
%TO.P,J1,B1,GND_B1*%
X22050000Y-16650000D03*
%TO.P,J1,B4,VBUS_B4*%
%TO.N,VBUS_5V*%
X22900000Y-16650000D03*
%TO.P,J1,B5,CC2_B5*%
%TO.N,USB_CC2*%
X23750000Y-16650000D03*
%TO.P,J1,B6,D+_B6*%
%TO.N,unconnected-(J1-D+-PadB6)*%
X24600000Y-16650000D03*
%TO.P,J1,B7,D-_B7*%
%TO.N,unconnected-(J1-D--PadB7)*%
X25450000Y-16650000D03*
%TO.P,J1,B8,SBU2_B8*%
%TO.N,unconnected-(J1-SBU2-PadB8)*%
X26300000Y-16650000D03*
%TO.P,J1,B9,VBUS_B9*%
%TO.N,VBUS_5V*%
X27150000Y-16650000D03*
%TO.P,J1,B12,GND_B12*%
%TO.N,GND*%
X28000000Y-16650000D03*
D17*
%TO.P,J1,SH,SHIELD_SH*%
X29350000Y-17020000D03*
D18*
X29350000Y-13640000D03*
D17*
X20700000Y-17020000D03*
D18*
X20700000Y-13640000D03*
%TD*%
D10*
%TO.P,J4,1,Pin_1_1*%
%TO.N,AUDIO_LRC_WS*%
X44500000Y-51500000D03*
D11*
%TO.P,J4,2,Pin_2_2*%
%TO.N,AUDIO_BCLK*%
X44500000Y-48960000D03*
%TO.P,J4,3,Pin_3_3*%
%TO.N,AUDIO_DOUT*%
X44500000Y-46420000D03*
%TO.P,J4,4,Pin_4_4*%
%TO.N,unconnected-(J4-Pin_4-Pad4)*%
X44500000Y-43880000D03*
%TO.P,J4,5,Pin_5_5*%
%TO.N,+3V3*%
X44500000Y-41340000D03*
%TO.P,J4,6,Pin_6_6*%
%TO.N,GND*%
X44500000Y-38800000D03*
%TO.P,J4,7,Pin_7_7*%
%TO.N,BAT+*%
X44500000Y-36260000D03*
%TD*%
D19*
%TO.P,U3,41,GND_41*%
%TO.N,GND*%
X20340603Y-39718961D03*
X21740603Y-39718961D03*
X19640603Y-39018961D03*
X21040603Y-39018961D03*
X22440603Y-39018961D03*
X20340603Y-38318961D03*
X21740603Y-38318961D03*
X19640603Y-37618961D03*
X21040603Y-37618961D03*
X22440603Y-37618961D03*
X20340603Y-36918961D03*
X21740603Y-36918961D03*
%TD*%
D20*
%TO.N,*%
X31250000Y-45500000D03*
%TO.N,GND*%
X40000000Y-15500000D03*
X46500000Y-21000000D03*
X13000000Y-51000000D03*
D21*
%TO.N,+3V3*%
X42500000Y-43275000D03*
D20*
%TO.N,BAT_SENSE*%
X17633884Y-44133884D03*
X37000000Y-23000000D03*
%TO.N,EN*%
X33932500Y-43567500D03*
X23941942Y-42941942D03*
%TO.N,BUTTON_ROW_0*%
X21455000Y-46814798D03*
X28500000Y-37500000D03*
%TO.N,BUTTON_COL_2*%
X34500000Y-50000000D03*
X32330605Y-34500000D03*
D21*
%TO.N,BAT+*%
X44000000Y-22275000D03*
X45000000Y-24000000D03*
X43002919Y-33275000D03*
D20*
%TO.N,LCD_RST*%
X33000000Y-44500000D03*
X28500000Y-47000000D03*
%TO.N,LCD_DC*%
X37500000Y-39500000D03*
X34000000Y-36500000D03*
%TO.N,LCD_MOSI*%
X34000000Y-39000000D03*
X36000000Y-41000000D03*
%TO.N,LCD_SCK*%
X36000000Y-44625000D03*
X34000000Y-40500000D03*
D22*
%TO.N,VBUS_5V*%
X32426541Y-17321651D03*
X32000000Y-17955000D03*
X35000000Y-13899998D03*
X24000000Y-15500000D03*
X30000000Y-19000000D03*
D20*
%TO.N,IO0*%
X31500000Y-28500000D03*
X48500000Y-34000000D03*
%TO.N,Net-(D2-K)*%
X32494113Y-13325911D03*
X31750000Y-15500000D03*
%TO.N,Net-(U1-PROG)*%
X40957396Y-17957396D03*
X40000000Y-17000000D03*
%TO.N,AUDIO_LRC_WS*%
X27458883Y-49375000D03*
X20830000Y-49375000D03*
%TO.N,AUDIO_BCLK*%
X19250000Y-47000000D03*
X33932500Y-48750000D03*
%TO.N,AUDIO_DOUT*%
X20830000Y-47500000D03*
X33000000Y-47500000D03*
%TD*%
%TO.N,+3V3*%
D23*
X42500000Y-43275000D02*
X42500000Y-45538478D01*
X15760000Y-51200000D02*
X14460000Y-52500000D01*
X36838478Y-51200000D02*
X15760000Y-51200000D01*
X42500000Y-45538478D02*
X36838478Y-51200000D01*
%TO.N,BAT_SENSE*%
D24*
X17633884Y-44133884D02*
X17633884Y-43633884D01*
X21616116Y-23000000D02*
X37000000Y-23000000D01*
X15375000Y-29241116D02*
X21616116Y-23000000D01*
X17633884Y-43633884D02*
X15375000Y-41375000D01*
X15375000Y-41375000D02*
X15375000Y-29241116D01*
%TO.N,EN*%
X33932500Y-43567500D02*
X33865000Y-43500000D01*
X24500000Y-43500000D02*
X23941942Y-42941942D01*
X33865000Y-43500000D02*
X24500000Y-43500000D01*
%TO.N,BUTTON_ROW_0*%
X21455000Y-44545000D02*
X21455000Y-46814798D01*
X28500000Y-37500000D02*
X21455000Y-44545000D01*
%TO.N,BUTTON_COL_2*%
X32330605Y-34500000D02*
X32330605Y-39872119D01*
X32330605Y-39872119D02*
X34557500Y-42099014D01*
X34557500Y-42099014D02*
X34557500Y-49942500D01*
X34557500Y-49942500D02*
X34500000Y-50000000D01*
%TO.N,BAT+*%
D23*
X43002919Y-31997081D02*
X45000000Y-30000000D01*
X45000000Y-24000000D02*
X44000000Y-23000000D01*
X44000000Y-23000000D02*
X44000000Y-22275000D01*
X45000000Y-30000000D02*
X45000000Y-24000000D01*
X43002919Y-33275000D02*
X43002919Y-31997081D01*
%TO.N,LCD_RST*%
D24*
X33000000Y-44500000D02*
X33000000Y-44865000D01*
X33000000Y-44865000D02*
X30865000Y-47000000D01*
X30865000Y-47000000D02*
X28500000Y-47000000D01*
%TO.N,LCD_DC*%
X34000000Y-36500000D02*
X34500000Y-36500000D01*
X34500000Y-36500000D02*
X37500000Y-39500000D01*
%TO.N,LCD_MOSI*%
X34000000Y-39000000D02*
X36000000Y-41000000D01*
%TO.N,LCD_SCK*%
X34000000Y-40500000D02*
X36000000Y-42500000D01*
X36000000Y-42500000D02*
X36000000Y-44625000D01*
%TO.N,VBUS_5V*%
D23*
X23768629Y-15500000D02*
X22900000Y-16368629D01*
X22900000Y-16368629D02*
X22900000Y-16650000D01*
X30955000Y-19000000D02*
X32000000Y-17955000D01*
X35000000Y-13899998D02*
X32426541Y-16473457D01*
X30000000Y-19000000D02*
X30955000Y-19000000D01*
X24000000Y-15500000D02*
X23768629Y-15500000D01*
X32426541Y-16473457D02*
X32426541Y-17321651D01*
%TO.N,IO0*%
D24*
X39411701Y-33250000D02*
X40161701Y-34000000D01*
X31500000Y-28500000D02*
X36250000Y-33250000D01*
X40161701Y-34000000D02*
X48500000Y-34000000D01*
X36250000Y-33250000D02*
X39411701Y-33250000D01*
%TO.N,Net-(D2-K)*%
X31750000Y-14070024D02*
X32494113Y-13325911D01*
X31750000Y-15500000D02*
X31750000Y-14070024D01*
%TO.N,Net-(U1-PROG)*%
X40957396Y-17957396D02*
X40000000Y-17000000D01*
%TO.N,AUDIO_LRC_WS*%
X27458883Y-49375000D02*
X20830000Y-49375000D01*
%TO.N,AUDIO_BCLK*%
X19250000Y-47000000D02*
X19250000Y-48000000D01*
X20000000Y-48750000D02*
X33932500Y-48750000D01*
X19250000Y-48000000D02*
X20000000Y-48750000D01*
%TO.N,AUDIO_DOUT*%
X33000000Y-47500000D02*
X32500000Y-48000000D01*
X21330000Y-48000000D02*
X20830000Y-47500000D01*
X32500000Y-48000000D02*
X21330000Y-48000000D01*
%TD*%
%TA.AperFunction,Conductor*%
%TO.N,GND*%
G36*
X20063673Y-12320185D02*
G01*
X20109428Y-12372989D01*
X20119372Y-12442147D01*
X20090347Y-12505703D01*
X20084315Y-12512181D01*
X19962089Y-12634406D01*
X19962086Y-12634410D01*
X19858124Y-12789999D01*
X19858119Y-12790008D01*
X19786508Y-12962894D01*
X19786506Y-12962902D01*
X19750000Y-13146428D01*
X19750000Y-13390000D01*
X20400000Y-13390000D01*
X20400000Y-13890000D01*
X19750000Y-13890000D01*
X19750000Y-14133571D01*
X19786506Y-14317097D01*
X19786508Y-14317105D01*
X19858119Y-14489991D01*
X19858124Y-14490000D01*
X19962086Y-14645589D01*
X19962089Y-14645593D01*
X20094406Y-14777910D01*
X20094410Y-14777913D01*
X20249999Y-14881875D01*
X20250012Y-14881882D01*
X20422889Y-14953489D01*
X20422896Y-14953491D01*
X20450000Y-14958882D01*
X20450000Y-14206988D01*
X20459940Y-14224205D01*
X20515795Y-14280060D01*
X20584204Y-14319556D01*
X20660504Y-14340000D01*
X20739496Y-14340000D01*
X20815796Y-14319556D01*
X20884205Y-14280060D01*
X20940060Y-14224205D01*
X20950000Y-14206988D01*
X20950000Y-14958881D01*
X20977103Y-14953491D01*
X20977110Y-14953489D01*
X21149987Y-14881882D01*
X21150000Y-14881875D01*
X21305589Y-14777913D01*
X21305593Y-14777910D01*
X21437910Y-14645593D01*
X21437913Y-14645589D01*
X21541875Y-14490000D01*
X21541880Y-14489991D01*
X21613491Y-14317105D01*
X21613493Y-14317097D01*
X21649999Y-14133571D01*
X21650000Y-14133569D01*
X21650000Y-13890000D01*
X21000000Y-13890000D01*
X21000000Y-13390000D01*
X21650000Y-13390000D01*
X21650000Y-13146430D01*
X21649999Y-13146428D01*
X21613493Y-12962902D01*
X21613491Y-12962894D01*
X21541880Y-12790008D01*
X21541875Y-12789999D01*
X21437913Y-12634410D01*
X21437910Y-12634406D01*
X21315685Y-12512181D01*
X21282200Y-12450858D01*
X21287184Y-12381166D01*
X21329056Y-12325233D01*
X21394520Y-12300816D01*
X21403366Y-12300500D01*
X28646634Y-12300500D01*
X28713673Y-12320185D01*
X28759428Y-12372989D01*
X28769372Y-12442147D01*
X28740347Y-12505703D01*
X28734315Y-12512181D01*
X28612089Y-12634406D01*
X28612086Y-12634410D01*
X28508124Y-12789999D01*
X28508119Y-12790008D01*
X28436508Y-12962894D01*
X28436506Y-12962902D01*
X28400000Y-13146428D01*
X28400000Y-13390000D01*
X29050000Y-13390000D01*
X29050000Y-13890000D01*
X28400000Y-13890000D01*
X28400000Y-14133571D01*
X28436506Y-14317097D01*
X28436508Y-14317105D01*
X28508119Y-14489991D01*
X28508124Y-14490000D01*
X28612086Y-14645589D01*
X28612089Y-14645593D01*
X28744406Y-14777910D01*
X28744410Y-14777913D01*
X28899999Y-14881875D01*
X28900012Y-14881882D01*
X29072889Y-14953489D01*
X29072896Y-14953491D01*
X29100000Y-14958882D01*
X29100000Y-14206988D01*
X29109940Y-14224205D01*
X29165795Y-14280060D01*
X29234204Y-14319556D01*
X29310504Y-14340000D01*
X29389496Y-14340000D01*
X29465796Y-14319556D01*
X29534205Y-14280060D01*
X29590060Y-14224205D01*
X29600000Y-14206988D01*
X29600000Y-14958881D01*
X29627103Y-14953491D01*
X29627110Y-14953489D01*
X29799987Y-14881882D01*
X29800000Y-14881875D01*
X29955589Y-14777913D01*
X29955593Y-14777910D01*
X30087910Y-14645593D01*
X30087913Y-14645589D01*
X30191875Y-14490000D01*
X30191880Y-14489991D01*
X30263491Y-14317105D01*
X30263493Y-14317097D01*
X30299999Y-14133571D01*
X30300000Y-14133569D01*
X30300000Y-13890000D01*
X29650000Y-13890000D01*
X29650000Y-13390000D01*
X30300000Y-13390000D01*
X30300000Y-13146430D01*
X30299999Y-13146428D01*
X30263493Y-12962902D01*
X30263491Y-12962894D01*
X30191880Y-12790008D01*
X30191875Y-12789999D01*
X30087913Y-12634410D01*
X30087910Y-12634406D01*
X29965685Y-12512181D01*
X29932200Y-12450858D01*
X29937184Y-12381166D01*
X29979056Y-12325233D01*
X30044520Y-12300816D01*
X30053366Y-12300500D01*
X61575500Y-12300500D01*
X61642539Y-12320185D01*
X61688294Y-12372989D01*
X61699500Y-12424500D01*
X61699500Y-61575500D01*
X61679815Y-61642539D01*
X61627011Y-61688294D01*
X61575500Y-61699500D01*
X12424500Y-61699500D01*
X12357461Y-61679815D01*
X12311706Y-61627011D01*
X12300500Y-61575500D01*
X12300500Y-58381995D01*
X13699500Y-58381995D01*
X13699500Y-58618004D01*
X13699501Y-58618020D01*
X13730306Y-58852010D01*
X13791394Y-59079993D01*
X13881714Y-59298045D01*
X13881719Y-59298056D01*
X13952677Y-59420957D01*
X13999727Y-59502450D01*
X13999729Y-59502453D01*
X13999730Y-59502454D01*
X14143406Y-59689697D01*
X14143412Y-59689704D01*
X14310295Y-59856587D01*
X14310301Y-59856592D01*
X14497550Y-60000273D01*
X14628918Y-60076118D01*
X14701943Y-60118280D01*
X14701948Y-60118282D01*
X14701951Y-60118284D01*
X14920007Y-60208606D01*
X15147986Y-60269693D01*
X15381989Y-60300500D01*
X15381996Y-60300500D01*
X15618004Y-60300500D01*
X15618011Y-60300500D01*
X15852014Y-60269693D01*
X16079993Y-60208606D01*
X16298049Y-60118284D01*
X16502450Y-60000273D01*
X16689699Y-59856592D01*
X16856592Y-59689699D01*
X17000273Y-59502450D01*
X17118284Y-59298049D01*
X17208606Y-59079993D01*
X17269693Y-58852014D01*
X17300500Y-58618011D01*
X17300500Y-58381995D01*
X56699500Y-58381995D01*
X56699500Y-58618004D01*
X56699501Y-58618020D01*
X56730306Y-58852010D01*
X56791394Y-59079993D01*
X56881714Y-59298045D01*
X56881719Y-59298056D01*
X56952677Y-59420957D01*
X56999727Y-59502450D01*
X56999729Y-59502453D01*
X56999730Y-59502454D01*
X57143406Y-59689697D01*
X57143412Y-59689704D01*
X57310295Y-59856587D01*
X57310301Y-59856592D01*
X57497550Y-60000273D01*
X57628918Y-60076118D01*
X57701943Y-60118280D01*
X57701948Y-60118282D01*
X57701951Y-60118284D01*
X57920007Y-60208606D01*
X58147986Y-60269693D01*
X58381989Y-60300500D01*
X58381996Y-60300500D01*
X58618004Y-60300500D01*
X58618011Y-60300500D01*
X58852014Y-60269693D01*
X59079993Y-60208606D01*
X59298049Y-60118284D01*
X59502450Y-60000273D01*
X59689699Y-59856592D01*
X59856592Y-59689699D01*
X60000273Y-59502450D01*
X60118284Y-59298049D01*
X60208606Y-59079993D01*
X60269693Y-58852014D01*
X60300500Y-58618011D01*
X60300500Y-58381989D01*
X60269693Y-58147986D01*
X60208606Y-57920007D01*
X60118284Y-57701951D01*
X60118282Y-57701948D01*
X60118280Y-57701943D01*
X60076118Y-57628918D01*
X60000273Y-57497550D01*
X59856592Y-57310301D01*
X59856587Y-57310295D01*
X59689704Y-57143412D01*
X59689697Y-57143406D01*
X59502454Y-56999730D01*
X59502453Y-56999729D01*
X59502450Y-56999727D01*
X59420957Y-56952677D01*
X59298056Y-56881719D01*
X59298045Y-56881714D01*
X59079993Y-56791394D01*
X58852010Y-56730306D01*
X58618020Y-56699501D01*
X58618017Y-56699500D01*
X58618011Y-56699500D01*
X58381989Y-56699500D01*
X58381983Y-56699500D01*
X58381979Y-56699501D01*
X58147989Y-56730306D01*
X57920006Y-56791394D01*
X57701954Y-56881714D01*
X57701943Y-56881719D01*
X57497545Y-56999730D01*
X57310302Y-57143406D01*
X57310295Y-57143412D01*
X57143412Y-57310295D01*
X57143406Y-57310302D01*
X56999730Y-57497545D01*
X56881719Y-57701943D01*
X56881714Y-57701954D01*
X56791394Y-57920006D01*
X56730306Y-58147989D01*
X56699501Y-58381979D01*
X56699500Y-58381995D01*
X17300500Y-58381995D01*
X17300500Y-58381989D01*
X17269693Y-58147986D01*
X17208606Y-57920007D01*
X17118284Y-57701951D01*
X17118282Y-57701948D01*
X17118280Y-57701943D01*
X17076118Y-57628918D01*
X17000273Y-57497550D01*
X16856592Y-57310301D01*
X16856587Y-57310295D01*
X16689704Y-57143412D01*
X16689697Y-57143406D01*
X16502454Y-56999730D01*
X16502453Y-56999729D01*
X16502450Y-56999727D01*
X16420957Y-56952677D01*
X16298056Y-56881719D01*
X16298045Y-56881714D01*
X16079993Y-56791394D01*
X15852010Y-56730306D01*
X15618020Y-56699501D01*
X15618017Y-56699500D01*
X15618011Y-56699500D01*
X15381989Y-56699500D01*
X15381983Y-56699500D01*
X15381979Y-56699501D01*
X15147989Y-56730306D01*
X14920006Y-56791394D01*
X14701954Y-56881714D01*
X14701943Y-56881719D01*
X14497545Y-56999730D01*
X14310302Y-57143406D01*
X14310295Y-57143412D01*
X14143412Y-57310295D01*
X14143406Y-57310302D01*
X13999730Y-57497545D01*
X13881719Y-57701943D01*
X13881714Y-57701954D01*
X13791394Y-57920006D01*
X13730306Y-58147989D01*
X13699501Y-58381979D01*
X13699500Y-58381995D01*
X12300500Y-58381995D01*
X12300500Y-51630247D01*
X13409500Y-51630247D01*
X13409500Y-53369752D01*
X13421131Y-53428229D01*
X13421132Y-53428230D01*
X13465447Y-53494552D01*
X13531769Y-53538867D01*
X13531770Y-53538868D01*
X13590247Y-53550499D01*
X13590250Y-53550500D01*
X13590252Y-53550500D01*
X15329750Y-53550500D01*
X15329751Y-53550499D01*
X15344568Y-53547552D01*
X15388229Y-53538868D01*
X15388229Y-53538867D01*
X15388231Y-53538867D01*
X15454552Y-53494552D01*
X15498867Y-53428231D01*
X15498867Y-53428229D01*
X15498868Y-53428229D01*
X15510499Y-53369752D01*
X15510500Y-53369750D01*
X15510500Y-53066048D01*
X15530185Y-52999009D01*
X15582989Y-52953254D01*
X15652147Y-52943310D01*
X15715703Y-52972335D01*
X15745938Y-53014264D01*
X15746694Y-53013879D01*
X15845375Y-53207550D01*
X15884728Y-53261716D01*
X16517036Y-52629407D01*
X16534075Y-52692993D01*
X16599901Y-52807007D01*
X16692993Y-52900099D01*
X16807007Y-52965925D01*
X16870590Y-52982962D01*
X16238282Y-53615269D01*
X16238282Y-53615270D01*
X16292449Y-53654624D01*
X16481782Y-53751095D01*
X16683870Y-53816757D01*
X16893754Y-53850000D01*
X17106246Y-53850000D01*
X17316127Y-53816757D01*
X17316130Y-53816757D01*
X17518217Y-53751095D01*
X17707554Y-53654622D01*
X17761716Y-53615270D01*
X17761717Y-53615270D01*
X17129408Y-52982962D01*
X17192993Y-52965925D01*
X17307007Y-52900099D01*
X17400099Y-52807007D01*
X17465925Y-52692993D01*
X17482962Y-52629409D01*
X18115270Y-53261717D01*
X18115270Y-53261716D01*
X18154622Y-53207554D01*
X18251095Y-53018217D01*
X18308343Y-52842026D01*
X18347780Y-52784351D01*
X18412139Y-52757152D01*
X18480985Y-52769066D01*
X18532461Y-52816310D01*
X18540835Y-52832891D01*
X18609058Y-52997596D01*
X18724024Y-53169657D01*
X18870342Y-53315975D01*
X18870345Y-53315977D01*
X19042402Y-53430941D01*
X19233580Y-53510130D01*
X19378052Y-53538867D01*
X19436530Y-53550499D01*
X19436534Y-53550500D01*
X19436535Y-53550500D01*
X19643466Y-53550500D01*
X19643467Y-53550499D01*
X19846420Y-53510130D01*
X20037598Y-53430941D01*
X20209655Y-53315977D01*
X20355977Y-53169655D01*
X20470941Y-52997598D01*
X20550130Y-52806420D01*
X20590500Y-52603465D01*
X20590500Y-52396535D01*
X20550130Y-52193580D01*
X20470941Y-52002402D01*
X20470940Y-52002400D01*
X20470940Y-52002399D01*
X20364694Y-51843390D01*
X20343816Y-51776713D01*
X20362301Y-51709333D01*
X20414280Y-51662643D01*
X20467796Y-51650500D01*
X21152204Y-51650500D01*
X21219243Y-51670185D01*
X21264998Y-51722989D01*
X21274942Y-51792147D01*
X21255306Y-51843390D01*
X21149059Y-52002399D01*
X21149059Y-52002400D01*
X21069870Y-52193579D01*
X21069868Y-52193587D01*
X21029500Y-52396530D01*
X21029500Y-52603469D01*
X21069868Y-52806412D01*
X21069870Y-52806420D01*
X21149058Y-52997596D01*
X21264024Y-53169657D01*
X21410342Y-53315975D01*
X21410345Y-53315977D01*
X21582402Y-53430941D01*
X21773580Y-53510130D01*
X21918052Y-53538867D01*
X21976530Y-53550499D01*
X21976534Y-53550500D01*
X21976535Y-53550500D01*
X22183466Y-53550500D01*
X22183467Y-53550499D01*
X22386420Y-53510130D01*
X22577598Y-53430941D01*
X22749655Y-53315977D01*
X22895977Y-53169655D01*
X23010941Y-52997598D01*
X23090130Y-52806420D01*
X23130500Y-52603465D01*
X23130500Y-52396535D01*
X23090130Y-52193580D01*
X23010941Y-52002402D01*
X23010940Y-52002400D01*
X23010940Y-52002399D01*
X22904694Y-51843390D01*
X22883816Y-51776713D01*
X22902301Y-51709333D01*
X22954280Y-51662643D01*
X23007796Y-51650500D01*
X23692204Y-51650500D01*
X23759243Y-51670185D01*
X23804998Y-51722989D01*
X23814942Y-51792147D01*
X23795306Y-51843390D01*
X23689059Y-52002399D01*
X23689059Y-52002400D01*
X23609870Y-52193579D01*
X23609868Y-52193587D01*
X23569500Y-52396530D01*
X23569500Y-52603469D01*
X23609868Y-52806412D01*
X23609870Y-52806420D01*
X23689058Y-52997596D01*
X23804024Y-53169657D01*
X23950342Y-53315975D01*
X23950345Y-53315977D01*
X24122402Y-53430941D01*
X24313580Y-53510130D01*
X24458052Y-53538867D01*
X24516530Y-53550499D01*
X24516534Y-53550500D01*
X24516535Y-53550500D01*
X24723466Y-53550500D01*
X24723467Y-53550499D01*
X24926420Y-53510130D01*
X25117598Y-53430941D01*
X25289655Y-53315977D01*
X25435977Y-53169655D01*
X25550941Y-52997598D01*
X25630130Y-52806420D01*
X25670500Y-52603465D01*
X25670500Y-52396535D01*
X25630130Y-52193580D01*
X25550941Y-52002402D01*
X25550940Y-52002400D01*
X25550940Y-52002399D01*
X25444694Y-51843390D01*
X25423816Y-51776713D01*
X25442301Y-51709333D01*
X25494280Y-51662643D01*
X25547796Y-51650500D01*
X26232204Y-51650500D01*
X26299243Y-51670185D01*
X26344998Y-51722989D01*
X26354942Y-51792147D01*
X26335306Y-51843390D01*
X26229059Y-52002399D01*
X26229059Y-52002400D01*
X26149870Y-52193579D01*
X26149868Y-52193587D01*
X26109500Y-52396530D01*
X26109500Y-52603469D01*
X26149868Y-52806412D01*
X26149870Y-52806420D01*
X26229058Y-52997596D01*
X26344024Y-53169657D01*
X26490342Y-53315975D01*
X26490345Y-53315977D01*
X26662402Y-53430941D01*
X26853580Y-53510130D01*
X26998052Y-53538867D01*
X27056530Y-53550499D01*
X27056534Y-53550500D01*
X27056535Y-53550500D01*
X27263466Y-53550500D01*
X27263467Y-53550499D01*
X27466420Y-53510130D01*
X27657598Y-53430941D01*
X27829655Y-53315977D01*
X27975977Y-53169655D01*
X28090941Y-52997598D01*
X28170130Y-52806420D01*
X28210500Y-52603465D01*
X28210500Y-52396535D01*
X28170130Y-52193580D01*
X28090941Y-52002402D01*
X28090940Y-52002400D01*
X28090940Y-52002399D01*
X27984694Y-51843390D01*
X27963816Y-51776713D01*
X27982301Y-51709333D01*
X28034280Y-51662643D01*
X28087796Y-51650500D01*
X28772204Y-51650500D01*
X28839243Y-51670185D01*
X28884998Y-51722989D01*
X28894942Y-51792147D01*
X28875306Y-51843390D01*
X28769059Y-52002399D01*
X28769059Y-52002400D01*
X28689870Y-52193579D01*
X28689868Y-52193587D01*
X28649500Y-52396530D01*
X28649500Y-52603469D01*
X28689868Y-52806412D01*
X28689870Y-52806420D01*
X28769058Y-52997596D01*
X28884024Y-53169657D01*
X29030342Y-53315975D01*
X29030345Y-53315977D01*
X29202402Y-53430941D01*
X29393580Y-53510130D01*
X29538052Y-53538867D01*
X29596530Y-53550499D01*
X29596534Y-53550500D01*
X29596535Y-53550500D01*
X29803466Y-53550500D01*
X29803467Y-53550499D01*
X30006420Y-53510130D01*
X30197598Y-53430941D01*
X30369655Y-53315977D01*
X30515977Y-53169655D01*
X30630941Y-52997598D01*
X30710130Y-52806420D01*
X30750500Y-52603465D01*
X30750500Y-52396535D01*
X30710130Y-52193580D01*
X30630941Y-52002402D01*
X30630940Y-52002400D01*
X30630940Y-52002399D01*
X30524694Y-51843390D01*
X30503816Y-51776713D01*
X30522301Y-51709333D01*
X30574280Y-51662643D01*
X30627796Y-51650500D01*
X31312204Y-51650500D01*
X31379243Y-51670185D01*
X31424998Y-51722989D01*
X31434942Y-51792147D01*
X31415306Y-51843390D01*
X31309059Y-52002399D01*
X31309059Y-52002400D01*
X31229870Y-52193579D01*
X31229868Y-52193587D01*
X31189500Y-52396530D01*
X31189500Y-52603469D01*
X31229868Y-52806412D01*
X31229870Y-52806420D01*
X31309058Y-52997596D01*
X31424024Y-53169657D01*
X31570342Y-53315975D01*
X31570345Y-53315977D01*
X31742402Y-53430941D01*
X31933580Y-53510130D01*
X32078052Y-53538867D01*
X32136530Y-53550499D01*
X32136534Y-53550500D01*
X32136535Y-53550500D01*
X32343466Y-53550500D01*
X32343467Y-53550499D01*
X32546420Y-53510130D01*
X32737598Y-53430941D01*
X32909655Y-53315977D01*
X33055977Y-53169655D01*
X33170941Y-52997598D01*
X33250130Y-52806420D01*
X33290500Y-52603465D01*
X33290500Y-52396535D01*
X33250130Y-52193580D01*
X33170941Y-52002402D01*
X33170940Y-52002400D01*
X33170940Y-52002399D01*
X33064694Y-51843390D01*
X33043816Y-51776713D01*
X33062301Y-51709333D01*
X33114280Y-51662643D01*
X33167796Y-51650500D01*
X36897786Y-51650500D01*
X36897787Y-51650500D01*
X36988151Y-51626286D01*
X37012365Y-51619799D01*
X37115092Y-51560489D01*
X38045334Y-50630247D01*
X43449500Y-50630247D01*
X43449500Y-52369752D01*
X43461131Y-52428229D01*
X43461132Y-52428230D01*
X43505447Y-52494552D01*
X43571769Y-52538867D01*
X43571770Y-52538868D01*
X43630247Y-52550499D01*
X43630250Y-52550500D01*
X43630252Y-52550500D01*
X45369750Y-52550500D01*
X45369751Y-52550499D01*
X45384568Y-52547552D01*
X45428229Y-52538868D01*
X45428229Y-52538867D01*
X45428231Y-52538867D01*
X45494552Y-52494552D01*
X45538867Y-52428231D01*
X45538867Y-52428229D01*
X45538868Y-52428229D01*
X45550499Y-52369752D01*
X45550500Y-52369750D01*
X45550500Y-50630249D01*
X45550499Y-50630247D01*
X45538868Y-50571770D01*
X45538867Y-50571769D01*
X45494552Y-50505447D01*
X45428230Y-50461132D01*
X45428229Y-50461131D01*
X45369752Y-50449500D01*
X45369748Y-50449500D01*
X43630252Y-50449500D01*
X43630247Y-50449500D01*
X43571770Y-50461131D01*
X43571769Y-50461132D01*
X43505447Y-50505447D01*
X43461132Y-50571769D01*
X43461131Y-50571770D01*
X43449500Y-50630247D01*
X38045334Y-50630247D01*
X39819051Y-48856530D01*
X43449500Y-48856530D01*
X43449500Y-49063469D01*
X43489868Y-49266412D01*
X43489870Y-49266420D01*
X43569058Y-49457596D01*
X43684024Y-49629657D01*
X43830342Y-49775975D01*
X43830345Y-49775977D01*
X44002402Y-49890941D01*
X44193580Y-49970130D01*
X44396530Y-50010499D01*
X44396534Y-50010500D01*
X44396535Y-50010500D01*
X44603466Y-50010500D01*
X44603467Y-50010499D01*
X44806420Y-49970130D01*
X44997598Y-49890941D01*
X45169655Y-49775977D01*
X45315977Y-49629655D01*
X45430941Y-49457598D01*
X45510130Y-49266420D01*
X45550500Y-49063465D01*
X45550500Y-48856535D01*
X45510130Y-48653580D01*
X45430941Y-48462402D01*
X45315977Y-48290345D01*
X45315975Y-48290342D01*
X45169657Y-48144024D01*
X45018242Y-48042853D01*
X44997598Y-48029059D01*
X44976174Y-48020185D01*
X44806420Y-47949870D01*
X44806412Y-47949868D01*
X44603469Y-47909500D01*
X44603465Y-47909500D01*
X44396535Y-47909500D01*
X44396530Y-47909500D01*
X44193587Y-47949868D01*
X44193579Y-47949870D01*
X44002403Y-48029058D01*
X43830342Y-48144024D01*
X43684024Y-48290342D01*
X43569058Y-48462403D01*
X43489870Y-48653579D01*
X43489868Y-48653587D01*
X43449500Y-48856530D01*
X39819051Y-48856530D01*
X42359051Y-46316530D01*
X43449500Y-46316530D01*
X43449500Y-46523469D01*
X43489868Y-46726412D01*
X43489870Y-46726420D01*
X43569058Y-46917596D01*
X43684024Y-47089657D01*
X43830342Y-47235975D01*
X43830345Y-47235977D01*
X44002402Y-47350941D01*
X44193580Y-47430130D01*
X44375883Y-47466392D01*
X44396530Y-47470499D01*
X44396534Y-47470500D01*
X44396535Y-47470500D01*
X44603466Y-47470500D01*
X44603467Y-47470499D01*
X44806420Y-47430130D01*
X44997598Y-47350941D01*
X45169655Y-47235977D01*
X45315977Y-47089655D01*
X45430941Y-46917598D01*
X45510130Y-46726420D01*
X45550500Y-46523465D01*
X45550500Y-46316535D01*
X45510130Y-46113580D01*
X45430941Y-45922402D01*
X45315977Y-45750345D01*
X45315975Y-45750342D01*
X45169657Y-45604024D01*
X44997933Y-45489283D01*
X44997598Y-45489059D01*
X44986106Y-45484299D01*
X44806420Y-45409870D01*
X44806412Y-45409868D01*
X44603469Y-45369500D01*
X44603465Y-45369500D01*
X44396535Y-45369500D01*
X44396530Y-45369500D01*
X44193587Y-45409868D01*
X44193579Y-45409870D01*
X44002403Y-45489058D01*
X43830342Y-45604024D01*
X43684024Y-45750342D01*
X43569058Y-45922403D01*
X43489870Y-46113579D01*
X43489868Y-46113587D01*
X43449500Y-46316530D01*
X42359051Y-46316530D01*
X42860489Y-45815092D01*
X42919799Y-45712365D01*
X42926285Y-45688153D01*
X42926286Y-45688153D01*
X42926286Y-45688149D01*
X42950500Y-45597787D01*
X42950500Y-43776530D01*
X43449500Y-43776530D01*
X43449500Y-43983469D01*
X43489868Y-44186412D01*
X43489870Y-44186420D01*
X43555613Y-44345138D01*
X43569059Y-44377598D01*
X43605285Y-44431814D01*
X43684024Y-44549657D01*
X43830342Y-44695975D01*
X43830345Y-44695977D01*
X44002402Y-44810941D01*
X44193580Y-44890130D01*
X44396530Y-44930499D01*
X44396534Y-44930500D01*
X44396535Y-44930500D01*
X44603466Y-44930500D01*
X44603467Y-44930499D01*
X44806420Y-44890130D01*
X44997598Y-44810941D01*
X45169655Y-44695977D01*
X45315977Y-44549655D01*
X45430941Y-44377598D01*
X45510130Y-44186420D01*
X45550500Y-43983465D01*
X45550500Y-43776535D01*
X45510130Y-43573580D01*
X45430941Y-43382402D01*
X45315977Y-43210345D01*
X45315975Y-43210342D01*
X45169657Y-43064024D01*
X45025938Y-42967995D01*
X44997598Y-42949059D01*
X44966015Y-42935977D01*
X44806420Y-42869870D01*
X44806412Y-42869868D01*
X44603469Y-42829500D01*
X44603465Y-42829500D01*
X44396535Y-42829500D01*
X44396530Y-42829500D01*
X44193587Y-42869868D01*
X44193579Y-42869870D01*
X44002403Y-42949058D01*
X43830342Y-43064024D01*
X43684024Y-43210342D01*
X43569058Y-43382403D01*
X43489870Y-43573579D01*
X43489868Y-43573587D01*
X43449500Y-43776530D01*
X42950500Y-43776530D01*
X42950500Y-43724930D01*
X42970185Y-43657891D01*
X42976128Y-43649438D01*
X42980512Y-43643723D01*
X42980520Y-43643716D01*
X43059577Y-43506784D01*
X43100500Y-43354057D01*
X43100500Y-43195943D01*
X43059577Y-43043216D01*
X43005216Y-42949059D01*
X42980524Y-42906290D01*
X42980518Y-42906282D01*
X42868717Y-42794481D01*
X42868709Y-42794475D01*
X42731790Y-42715426D01*
X42731786Y-42715424D01*
X42731784Y-42715423D01*
X42579057Y-42674500D01*
X42420943Y-42674500D01*
X42268216Y-42715423D01*
X42268209Y-42715426D01*
X42131290Y-42794475D01*
X42131282Y-42794481D01*
X42019481Y-42906282D01*
X42019475Y-42906290D01*
X41940426Y-43043209D01*
X41940423Y-43043216D01*
X41899500Y-43195943D01*
X41899500Y-43354057D01*
X41932915Y-43478761D01*
X41940423Y-43506783D01*
X41940426Y-43506790D01*
X42019473Y-43643706D01*
X42019477Y-43643712D01*
X42019480Y-43643716D01*
X42019482Y-43643718D01*
X42023872Y-43649438D01*
X42049069Y-43714606D01*
X42049500Y-43724930D01*
X42049500Y-45300512D01*
X42029815Y-45367551D01*
X42013181Y-45388193D01*
X40256737Y-47144636D01*
X40195414Y-47178121D01*
X40125722Y-47173137D01*
X40069789Y-47131265D01*
X40047439Y-47081146D01*
X40037983Y-47033608D01*
X40010130Y-46893580D01*
X39930941Y-46702402D01*
X39815977Y-46530345D01*
X39815975Y-46530342D01*
X39669657Y-46384024D01*
X39568644Y-46316530D01*
X39497598Y-46269059D01*
X39306420Y-46189870D01*
X39306412Y-46189868D01*
X39103469Y-46149500D01*
X39103465Y-46149500D01*
X38896535Y-46149500D01*
X38896530Y-46149500D01*
X38693587Y-46189868D01*
X38693579Y-46189870D01*
X38502403Y-46269058D01*
X38330342Y-46384024D01*
X38184024Y-46530342D01*
X38069058Y-46702403D01*
X37989870Y-46893579D01*
X37989868Y-46893587D01*
X37949500Y-47096530D01*
X37949500Y-47303469D01*
X37989868Y-47506412D01*
X37989870Y-47506420D01*
X38069058Y-47697596D01*
X38184024Y-47869657D01*
X38330342Y-48015975D01*
X38330345Y-48015977D01*
X38502402Y-48130941D01*
X38693580Y-48210130D01*
X38837353Y-48238728D01*
X38881146Y-48247439D01*
X38943057Y-48279823D01*
X38977631Y-48340539D01*
X38973892Y-48410309D01*
X38944636Y-48456737D01*
X36688194Y-50713181D01*
X36626871Y-50746666D01*
X36600513Y-50749500D01*
X15700691Y-50749500D01*
X15614758Y-50772525D01*
X15586113Y-50780201D01*
X15483386Y-50839509D01*
X15483384Y-50839511D01*
X14909715Y-51413181D01*
X14848392Y-51446666D01*
X14822034Y-51449500D01*
X13590247Y-51449500D01*
X13531770Y-51461131D01*
X13531769Y-51461132D01*
X13465447Y-51505447D01*
X13421132Y-51571769D01*
X13421131Y-51571770D01*
X13409500Y-51630247D01*
X12300500Y-51630247D01*
X12300500Y-46934108D01*
X18749500Y-46934108D01*
X18749500Y-47065892D01*
X18766554Y-47129539D01*
X18783608Y-47193187D01*
X18796374Y-47215298D01*
X18849500Y-47307314D01*
X18849502Y-47307316D01*
X18888181Y-47345995D01*
X18921666Y-47407318D01*
X18924500Y-47433676D01*
X18924500Y-48042852D01*
X18946682Y-48125640D01*
X18961033Y-48150495D01*
X18989535Y-48199862D01*
X19800138Y-49010465D01*
X19874361Y-49053318D01*
X19957147Y-49075500D01*
X20042853Y-49075500D01*
X20230495Y-49075500D01*
X20297534Y-49095185D01*
X20343289Y-49147989D01*
X20353233Y-49217147D01*
X20350270Y-49231591D01*
X20329500Y-49309108D01*
X20329500Y-49440892D01*
X20346554Y-49504539D01*
X20363608Y-49568187D01*
X20379957Y-49596504D01*
X20429500Y-49682314D01*
X20522686Y-49775500D01*
X20636814Y-49841392D01*
X20764108Y-49875500D01*
X20764110Y-49875500D01*
X20895890Y-49875500D01*
X20895892Y-49875500D01*
X21023186Y-49841392D01*
X21137314Y-49775500D01*
X21175995Y-49736819D01*
X21237318Y-49703334D01*
X21263676Y-49700500D01*
X27025207Y-49700500D01*
X27092246Y-49720185D01*
X27112888Y-49736819D01*
X27151569Y-49775500D01*
X27265697Y-49841392D01*
X27392991Y-49875500D01*
X27392993Y-49875500D01*
X27524773Y-49875500D01*
X27524775Y-49875500D01*
X27652069Y-49841392D01*
X27766197Y-49775500D01*
X27859383Y-49682314D01*
X27925275Y-49568186D01*
X27959383Y-49440892D01*
X27959383Y-49309108D01*
X27938613Y-49231592D01*
X27940276Y-49161743D01*
X27979439Y-49103881D01*
X28043667Y-49076377D01*
X28058388Y-49075500D01*
X33498824Y-49075500D01*
X33565863Y-49095185D01*
X33586505Y-49111819D01*
X33625186Y-49150500D01*
X33739314Y-49216392D01*
X33866608Y-49250500D01*
X33866610Y-49250500D01*
X33998389Y-49250500D01*
X33998392Y-49250500D01*
X34075910Y-49229729D01*
X34100901Y-49230324D01*
X34125647Y-49226766D01*
X34135227Y-49231141D01*
X34145756Y-49231392D01*
X34166459Y-49245404D01*
X34189203Y-49255791D01*
X34194897Y-49264651D01*
X34203618Y-49270554D01*
X34213459Y-49293534D01*
X34226977Y-49314569D01*
X34229256Y-49330423D01*
X34231123Y-49334782D01*
X34232000Y-49349504D01*
X34232000Y-49508823D01*
X34212315Y-49575862D01*
X34195682Y-49596504D01*
X34099500Y-49692686D01*
X34033608Y-49806812D01*
X33999500Y-49934108D01*
X33999500Y-50065891D01*
X34033608Y-50193187D01*
X34066554Y-50250250D01*
X34099500Y-50307314D01*
X34192686Y-50400500D01*
X34306814Y-50466392D01*
X34434108Y-50500500D01*
X34434110Y-50500500D01*
X34565890Y-50500500D01*
X34565892Y-50500500D01*
X34693186Y-50466392D01*
X34807314Y-50400500D01*
X34900500Y-50307314D01*
X34966392Y-50193186D01*
X35000500Y-50065892D01*
X35000500Y-49934108D01*
X34966392Y-49806814D01*
X34966390Y-49806810D01*
X34899613Y-49691149D01*
X34883000Y-49629149D01*
X34883000Y-42142689D01*
X34902685Y-42075650D01*
X34955489Y-42029895D01*
X35024647Y-42019951D01*
X35088203Y-42048976D01*
X35094681Y-42055008D01*
X35638181Y-42598508D01*
X35671666Y-42659831D01*
X35674500Y-42686189D01*
X35674500Y-44191324D01*
X35654815Y-44258363D01*
X35638181Y-44279005D01*
X35599502Y-44317683D01*
X35599500Y-44317686D01*
X35533608Y-44431812D01*
X35506125Y-44534383D01*
X35499500Y-44559108D01*
X35499500Y-44690892D01*
X35500862Y-44695975D01*
X35533608Y-44818187D01*
X35565391Y-44873236D01*
X35599500Y-44932314D01*
X35692686Y-45025500D01*
X35806814Y-45091392D01*
X35934108Y-45125500D01*
X35934110Y-45125500D01*
X36065890Y-45125500D01*
X36065892Y-45125500D01*
X36193186Y-45091392D01*
X36307314Y-45025500D01*
X36400500Y-44932314D01*
X36466392Y-44818186D01*
X36500500Y-44690892D01*
X36500500Y-44559108D01*
X36499809Y-44556530D01*
X37949500Y-44556530D01*
X37949500Y-44763469D01*
X37989868Y-44966412D01*
X37989870Y-44966420D01*
X38069058Y-45157596D01*
X38184024Y-45329657D01*
X38330342Y-45475975D01*
X38330345Y-45475977D01*
X38502402Y-45590941D01*
X38693580Y-45670130D01*
X38896530Y-45710499D01*
X38896534Y-45710500D01*
X38896535Y-45710500D01*
X39103466Y-45710500D01*
X39103467Y-45710499D01*
X39306420Y-45670130D01*
X39497598Y-45590941D01*
X39669655Y-45475977D01*
X39815977Y-45329655D01*
X39930941Y-45157598D01*
X40010130Y-44966420D01*
X40050500Y-44763465D01*
X40050500Y-44556535D01*
X40010130Y-44353580D01*
X39930941Y-44162402D01*
X39815977Y-43990345D01*
X39815975Y-43990342D01*
X39669657Y-43844024D01*
X39508559Y-43736383D01*
X39497598Y-43729059D01*
X39491579Y-43726566D01*
X39306420Y-43649870D01*
X39306412Y-43649868D01*
X39103469Y-43609500D01*
X39103465Y-43609500D01*
X38896535Y-43609500D01*
X38896530Y-43609500D01*
X38693587Y-43649868D01*
X38693579Y-43649870D01*
X38502403Y-43729058D01*
X38330342Y-43844024D01*
X38184024Y-43990342D01*
X38069058Y-44162403D01*
X37989870Y-44353579D01*
X37989868Y-44353587D01*
X37949500Y-44556530D01*
X36499809Y-44556530D01*
X36466392Y-44431814D01*
X36400500Y-44317686D01*
X36361819Y-44279005D01*
X36328334Y-44217682D01*
X36325500Y-44191324D01*
X36325500Y-42457149D01*
X36325499Y-42457145D01*
X36321917Y-42443777D01*
X36317265Y-42426412D01*
X36316756Y-42424512D01*
X36303319Y-42374363D01*
X36303318Y-42374361D01*
X36260465Y-42300138D01*
X35976857Y-42016530D01*
X37949500Y-42016530D01*
X37949500Y-42223469D01*
X37989868Y-42426412D01*
X37989870Y-42426420D01*
X38061151Y-42598508D01*
X38069059Y-42617598D01*
X38114890Y-42686189D01*
X38184024Y-42789657D01*
X38330342Y-42935975D01*
X38330345Y-42935977D01*
X38502402Y-43050941D01*
X38693580Y-43130130D01*
X38896530Y-43170499D01*
X38896534Y-43170500D01*
X38896535Y-43170500D01*
X39103466Y-43170500D01*
X39103467Y-43170499D01*
X39306420Y-43130130D01*
X39497598Y-43050941D01*
X39669655Y-42935977D01*
X39815977Y-42789655D01*
X39930941Y-42617598D01*
X40010130Y-42426420D01*
X40050500Y-42223465D01*
X40050500Y-42016535D01*
X40010130Y-41813580D01*
X39930941Y-41622402D01*
X39815977Y-41450345D01*
X39815975Y-41450342D01*
X39669657Y-41304024D01*
X39568644Y-41236530D01*
X39497598Y-41189059D01*
X39496999Y-41188811D01*
X39306420Y-41109870D01*
X39306412Y-41109868D01*
X39103469Y-41069500D01*
X39103465Y-41069500D01*
X38896535Y-41069500D01*
X38896530Y-41069500D01*
X38693587Y-41109868D01*
X38693579Y-41109870D01*
X38502403Y-41189058D01*
X38330342Y-41304024D01*
X38184024Y-41450342D01*
X38069058Y-41622403D01*
X37989870Y-41813579D01*
X37989868Y-41813587D01*
X37949500Y-42016530D01*
X35976857Y-42016530D01*
X35573503Y-41613176D01*
X35540018Y-41551853D01*
X35545002Y-41482161D01*
X35586874Y-41426228D01*
X35652338Y-41401811D01*
X35720611Y-41416663D01*
X35723144Y-41418085D01*
X35806814Y-41466392D01*
X35934108Y-41500500D01*
X35934110Y-41500500D01*
X36065890Y-41500500D01*
X36065892Y-41500500D01*
X36193186Y-41466392D01*
X36307314Y-41400500D01*
X36400500Y-41307314D01*
X36466392Y-41193186D01*
X36500500Y-41065892D01*
X36500500Y-40934108D01*
X36466392Y-40806814D01*
X36400500Y-40692686D01*
X36307314Y-40599500D01*
X36249103Y-40565892D01*
X36193187Y-40533608D01*
X36124370Y-40515169D01*
X36065892Y-40499500D01*
X36065891Y-40499500D01*
X36011189Y-40499500D01*
X35944150Y-40479815D01*
X35923508Y-40463181D01*
X34536819Y-39076492D01*
X34503334Y-39015169D01*
X34500500Y-38988811D01*
X34500500Y-38934110D01*
X34500500Y-38934108D01*
X34466392Y-38806814D01*
X34400500Y-38692686D01*
X34307314Y-38599500D01*
X34250250Y-38566554D01*
X34193187Y-38533608D01*
X34129539Y-38516554D01*
X34065892Y-38499500D01*
X33934108Y-38499500D01*
X33806812Y-38533608D01*
X33692686Y-38599500D01*
X33692683Y-38599502D01*
X33599502Y-38692683D01*
X33599500Y-38692686D01*
X33533608Y-38806812D01*
X33499500Y-38934108D01*
X33499500Y-39065891D01*
X33533608Y-39193187D01*
X33537599Y-39200099D01*
X33599500Y-39307314D01*
X33692686Y-39400500D01*
X33806814Y-39466392D01*
X33934108Y-39500500D01*
X33988811Y-39500500D01*
X34055850Y-39520185D01*
X34076492Y-39536819D01*
X34426496Y-39886823D01*
X34459981Y-39948146D01*
X34454997Y-40017838D01*
X34413125Y-40073771D01*
X34347661Y-40098188D01*
X34279388Y-40083336D01*
X34276815Y-40081891D01*
X34193189Y-40033609D01*
X34193186Y-40033608D01*
X34065892Y-39999500D01*
X33934108Y-39999500D01*
X33806812Y-40033608D01*
X33692686Y-40099500D01*
X33692683Y-40099502D01*
X33599502Y-40192683D01*
X33599500Y-40192686D01*
X33533608Y-40306812D01*
X33524112Y-40342255D01*
X33487747Y-40401916D01*
X33424900Y-40432445D01*
X33355525Y-40424150D01*
X33316656Y-40397843D01*
X32692424Y-39773611D01*
X32658939Y-39712288D01*
X32656105Y-39685930D01*
X32656105Y-36434108D01*
X33499500Y-36434108D01*
X33499500Y-36565892D01*
X33516554Y-36629539D01*
X33533608Y-36693187D01*
X33566554Y-36750250D01*
X33599500Y-36807314D01*
X33692686Y-36900500D01*
X33806814Y-36966392D01*
X33934108Y-37000500D01*
X33934110Y-37000500D01*
X34065890Y-37000500D01*
X34065892Y-37000500D01*
X34193186Y-36966392D01*
X34307314Y-36900500D01*
X34307316Y-36900497D01*
X34309141Y-36899444D01*
X34377041Y-36882971D01*
X34443068Y-36905823D01*
X34458823Y-36919150D01*
X36963181Y-39423507D01*
X36996666Y-39484830D01*
X36999500Y-39511188D01*
X36999500Y-39565891D01*
X37033608Y-39693187D01*
X37044733Y-39712455D01*
X37099500Y-39807314D01*
X37192686Y-39900500D01*
X37306814Y-39966392D01*
X37434108Y-40000500D01*
X37434110Y-40000500D01*
X37565890Y-40000500D01*
X37565892Y-40000500D01*
X37693186Y-39966392D01*
X37807314Y-39900500D01*
X37809298Y-39898515D01*
X37811382Y-39897377D01*
X37813760Y-39895553D01*
X37814044Y-39895923D01*
X37870615Y-39865029D01*
X37940307Y-39870009D01*
X37996243Y-39911877D01*
X38011542Y-39938741D01*
X38069057Y-40077596D01*
X38184024Y-40249657D01*
X38330342Y-40395975D01*
X38330345Y-40395977D01*
X38502402Y-40510941D01*
X38693580Y-40590130D01*
X38896530Y-40630499D01*
X38896534Y-40630500D01*
X38896535Y-40630500D01*
X39103466Y-40630500D01*
X39103467Y-40630499D01*
X39306420Y-40590130D01*
X39497598Y-40510941D01*
X39669655Y-40395977D01*
X39815977Y-40249655D01*
X39930941Y-40077598D01*
X40010130Y-39886420D01*
X40050500Y-39683465D01*
X40050500Y-39476535D01*
X40010130Y-39273580D01*
X39930941Y-39082402D01*
X39815977Y-38910345D01*
X39815975Y-38910342D01*
X39669657Y-38764024D01*
X39564487Y-38693753D01*
X43150000Y-38693753D01*
X43150000Y-38906246D01*
X43183242Y-39116127D01*
X43183242Y-39116130D01*
X43248904Y-39318217D01*
X43345375Y-39507550D01*
X43384728Y-39561716D01*
X44017037Y-38929408D01*
X44034075Y-38992993D01*
X44099901Y-39107007D01*
X44192993Y-39200099D01*
X44307007Y-39265925D01*
X44370590Y-39282962D01*
X43738282Y-39915269D01*
X43738282Y-39915270D01*
X43792449Y-39954624D01*
X43981782Y-40051095D01*
X44157973Y-40108343D01*
X44215648Y-40147780D01*
X44242847Y-40212139D01*
X44230932Y-40280985D01*
X44183688Y-40332461D01*
X44167108Y-40340835D01*
X44002403Y-40409057D01*
X43830342Y-40524024D01*
X43684024Y-40670342D01*
X43569058Y-40842403D01*
X43489870Y-41033579D01*
X43489868Y-41033587D01*
X43449500Y-41236530D01*
X43449500Y-41443469D01*
X43489868Y-41646412D01*
X43489870Y-41646420D01*
X43569058Y-41837596D01*
X43684024Y-42009657D01*
X43830342Y-42155975D01*
X43830345Y-42155977D01*
X44002402Y-42270941D01*
X44193580Y-42350130D01*
X44396530Y-42390499D01*
X44396534Y-42390500D01*
X44396535Y-42390500D01*
X44603466Y-42390500D01*
X44603467Y-42390499D01*
X44806420Y-42350130D01*
X44997598Y-42270941D01*
X45169655Y-42155977D01*
X45315977Y-42009655D01*
X45430941Y-41837598D01*
X45510130Y-41646420D01*
X45550500Y-41443465D01*
X45550500Y-41236535D01*
X45510130Y-41033580D01*
X45430941Y-40842402D01*
X45315977Y-40670345D01*
X45315975Y-40670342D01*
X45169657Y-40524024D01*
X45078598Y-40463181D01*
X44997598Y-40409059D01*
X44997593Y-40409057D01*
X44935891Y-40383499D01*
X44832890Y-40340834D01*
X44778488Y-40296994D01*
X44756423Y-40230700D01*
X44773702Y-40163001D01*
X44824839Y-40115390D01*
X44842026Y-40108343D01*
X45018217Y-40051095D01*
X45207554Y-39954622D01*
X45261716Y-39915270D01*
X45261717Y-39915270D01*
X44629408Y-39282962D01*
X44692993Y-39265925D01*
X44807007Y-39200099D01*
X44900099Y-39107007D01*
X44965925Y-38992993D01*
X44982962Y-38929409D01*
X45615270Y-39561717D01*
X45615270Y-39561716D01*
X45654622Y-39507554D01*
X45751095Y-39318217D01*
X45816757Y-39116130D01*
X45816757Y-39116127D01*
X45850000Y-38906246D01*
X45850000Y-38693753D01*
X45816757Y-38483872D01*
X45816757Y-38483869D01*
X45751095Y-38281782D01*
X45654624Y-38092449D01*
X45615270Y-38038282D01*
X45615269Y-38038282D01*
X44982962Y-38670590D01*
X44965925Y-38607007D01*
X44900099Y-38492993D01*
X44807007Y-38399901D01*
X44692993Y-38334075D01*
X44629409Y-38317037D01*
X45261716Y-37684728D01*
X45207550Y-37645375D01*
X45018216Y-37548904D01*
X44842026Y-37491656D01*
X44784350Y-37452218D01*
X44757152Y-37387860D01*
X44769067Y-37319013D01*
X44816311Y-37267538D01*
X44832882Y-37259168D01*
X44997598Y-37190941D01*
X45169655Y-37075977D01*
X45315977Y-36929655D01*
X45430941Y-36757598D01*
X45510130Y-36566420D01*
X45550500Y-36363465D01*
X45550500Y-36156535D01*
X45510130Y-35953580D01*
X45430941Y-35762402D01*
X45315977Y-35590345D01*
X45315975Y-35590342D01*
X45169657Y-35444024D01*
X45083626Y-35386541D01*
X44997598Y-35329059D01*
X44966015Y-35315977D01*
X44806420Y-35249870D01*
X44806412Y-35249868D01*
X44603469Y-35209500D01*
X44603465Y-35209500D01*
X44396535Y-35209500D01*
X44396530Y-35209500D01*
X44193587Y-35249868D01*
X44193579Y-35249870D01*
X44002403Y-35329058D01*
X43830342Y-35444024D01*
X43684024Y-35590342D01*
X43569058Y-35762403D01*
X43489870Y-35953579D01*
X43489868Y-35953587D01*
X43449500Y-36156530D01*
X43449500Y-36363469D01*
X43489868Y-36566412D01*
X43489870Y-36566420D01*
X43569058Y-36757596D01*
X43684024Y-36929657D01*
X43830342Y-37075975D01*
X44002405Y-37190943D01*
X44105043Y-37233456D01*
X44167108Y-37259164D01*
X44221511Y-37303005D01*
X44243576Y-37369299D01*
X44226297Y-37436998D01*
X44175160Y-37484609D01*
X44157974Y-37491656D01*
X43981781Y-37548905D01*
X43792439Y-37645380D01*
X43738282Y-37684727D01*
X43738282Y-37684728D01*
X44370591Y-38317037D01*
X44307007Y-38334075D01*
X44192993Y-38399901D01*
X44099901Y-38492993D01*
X44034075Y-38607007D01*
X44017037Y-38670591D01*
X43384728Y-38038282D01*
X43384727Y-38038282D01*
X43345380Y-38092439D01*
X43248904Y-38281782D01*
X43183242Y-38483869D01*
X43183242Y-38483872D01*
X43150000Y-38693753D01*
X39564487Y-38693753D01*
X39562886Y-38692683D01*
X39497598Y-38649059D01*
X39306420Y-38569870D01*
X39306412Y-38569868D01*
X39103469Y-38529500D01*
X39103465Y-38529500D01*
X38896535Y-38529500D01*
X38896530Y-38529500D01*
X38693587Y-38569868D01*
X38693579Y-38569870D01*
X38502403Y-38649058D01*
X38330342Y-38764024D01*
X38184024Y-38910342D01*
X38069057Y-39082405D01*
X38058404Y-39108123D01*
X38014562Y-39162525D01*
X37948268Y-39184589D01*
X37880569Y-39167309D01*
X37856163Y-39148349D01*
X37807316Y-39099502D01*
X37807314Y-39099500D01*
X37749102Y-39065891D01*
X37693187Y-39033608D01*
X37624370Y-39015169D01*
X37565892Y-38999500D01*
X37565891Y-38999500D01*
X37511188Y-38999500D01*
X37444149Y-38979815D01*
X37423507Y-38963181D01*
X35478451Y-37018124D01*
X35396857Y-36936530D01*
X37949500Y-36936530D01*
X37949500Y-37143469D01*
X37982725Y-37310500D01*
X37989870Y-37346420D01*
X38069059Y-37537598D01*
X38095047Y-37576492D01*
X38184024Y-37709657D01*
X38330342Y-37855975D01*
X38330345Y-37855977D01*
X38502402Y-37970941D01*
X38693580Y-38050130D01*
X38896530Y-38090499D01*
X38896534Y-38090500D01*
X38896535Y-38090500D01*
X39103466Y-38090500D01*
X39103467Y-38090499D01*
X39306420Y-38050130D01*
X39497598Y-37970941D01*
X39669655Y-37855977D01*
X39815977Y-37709655D01*
X39930941Y-37537598D01*
X40010130Y-37346420D01*
X40050500Y-37143465D01*
X40050500Y-36936535D01*
X40010130Y-36733580D01*
X39930941Y-36542402D01*
X39815977Y-36370345D01*
X39815975Y-36370342D01*
X39669657Y-36224024D01*
X39541182Y-36138181D01*
X39497598Y-36109059D01*
X39306420Y-36029870D01*
X39306412Y-36029868D01*
X39103469Y-35989500D01*
X39103465Y-35989500D01*
X38896535Y-35989500D01*
X38896530Y-35989500D01*
X38693587Y-36029868D01*
X38693579Y-36029870D01*
X38502403Y-36109058D01*
X38330342Y-36224024D01*
X38184024Y-36370342D01*
X38069058Y-36542403D01*
X37989870Y-36733579D01*
X37989868Y-36733587D01*
X37949500Y-36936530D01*
X35396857Y-36936530D01*
X34699864Y-36239537D01*
X34699863Y-36239536D01*
X34699862Y-36239535D01*
X34662750Y-36218108D01*
X34625640Y-36196682D01*
X34584246Y-36185591D01*
X34542853Y-36174500D01*
X34542852Y-36174500D01*
X34433676Y-36174500D01*
X34366637Y-36154815D01*
X34345995Y-36138181D01*
X34307316Y-36099502D01*
X34307314Y-36099500D01*
X34250250Y-36066554D01*
X34193187Y-36033608D01*
X34129539Y-36016554D01*
X34065892Y-35999500D01*
X33934108Y-35999500D01*
X33806812Y-36033608D01*
X33692686Y-36099500D01*
X33692683Y-36099502D01*
X33599502Y-36192683D01*
X33599500Y-36192686D01*
X33533608Y-36306812D01*
X33518428Y-36363466D01*
X33499500Y-36434108D01*
X32656105Y-36434108D01*
X32656105Y-34933676D01*
X32675790Y-34866637D01*
X32692424Y-34845995D01*
X32731105Y-34807314D01*
X32796997Y-34693186D01*
X32831105Y-34565892D01*
X32831105Y-34434108D01*
X32796997Y-34306814D01*
X32731105Y-34192686D01*
X32637919Y-34099500D01*
X32579705Y-34065890D01*
X32523792Y-34033608D01*
X32460144Y-34016554D01*
X32396497Y-33999500D01*
X32264713Y-33999500D01*
X32137417Y-34033608D01*
X32023291Y-34099500D01*
X32023288Y-34099502D01*
X31930107Y-34192683D01*
X31930105Y-34192686D01*
X31864213Y-34306812D01*
X31830105Y-34434108D01*
X31830105Y-34565891D01*
X31864213Y-34693187D01*
X31897159Y-34750250D01*
X31930105Y-34807314D01*
X31930107Y-34807316D01*
X31968786Y-34845995D01*
X32002271Y-34907318D01*
X32005105Y-34933676D01*
X32005105Y-39914971D01*
X32027287Y-39997759D01*
X32028870Y-40000500D01*
X32070140Y-40071981D01*
X32070142Y-40071983D01*
X34195681Y-42197522D01*
X34229166Y-42258845D01*
X34232000Y-42285203D01*
X34232000Y-42967995D01*
X34212315Y-43035034D01*
X34159511Y-43080789D01*
X34090353Y-43090733D01*
X34075907Y-43087770D01*
X33998392Y-43067000D01*
X33866608Y-43067000D01*
X33739312Y-43101108D01*
X33675102Y-43138181D01*
X33640969Y-43157887D01*
X33578970Y-43174500D01*
X24686189Y-43174500D01*
X24656748Y-43165855D01*
X24626762Y-43159332D01*
X24621746Y-43155577D01*
X24619150Y-43154815D01*
X24598508Y-43138181D01*
X24478761Y-43018434D01*
X24445276Y-42957111D01*
X24442442Y-42930753D01*
X24442442Y-42876052D01*
X24442442Y-42876050D01*
X24408334Y-42748756D01*
X24342442Y-42634628D01*
X24249256Y-42541442D01*
X24249253Y-42541440D01*
X24249249Y-42541437D01*
X24179757Y-42501315D01*
X24131542Y-42450748D01*
X24118320Y-42382140D01*
X24144288Y-42317276D01*
X24154069Y-42306256D01*
X28423507Y-38036819D01*
X28484830Y-38003334D01*
X28511188Y-38000500D01*
X28565890Y-38000500D01*
X28565892Y-38000500D01*
X28693186Y-37966392D01*
X28807314Y-37900500D01*
X28900500Y-37807314D01*
X28966392Y-37693186D01*
X29000500Y-37565892D01*
X29000500Y-37434108D01*
X28966392Y-37306814D01*
X28900500Y-37192686D01*
X28807314Y-37099500D01*
X28750250Y-37066554D01*
X28693187Y-37033608D01*
X28629539Y-37016554D01*
X28565892Y-36999500D01*
X28434108Y-36999500D01*
X28306812Y-37033608D01*
X28192686Y-37099500D01*
X28192683Y-37099502D01*
X28099502Y-37192683D01*
X28099500Y-37192686D01*
X28033608Y-37306812D01*
X27999500Y-37434108D01*
X27999500Y-37488811D01*
X27979815Y-37555850D01*
X27963181Y-37576492D01*
X21194537Y-44345135D01*
X21194535Y-44345138D01*
X21151682Y-44419361D01*
X21132832Y-44489712D01*
X21129500Y-44502147D01*
X21129500Y-46381122D01*
X21109815Y-46448161D01*
X21093181Y-46468803D01*
X21054502Y-46507481D01*
X21054500Y-46507484D01*
X20988608Y-46621610D01*
X20954500Y-46748906D01*
X20954500Y-46875500D01*
X20934815Y-46942539D01*
X20882011Y-46988294D01*
X20830500Y-46999500D01*
X20764108Y-46999500D01*
X20636812Y-47033608D01*
X20522686Y-47099500D01*
X20522683Y-47099502D01*
X20429502Y-47192683D01*
X20429500Y-47192686D01*
X20363608Y-47306812D01*
X20329500Y-47434108D01*
X20329500Y-47565891D01*
X20363608Y-47693187D01*
X20366154Y-47697596D01*
X20429500Y-47807314D01*
X20522686Y-47900500D01*
X20636814Y-47966392D01*
X20764108Y-48000500D01*
X20818812Y-48000500D01*
X20848252Y-48009144D01*
X20878239Y-48015668D01*
X20883254Y-48019422D01*
X20885851Y-48020185D01*
X20906493Y-48036819D01*
X21065194Y-48195520D01*
X21065215Y-48195543D01*
X21082491Y-48212819D01*
X21115976Y-48274142D01*
X21110992Y-48343834D01*
X21069120Y-48399767D01*
X21003656Y-48424184D01*
X20994810Y-48424500D01*
X20186189Y-48424500D01*
X20119150Y-48404815D01*
X20098508Y-48388181D01*
X19611819Y-47901492D01*
X19578334Y-47840169D01*
X19575500Y-47813811D01*
X19575500Y-47433676D01*
X19595185Y-47366637D01*
X19611819Y-47345995D01*
X19629480Y-47328334D01*
X19650500Y-47307314D01*
X19716392Y-47193186D01*
X19750500Y-47065892D01*
X19750500Y-46934108D01*
X19716392Y-46806814D01*
X19650500Y-46692686D01*
X19557314Y-46599500D01*
X19500250Y-46566554D01*
X19443187Y-46533608D01*
X19379539Y-46516554D01*
X19315892Y-46499500D01*
X19184108Y-46499500D01*
X19056812Y-46533608D01*
X18942686Y-46599500D01*
X18942683Y-46599502D01*
X18849502Y-46692683D01*
X18849500Y-46692686D01*
X18783608Y-46806812D01*
X18760359Y-46893580D01*
X18749500Y-46934108D01*
X12300500Y-46934108D01*
X12300500Y-29198263D01*
X15049500Y-29198263D01*
X15049500Y-41332147D01*
X15049500Y-41417853D01*
X15056363Y-41443465D01*
X15071682Y-41500640D01*
X15093108Y-41537750D01*
X15114535Y-41574862D01*
X15114537Y-41574864D01*
X17214733Y-43675060D01*
X17248218Y-43736383D01*
X17243234Y-43806075D01*
X17234439Y-43824741D01*
X17167493Y-43940694D01*
X17167493Y-43940695D01*
X17167493Y-43940696D01*
X17167492Y-43940698D01*
X17142597Y-44033608D01*
X17133384Y-44067992D01*
X17133384Y-44199775D01*
X17167492Y-44327071D01*
X17196663Y-44377596D01*
X17233384Y-44441198D01*
X17326570Y-44534384D01*
X17440698Y-44600276D01*
X17567992Y-44634384D01*
X17567994Y-44634384D01*
X17699774Y-44634384D01*
X17699776Y-44634384D01*
X17827070Y-44600276D01*
X17941198Y-44534384D01*
X18034384Y-44441198D01*
X18100276Y-44327070D01*
X18134384Y-44199776D01*
X18134384Y-44067992D01*
X18100276Y-43940698D01*
X18034384Y-43826570D01*
X17995703Y-43787889D01*
X17962218Y-43726566D01*
X17959384Y-43700208D01*
X17959384Y-43591033D01*
X17959384Y-43591031D01*
X17937202Y-43508246D01*
X17920179Y-43478761D01*
X17894353Y-43434028D01*
X17894347Y-43434020D01*
X15736819Y-41276492D01*
X15703334Y-41215169D01*
X15700500Y-41188811D01*
X15700500Y-29427305D01*
X15720185Y-29360266D01*
X15736819Y-29339624D01*
X16642335Y-28434108D01*
X30999500Y-28434108D01*
X30999500Y-28565891D01*
X31033608Y-28693187D01*
X31066554Y-28750250D01*
X31099500Y-28807314D01*
X31192686Y-28900500D01*
X31306814Y-28966392D01*
X31434108Y-29000500D01*
X31488811Y-29000500D01*
X31555850Y-29020185D01*
X31576492Y-29036819D01*
X35989534Y-33449861D01*
X35989535Y-33449862D01*
X36050138Y-33510465D01*
X36050140Y-33510466D01*
X36050144Y-33510469D01*
X36088915Y-33532853D01*
X36124362Y-33553318D01*
X36207147Y-33575500D01*
X38139505Y-33575500D01*
X38206544Y-33595185D01*
X38252299Y-33647989D01*
X38262243Y-33717147D01*
X38233218Y-33780703D01*
X38227186Y-33787181D01*
X38184025Y-33830341D01*
X38184024Y-33830342D01*
X38069058Y-34002403D01*
X37989870Y-34193579D01*
X37989868Y-34193587D01*
X37949500Y-34396530D01*
X37949500Y-34603469D01*
X37989868Y-34806412D01*
X37989870Y-34806420D01*
X38069058Y-34997596D01*
X38184024Y-35169657D01*
X38330342Y-35315975D01*
X38330345Y-35315977D01*
X38502402Y-35430941D01*
X38693580Y-35510130D01*
X38896530Y-35550499D01*
X38896534Y-35550500D01*
X38896535Y-35550500D01*
X39103466Y-35550500D01*
X39103467Y-35550499D01*
X39306420Y-35510130D01*
X39497598Y-35430941D01*
X39669655Y-35315977D01*
X39815977Y-35169655D01*
X39930941Y-34997598D01*
X40010130Y-34806420D01*
X40050500Y-34603465D01*
X40050500Y-34449500D01*
X40070185Y-34382461D01*
X40122989Y-34336706D01*
X40174500Y-34325500D01*
X48066324Y-34325500D01*
X48133363Y-34345185D01*
X48154005Y-34361819D01*
X48192686Y-34400500D01*
X48306814Y-34466392D01*
X48434108Y-34500500D01*
X48434110Y-34500500D01*
X48565890Y-34500500D01*
X48565892Y-34500500D01*
X48693186Y-34466392D01*
X48807314Y-34400500D01*
X48900500Y-34307314D01*
X48966392Y-34193186D01*
X49000500Y-34065892D01*
X49000500Y-33934108D01*
X48966392Y-33806814D01*
X48900500Y-33692686D01*
X48807314Y-33599500D01*
X48727318Y-33553314D01*
X48693187Y-33533608D01*
X48606807Y-33510463D01*
X48565892Y-33499500D01*
X48434108Y-33499500D01*
X48306812Y-33533608D01*
X48192686Y-33599500D01*
X48192683Y-33599502D01*
X48154005Y-33638181D01*
X48092682Y-33671666D01*
X48066324Y-33674500D01*
X43678605Y-33674500D01*
X43611566Y-33654815D01*
X43565811Y-33602011D01*
X43555867Y-33532853D01*
X43560831Y-33514752D01*
X43560392Y-33514635D01*
X43562496Y-33506784D01*
X43603419Y-33354057D01*
X43603419Y-33195943D01*
X43562496Y-33043216D01*
X43485683Y-32910170D01*
X43483443Y-32906290D01*
X43483440Y-32906287D01*
X43483439Y-32906284D01*
X43483436Y-32906281D01*
X43479044Y-32900557D01*
X43453849Y-32835388D01*
X43453419Y-32825069D01*
X43453419Y-32235046D01*
X43473104Y-32168007D01*
X43489738Y-32147365D01*
X44384664Y-31252439D01*
X45360489Y-30276614D01*
X45419799Y-30173887D01*
X45426285Y-30149675D01*
X45426286Y-30149675D01*
X45426286Y-30149671D01*
X45450500Y-30059309D01*
X45450500Y-24449930D01*
X45470185Y-24382891D01*
X45476128Y-24374438D01*
X45480512Y-24368723D01*
X45480520Y-24368716D01*
X45559577Y-24231784D01*
X45600500Y-24079057D01*
X45600500Y-23920943D01*
X45559577Y-23768216D01*
X45559573Y-23768209D01*
X45480524Y-23631290D01*
X45480518Y-23631282D01*
X45368717Y-23519481D01*
X45368709Y-23519475D01*
X45231790Y-23440426D01*
X45231786Y-23440424D01*
X45231784Y-23440423D01*
X45082789Y-23400500D01*
X45079050Y-23399498D01*
X45071893Y-23398556D01*
X45007997Y-23370287D01*
X45000402Y-23363299D01*
X44486819Y-22849716D01*
X44472115Y-22822788D01*
X44455523Y-22796970D01*
X44454631Y-22790769D01*
X44453334Y-22788393D01*
X44450500Y-22762035D01*
X44450500Y-22724930D01*
X44470185Y-22657891D01*
X44476128Y-22649438D01*
X44480512Y-22643723D01*
X44480520Y-22643716D01*
X44559577Y-22506784D01*
X44600500Y-22354057D01*
X44600500Y-22195943D01*
X44559577Y-22043216D01*
X44546026Y-22019745D01*
X44480524Y-21906290D01*
X44480518Y-21906282D01*
X44368717Y-21794481D01*
X44368709Y-21794475D01*
X44231790Y-21715426D01*
X44231786Y-21715424D01*
X44231784Y-21715423D01*
X44079057Y-21674500D01*
X43920943Y-21674500D01*
X43768216Y-21715423D01*
X43768209Y-21715426D01*
X43631290Y-21794475D01*
X43631282Y-21794481D01*
X43519481Y-21906282D01*
X43519475Y-21906290D01*
X43440426Y-22043209D01*
X43440423Y-22043216D01*
X43399500Y-22195943D01*
X43399500Y-22354057D01*
X43438606Y-22500000D01*
X43440423Y-22506783D01*
X43440426Y-22506790D01*
X43519473Y-22643706D01*
X43519477Y-22643712D01*
X43519480Y-22643716D01*
X43519482Y-22643718D01*
X43523872Y-22649438D01*
X43549069Y-22714606D01*
X43549500Y-22724930D01*
X43549500Y-23059309D01*
X43567273Y-23125638D01*
X43580201Y-23173887D01*
X43639511Y-23276614D01*
X43639513Y-23276616D01*
X44363299Y-24000402D01*
X44396784Y-24061725D01*
X44398556Y-24071893D01*
X44399498Y-24079050D01*
X44440423Y-24231783D01*
X44440426Y-24231790D01*
X44519473Y-24368706D01*
X44519477Y-24368712D01*
X44519480Y-24368716D01*
X44519482Y-24368718D01*
X44523872Y-24374438D01*
X44549069Y-24439606D01*
X44549500Y-24449930D01*
X44549500Y-29762035D01*
X44529815Y-29829074D01*
X44513181Y-29849716D01*
X42642432Y-31720464D01*
X42642428Y-31720470D01*
X42583120Y-31823193D01*
X42583119Y-31823198D01*
X42552419Y-31937772D01*
X42552419Y-32825069D01*
X42532734Y-32892108D01*
X42526794Y-32900557D01*
X42522394Y-32906290D01*
X42443345Y-33043209D01*
X42443342Y-33043216D01*
X42402419Y-33195943D01*
X42402419Y-33354057D01*
X42441390Y-33499500D01*
X42445446Y-33514635D01*
X42443109Y-33515260D01*
X42449261Y-33572528D01*
X42417980Y-33635004D01*
X42357888Y-33670651D01*
X42327233Y-33674500D01*
X40347890Y-33674500D01*
X40280851Y-33654815D01*
X40260209Y-33638181D01*
X39797438Y-33175410D01*
X39763953Y-33114087D01*
X39761501Y-33077998D01*
X39761715Y-33075269D01*
X39129408Y-32442962D01*
X39192993Y-32425925D01*
X39307007Y-32360099D01*
X39400099Y-32267007D01*
X39465925Y-32152993D01*
X39482962Y-32089408D01*
X40115270Y-32721717D01*
X40115270Y-32721716D01*
X40154622Y-32667554D01*
X40251095Y-32478217D01*
X40316757Y-32276130D01*
X40316757Y-32276127D01*
X40350000Y-32066246D01*
X40350000Y-31853753D01*
X40316757Y-31643872D01*
X40316757Y-31643869D01*
X40251095Y-31441782D01*
X40154624Y-31252449D01*
X40115270Y-31198282D01*
X40115269Y-31198282D01*
X39482962Y-31830590D01*
X39465925Y-31767007D01*
X39400099Y-31652993D01*
X39307007Y-31559901D01*
X39192993Y-31494075D01*
X39129409Y-31477037D01*
X39761716Y-30844728D01*
X39707550Y-30805375D01*
X39513879Y-30706694D01*
X39514396Y-30705678D01*
X39464192Y-30665221D01*
X39442127Y-30598927D01*
X39459406Y-30531228D01*
X39510542Y-30483617D01*
X39566048Y-30470500D01*
X39869750Y-30470500D01*
X39869751Y-30470499D01*
X39884568Y-30467552D01*
X39928229Y-30458868D01*
X39928229Y-30458867D01*
X39928231Y-30458867D01*
X39994552Y-30414552D01*
X40038867Y-30348231D01*
X40038867Y-30348229D01*
X40038868Y-30348229D01*
X40050499Y-30289752D01*
X40050500Y-30289750D01*
X40050500Y-28550249D01*
X40050499Y-28550247D01*
X40038868Y-28491770D01*
X40038867Y-28491769D01*
X39994552Y-28425447D01*
X39928230Y-28381132D01*
X39928229Y-28381131D01*
X39869752Y-28369500D01*
X39869748Y-28369500D01*
X38130252Y-28369500D01*
X38130247Y-28369500D01*
X38071770Y-28381131D01*
X38071769Y-28381132D01*
X38005447Y-28425447D01*
X37961132Y-28491769D01*
X37961131Y-28491770D01*
X37949500Y-28550247D01*
X37949500Y-30289752D01*
X37961131Y-30348229D01*
X37961132Y-30348230D01*
X38005447Y-30414552D01*
X38071769Y-30458867D01*
X38071770Y-30458868D01*
X38130247Y-30470499D01*
X38130250Y-30470500D01*
X38433952Y-30470500D01*
X38500991Y-30490185D01*
X38546746Y-30542989D01*
X38556690Y-30612147D01*
X38527665Y-30675703D01*
X38485735Y-30705938D01*
X38486121Y-30706694D01*
X38292439Y-30805380D01*
X38238282Y-30844727D01*
X38238282Y-30844728D01*
X38870591Y-31477037D01*
X38807007Y-31494075D01*
X38692993Y-31559901D01*
X38599901Y-31652993D01*
X38534075Y-31767007D01*
X38517037Y-31830591D01*
X37884728Y-31198282D01*
X37884727Y-31198282D01*
X37845380Y-31252439D01*
X37748904Y-31441782D01*
X37683242Y-31643869D01*
X37683242Y-31643872D01*
X37650000Y-31853753D01*
X37650000Y-32066246D01*
X37683242Y-32276127D01*
X37683242Y-32276130D01*
X37748904Y-32478217D01*
X37845379Y-32667557D01*
X37889013Y-32727615D01*
X37912493Y-32793421D01*
X37896667Y-32861475D01*
X37846562Y-32910170D01*
X37788695Y-32924500D01*
X36436189Y-32924500D01*
X36369150Y-32904815D01*
X36348508Y-32888181D01*
X32036819Y-28576492D01*
X32003334Y-28515169D01*
X32000500Y-28488811D01*
X32000500Y-28434110D01*
X32000500Y-28434108D01*
X31966392Y-28306814D01*
X31900500Y-28192686D01*
X31807314Y-28099500D01*
X31750250Y-28066554D01*
X31693187Y-28033608D01*
X31629539Y-28016554D01*
X31565892Y-27999500D01*
X31434108Y-27999500D01*
X31306812Y-28033608D01*
X31192686Y-28099500D01*
X31192683Y-28099502D01*
X31099502Y-28192683D01*
X31099500Y-28192686D01*
X31033608Y-28306812D01*
X30999500Y-28434108D01*
X16642335Y-28434108D01*
X21714624Y-23361819D01*
X21775947Y-23328334D01*
X21802305Y-23325500D01*
X36566324Y-23325500D01*
X36633363Y-23345185D01*
X36654005Y-23361819D01*
X36692686Y-23400500D01*
X36761840Y-23440426D01*
X36805795Y-23465804D01*
X36806814Y-23466392D01*
X36934108Y-23500500D01*
X36934110Y-23500500D01*
X37065890Y-23500500D01*
X37065892Y-23500500D01*
X37193186Y-23466392D01*
X37307314Y-23400500D01*
X37400500Y-23307314D01*
X37466392Y-23193186D01*
X37500500Y-23065892D01*
X37500500Y-22934108D01*
X37466392Y-22806814D01*
X37400500Y-22692686D01*
X37307314Y-22599500D01*
X37221708Y-22550075D01*
X37193187Y-22533608D01*
X37129539Y-22516554D01*
X37065892Y-22499500D01*
X36934108Y-22499500D01*
X36806812Y-22533608D01*
X36692686Y-22599500D01*
X36692683Y-22599502D01*
X36654005Y-22638181D01*
X36592682Y-22671666D01*
X36566324Y-22674500D01*
X21573263Y-22674500D01*
X21490475Y-22696682D01*
X21416254Y-22739535D01*
X21416251Y-22739537D01*
X15114537Y-29041251D01*
X15114533Y-29041257D01*
X15071681Y-29115477D01*
X15071682Y-29115478D01*
X15049500Y-29198263D01*
X12300500Y-29198263D01*
X12300500Y-21570730D01*
X54199500Y-21570730D01*
X54199500Y-22929269D01*
X54202353Y-22959699D01*
X54202353Y-22959701D01*
X54239512Y-23065891D01*
X54247207Y-23087882D01*
X54327850Y-23197150D01*
X54437118Y-23277793D01*
X54479845Y-23292744D01*
X54565299Y-23322646D01*
X54595730Y-23325500D01*
X54595734Y-23325500D01*
X55404270Y-23325500D01*
X55434699Y-23322646D01*
X55434701Y-23322646D01*
X55498790Y-23300219D01*
X55562882Y-23277793D01*
X55672150Y-23197150D01*
X55752793Y-23087882D01*
X55778895Y-23013285D01*
X55819615Y-22956513D01*
X55884567Y-22930765D01*
X55953129Y-22944221D01*
X56003532Y-22992608D01*
X56006419Y-22997947D01*
X56059194Y-23101521D01*
X56160967Y-23241602D01*
X56283397Y-23364032D01*
X56423475Y-23465804D01*
X56577744Y-23544408D01*
X56742415Y-23597914D01*
X56742414Y-23597914D01*
X56749999Y-23599115D01*
X56750000Y-23599114D01*
X56750000Y-22530330D01*
X56769745Y-22550075D01*
X56855255Y-22599444D01*
X56950630Y-22625000D01*
X57049370Y-22625000D01*
X57144745Y-22599444D01*
X57230255Y-22550075D01*
X57250000Y-22530330D01*
X57250000Y-23599115D01*
X57257584Y-23597914D01*
X57422255Y-23544408D01*
X57576524Y-23465804D01*
X57716602Y-23364032D01*
X57839032Y-23241602D01*
X57940804Y-23101524D01*
X58019408Y-22947257D01*
X58072914Y-22782584D01*
X58100000Y-22611571D01*
X58100000Y-22500000D01*
X57280330Y-22500000D01*
X57300075Y-22480255D01*
X57349444Y-22394745D01*
X57375000Y-22299370D01*
X57375000Y-22200630D01*
X57349444Y-22105255D01*
X57300075Y-22019745D01*
X57280330Y-22000000D01*
X58100000Y-22000000D01*
X58100000Y-21888428D01*
X58072914Y-21717415D01*
X58019408Y-21552742D01*
X57940804Y-21398475D01*
X57839032Y-21258397D01*
X57716602Y-21135967D01*
X57576524Y-21034195D01*
X57422257Y-20955591D01*
X57257589Y-20902087D01*
X57257581Y-20902085D01*
X57250000Y-20900884D01*
X57250000Y-21969670D01*
X57230255Y-21949925D01*
X57144745Y-21900556D01*
X57049370Y-21875000D01*
X56950630Y-21875000D01*
X56855255Y-21900556D01*
X56769745Y-21949925D01*
X56750000Y-21969670D01*
X56750000Y-20900884D01*
X56749999Y-20900884D01*
X56742418Y-20902085D01*
X56742410Y-20902087D01*
X56577742Y-20955591D01*
X56423475Y-21034195D01*
X56283397Y-21135967D01*
X56160967Y-21258397D01*
X56059194Y-21398478D01*
X56006419Y-21502052D01*
X55958444Y-21552848D01*
X55890623Y-21569642D01*
X55824488Y-21547104D01*
X55781038Y-21492388D01*
X55778908Y-21486751D01*
X55752793Y-21412118D01*
X55672150Y-21302850D01*
X55562882Y-21222207D01*
X55562880Y-21222206D01*
X55434700Y-21177353D01*
X55404270Y-21174500D01*
X55404266Y-21174500D01*
X54595734Y-21174500D01*
X54595730Y-21174500D01*
X54565300Y-21177353D01*
X54565298Y-21177353D01*
X54437119Y-21222206D01*
X54437117Y-21222207D01*
X54327850Y-21302850D01*
X54247207Y-21412117D01*
X54247206Y-21412119D01*
X54202353Y-21540298D01*
X54202353Y-21540300D01*
X54199500Y-21570730D01*
X12300500Y-21570730D01*
X12300500Y-18754114D01*
X21649437Y-18754114D01*
X21802063Y-18817334D01*
X21802071Y-18817336D01*
X21966277Y-18849999D01*
X21966280Y-18850000D01*
X22133720Y-18850000D01*
X22133722Y-18849999D01*
X22297928Y-18817336D01*
X22297936Y-18817334D01*
X22450561Y-18754114D01*
X27599437Y-18754114D01*
X27752063Y-18817334D01*
X27752071Y-18817336D01*
X27916277Y-18849999D01*
X27916280Y-18850000D01*
X28083720Y-18850000D01*
X28083722Y-18849999D01*
X28247928Y-18817336D01*
X28247937Y-18817334D01*
X28400561Y-18754114D01*
X28000001Y-18353553D01*
X28000000Y-18353553D01*
X27599437Y-18754114D01*
X22450561Y-18754114D01*
X22050001Y-18353553D01*
X22050000Y-18353553D01*
X21649437Y-18754114D01*
X12300500Y-18754114D01*
X12300500Y-15381995D01*
X13699500Y-15381995D01*
X13699500Y-15618004D01*
X13699501Y-15618020D01*
X13730277Y-15851792D01*
X13730307Y-15852014D01*
X13748470Y-15919799D01*
X13791394Y-16079993D01*
X13881714Y-16298045D01*
X13881719Y-16298056D01*
X13931987Y-16385121D01*
X13999727Y-16502450D01*
X13999729Y-16502453D01*
X13999730Y-16502454D01*
X14143406Y-16689697D01*
X14143412Y-16689704D01*
X14310295Y-16856587D01*
X14310301Y-16856592D01*
X14497550Y-17000273D01*
X14628918Y-17076118D01*
X14701943Y-17118280D01*
X14701948Y-17118282D01*
X14701951Y-17118284D01*
X14920007Y-17208606D01*
X15147986Y-17269693D01*
X15381989Y-17300500D01*
X15381996Y-17300500D01*
X15618004Y-17300500D01*
X15618011Y-17300500D01*
X15852014Y-17269693D01*
X16079993Y-17208606D01*
X16298049Y-17118284D01*
X16502450Y-17000273D01*
X16689699Y-16856592D01*
X16856592Y-16689699D01*
X17000273Y-16502450D01*
X17118284Y-16298049D01*
X17168661Y-16176428D01*
X19750000Y-16176428D01*
X19750000Y-16770000D01*
X20400000Y-16770000D01*
X20400000Y-17270000D01*
X19750000Y-17270000D01*
X19750000Y-17863571D01*
X19786506Y-18047097D01*
X19786508Y-18047105D01*
X19858119Y-18219991D01*
X19858124Y-18220000D01*
X19962086Y-18375589D01*
X19962089Y-18375593D01*
X20094406Y-18507910D01*
X20094410Y-18507913D01*
X20249999Y-18611875D01*
X20250012Y-18611882D01*
X20422889Y-18683489D01*
X20422896Y-18683491D01*
X20450000Y-18688882D01*
X20450000Y-17936988D01*
X20459940Y-17954205D01*
X20515795Y-18010060D01*
X20584204Y-18049556D01*
X20660504Y-18070000D01*
X20739496Y-18070000D01*
X20815796Y-18049556D01*
X20884205Y-18010060D01*
X20940060Y-17954205D01*
X20950000Y-17936988D01*
X20950000Y-18688881D01*
X20977103Y-18683491D01*
X20977110Y-18683489D01*
X21136619Y-18617419D01*
X21251849Y-18447715D01*
X21255447Y-18444752D01*
X21257193Y-18440430D01*
X21266755Y-18429690D01*
X21696445Y-17999999D01*
X21656664Y-17960218D01*
X21850000Y-17960218D01*
X21850000Y-18039782D01*
X21880448Y-18113291D01*
X21936709Y-18169552D01*
X22010218Y-18200000D01*
X22089782Y-18200000D01*
X22163291Y-18169552D01*
X22219552Y-18113291D01*
X22250000Y-18039782D01*
X22250000Y-17960218D01*
X22239185Y-17934108D01*
X22399500Y-17934108D01*
X22399500Y-18065891D01*
X22433608Y-18193187D01*
X22466554Y-18250250D01*
X22499500Y-18307314D01*
X22592686Y-18400500D01*
X22706814Y-18466392D01*
X22834108Y-18500500D01*
X22834110Y-18500500D01*
X22965890Y-18500500D01*
X22965892Y-18500500D01*
X23093186Y-18466392D01*
X23207314Y-18400500D01*
X23237319Y-18370495D01*
X23298642Y-18337010D01*
X23368334Y-18341994D01*
X23412681Y-18370495D01*
X23442686Y-18400500D01*
X23556814Y-18466392D01*
X23684108Y-18500500D01*
X23684110Y-18500500D01*
X23815890Y-18500500D01*
X23815892Y-18500500D01*
X23943186Y-18466392D01*
X24057314Y-18400500D01*
X24087319Y-18370495D01*
X24148642Y-18337010D01*
X24218334Y-18341994D01*
X24262681Y-18370495D01*
X24292686Y-18400500D01*
X24406814Y-18466392D01*
X24534108Y-18500500D01*
X24534110Y-18500500D01*
X24665890Y-18500500D01*
X24665892Y-18500500D01*
X24793186Y-18466392D01*
X24907314Y-18400500D01*
X24937319Y-18370495D01*
X24998642Y-18337010D01*
X25068334Y-18341994D01*
X25112681Y-18370495D01*
X25142686Y-18400500D01*
X25256814Y-18466392D01*
X25384108Y-18500500D01*
X25384110Y-18500500D01*
X25515890Y-18500500D01*
X25515892Y-18500500D01*
X25643186Y-18466392D01*
X25757314Y-18400500D01*
X25787319Y-18370495D01*
X25848642Y-18337010D01*
X25918334Y-18341994D01*
X25962681Y-18370495D01*
X25992686Y-18400500D01*
X26106814Y-18466392D01*
X26234108Y-18500500D01*
X26234110Y-18500500D01*
X26365890Y-18500500D01*
X26365892Y-18500500D01*
X26493186Y-18466392D01*
X26607314Y-18400500D01*
X26637319Y-18370495D01*
X26698642Y-18337010D01*
X26768334Y-18341994D01*
X26812681Y-18370495D01*
X26842686Y-18400500D01*
X26956814Y-18466392D01*
X27084108Y-18500500D01*
X27084110Y-18500500D01*
X27215890Y-18500500D01*
X27215892Y-18500500D01*
X27343186Y-18466392D01*
X27457314Y-18400500D01*
X27550500Y-18307314D01*
X27616392Y-18193186D01*
X27650500Y-18065892D01*
X27650500Y-17960218D01*
X27800000Y-17960218D01*
X27800000Y-18039782D01*
X27830448Y-18113291D01*
X27886709Y-18169552D01*
X27960218Y-18200000D01*
X28039782Y-18200000D01*
X28113291Y-18169552D01*
X28169552Y-18113291D01*
X28200000Y-18039782D01*
X28200000Y-17960218D01*
X28169552Y-17886709D01*
X28113291Y-17830448D01*
X28039782Y-17800000D01*
X27960218Y-17800000D01*
X27886709Y-17830448D01*
X27830448Y-17886709D01*
X27800000Y-17960218D01*
X27650500Y-17960218D01*
X27650500Y-17934108D01*
X27616392Y-17806814D01*
X27550500Y-17692686D01*
X27457314Y-17599500D01*
X27400250Y-17566554D01*
X27343187Y-17533608D01*
X27255713Y-17510170D01*
X27215892Y-17499500D01*
X27084108Y-17499500D01*
X26956812Y-17533608D01*
X26842686Y-17599500D01*
X26842683Y-17599502D01*
X26812681Y-17629505D01*
X26751358Y-17662990D01*
X26681666Y-17658006D01*
X26637319Y-17629505D01*
X26607316Y-17599502D01*
X26607314Y-17599500D01*
X26550250Y-17566554D01*
X26493187Y-17533608D01*
X26405713Y-17510170D01*
X26365892Y-17499500D01*
X26234108Y-17499500D01*
X26106812Y-17533608D01*
X25992686Y-17599500D01*
X25992683Y-17599502D01*
X25962681Y-17629505D01*
X25901358Y-17662990D01*
X25831666Y-17658006D01*
X25787319Y-17629505D01*
X25757316Y-17599502D01*
X25757314Y-17599500D01*
X25700250Y-17566554D01*
X25643187Y-17533608D01*
X25555713Y-17510170D01*
X25515892Y-17499500D01*
X25384108Y-17499500D01*
X25256812Y-17533608D01*
X25142686Y-17599500D01*
X25142683Y-17599502D01*
X25112681Y-17629505D01*
X25051358Y-17662990D01*
X24981666Y-17658006D01*
X24937319Y-17629505D01*
X24907316Y-17599502D01*
X24907314Y-17599500D01*
X24850250Y-17566554D01*
X24793187Y-17533608D01*
X24705713Y-17510170D01*
X24665892Y-17499500D01*
X24534108Y-17499500D01*
X24406812Y-17533608D01*
X24292686Y-17599500D01*
X24292683Y-17599502D01*
X24262681Y-17629505D01*
X24201358Y-17662990D01*
X24131666Y-17658006D01*
X24087319Y-17629505D01*
X24057316Y-17599502D01*
X24057314Y-17599500D01*
X24000250Y-17566554D01*
X23943187Y-17533608D01*
X23855713Y-17510170D01*
X23815892Y-17499500D01*
X23684108Y-17499500D01*
X23556812Y-17533608D01*
X23442686Y-17599500D01*
X23442683Y-17599502D01*
X23412681Y-17629505D01*
X23351358Y-17662990D01*
X23281666Y-17658006D01*
X23237319Y-17629505D01*
X23207316Y-17599502D01*
X23207314Y-17599500D01*
X23150250Y-17566554D01*
X23093187Y-17533608D01*
X23005713Y-17510170D01*
X22965892Y-17499500D01*
X22834108Y-17499500D01*
X22706812Y-17533608D01*
X22592686Y-17599500D01*
X22592683Y-17599502D01*
X22499502Y-17692683D01*
X22499500Y-17692686D01*
X22433608Y-17806812D01*
X22399500Y-17934108D01*
X22239185Y-17934108D01*
X22219552Y-17886709D01*
X22163291Y-17830448D01*
X22089782Y-17800000D01*
X22010218Y-17800000D01*
X21936709Y-17830448D01*
X21880448Y-17886709D01*
X21850000Y-17960218D01*
X21656664Y-17960218D01*
X21267939Y-17571493D01*
X21234454Y-17510170D01*
X21239438Y-17440478D01*
X21245212Y-17427367D01*
X21297546Y-17325000D01*
X21728553Y-17325000D01*
X22050000Y-17646446D01*
X22050001Y-17646446D01*
X22371446Y-17325001D01*
X22371446Y-17325000D01*
X27678553Y-17325000D01*
X28000000Y-17646446D01*
X28000001Y-17646446D01*
X28321446Y-17325001D01*
X28321446Y-17324999D01*
X28000001Y-17003553D01*
X28000000Y-17003553D01*
X27678553Y-17325000D01*
X22371446Y-17325000D01*
X22371446Y-17324999D01*
X22050001Y-17003553D01*
X22050000Y-17003553D01*
X21728553Y-17325000D01*
X21297546Y-17325000D01*
X21311593Y-17297523D01*
X21267938Y-17253868D01*
X21234454Y-17192545D01*
X21239438Y-17122853D01*
X21267939Y-17078506D01*
X21785542Y-16560904D01*
X21846865Y-16527419D01*
X21886876Y-16530280D01*
X21880448Y-16536709D01*
X21850000Y-16610218D01*
X21850000Y-16689782D01*
X21880448Y-16763291D01*
X21936709Y-16819552D01*
X22010218Y-16850000D01*
X22089782Y-16850000D01*
X22163291Y-16819552D01*
X22219552Y-16763291D01*
X22250000Y-16689782D01*
X22250000Y-16610218D01*
X22219552Y-16536709D01*
X22210510Y-16527667D01*
X22217931Y-16524901D01*
X22243751Y-16530517D01*
X22270111Y-16532403D01*
X22279164Y-16538221D01*
X22286204Y-16539753D01*
X22314458Y-16560904D01*
X22363181Y-16609627D01*
X22396666Y-16670950D01*
X22399500Y-16697308D01*
X22399500Y-16715891D01*
X22433608Y-16843187D01*
X22452335Y-16875622D01*
X22499500Y-16957314D01*
X22592686Y-17050500D01*
X22691521Y-17107563D01*
X22697909Y-17111251D01*
X22706814Y-17116392D01*
X22834108Y-17150500D01*
X22834110Y-17150500D01*
X22965890Y-17150500D01*
X22965892Y-17150500D01*
X23093186Y-17116392D01*
X23207314Y-17050500D01*
X23237319Y-17020495D01*
X23298642Y-16987010D01*
X23368334Y-16991994D01*
X23412681Y-17020495D01*
X23442686Y-17050500D01*
X23541521Y-17107563D01*
X23547909Y-17111251D01*
X23556814Y-17116392D01*
X23684108Y-17150500D01*
X23684110Y-17150500D01*
X23815890Y-17150500D01*
X23815892Y-17150500D01*
X23943186Y-17116392D01*
X24057314Y-17050500D01*
X24087319Y-17020495D01*
X24148642Y-16987010D01*
X24218334Y-16991994D01*
X24262681Y-17020495D01*
X24292686Y-17050500D01*
X24391521Y-17107563D01*
X24397909Y-17111251D01*
X24406814Y-17116392D01*
X24534108Y-17150500D01*
X24534110Y-17150500D01*
X24665890Y-17150500D01*
X24665892Y-17150500D01*
X24793186Y-17116392D01*
X24907314Y-17050500D01*
X24937319Y-17020495D01*
X24998642Y-16987010D01*
X25068334Y-16991994D01*
X25112681Y-17020495D01*
X25142686Y-17050500D01*
X25241521Y-17107563D01*
X25247909Y-17111251D01*
X25256814Y-17116392D01*
X25384108Y-17150500D01*
X25384110Y-17150500D01*
X25515890Y-17150500D01*
X25515892Y-17150500D01*
X25643186Y-17116392D01*
X25757314Y-17050500D01*
X25787319Y-17020495D01*
X25848642Y-16987010D01*
X25918334Y-16991994D01*
X25962681Y-17020495D01*
X25992686Y-17050500D01*
X26091521Y-17107563D01*
X26097909Y-17111251D01*
X26106814Y-17116392D01*
X26234108Y-17150500D01*
X26234110Y-17150500D01*
X26365890Y-17150500D01*
X26365892Y-17150500D01*
X26493186Y-17116392D01*
X26607314Y-17050500D01*
X26637319Y-17020495D01*
X26698642Y-16987010D01*
X26768334Y-16991994D01*
X26812681Y-17020495D01*
X26842686Y-17050500D01*
X26941521Y-17107563D01*
X26947909Y-17111251D01*
X26956814Y-17116392D01*
X27084108Y-17150500D01*
X27084110Y-17150500D01*
X27215889Y-17150500D01*
X27215892Y-17150500D01*
X27343186Y-17116392D01*
X27457314Y-17050500D01*
X27550500Y-16957314D01*
X27616392Y-16843186D01*
X27650500Y-16715892D01*
X27650500Y-16610218D01*
X27800000Y-16610218D01*
X27800000Y-16689782D01*
X27830448Y-16763291D01*
X27886709Y-16819552D01*
X27960218Y-16850000D01*
X28039782Y-16850000D01*
X28113291Y-16819552D01*
X28169552Y-16763291D01*
X28200000Y-16689782D01*
X28200000Y-16610218D01*
X28169552Y-16536709D01*
X28113291Y-16480448D01*
X28039782Y-16450000D01*
X27960218Y-16450000D01*
X27886709Y-16480448D01*
X27830448Y-16536709D01*
X27800000Y-16610218D01*
X27650500Y-16610218D01*
X27650500Y-16584108D01*
X27616392Y-16456814D01*
X27550500Y-16342686D01*
X27457314Y-16249500D01*
X27366103Y-16196839D01*
X27343187Y-16183608D01*
X27279539Y-16166554D01*
X27215892Y-16149500D01*
X27084108Y-16149500D01*
X26956812Y-16183608D01*
X26842686Y-16249500D01*
X26842683Y-16249502D01*
X26812681Y-16279505D01*
X26751358Y-16312990D01*
X26681666Y-16308006D01*
X26637319Y-16279505D01*
X26607316Y-16249502D01*
X26607314Y-16249500D01*
X26516103Y-16196839D01*
X26493187Y-16183608D01*
X26429539Y-16166554D01*
X26365892Y-16149500D01*
X26234108Y-16149500D01*
X26106812Y-16183608D01*
X25992686Y-16249500D01*
X25992683Y-16249502D01*
X25962681Y-16279505D01*
X25901358Y-16312990D01*
X25831666Y-16308006D01*
X25787319Y-16279505D01*
X25757316Y-16249502D01*
X25757314Y-16249500D01*
X25666103Y-16196839D01*
X25643187Y-16183608D01*
X25579539Y-16166554D01*
X25515892Y-16149500D01*
X25384108Y-16149500D01*
X25256812Y-16183608D01*
X25142686Y-16249500D01*
X25142683Y-16249502D01*
X25112681Y-16279505D01*
X25051358Y-16312990D01*
X24981666Y-16308006D01*
X24937319Y-16279505D01*
X24907316Y-16249502D01*
X24907314Y-16249500D01*
X24816103Y-16196839D01*
X24793187Y-16183608D01*
X24729539Y-16166554D01*
X24665892Y-16149500D01*
X24534108Y-16149500D01*
X24406812Y-16183608D01*
X24292686Y-16249500D01*
X24292683Y-16249502D01*
X24262681Y-16279505D01*
X24201358Y-16312990D01*
X24131666Y-16308006D01*
X24104118Y-16293568D01*
X24095098Y-16287284D01*
X24057314Y-16249500D01*
X23943186Y-16183608D01*
X23942987Y-16183493D01*
X23936793Y-16176997D01*
X23935712Y-16176244D01*
X23933771Y-16173828D01*
X23894771Y-16132926D01*
X23892830Y-16122856D01*
X23891958Y-16121770D01*
X23891149Y-16114132D01*
X23881549Y-16064319D01*
X23884968Y-16055777D01*
X23884599Y-16052289D01*
X23893281Y-16035013D01*
X23907517Y-15999454D01*
X23915895Y-15990016D01*
X23915974Y-15989860D01*
X23916100Y-15989785D01*
X23917317Y-15988414D01*
X23918942Y-15986789D01*
X23947809Y-15971039D01*
X23976119Y-15954303D01*
X23978332Y-15954385D01*
X23980274Y-15953326D01*
X24006594Y-15950500D01*
X24059306Y-15950500D01*
X24059309Y-15950500D01*
X24173886Y-15919799D01*
X24215308Y-15895884D01*
X27599437Y-15895884D01*
X28176777Y-16473223D01*
X28782060Y-17078506D01*
X28815545Y-17139829D01*
X28810561Y-17209521D01*
X28782061Y-17253868D01*
X28710929Y-17325000D01*
X28782060Y-17396131D01*
X28815545Y-17457454D01*
X28810561Y-17527146D01*
X28782060Y-17571493D01*
X28353553Y-18000000D01*
X28783243Y-18429690D01*
X28816728Y-18491013D01*
X28818965Y-18505217D01*
X28824501Y-18561427D01*
X28900005Y-18611878D01*
X28900012Y-18611882D01*
X29072889Y-18683489D01*
X29072896Y-18683491D01*
X29100000Y-18688882D01*
X29100000Y-17936988D01*
X29109940Y-17954205D01*
X29165795Y-18010060D01*
X29234204Y-18049556D01*
X29310504Y-18070000D01*
X29389496Y-18070000D01*
X29465796Y-18049556D01*
X29534205Y-18010060D01*
X29590060Y-17954205D01*
X29600000Y-17936988D01*
X29600000Y-18736872D01*
X29604330Y-18752058D01*
X29600121Y-18779786D01*
X29600203Y-18782827D01*
X29599344Y-18784908D01*
X29599034Y-18786953D01*
X29594887Y-18800676D01*
X29580201Y-18826114D01*
X29549500Y-18940691D01*
X29549500Y-19059309D01*
X29580201Y-19173886D01*
X29639511Y-19276613D01*
X29723387Y-19360489D01*
X29826114Y-19419799D01*
X29940691Y-19450500D01*
X29940694Y-19450500D01*
X31014308Y-19450500D01*
X31014309Y-19450500D01*
X31104673Y-19426286D01*
X31128887Y-19419799D01*
X31231614Y-19360489D01*
X32360489Y-18231614D01*
X32419799Y-18128887D01*
X32436678Y-18065892D01*
X32450500Y-18014309D01*
X32450500Y-17895691D01*
X32450498Y-17895685D01*
X32450188Y-17893328D01*
X32450500Y-17891326D01*
X32450500Y-17887564D01*
X32451087Y-17887564D01*
X32452644Y-17877577D01*
X34975975Y-17877577D01*
X35081236Y-17921178D01*
X35081240Y-17921179D01*
X35226126Y-17949999D01*
X35226129Y-17950000D01*
X35373871Y-17950000D01*
X35373873Y-17949999D01*
X35518760Y-17921179D01*
X35518775Y-17921175D01*
X35624024Y-17877578D01*
X35624024Y-17877577D01*
X36375975Y-17877577D01*
X36481236Y-17921178D01*
X36481240Y-17921179D01*
X36626126Y-17949999D01*
X36626129Y-17950000D01*
X36773871Y-17950000D01*
X36773873Y-17949999D01*
X36918760Y-17921179D01*
X36918775Y-17921175D01*
X37024024Y-17877578D01*
X37024024Y-17877577D01*
X36700001Y-17553554D01*
X36700000Y-17553554D01*
X36375975Y-17877577D01*
X35624024Y-17877577D01*
X35300001Y-17553554D01*
X35300000Y-17553554D01*
X34975975Y-17877577D01*
X32452644Y-17877577D01*
X32454860Y-17863357D01*
X32457201Y-17833126D01*
X32460189Y-17829181D01*
X32460952Y-17824292D01*
X32481080Y-17801612D01*
X32499398Y-17777438D01*
X32504881Y-17774794D01*
X32507330Y-17772035D01*
X32530473Y-17760705D01*
X32535664Y-17758803D01*
X32600427Y-17741450D01*
X32703154Y-17682140D01*
X32787030Y-17598264D01*
X32846340Y-17495537D01*
X32877041Y-17380960D01*
X32877041Y-17126126D01*
X34550000Y-17126126D01*
X34550000Y-17273873D01*
X34578820Y-17418759D01*
X34578822Y-17418767D01*
X34622421Y-17524024D01*
X34946446Y-17200000D01*
X34946446Y-17199999D01*
X34926556Y-17180109D01*
X35200000Y-17180109D01*
X35200000Y-17219891D01*
X35215224Y-17256645D01*
X35243355Y-17284776D01*
X35280109Y-17300000D01*
X35319891Y-17300000D01*
X35356645Y-17284776D01*
X35384776Y-17256645D01*
X35400000Y-17219891D01*
X35400000Y-17199999D01*
X35653554Y-17199999D01*
X35653554Y-17200001D01*
X35977929Y-17524376D01*
X36022069Y-17524376D01*
X36346446Y-17200000D01*
X36326555Y-17180109D01*
X36600000Y-17180109D01*
X36600000Y-17219891D01*
X36615224Y-17256645D01*
X36643355Y-17284776D01*
X36680109Y-17300000D01*
X36719891Y-17300000D01*
X36756645Y-17284776D01*
X36784776Y-17256645D01*
X36800000Y-17219891D01*
X36800000Y-17199999D01*
X37053554Y-17199999D01*
X37053554Y-17200001D01*
X37377577Y-17524024D01*
X37377578Y-17524024D01*
X37421175Y-17418775D01*
X37421179Y-17418760D01*
X37449999Y-17273873D01*
X37450000Y-17273871D01*
X37450000Y-17126128D01*
X37449999Y-17126126D01*
X37421179Y-16981240D01*
X37421177Y-16981232D01*
X37417948Y-16973436D01*
X37417947Y-16973434D01*
X37401657Y-16934108D01*
X39499500Y-16934108D01*
X39499500Y-17065892D01*
X39515640Y-17126128D01*
X39533608Y-17193187D01*
X39543039Y-17209521D01*
X39599500Y-17307314D01*
X39692686Y-17400500D01*
X39806814Y-17466392D01*
X39934108Y-17500500D01*
X39988811Y-17500500D01*
X40055850Y-17520185D01*
X40076492Y-17536819D01*
X40420577Y-17880904D01*
X40454062Y-17942227D01*
X40456896Y-17968585D01*
X40456896Y-18023288D01*
X40468311Y-18065890D01*
X40491004Y-18150583D01*
X40521400Y-18203229D01*
X40556896Y-18264710D01*
X40650082Y-18357896D01*
X40764210Y-18423788D01*
X40891504Y-18457896D01*
X40891506Y-18457896D01*
X41023286Y-18457896D01*
X41023288Y-18457896D01*
X41150582Y-18423788D01*
X41264710Y-18357896D01*
X41357896Y-18264710D01*
X41423788Y-18150582D01*
X41457896Y-18023288D01*
X41457896Y-17891504D01*
X41423788Y-17764210D01*
X41421764Y-17760705D01*
X41406993Y-17735121D01*
X41357896Y-17650082D01*
X41264710Y-17556896D01*
X41199568Y-17519286D01*
X41150583Y-17491004D01*
X41086935Y-17473950D01*
X41023288Y-17456896D01*
X41023287Y-17456896D01*
X40968585Y-17456896D01*
X40901546Y-17437211D01*
X40880904Y-17420577D01*
X40536819Y-17076492D01*
X40503334Y-17015169D01*
X40500500Y-16988811D01*
X40500500Y-16934110D01*
X40500500Y-16934108D01*
X40466392Y-16806814D01*
X40400500Y-16692686D01*
X40307314Y-16599500D01*
X40232949Y-16556565D01*
X40193187Y-16533608D01*
X40167078Y-16526612D01*
X40065892Y-16499500D01*
X39934108Y-16499500D01*
X39806812Y-16533608D01*
X39692686Y-16599500D01*
X39692683Y-16599502D01*
X39599502Y-16692683D01*
X39599500Y-16692686D01*
X39533608Y-16806812D01*
X39522036Y-16850000D01*
X39499500Y-16934108D01*
X37401657Y-16934108D01*
X37377577Y-16875974D01*
X37053554Y-17199999D01*
X36800000Y-17199999D01*
X36800000Y-17180109D01*
X36784776Y-17143355D01*
X36756645Y-17115224D01*
X36719891Y-17100000D01*
X36680109Y-17100000D01*
X36643355Y-17115224D01*
X36615224Y-17143355D01*
X36600000Y-17180109D01*
X36326555Y-17180109D01*
X36022068Y-16875622D01*
X35977930Y-16875622D01*
X35653554Y-17199999D01*
X35400000Y-17199999D01*
X35400000Y-17180109D01*
X35384776Y-17143355D01*
X35356645Y-17115224D01*
X35319891Y-17100000D01*
X35280109Y-17100000D01*
X35243355Y-17115224D01*
X35215224Y-17143355D01*
X35200000Y-17180109D01*
X34926556Y-17180109D01*
X34622421Y-16875974D01*
X34622420Y-16875974D01*
X34578823Y-16981228D01*
X34578820Y-16981240D01*
X34550000Y-17126126D01*
X32877041Y-17126126D01*
X32877041Y-16711422D01*
X32885685Y-16681981D01*
X32892209Y-16651995D01*
X32895963Y-16646979D01*
X32896726Y-16644383D01*
X32913360Y-16623741D01*
X32937101Y-16600000D01*
X35053554Y-16600000D01*
X35300000Y-16846446D01*
X35546446Y-16600000D01*
X36453554Y-16600000D01*
X36700000Y-16846446D01*
X36946446Y-16600000D01*
X36751693Y-16405247D01*
X50449500Y-16405247D01*
X50449500Y-18144752D01*
X50461131Y-18203229D01*
X50461132Y-18203230D01*
X50505447Y-18269552D01*
X50571769Y-18313867D01*
X50571770Y-18313868D01*
X50630247Y-18325499D01*
X50630250Y-18325500D01*
X50630252Y-18325500D01*
X52369750Y-18325500D01*
X52369751Y-18325499D01*
X52384568Y-18322552D01*
X52428229Y-18313868D01*
X52428229Y-18313867D01*
X52428231Y-18313867D01*
X52494552Y-18269552D01*
X52538867Y-18203231D01*
X52538867Y-18203229D01*
X52538868Y-18203229D01*
X52549339Y-18150583D01*
X52550500Y-18144748D01*
X52550500Y-16405252D01*
X52550500Y-16405249D01*
X52550499Y-16405247D01*
X52538868Y-16346770D01*
X52538867Y-16346769D01*
X52494552Y-16280447D01*
X52428230Y-16236132D01*
X52428229Y-16236131D01*
X52369752Y-16224500D01*
X52369748Y-16224500D01*
X50630252Y-16224500D01*
X50630247Y-16224500D01*
X50571770Y-16236131D01*
X50571769Y-16236132D01*
X50505447Y-16280447D01*
X50461132Y-16346769D01*
X50461131Y-16346770D01*
X50449500Y-16405247D01*
X36751693Y-16405247D01*
X36700000Y-16353554D01*
X36453554Y-16600000D01*
X35546446Y-16600000D01*
X35300000Y-16353554D01*
X35053554Y-16600000D01*
X32937101Y-16600000D01*
X33076144Y-16460957D01*
X33389459Y-16147642D01*
X33610975Y-15926126D01*
X34550000Y-15926126D01*
X34550000Y-16073873D01*
X34578820Y-16218759D01*
X34578822Y-16218767D01*
X34622421Y-16324024D01*
X34946446Y-16000000D01*
X34946446Y-15999999D01*
X34926556Y-15980109D01*
X35200000Y-15980109D01*
X35200000Y-16019891D01*
X35215224Y-16056645D01*
X35243355Y-16084776D01*
X35280109Y-16100000D01*
X35319891Y-16100000D01*
X35356645Y-16084776D01*
X35384776Y-16056645D01*
X35400000Y-16019891D01*
X35400000Y-15999999D01*
X35653554Y-15999999D01*
X35653554Y-16000001D01*
X35977929Y-16324376D01*
X36022069Y-16324376D01*
X36346446Y-16000000D01*
X36326555Y-15980109D01*
X36600000Y-15980109D01*
X36600000Y-16019891D01*
X36615224Y-16056645D01*
X36643355Y-16084776D01*
X36680109Y-16100000D01*
X36719891Y-16100000D01*
X36756645Y-16084776D01*
X36784776Y-16056645D01*
X36800000Y-16019891D01*
X36800000Y-15999999D01*
X37053554Y-15999999D01*
X37053554Y-16000001D01*
X37377577Y-16324024D01*
X37377578Y-16324024D01*
X37421175Y-16218775D01*
X37421179Y-16218760D01*
X37449999Y-16073873D01*
X37450000Y-16073871D01*
X37450000Y-15926128D01*
X37449999Y-15926126D01*
X37421179Y-15781240D01*
X37421178Y-15781236D01*
X37377577Y-15675975D01*
X37053554Y-15999999D01*
X36800000Y-15999999D01*
X36800000Y-15980109D01*
X36784776Y-15943355D01*
X36756645Y-15915224D01*
X36719891Y-15900000D01*
X36680109Y-15900000D01*
X36643355Y-15915224D01*
X36615224Y-15943355D01*
X36600000Y-15980109D01*
X36326555Y-15980109D01*
X36022068Y-15675622D01*
X35977930Y-15675622D01*
X35653554Y-15999999D01*
X35400000Y-15999999D01*
X35400000Y-15980109D01*
X35384776Y-15943355D01*
X35356645Y-15915224D01*
X35319891Y-15900000D01*
X35280109Y-15900000D01*
X35243355Y-15915224D01*
X35215224Y-15943355D01*
X35200000Y-15980109D01*
X34926556Y-15980109D01*
X34622421Y-15675974D01*
X34622420Y-15675974D01*
X34578823Y-15781228D01*
X34578820Y-15781240D01*
X34550000Y-15926126D01*
X33610975Y-15926126D01*
X34137101Y-15400000D01*
X35053554Y-15400000D01*
X35300000Y-15646446D01*
X35546446Y-15400000D01*
X36453554Y-15400000D01*
X36700000Y-15646446D01*
X36946446Y-15400000D01*
X36700000Y-15153554D01*
X36453554Y-15400000D01*
X35546446Y-15400000D01*
X35300000Y-15153554D01*
X35053554Y-15400000D01*
X34137101Y-15400000D01*
X34429884Y-15107217D01*
X34491204Y-15073734D01*
X34560896Y-15078718D01*
X34616829Y-15120590D01*
X34618320Y-15123208D01*
X34622421Y-15124024D01*
X34966337Y-14780109D01*
X35200000Y-14780109D01*
X35200000Y-14819891D01*
X35215224Y-14856645D01*
X35243355Y-14884776D01*
X35280109Y-14900000D01*
X35319891Y-14900000D01*
X35356645Y-14884776D01*
X35384776Y-14856645D01*
X35400000Y-14819891D01*
X35400000Y-14799999D01*
X35653554Y-14799999D01*
X35653554Y-14800001D01*
X35977929Y-15124376D01*
X36022069Y-15124376D01*
X36346446Y-14800000D01*
X36326555Y-14780109D01*
X36600000Y-14780109D01*
X36600000Y-14819891D01*
X36615224Y-14856645D01*
X36643355Y-14884776D01*
X36680109Y-14900000D01*
X36719891Y-14900000D01*
X36756645Y-14884776D01*
X36784776Y-14856645D01*
X36800000Y-14819891D01*
X36800000Y-14799999D01*
X37053554Y-14799999D01*
X37053554Y-14800001D01*
X37377577Y-15124024D01*
X37377578Y-15124024D01*
X37421175Y-15018775D01*
X37421179Y-15018760D01*
X37449999Y-14873873D01*
X37450000Y-14873871D01*
X37450000Y-14726128D01*
X37434784Y-14649635D01*
X37434784Y-14649634D01*
X37431183Y-14631530D01*
X50449500Y-14631530D01*
X50449500Y-14838469D01*
X50489868Y-15041412D01*
X50489870Y-15041420D01*
X50569058Y-15232596D01*
X50684024Y-15404657D01*
X50830342Y-15550975D01*
X50830345Y-15550977D01*
X51002402Y-15665941D01*
X51193580Y-15745130D01*
X51390512Y-15784302D01*
X51396530Y-15785499D01*
X51396534Y-15785500D01*
X51396535Y-15785500D01*
X51603466Y-15785500D01*
X51603467Y-15785499D01*
X51806420Y-15745130D01*
X51997598Y-15665941D01*
X52169655Y-15550977D01*
X52315977Y-15404655D01*
X52331118Y-15381995D01*
X56699500Y-15381995D01*
X56699500Y-15618004D01*
X56699501Y-15618020D01*
X56730277Y-15851792D01*
X56730307Y-15852014D01*
X56748470Y-15919799D01*
X56791394Y-16079993D01*
X56881714Y-16298045D01*
X56881719Y-16298056D01*
X56931987Y-16385121D01*
X56999727Y-16502450D01*
X56999729Y-16502453D01*
X56999730Y-16502454D01*
X57143406Y-16689697D01*
X57143412Y-16689704D01*
X57310295Y-16856587D01*
X57310301Y-16856592D01*
X57497550Y-17000273D01*
X57628918Y-17076118D01*
X57701943Y-17118280D01*
X57701948Y-17118282D01*
X57701951Y-17118284D01*
X57920007Y-17208606D01*
X58147986Y-17269693D01*
X58381989Y-17300500D01*
X58381996Y-17300500D01*
X58618004Y-17300500D01*
X58618011Y-17300500D01*
X58852014Y-17269693D01*
X59079993Y-17208606D01*
X59298049Y-17118284D01*
X59502450Y-17000273D01*
X59689699Y-16856592D01*
X59856592Y-16689699D01*
X60000273Y-16502450D01*
X60118284Y-16298049D01*
X60208606Y-16079993D01*
X60269693Y-15852014D01*
X60300500Y-15618011D01*
X60300500Y-15381989D01*
X60269693Y-15147986D01*
X60208606Y-14920007D01*
X60118284Y-14701951D01*
X60118282Y-14701948D01*
X60118280Y-14701943D01*
X60048589Y-14581236D01*
X60000273Y-14497550D01*
X59856592Y-14310301D01*
X59856587Y-14310295D01*
X59689704Y-14143412D01*
X59689697Y-14143406D01*
X59502454Y-13999730D01*
X59502453Y-13999729D01*
X59502450Y-13999727D01*
X59420957Y-13952677D01*
X59298056Y-13881719D01*
X59298045Y-13881714D01*
X59079993Y-13791394D01*
X58852010Y-13730306D01*
X58618020Y-13699501D01*
X58618017Y-13699500D01*
X58618011Y-13699500D01*
X58381989Y-13699500D01*
X58381983Y-13699500D01*
X58381979Y-13699501D01*
X58147989Y-13730306D01*
X57920006Y-13791394D01*
X57701954Y-13881714D01*
X57701943Y-13881719D01*
X57497545Y-13999730D01*
X57310302Y-14143406D01*
X57310295Y-14143412D01*
X57143412Y-14310295D01*
X57143406Y-14310302D01*
X56999730Y-14497545D01*
X56881719Y-14701943D01*
X56881714Y-14701954D01*
X56791394Y-14920006D01*
X56730306Y-15147989D01*
X56699501Y-15381979D01*
X56699500Y-15381995D01*
X52331118Y-15381995D01*
X52430941Y-15232598D01*
X52510130Y-15041420D01*
X52550500Y-14838465D01*
X52550500Y-14631535D01*
X52510130Y-14428580D01*
X52430941Y-14237402D01*
X52315977Y-14065345D01*
X52315975Y-14065342D01*
X52169657Y-13919024D01*
X52052419Y-13840689D01*
X51997598Y-13804059D01*
X51969214Y-13792302D01*
X51806420Y-13724870D01*
X51806412Y-13724868D01*
X51603469Y-13684500D01*
X51603465Y-13684500D01*
X51396535Y-13684500D01*
X51396530Y-13684500D01*
X51193587Y-13724868D01*
X51193579Y-13724870D01*
X51002403Y-13804058D01*
X50830342Y-13919024D01*
X50684024Y-14065342D01*
X50569058Y-14237403D01*
X50489870Y-14428579D01*
X50489868Y-14428587D01*
X50449500Y-14631530D01*
X37431183Y-14631530D01*
X37421179Y-14581240D01*
X37421178Y-14581236D01*
X37377577Y-14475975D01*
X37053554Y-14799999D01*
X36800000Y-14799999D01*
X36800000Y-14780109D01*
X36784776Y-14743355D01*
X36756645Y-14715224D01*
X36719891Y-14700000D01*
X36680109Y-14700000D01*
X36643355Y-14715224D01*
X36615224Y-14743355D01*
X36600000Y-14780109D01*
X36326555Y-14780109D01*
X36022068Y-14475622D01*
X35977930Y-14475622D01*
X35653554Y-14799999D01*
X35400000Y-14799999D01*
X35400000Y-14780109D01*
X35384776Y-14743355D01*
X35356645Y-14715224D01*
X35319891Y-14700000D01*
X35280109Y-14700000D01*
X35243355Y-14715224D01*
X35215224Y-14743355D01*
X35200000Y-14780109D01*
X34966337Y-14780109D01*
X35085489Y-14660957D01*
X35624024Y-14122421D01*
X35624022Y-14122420D01*
X36375974Y-14122420D01*
X36375974Y-14122421D01*
X36700000Y-14446446D01*
X36700001Y-14446446D01*
X37024024Y-14122421D01*
X36918767Y-14078822D01*
X36918759Y-14078820D01*
X36773872Y-14050000D01*
X36626128Y-14050000D01*
X36481240Y-14078820D01*
X36481228Y-14078823D01*
X36375974Y-14122420D01*
X35624022Y-14122420D01*
X35527014Y-14082238D01*
X35472611Y-14038397D01*
X35450546Y-13972103D01*
X35450778Y-13967434D01*
X35450500Y-13967434D01*
X35450500Y-13840691D01*
X35450500Y-13840689D01*
X35424024Y-13741878D01*
X35419799Y-13726110D01*
X35360492Y-13623387D01*
X35360488Y-13623382D01*
X35276615Y-13539509D01*
X35276610Y-13539505D01*
X35173890Y-13480200D01*
X35173883Y-13480197D01*
X35143184Y-13471971D01*
X35143184Y-13471970D01*
X35059312Y-13449498D01*
X35059309Y-13449498D01*
X34940691Y-13449498D01*
X34856825Y-13471970D01*
X34826113Y-13480199D01*
X34723386Y-13539507D01*
X34723384Y-13539509D01*
X32399757Y-15863137D01*
X32338434Y-15896622D01*
X32268742Y-15891638D01*
X32212809Y-15849766D01*
X32188392Y-15784302D01*
X32203244Y-15716029D01*
X32204690Y-15713454D01*
X32216391Y-15693188D01*
X32216392Y-15693186D01*
X32250500Y-15565892D01*
X32250500Y-15434108D01*
X32216392Y-15306814D01*
X32150500Y-15192686D01*
X32111819Y-15154005D01*
X32078334Y-15092682D01*
X32075500Y-15066324D01*
X32075500Y-14256212D01*
X32095185Y-14189173D01*
X32111819Y-14168531D01*
X32417620Y-13862730D01*
X32478943Y-13829245D01*
X32505301Y-13826411D01*
X32560003Y-13826411D01*
X32560005Y-13826411D01*
X32687299Y-13792303D01*
X32801427Y-13726411D01*
X32894613Y-13633225D01*
X32960505Y-13519097D01*
X32994613Y-13391803D01*
X32994613Y-13260019D01*
X32960505Y-13132725D01*
X32894613Y-13018597D01*
X32801427Y-12925411D01*
X32744363Y-12892465D01*
X32687300Y-12859519D01*
X32623652Y-12842465D01*
X32560005Y-12825411D01*
X32428221Y-12825411D01*
X32300925Y-12859519D01*
X32186799Y-12925411D01*
X32186796Y-12925413D01*
X32093615Y-13018594D01*
X32093613Y-13018597D01*
X32027721Y-13132723D01*
X31993613Y-13260019D01*
X31993613Y-13314722D01*
X31973928Y-13381761D01*
X31957294Y-13402403D01*
X31489537Y-13870159D01*
X31489535Y-13870162D01*
X31446682Y-13944383D01*
X31424500Y-14027171D01*
X31424500Y-15066324D01*
X31404815Y-15133363D01*
X31388181Y-15154005D01*
X31349502Y-15192683D01*
X31349500Y-15192686D01*
X31283608Y-15306812D01*
X31249500Y-15434108D01*
X31249500Y-15565891D01*
X31283608Y-15693187D01*
X31316554Y-15750250D01*
X31349500Y-15807314D01*
X31442686Y-15900500D01*
X31534183Y-15953326D01*
X31556810Y-15966390D01*
X31556814Y-15966392D01*
X31684108Y-16000500D01*
X31684110Y-16000500D01*
X31815890Y-16000500D01*
X31815892Y-16000500D01*
X31943186Y-15966392D01*
X31963454Y-15954689D01*
X32031353Y-15938215D01*
X32097381Y-15961065D01*
X32140573Y-16015985D01*
X32147217Y-16085538D01*
X32115203Y-16147642D01*
X32113139Y-16149755D01*
X32066055Y-16196839D01*
X32066050Y-16196846D01*
X32006742Y-16299569D01*
X32006741Y-16299574D01*
X31976041Y-16414148D01*
X31976041Y-17380959D01*
X31976353Y-17383330D01*
X31976041Y-17385330D01*
X31976041Y-17389087D01*
X31975455Y-17389087D01*
X31965585Y-17452365D01*
X31919203Y-17504619D01*
X31885507Y-17519286D01*
X31850326Y-17528713D01*
X31850325Y-17528712D01*
X31826116Y-17535199D01*
X31826113Y-17535200D01*
X31723386Y-17594511D01*
X31723383Y-17594513D01*
X30804716Y-18513181D01*
X30743393Y-18546666D01*
X30717035Y-18549500D01*
X30203698Y-18549500D01*
X30136659Y-18529815D01*
X30090904Y-18477011D01*
X30080960Y-18407853D01*
X30100596Y-18356609D01*
X30191875Y-18220000D01*
X30191880Y-18219991D01*
X30263491Y-18047105D01*
X30263493Y-18047097D01*
X30299999Y-17863571D01*
X30300000Y-17863569D01*
X30300000Y-17270000D01*
X29650000Y-17270000D01*
X29650000Y-16770000D01*
X30300000Y-16770000D01*
X30300000Y-16176430D01*
X30299999Y-16176428D01*
X30263493Y-15992902D01*
X30263491Y-15992894D01*
X30191880Y-15820008D01*
X30191875Y-15819999D01*
X30087913Y-15664410D01*
X30087910Y-15664406D01*
X29955593Y-15532089D01*
X29955589Y-15532086D01*
X29800000Y-15428124D01*
X29799991Y-15428119D01*
X29627103Y-15356507D01*
X29627100Y-15356506D01*
X29600000Y-15351115D01*
X29600000Y-16103011D01*
X29590060Y-16085795D01*
X29534205Y-16029940D01*
X29465796Y-15990444D01*
X29389496Y-15970000D01*
X29310504Y-15970000D01*
X29234204Y-15990444D01*
X29165795Y-16029940D01*
X29109940Y-16085795D01*
X29100000Y-16103011D01*
X29100000Y-15351116D01*
X29099999Y-15351115D01*
X29072899Y-15356506D01*
X29072896Y-15356507D01*
X28900008Y-15428119D01*
X28899999Y-15428124D01*
X28744410Y-15532086D01*
X28744406Y-15532089D01*
X28612089Y-15664406D01*
X28612086Y-15664410D01*
X28504736Y-15825071D01*
X28503636Y-15824336D01*
X28459427Y-15869337D01*
X28391288Y-15884794D01*
X28351586Y-15875597D01*
X28247940Y-15832666D01*
X28247928Y-15832663D01*
X28083721Y-15800000D01*
X27916279Y-15800000D01*
X27752071Y-15832662D01*
X27752062Y-15832665D01*
X27599437Y-15895884D01*
X24215308Y-15895884D01*
X24276613Y-15860489D01*
X24360489Y-15776613D01*
X24419799Y-15673886D01*
X24450500Y-15559309D01*
X24450500Y-15440691D01*
X24419799Y-15326114D01*
X24360489Y-15223387D01*
X24276613Y-15139511D01*
X24173886Y-15080201D01*
X24059309Y-15049500D01*
X23709320Y-15049500D01*
X23618954Y-15073713D01*
X23618953Y-15073712D01*
X23594745Y-15080199D01*
X23594742Y-15080200D01*
X23492015Y-15139511D01*
X23492012Y-15139513D01*
X22693727Y-15937798D01*
X22632404Y-15971283D01*
X22562712Y-15966299D01*
X22537156Y-15953220D01*
X22452624Y-15896739D01*
X22297936Y-15832665D01*
X22297928Y-15832663D01*
X22133721Y-15800000D01*
X21966279Y-15800000D01*
X21802071Y-15832663D01*
X21802059Y-15832666D01*
X21698413Y-15875598D01*
X21628944Y-15883067D01*
X21566465Y-15851792D01*
X21545685Y-15824789D01*
X21545264Y-15825071D01*
X21437913Y-15664410D01*
X21437910Y-15664406D01*
X21305593Y-15532089D01*
X21305589Y-15532086D01*
X21150000Y-15428124D01*
X21149991Y-15428119D01*
X20977103Y-15356507D01*
X20977100Y-15356506D01*
X20950000Y-15351115D01*
X20950000Y-16103011D01*
X20940060Y-16085795D01*
X20884205Y-16029940D01*
X20815796Y-15990444D01*
X20739496Y-15970000D01*
X20660504Y-15970000D01*
X20584204Y-15990444D01*
X20515795Y-16029940D01*
X20459940Y-16085795D01*
X20450000Y-16103011D01*
X20450000Y-15351116D01*
X20449999Y-15351115D01*
X20422899Y-15356506D01*
X20422896Y-15356507D01*
X20250008Y-15428119D01*
X20249999Y-15428124D01*
X20094410Y-15532086D01*
X20094406Y-15532089D01*
X19962089Y-15664406D01*
X19962086Y-15664410D01*
X19858124Y-15819999D01*
X19858119Y-15820008D01*
X19786508Y-15992894D01*
X19786506Y-15992902D01*
X19750000Y-16176428D01*
X17168661Y-16176428D01*
X17208606Y-16079993D01*
X17269693Y-15852014D01*
X17300500Y-15618011D01*
X17300500Y-15381989D01*
X17269693Y-15147986D01*
X17208606Y-14920007D01*
X17118284Y-14701951D01*
X17118282Y-14701948D01*
X17118280Y-14701943D01*
X17048589Y-14581236D01*
X17000273Y-14497550D01*
X16856592Y-14310301D01*
X16856587Y-14310295D01*
X16689704Y-14143412D01*
X16689697Y-14143406D01*
X16502454Y-13999730D01*
X16502453Y-13999729D01*
X16502450Y-13999727D01*
X16298049Y-13881716D01*
X16298045Y-13881714D01*
X16079993Y-13791394D01*
X15852010Y-13730306D01*
X15618020Y-13699501D01*
X15618017Y-13699500D01*
X15618011Y-13699500D01*
X15381989Y-13699500D01*
X15381983Y-13699500D01*
X15381979Y-13699501D01*
X15147989Y-13730306D01*
X14920006Y-13791394D01*
X14701954Y-13881714D01*
X14701943Y-13881719D01*
X14497545Y-13999730D01*
X14310302Y-14143406D01*
X14310295Y-14143412D01*
X14143412Y-14310295D01*
X14143406Y-14310302D01*
X13999730Y-14497545D01*
X13881719Y-14701943D01*
X13881714Y-14701954D01*
X13791394Y-14920006D01*
X13730306Y-15147989D01*
X13699501Y-15381979D01*
X13699500Y-15381995D01*
X12300500Y-15381995D01*
X12300500Y-12424500D01*
X12320185Y-12357461D01*
X12372989Y-12311706D01*
X12424500Y-12300500D01*
X19996634Y-12300500D01*
X20063673Y-12320185D01*
G37*
%TD.AperFunction*%
%TD*%
M02*
