M48
; DRILL file KiCad 10.0.1 date 2026-05-20T22:31:30
; FORMAT={-:-/ absolute / metric / decimal}
; #@! TF.CreationDate,2026-05-20T22:31:30-07:00
; #@! TF.GenerationSoftware,Kicad,Pcbnew,10.0.1
; #@! TF.FileFunction,Plated,1,2,PTH
FMAT,2
METRIC
; #@! TA.AperFunction,Plated,PTH,ComponentDrill
T1C0.200
; #@! TA.AperFunction,Plated,PTH,ViaDrill
T2C0.300
; #@! TA.AperFunction,Plated,PTH,ViaDrill
T3C0.400
; #@! TA.AperFunction,Plated,PTH,ComponentDrill
T4C0.400
; #@! TA.AperFunction,Plated,PTH,ComponentDrill
T5C0.600
; #@! TA.AperFunction,Plated,PTH,ComponentDrill
T6C0.750
; #@! TA.AperFunction,Plated,PTH,ComponentDrill
T7C1.000
%
G90
G05
T1
X19.641Y-37.619
X19.641Y-39.019
X20.341Y-36.919
X20.341Y-38.319
X20.341Y-39.719
X21.041Y-37.619
X21.041Y-39.019
X21.741Y-36.919
X21.741Y-38.319
X21.741Y-39.719
X22.441Y-37.619
X22.441Y-39.019
X35.3Y-14.8
X35.3Y-16.0
X35.3Y-17.2
X36.7Y-14.8
X36.7Y-16.0
X36.7Y-17.2
T2
X13.0Y-51.0
X16.0Y-29.5
X17.634Y-44.134
X19.0Y-47.0
X19.0Y-56.0
X20.0Y-47.5
X20.688Y-47.042
X21.455Y-46.815
X23.942Y-42.942
X24.0Y-15.5
X28.042Y-49.958
X28.463Y-55.537
X28.5Y-37.5
X29.29Y-34.827
X29.831Y-42.5
X30.0Y-19.0
X31.0Y-47.0
X31.5Y-28.5
X31.75Y-15.5
X32.0Y-17.955
X32.331Y-41.0
X32.427Y-17.322
X32.494Y-13.326
X32.865Y-42.5
X32.865Y-48.0
X35.0Y-13.9
X37.0Y-23.0
X40.0Y-15.5
X40.0Y-17.0
X40.957Y-17.957
X48.5Y-34.0
T3
X44.5Y-21.0
X44.5Y-23.725
X47.5Y-43.275
T4
X22.05Y-16.65
X22.05Y-18.0
X22.9Y-16.65
X22.9Y-18.0
X23.75Y-16.65
X23.75Y-18.0
X24.6Y-16.65
X24.6Y-18.0
X25.45Y-16.65
X25.45Y-18.0
X26.3Y-16.65
X26.3Y-18.0
X27.15Y-16.65
X27.15Y-18.0
X28.0Y-16.65
X28.0Y-18.0
T6
X54.0Y-22.0
X54.0Y-24.0
T7
X14.46Y-52.5
X17.0Y-52.5
X19.54Y-52.5
X22.08Y-52.5
X24.62Y-52.5
X25.19Y-59.0
X27.16Y-52.5
X27.73Y-59.0
X29.7Y-52.5
X30.27Y-59.0
X32.24Y-52.5
X32.81Y-59.0
X37.42Y-59.0
X39.96Y-59.0
X41.34Y-28.5
X42.5Y-59.0
X43.88Y-28.5
X45.04Y-59.0
X46.42Y-28.5
X47.58Y-59.0
X48.96Y-28.5
X50.12Y-59.0
X51.5Y-28.5
X52.66Y-59.0
X54.04Y-28.5
X56.58Y-28.5
X59.12Y-28.5
T5
G00X20.7Y-14.04
M15
G01X20.7Y-13.24
M16
G05
G00X20.7Y-17.77
M15
G01X20.7Y-16.27
M16
G05
G00X29.35Y-14.04
M15
G01X29.35Y-13.24
M16
G05
G00X29.35Y-17.77
M15
G01X29.35Y-16.27
M16
G05
M30
