%TF.GenerationSoftware,KiCad,Pcbnew,10.0.1*%
%TF.CreationDate,2026-05-24T18:52:38-07:00*%
%TF.ProjectId,Amigo,416d6967-6f2e-46b6-9963-61645f706362,rev?*%
%TF.SameCoordinates,Original*%
%TF.FileFunction,Soldermask,Top*%
%TF.FilePolarity,Negative*%
%FSLAX46Y46*%
G04 Gerber Fmt 4.6, Leading zero omitted, Abs format (unit mm)*
G04 Created by KiCad (PCBNEW 10.0.1) date 2026-05-24 18:52:38*
%MOMM*%
%LPD*%
G01*
G04 APERTURE LIST*
G04 Aperture macros list*
%AMRoundRect*
0 Rectangle with rounded corners*
0 $1 Rounding radius*
0 $2 $3 $4 $5 $6 $7 $8 $9 X,Y pos of 4 corners*
0 Add a 4 corners polygon primitive as box body*
4,1,4,$2,$3,$4,$5,$6,$7,$8,$9,$2,$3,0*
0 Add four circle primitives for the rounded corners*
1,1,$1+$1,$2,$3*
1,1,$1+$1,$4,$5*
1,1,$1+$1,$6,$7*
1,1,$1+$1,$8,$9*
0 Add four rect primitives between the rounded corners*
20,1,$1+$1,$2,$3,$4,$5,0*
20,1,$1+$1,$4,$5,$6,$7,0*
20,1,$1+$1,$6,$7,$8,$9,0*
20,1,$1+$1,$8,$9,$2,$3,0*%
G04 Aperture macros list end*
%ADD10RoundRect,0.225000X0.225000X0.250000X-0.225000X0.250000X-0.225000X-0.250000X0.225000X-0.250000X0*%
%ADD11RoundRect,0.225000X0.250000X-0.225000X0.250000X0.225000X-0.250000X0.225000X-0.250000X-0.225000X0*%
%ADD12RoundRect,0.200000X-0.200000X-0.275000X0.200000X-0.275000X0.200000X0.275000X-0.200000X0.275000X0*%
%ADD13R,1.700000X1.700000*%
%ADD14C,1.700000*%
%ADD15RoundRect,0.200000X0.200000X0.275000X-0.200000X0.275000X-0.200000X-0.275000X0.200000X-0.275000X0*%
%ADD16RoundRect,0.250000X-0.350000X-0.625000X0.350000X-0.625000X0.350000X0.625000X-0.350000X0.625000X0*%
%ADD17O,1.200000X1.750000*%
%ADD18RoundRect,0.225000X-0.250000X0.225000X-0.250000X-0.225000X0.250000X-0.225000X0.250000X0.225000X0*%
%ADD19RoundRect,0.243750X-0.243750X-0.456250X0.243750X-0.456250X0.243750X0.456250X-0.243750X0.456250X0*%
%ADD20C,3.200000*%
%ADD21RoundRect,0.150000X0.512500X0.150000X-0.512500X0.150000X-0.512500X-0.150000X0.512500X-0.150000X0*%
%ADD22R,1.700000X1.000000*%
%ADD23RoundRect,0.150000X0.825000X0.150000X-0.825000X0.150000X-0.825000X-0.150000X0.825000X-0.150000X0*%
%ADD24R,2.410000X3.300000*%
%ADD25C,0.700000*%
%ADD26O,0.900000X2.400000*%
%ADD27O,0.900000X1.700000*%
%ADD28RoundRect,0.200000X-0.275000X0.200000X-0.275000X-0.200000X0.275000X-0.200000X0.275000X0.200000X0*%
%ADD29R,0.900000X1.500000*%
%ADD30R,1.500000X0.900000*%
%ADD31C,0.600000*%
%ADD32R,3.900000X3.900000*%
G04 APERTURE END LIST*
D10*
%TO.C,C5*%
X50775000Y-40000000D03*
X49225000Y-40000000D03*
%TD*%
D11*
%TO.C,C8*%
X31000000Y-21775000D03*
X31000000Y-20225000D03*
%TD*%
%TO.C,C7*%
X40500000Y-21775000D03*
X40500000Y-20225000D03*
%TD*%
D10*
%TO.C,C9*%
X47275000Y-18000000D03*
X45725000Y-18000000D03*
%TD*%
D12*
%TO.C,R6*%
X49175000Y-44000000D03*
X50825000Y-44000000D03*
%TD*%
D13*
%TO.C,J6*%
X14460000Y-52500000D03*
D14*
X17000000Y-52500000D03*
X19540000Y-52500000D03*
X22080000Y-52500000D03*
X24620000Y-52500000D03*
X27160000Y-52500000D03*
X29700000Y-52500000D03*
X32240000Y-52500000D03*
%TD*%
D13*
%TO.C,J5*%
X51500000Y-17275000D03*
D14*
X51500000Y-14735000D03*
%TD*%
D13*
%TO.C,J3*%
X39000000Y-29420000D03*
D14*
X39000000Y-31960000D03*
X39000000Y-34500000D03*
X39000000Y-37040000D03*
X39000000Y-39580000D03*
X39000000Y-42120000D03*
X39000000Y-44660000D03*
X39000000Y-47200000D03*
%TD*%
D12*
%TO.C,R4*%
X45675000Y-20000000D03*
X47325000Y-20000000D03*
%TD*%
D15*
%TO.C,R10*%
X47325000Y-16000000D03*
X45675000Y-16000000D03*
%TD*%
D16*
%TO.C,J2*%
X55000000Y-22250000D03*
D17*
X57000000Y-22250000D03*
%TD*%
D12*
%TO.C,R12*%
X14175000Y-26000000D03*
X15825000Y-26000000D03*
%TD*%
D18*
%TO.C,C6*%
X50000000Y-34500000D03*
X50000000Y-36050000D03*
%TD*%
D19*
%TO.C,D3*%
X14062500Y-24000000D03*
X15937500Y-24000000D03*
%TD*%
D10*
%TO.C,C3*%
X14775000Y-48000000D03*
X13225000Y-48000000D03*
%TD*%
D19*
%TO.C,D2*%
X41800000Y-13700000D03*
X43675000Y-13700000D03*
%TD*%
D15*
%TO.C,R11*%
X47387500Y-13700000D03*
X45737500Y-13700000D03*
%TD*%
D20*
%TO.C,REF\u002A\u002A*%
X15500000Y-58500000D03*
%TD*%
D11*
%TO.C,C1*%
X42500000Y-21775000D03*
X42500000Y-20225000D03*
%TD*%
D20*
%TO.C,REF\u002A\u002A*%
X58500000Y-58500000D03*
%TD*%
D12*
%TO.C,R3*%
X41675000Y-18000000D03*
X43325000Y-18000000D03*
%TD*%
D20*
%TO.C,REF\u002A\u002A*%
X58500000Y-15500000D03*
%TD*%
D12*
%TO.C,R1*%
X26175000Y-20000000D03*
X27825000Y-20000000D03*
%TD*%
D21*
%TO.C,U2*%
X37137500Y-21950000D03*
X37137500Y-21000000D03*
X37137500Y-20050000D03*
X34862500Y-20050000D03*
X34862500Y-21950000D03*
%TD*%
D22*
%TO.C,SW2*%
X52850000Y-32100000D03*
X59150000Y-32100000D03*
X52850000Y-35900000D03*
X59150000Y-35900000D03*
%TD*%
D23*
%TO.C,U1*%
X38475000Y-17905000D03*
X38475000Y-16635000D03*
X38475000Y-15365000D03*
X38475000Y-14095000D03*
X33525000Y-14095000D03*
X33525000Y-15365000D03*
X33525000Y-16635000D03*
X33525000Y-17905000D03*
D24*
X36000000Y-16000000D03*
%TD*%
D18*
%TO.C,C11*%
X42000000Y-36275000D03*
X42000000Y-37825000D03*
%TD*%
D15*
%TO.C,R2*%
X24000000Y-20000000D03*
X22350000Y-20000000D03*
%TD*%
D19*
%TO.C,D1*%
X41800000Y-16000000D03*
X43675000Y-16000000D03*
%TD*%
D25*
%TO.C,J1*%
X28000000Y-18000000D03*
X27150000Y-18000000D03*
X26300000Y-18000000D03*
X25450000Y-18000000D03*
X24600000Y-18000000D03*
X23750000Y-18000000D03*
X22900000Y-18000000D03*
X22050000Y-18000000D03*
X22050000Y-16650000D03*
X22900000Y-16650000D03*
X23750000Y-16650000D03*
X24600000Y-16650000D03*
X25450000Y-16650000D03*
X26300000Y-16650000D03*
X27150000Y-16650000D03*
X28000000Y-16650000D03*
D26*
X29350000Y-17020000D03*
D27*
X29350000Y-13640000D03*
D26*
X20700000Y-17020000D03*
D27*
X20700000Y-13640000D03*
%TD*%
D11*
%TO.C,C2*%
X33000000Y-21775000D03*
X33000000Y-20225000D03*
%TD*%
D20*
%TO.C,REF\u002A\u002A*%
X15500000Y-15500000D03*
%TD*%
D13*
%TO.C,J4*%
X44500000Y-51500000D03*
D14*
X44500000Y-48960000D03*
X44500000Y-46420000D03*
X44500000Y-43880000D03*
X44500000Y-41340000D03*
X44500000Y-38800000D03*
X44500000Y-36260000D03*
%TD*%
D28*
%TO.C,R7*%
X50000000Y-31175000D03*
X50000000Y-32825000D03*
%TD*%
D18*
%TO.C,C10*%
X42000000Y-39500000D03*
X42000000Y-41050000D03*
%TD*%
D15*
%TO.C,R5*%
X47325000Y-22000000D03*
X45675000Y-22000000D03*
%TD*%
D10*
%TO.C,C4*%
X14775000Y-50000000D03*
X13225000Y-50000000D03*
%TD*%
D22*
%TO.C,SW1*%
X59150000Y-43900000D03*
X52850000Y-43900000D03*
X59150000Y-40100000D03*
X52850000Y-40100000D03*
%TD*%
D29*
%TO.C,U3*%
X13320603Y-45568961D03*
X14590603Y-45568961D03*
X15860603Y-45568961D03*
X17130603Y-45568961D03*
X18400603Y-45568961D03*
X19670603Y-45568961D03*
X20940603Y-45568961D03*
X22210603Y-45568961D03*
X23480603Y-45568961D03*
X24750603Y-45568961D03*
X26020603Y-45568961D03*
X27290603Y-45568961D03*
X28560603Y-45568961D03*
X29830603Y-45568961D03*
D30*
X31080603Y-43803961D03*
X31080603Y-42533961D03*
X31080603Y-41263961D03*
X31080603Y-39993961D03*
X31080603Y-38723961D03*
X31080603Y-37453961D03*
X31080603Y-36183961D03*
X31080603Y-34913961D03*
X31080603Y-33643961D03*
X31080603Y-32373961D03*
X31080603Y-31103961D03*
X31080603Y-29833961D03*
D29*
X29830603Y-28068961D03*
X28560603Y-28068961D03*
X27290603Y-28068961D03*
X26020603Y-28068961D03*
X24750603Y-28068961D03*
X23480603Y-28068961D03*
X22210603Y-28068961D03*
X20940603Y-28068961D03*
X19670603Y-28068961D03*
X18400603Y-28068961D03*
X17130603Y-28068961D03*
X15860603Y-28068961D03*
X14590603Y-28068961D03*
X13320603Y-28068961D03*
D31*
X20340603Y-39718961D03*
X21740603Y-39718961D03*
X19640603Y-39018961D03*
X21040603Y-39018961D03*
X22440603Y-39018961D03*
X20340603Y-38318961D03*
D32*
X21040603Y-38318961D03*
D31*
X21740603Y-38318961D03*
X19640603Y-37618961D03*
X21040603Y-37618961D03*
X22440603Y-37618961D03*
X20340603Y-36918961D03*
X21740603Y-36918961D03*
%TD*%
M02*
