%TF.GenerationSoftware,KiCad,Pcbnew,10.0.1*%
%TF.CreationDate,2026-05-20T22:31:14-07:00*%
%TF.ProjectId,Amigo,416d6967-6f2e-46b6-9963-61645f706362,rev?*%
%TF.SameCoordinates,Original*%
%TF.FileFunction,Legend,Top*%
%TF.FilePolarity,Positive*%
%FSLAX46Y46*%
G04 Gerber Fmt 4.6, Leading zero omitted, Abs format (unit mm)*
G04 Created by KiCad (PCBNEW 10.0.1) date 2026-05-20 22:31:14*
%MOMM*%
%LPD*%
G01*
G04 APERTURE LIST*
G04 Aperture macros list*
%AMRoundRect*
0 Rectangle with rounded corners*
0 $1 Rounding radius*
0 $2 $3 $4 $5 $6 $7 $8 $9 X,Y pos of 4 corners*
0 Add a 4 corners polygon primitive as box body*
4,1,4,$2,$3,$4,$5,$6,$7,$8,$9,$2,$3,0*
0 Add four circle primitives for the rounded corners*
1,1,$1+$1,$2,$3*
1,1,$1+$1,$4,$5*
1,1,$1+$1,$6,$7*
1,1,$1+$1,$8,$9*
0 Add four rect primitives between the rounded corners*
20,1,$1+$1,$2,$3,$4,$5,0*
20,1,$1+$1,$4,$5,$6,$7,0*
20,1,$1+$1,$6,$7,$8,$9,0*
20,1,$1+$1,$8,$9,$2,$3,0*%
G04 Aperture macros list end*
%ADD10C,0.100000*%
%ADD11C,0.150000*%
%ADD12C,0.120000*%
%ADD13RoundRect,0.225000X0.225000X0.250000X-0.225000X0.250000X-0.225000X-0.250000X0.225000X-0.250000X0*%
%ADD14RoundRect,0.225000X0.250000X-0.225000X0.250000X0.225000X-0.250000X0.225000X-0.250000X-0.225000X0*%
%ADD15RoundRect,0.200000X0.200000X0.275000X-0.200000X0.275000X-0.200000X-0.275000X0.200000X-0.275000X0*%
%ADD16RoundRect,0.200000X-0.200000X-0.275000X0.200000X-0.275000X0.200000X0.275000X-0.200000X0.275000X0*%
%ADD17R,1.700000X1.700000*%
%ADD18C,1.700000*%
%ADD19C,3.200000*%
%ADD20RoundRect,0.250000X0.475000X-0.250000X0.475000X0.250000X-0.475000X0.250000X-0.475000X-0.250000X0*%
%ADD21RoundRect,0.250000X0.625000X-0.350000X0.625000X0.350000X-0.625000X0.350000X-0.625000X-0.350000X0*%
%ADD22O,1.750000X1.200000*%
%ADD23RoundRect,0.225000X-0.250000X0.225000X-0.250000X-0.225000X0.250000X-0.225000X0.250000X0.225000X0*%
%ADD24RoundRect,0.243750X0.243750X0.456250X-0.243750X0.456250X-0.243750X-0.456250X0.243750X-0.456250X0*%
%ADD25RoundRect,0.243750X-0.243750X-0.456250X0.243750X-0.456250X0.243750X0.456250X-0.243750X0.456250X0*%
%ADD26RoundRect,0.150000X0.512500X0.150000X-0.512500X0.150000X-0.512500X-0.150000X0.512500X-0.150000X0*%
%ADD27R,1.700000X1.000000*%
%ADD28RoundRect,0.150000X0.825000X0.150000X-0.825000X0.150000X-0.825000X-0.150000X0.825000X-0.150000X0*%
%ADD29R,2.410000X3.300000*%
%ADD30C,0.700000*%
%ADD31O,0.900000X2.400000*%
%ADD32O,0.900000X1.700000*%
%ADD33RoundRect,0.200000X-0.275000X0.200000X-0.275000X-0.200000X0.275000X-0.200000X0.275000X0.200000X0*%
%ADD34R,0.900000X1.500000*%
%ADD35R,1.500000X0.900000*%
%ADD36C,0.600000*%
%ADD37R,3.900000X3.900000*%
G04 APERTURE END LIST*
D10*
X42303884Y-48277180D02*
X42351503Y-48324800D01*
X42351503Y-48324800D02*
X42303884Y-48372419D01*
X42303884Y-48372419D02*
X42256265Y-48324800D01*
X42256265Y-48324800D02*
X42303884Y-48277180D01*
X42303884Y-48277180D02*
X42303884Y-48372419D01*
X42303884Y-47753371D02*
X42351503Y-47800990D01*
X42351503Y-47800990D02*
X42303884Y-47848609D01*
X42303884Y-47848609D02*
X42256265Y-47800990D01*
X42256265Y-47800990D02*
X42303884Y-47753371D01*
X42303884Y-47753371D02*
X42303884Y-47848609D01*
X42684836Y-48753371D02*
X42732455Y-48705752D01*
X42732455Y-48705752D02*
X42827693Y-48562895D01*
X42827693Y-48562895D02*
X42875312Y-48467657D01*
X42875312Y-48467657D02*
X42922931Y-48324800D01*
X42922931Y-48324800D02*
X42970550Y-48086704D01*
X42970550Y-48086704D02*
X42970550Y-47896228D01*
X42970550Y-47896228D02*
X42922931Y-47658133D01*
X42922931Y-47658133D02*
X42875312Y-47515276D01*
X42875312Y-47515276D02*
X42827693Y-47420038D01*
X42827693Y-47420038D02*
X42732455Y-47277180D01*
X42732455Y-47277180D02*
X42684836Y-47229561D01*
D11*
X49833333Y-41789580D02*
X49785714Y-41837200D01*
X49785714Y-41837200D02*
X49642857Y-41884819D01*
X49642857Y-41884819D02*
X49547619Y-41884819D01*
X49547619Y-41884819D02*
X49404762Y-41837200D01*
X49404762Y-41837200D02*
X49309524Y-41741961D01*
X49309524Y-41741961D02*
X49261905Y-41646723D01*
X49261905Y-41646723D02*
X49214286Y-41456247D01*
X49214286Y-41456247D02*
X49214286Y-41313390D01*
X49214286Y-41313390D02*
X49261905Y-41122914D01*
X49261905Y-41122914D02*
X49309524Y-41027676D01*
X49309524Y-41027676D02*
X49404762Y-40932438D01*
X49404762Y-40932438D02*
X49547619Y-40884819D01*
X49547619Y-40884819D02*
X49642857Y-40884819D01*
X49642857Y-40884819D02*
X49785714Y-40932438D01*
X49785714Y-40932438D02*
X49833333Y-40980057D01*
X50738095Y-40884819D02*
X50261905Y-40884819D01*
X50261905Y-40884819D02*
X50214286Y-41361009D01*
X50214286Y-41361009D02*
X50261905Y-41313390D01*
X50261905Y-41313390D02*
X50357143Y-41265771D01*
X50357143Y-41265771D02*
X50595238Y-41265771D01*
X50595238Y-41265771D02*
X50690476Y-41313390D01*
X50690476Y-41313390D02*
X50738095Y-41361009D01*
X50738095Y-41361009D02*
X50785714Y-41456247D01*
X50785714Y-41456247D02*
X50785714Y-41694342D01*
X50785714Y-41694342D02*
X50738095Y-41789580D01*
X50738095Y-41789580D02*
X50690476Y-41837200D01*
X50690476Y-41837200D02*
X50595238Y-41884819D01*
X50595238Y-41884819D02*
X50357143Y-41884819D01*
X50357143Y-41884819D02*
X50261905Y-41837200D01*
X50261905Y-41837200D02*
X50214286Y-41789580D01*
X29929580Y-21166666D02*
X29977200Y-21214285D01*
X29977200Y-21214285D02*
X30024819Y-21357142D01*
X30024819Y-21357142D02*
X30024819Y-21452380D01*
X30024819Y-21452380D02*
X29977200Y-21595237D01*
X29977200Y-21595237D02*
X29881961Y-21690475D01*
X29881961Y-21690475D02*
X29786723Y-21738094D01*
X29786723Y-21738094D02*
X29596247Y-21785713D01*
X29596247Y-21785713D02*
X29453390Y-21785713D01*
X29453390Y-21785713D02*
X29262914Y-21738094D01*
X29262914Y-21738094D02*
X29167676Y-21690475D01*
X29167676Y-21690475D02*
X29072438Y-21595237D01*
X29072438Y-21595237D02*
X29024819Y-21452380D01*
X29024819Y-21452380D02*
X29024819Y-21357142D01*
X29024819Y-21357142D02*
X29072438Y-21214285D01*
X29072438Y-21214285D02*
X29120057Y-21166666D01*
X29453390Y-20595237D02*
X29405771Y-20690475D01*
X29405771Y-20690475D02*
X29358152Y-20738094D01*
X29358152Y-20738094D02*
X29262914Y-20785713D01*
X29262914Y-20785713D02*
X29215295Y-20785713D01*
X29215295Y-20785713D02*
X29120057Y-20738094D01*
X29120057Y-20738094D02*
X29072438Y-20690475D01*
X29072438Y-20690475D02*
X29024819Y-20595237D01*
X29024819Y-20595237D02*
X29024819Y-20404761D01*
X29024819Y-20404761D02*
X29072438Y-20309523D01*
X29072438Y-20309523D02*
X29120057Y-20261904D01*
X29120057Y-20261904D02*
X29215295Y-20214285D01*
X29215295Y-20214285D02*
X29262914Y-20214285D01*
X29262914Y-20214285D02*
X29358152Y-20261904D01*
X29358152Y-20261904D02*
X29405771Y-20309523D01*
X29405771Y-20309523D02*
X29453390Y-20404761D01*
X29453390Y-20404761D02*
X29453390Y-20595237D01*
X29453390Y-20595237D02*
X29501009Y-20690475D01*
X29501009Y-20690475D02*
X29548628Y-20738094D01*
X29548628Y-20738094D02*
X29643866Y-20785713D01*
X29643866Y-20785713D02*
X29834342Y-20785713D01*
X29834342Y-20785713D02*
X29929580Y-20738094D01*
X29929580Y-20738094D02*
X29977200Y-20690475D01*
X29977200Y-20690475D02*
X30024819Y-20595237D01*
X30024819Y-20595237D02*
X30024819Y-20404761D01*
X30024819Y-20404761D02*
X29977200Y-20309523D01*
X29977200Y-20309523D02*
X29929580Y-20261904D01*
X29929580Y-20261904D02*
X29834342Y-20214285D01*
X29834342Y-20214285D02*
X29643866Y-20214285D01*
X29643866Y-20214285D02*
X29548628Y-20261904D01*
X29548628Y-20261904D02*
X29501009Y-20309523D01*
X29501009Y-20309523D02*
X29453390Y-20404761D01*
X25833333Y-58384819D02*
X25500000Y-57908628D01*
X25261905Y-58384819D02*
X25261905Y-57384819D01*
X25261905Y-57384819D02*
X25642857Y-57384819D01*
X25642857Y-57384819D02*
X25738095Y-57432438D01*
X25738095Y-57432438D02*
X25785714Y-57480057D01*
X25785714Y-57480057D02*
X25833333Y-57575295D01*
X25833333Y-57575295D02*
X25833333Y-57718152D01*
X25833333Y-57718152D02*
X25785714Y-57813390D01*
X25785714Y-57813390D02*
X25738095Y-57861009D01*
X25738095Y-57861009D02*
X25642857Y-57908628D01*
X25642857Y-57908628D02*
X25261905Y-57908628D01*
X26404762Y-57813390D02*
X26309524Y-57765771D01*
X26309524Y-57765771D02*
X26261905Y-57718152D01*
X26261905Y-57718152D02*
X26214286Y-57622914D01*
X26214286Y-57622914D02*
X26214286Y-57575295D01*
X26214286Y-57575295D02*
X26261905Y-57480057D01*
X26261905Y-57480057D02*
X26309524Y-57432438D01*
X26309524Y-57432438D02*
X26404762Y-57384819D01*
X26404762Y-57384819D02*
X26595238Y-57384819D01*
X26595238Y-57384819D02*
X26690476Y-57432438D01*
X26690476Y-57432438D02*
X26738095Y-57480057D01*
X26738095Y-57480057D02*
X26785714Y-57575295D01*
X26785714Y-57575295D02*
X26785714Y-57622914D01*
X26785714Y-57622914D02*
X26738095Y-57718152D01*
X26738095Y-57718152D02*
X26690476Y-57765771D01*
X26690476Y-57765771D02*
X26595238Y-57813390D01*
X26595238Y-57813390D02*
X26404762Y-57813390D01*
X26404762Y-57813390D02*
X26309524Y-57861009D01*
X26309524Y-57861009D02*
X26261905Y-57908628D01*
X26261905Y-57908628D02*
X26214286Y-58003866D01*
X26214286Y-58003866D02*
X26214286Y-58194342D01*
X26214286Y-58194342D02*
X26261905Y-58289580D01*
X26261905Y-58289580D02*
X26309524Y-58337200D01*
X26309524Y-58337200D02*
X26404762Y-58384819D01*
X26404762Y-58384819D02*
X26595238Y-58384819D01*
X26595238Y-58384819D02*
X26690476Y-58337200D01*
X26690476Y-58337200D02*
X26738095Y-58289580D01*
X26738095Y-58289580D02*
X26785714Y-58194342D01*
X26785714Y-58194342D02*
X26785714Y-58003866D01*
X26785714Y-58003866D02*
X26738095Y-57908628D01*
X26738095Y-57908628D02*
X26690476Y-57861009D01*
X26690476Y-57861009D02*
X26595238Y-57813390D01*
X39429580Y-21166666D02*
X39477200Y-21214285D01*
X39477200Y-21214285D02*
X39524819Y-21357142D01*
X39524819Y-21357142D02*
X39524819Y-21452380D01*
X39524819Y-21452380D02*
X39477200Y-21595237D01*
X39477200Y-21595237D02*
X39381961Y-21690475D01*
X39381961Y-21690475D02*
X39286723Y-21738094D01*
X39286723Y-21738094D02*
X39096247Y-21785713D01*
X39096247Y-21785713D02*
X38953390Y-21785713D01*
X38953390Y-21785713D02*
X38762914Y-21738094D01*
X38762914Y-21738094D02*
X38667676Y-21690475D01*
X38667676Y-21690475D02*
X38572438Y-21595237D01*
X38572438Y-21595237D02*
X38524819Y-21452380D01*
X38524819Y-21452380D02*
X38524819Y-21357142D01*
X38524819Y-21357142D02*
X38572438Y-21214285D01*
X38572438Y-21214285D02*
X38620057Y-21166666D01*
X38524819Y-20833332D02*
X38524819Y-20166666D01*
X38524819Y-20166666D02*
X39524819Y-20595237D01*
X50108333Y-15789580D02*
X50060714Y-15837200D01*
X50060714Y-15837200D02*
X49917857Y-15884819D01*
X49917857Y-15884819D02*
X49822619Y-15884819D01*
X49822619Y-15884819D02*
X49679762Y-15837200D01*
X49679762Y-15837200D02*
X49584524Y-15741961D01*
X49584524Y-15741961D02*
X49536905Y-15646723D01*
X49536905Y-15646723D02*
X49489286Y-15456247D01*
X49489286Y-15456247D02*
X49489286Y-15313390D01*
X49489286Y-15313390D02*
X49536905Y-15122914D01*
X49536905Y-15122914D02*
X49584524Y-15027676D01*
X49584524Y-15027676D02*
X49679762Y-14932438D01*
X49679762Y-14932438D02*
X49822619Y-14884819D01*
X49822619Y-14884819D02*
X49917857Y-14884819D01*
X49917857Y-14884819D02*
X50060714Y-14932438D01*
X50060714Y-14932438D02*
X50108333Y-14980057D01*
X50584524Y-15884819D02*
X50775000Y-15884819D01*
X50775000Y-15884819D02*
X50870238Y-15837200D01*
X50870238Y-15837200D02*
X50917857Y-15789580D01*
X50917857Y-15789580D02*
X51013095Y-15646723D01*
X51013095Y-15646723D02*
X51060714Y-15456247D01*
X51060714Y-15456247D02*
X51060714Y-15075295D01*
X51060714Y-15075295D02*
X51013095Y-14980057D01*
X51013095Y-14980057D02*
X50965476Y-14932438D01*
X50965476Y-14932438D02*
X50870238Y-14884819D01*
X50870238Y-14884819D02*
X50679762Y-14884819D01*
X50679762Y-14884819D02*
X50584524Y-14932438D01*
X50584524Y-14932438D02*
X50536905Y-14980057D01*
X50536905Y-14980057D02*
X50489286Y-15075295D01*
X50489286Y-15075295D02*
X50489286Y-15313390D01*
X50489286Y-15313390D02*
X50536905Y-15408628D01*
X50536905Y-15408628D02*
X50584524Y-15456247D01*
X50584524Y-15456247D02*
X50679762Y-15503866D01*
X50679762Y-15503866D02*
X50870238Y-15503866D01*
X50870238Y-15503866D02*
X50965476Y-15456247D01*
X50965476Y-15456247D02*
X51013095Y-15408628D01*
X51013095Y-15408628D02*
X51060714Y-15313390D01*
X49833333Y-43024819D02*
X49500000Y-42548628D01*
X49261905Y-43024819D02*
X49261905Y-42024819D01*
X49261905Y-42024819D02*
X49642857Y-42024819D01*
X49642857Y-42024819D02*
X49738095Y-42072438D01*
X49738095Y-42072438D02*
X49785714Y-42120057D01*
X49785714Y-42120057D02*
X49833333Y-42215295D01*
X49833333Y-42215295D02*
X49833333Y-42358152D01*
X49833333Y-42358152D02*
X49785714Y-42453390D01*
X49785714Y-42453390D02*
X49738095Y-42501009D01*
X49738095Y-42501009D02*
X49642857Y-42548628D01*
X49642857Y-42548628D02*
X49261905Y-42548628D01*
X50690476Y-42024819D02*
X50500000Y-42024819D01*
X50500000Y-42024819D02*
X50404762Y-42072438D01*
X50404762Y-42072438D02*
X50357143Y-42120057D01*
X50357143Y-42120057D02*
X50261905Y-42262914D01*
X50261905Y-42262914D02*
X50214286Y-42453390D01*
X50214286Y-42453390D02*
X50214286Y-42834342D01*
X50214286Y-42834342D02*
X50261905Y-42929580D01*
X50261905Y-42929580D02*
X50309524Y-42977200D01*
X50309524Y-42977200D02*
X50404762Y-43024819D01*
X50404762Y-43024819D02*
X50595238Y-43024819D01*
X50595238Y-43024819D02*
X50690476Y-42977200D01*
X50690476Y-42977200D02*
X50738095Y-42929580D01*
X50738095Y-42929580D02*
X50785714Y-42834342D01*
X50785714Y-42834342D02*
X50785714Y-42596247D01*
X50785714Y-42596247D02*
X50738095Y-42501009D01*
X50738095Y-42501009D02*
X50690476Y-42453390D01*
X50690476Y-42453390D02*
X50595238Y-42405771D01*
X50595238Y-42405771D02*
X50404762Y-42405771D01*
X50404762Y-42405771D02*
X50309524Y-42453390D01*
X50309524Y-42453390D02*
X50261905Y-42501009D01*
X50261905Y-42501009D02*
X50214286Y-42596247D01*
X22264819Y-59333333D02*
X22979104Y-59333333D01*
X22979104Y-59333333D02*
X23121961Y-59380952D01*
X23121961Y-59380952D02*
X23217200Y-59476190D01*
X23217200Y-59476190D02*
X23264819Y-59619047D01*
X23264819Y-59619047D02*
X23264819Y-59714285D01*
X22264819Y-58952380D02*
X22264819Y-58333333D01*
X22264819Y-58333333D02*
X22645771Y-58666666D01*
X22645771Y-58666666D02*
X22645771Y-58523809D01*
X22645771Y-58523809D02*
X22693390Y-58428571D01*
X22693390Y-58428571D02*
X22741009Y-58380952D01*
X22741009Y-58380952D02*
X22836247Y-58333333D01*
X22836247Y-58333333D02*
X23074342Y-58333333D01*
X23074342Y-58333333D02*
X23169580Y-58380952D01*
X23169580Y-58380952D02*
X23217200Y-58428571D01*
X23217200Y-58428571D02*
X23264819Y-58523809D01*
X23264819Y-58523809D02*
X23264819Y-58809523D01*
X23264819Y-58809523D02*
X23217200Y-58904761D01*
X23217200Y-58904761D02*
X23169580Y-58952380D01*
X11534819Y-52833333D02*
X12249104Y-52833333D01*
X12249104Y-52833333D02*
X12391961Y-52880952D01*
X12391961Y-52880952D02*
X12487200Y-52976190D01*
X12487200Y-52976190D02*
X12534819Y-53119047D01*
X12534819Y-53119047D02*
X12534819Y-53214285D01*
X11534819Y-51928571D02*
X11534819Y-52119047D01*
X11534819Y-52119047D02*
X11582438Y-52214285D01*
X11582438Y-52214285D02*
X11630057Y-52261904D01*
X11630057Y-52261904D02*
X11772914Y-52357142D01*
X11772914Y-52357142D02*
X11963390Y-52404761D01*
X11963390Y-52404761D02*
X12344342Y-52404761D01*
X12344342Y-52404761D02*
X12439580Y-52357142D01*
X12439580Y-52357142D02*
X12487200Y-52309523D01*
X12487200Y-52309523D02*
X12534819Y-52214285D01*
X12534819Y-52214285D02*
X12534819Y-52023809D01*
X12534819Y-52023809D02*
X12487200Y-51928571D01*
X12487200Y-51928571D02*
X12439580Y-51880952D01*
X12439580Y-51880952D02*
X12344342Y-51833333D01*
X12344342Y-51833333D02*
X12106247Y-51833333D01*
X12106247Y-51833333D02*
X12011009Y-51880952D01*
X12011009Y-51880952D02*
X11963390Y-51928571D01*
X11963390Y-51928571D02*
X11915771Y-52023809D01*
X11915771Y-52023809D02*
X11915771Y-52214285D01*
X11915771Y-52214285D02*
X11963390Y-52309523D01*
X11963390Y-52309523D02*
X12011009Y-52357142D01*
X12011009Y-52357142D02*
X12106247Y-52404761D01*
X14738095Y-54804819D02*
X14738095Y-53804819D01*
X14738095Y-54281009D02*
X15309523Y-54281009D01*
X15309523Y-54804819D02*
X15309523Y-53804819D01*
X15690476Y-53804819D02*
X16309523Y-53804819D01*
X16309523Y-53804819D02*
X15976190Y-54185771D01*
X15976190Y-54185771D02*
X16119047Y-54185771D01*
X16119047Y-54185771D02*
X16214285Y-54233390D01*
X16214285Y-54233390D02*
X16261904Y-54281009D01*
X16261904Y-54281009D02*
X16309523Y-54376247D01*
X16309523Y-54376247D02*
X16309523Y-54614342D01*
X16309523Y-54614342D02*
X16261904Y-54709580D01*
X16261904Y-54709580D02*
X16214285Y-54757200D01*
X16214285Y-54757200D02*
X16119047Y-54804819D01*
X16119047Y-54804819D02*
X15833333Y-54804819D01*
X15833333Y-54804819D02*
X15738095Y-54757200D01*
X15738095Y-54757200D02*
X15690476Y-54709580D01*
X50108333Y-15524819D02*
X49775000Y-15048628D01*
X49536905Y-15524819D02*
X49536905Y-14524819D01*
X49536905Y-14524819D02*
X49917857Y-14524819D01*
X49917857Y-14524819D02*
X50013095Y-14572438D01*
X50013095Y-14572438D02*
X50060714Y-14620057D01*
X50060714Y-14620057D02*
X50108333Y-14715295D01*
X50108333Y-14715295D02*
X50108333Y-14858152D01*
X50108333Y-14858152D02*
X50060714Y-14953390D01*
X50060714Y-14953390D02*
X50013095Y-15001009D01*
X50013095Y-15001009D02*
X49917857Y-15048628D01*
X49917857Y-15048628D02*
X49536905Y-15048628D01*
X50965476Y-14858152D02*
X50965476Y-15524819D01*
X50727381Y-14477200D02*
X50489286Y-15191485D01*
X50489286Y-15191485D02*
X51108333Y-15191485D01*
X49429580Y-25192857D02*
X49477200Y-25240476D01*
X49477200Y-25240476D02*
X49524819Y-25383333D01*
X49524819Y-25383333D02*
X49524819Y-25478571D01*
X49524819Y-25478571D02*
X49477200Y-25621428D01*
X49477200Y-25621428D02*
X49381961Y-25716666D01*
X49381961Y-25716666D02*
X49286723Y-25764285D01*
X49286723Y-25764285D02*
X49096247Y-25811904D01*
X49096247Y-25811904D02*
X48953390Y-25811904D01*
X48953390Y-25811904D02*
X48762914Y-25764285D01*
X48762914Y-25764285D02*
X48667676Y-25716666D01*
X48667676Y-25716666D02*
X48572438Y-25621428D01*
X48572438Y-25621428D02*
X48524819Y-25478571D01*
X48524819Y-25478571D02*
X48524819Y-25383333D01*
X48524819Y-25383333D02*
X48572438Y-25240476D01*
X48572438Y-25240476D02*
X48620057Y-25192857D01*
X49524819Y-24240476D02*
X49524819Y-24811904D01*
X49524819Y-24526190D02*
X48524819Y-24526190D01*
X48524819Y-24526190D02*
X48667676Y-24621428D01*
X48667676Y-24621428D02*
X48762914Y-24716666D01*
X48762914Y-24716666D02*
X48810533Y-24811904D01*
X48524819Y-23907142D02*
X48524819Y-23288095D01*
X48524819Y-23288095D02*
X48905771Y-23621428D01*
X48905771Y-23621428D02*
X48905771Y-23478571D01*
X48905771Y-23478571D02*
X48953390Y-23383333D01*
X48953390Y-23383333D02*
X49001009Y-23335714D01*
X49001009Y-23335714D02*
X49096247Y-23288095D01*
X49096247Y-23288095D02*
X49334342Y-23288095D01*
X49334342Y-23288095D02*
X49429580Y-23335714D01*
X49429580Y-23335714D02*
X49477200Y-23383333D01*
X49477200Y-23383333D02*
X49524819Y-23478571D01*
X49524819Y-23478571D02*
X49524819Y-23764285D01*
X49524819Y-23764285D02*
X49477200Y-23859523D01*
X49477200Y-23859523D02*
X49429580Y-23907142D01*
X57738095Y-54804819D02*
X57738095Y-53804819D01*
X57738095Y-54281009D02*
X58309523Y-54281009D01*
X58309523Y-54804819D02*
X58309523Y-53804819D01*
X59214285Y-54138152D02*
X59214285Y-54804819D01*
X58976190Y-53757200D02*
X58738095Y-54471485D01*
X58738095Y-54471485D02*
X59357142Y-54471485D01*
X45857142Y-17884819D02*
X45523809Y-17408628D01*
X45285714Y-17884819D02*
X45285714Y-16884819D01*
X45285714Y-16884819D02*
X45666666Y-16884819D01*
X45666666Y-16884819D02*
X45761904Y-16932438D01*
X45761904Y-16932438D02*
X45809523Y-16980057D01*
X45809523Y-16980057D02*
X45857142Y-17075295D01*
X45857142Y-17075295D02*
X45857142Y-17218152D01*
X45857142Y-17218152D02*
X45809523Y-17313390D01*
X45809523Y-17313390D02*
X45761904Y-17361009D01*
X45761904Y-17361009D02*
X45666666Y-17408628D01*
X45666666Y-17408628D02*
X45285714Y-17408628D01*
X46809523Y-17884819D02*
X46238095Y-17884819D01*
X46523809Y-17884819D02*
X46523809Y-16884819D01*
X46523809Y-16884819D02*
X46428571Y-17027676D01*
X46428571Y-17027676D02*
X46333333Y-17122914D01*
X46333333Y-17122914D02*
X46238095Y-17170533D01*
X47428571Y-16884819D02*
X47523809Y-16884819D01*
X47523809Y-16884819D02*
X47619047Y-16932438D01*
X47619047Y-16932438D02*
X47666666Y-16980057D01*
X47666666Y-16980057D02*
X47714285Y-17075295D01*
X47714285Y-17075295D02*
X47761904Y-17265771D01*
X47761904Y-17265771D02*
X47761904Y-17503866D01*
X47761904Y-17503866D02*
X47714285Y-17694342D01*
X47714285Y-17694342D02*
X47666666Y-17789580D01*
X47666666Y-17789580D02*
X47619047Y-17837200D01*
X47619047Y-17837200D02*
X47523809Y-17884819D01*
X47523809Y-17884819D02*
X47428571Y-17884819D01*
X47428571Y-17884819D02*
X47333333Y-17837200D01*
X47333333Y-17837200D02*
X47285714Y-17789580D01*
X47285714Y-17789580D02*
X47238095Y-17694342D01*
X47238095Y-17694342D02*
X47190476Y-17503866D01*
X47190476Y-17503866D02*
X47190476Y-17265771D01*
X47190476Y-17265771D02*
X47238095Y-17075295D01*
X47238095Y-17075295D02*
X47285714Y-16980057D01*
X47285714Y-16980057D02*
X47333333Y-16932438D01*
X47333333Y-16932438D02*
X47428571Y-16884819D01*
X50904819Y-23333333D02*
X51619104Y-23333333D01*
X51619104Y-23333333D02*
X51761961Y-23380952D01*
X51761961Y-23380952D02*
X51857200Y-23476190D01*
X51857200Y-23476190D02*
X51904819Y-23619047D01*
X51904819Y-23619047D02*
X51904819Y-23714285D01*
X51000057Y-22904761D02*
X50952438Y-22857142D01*
X50952438Y-22857142D02*
X50904819Y-22761904D01*
X50904819Y-22761904D02*
X50904819Y-22523809D01*
X50904819Y-22523809D02*
X50952438Y-22428571D01*
X50952438Y-22428571D02*
X51000057Y-22380952D01*
X51000057Y-22380952D02*
X51095295Y-22333333D01*
X51095295Y-22333333D02*
X51190533Y-22333333D01*
X51190533Y-22333333D02*
X51333390Y-22380952D01*
X51333390Y-22380952D02*
X51904819Y-22952380D01*
X51904819Y-22952380D02*
X51904819Y-22333333D01*
X20857142Y-59884819D02*
X20523809Y-59408628D01*
X20285714Y-59884819D02*
X20285714Y-58884819D01*
X20285714Y-58884819D02*
X20666666Y-58884819D01*
X20666666Y-58884819D02*
X20761904Y-58932438D01*
X20761904Y-58932438D02*
X20809523Y-58980057D01*
X20809523Y-58980057D02*
X20857142Y-59075295D01*
X20857142Y-59075295D02*
X20857142Y-59218152D01*
X20857142Y-59218152D02*
X20809523Y-59313390D01*
X20809523Y-59313390D02*
X20761904Y-59361009D01*
X20761904Y-59361009D02*
X20666666Y-59408628D01*
X20666666Y-59408628D02*
X20285714Y-59408628D01*
X21809523Y-59884819D02*
X21238095Y-59884819D01*
X21523809Y-59884819D02*
X21523809Y-58884819D01*
X21523809Y-58884819D02*
X21428571Y-59027676D01*
X21428571Y-59027676D02*
X21333333Y-59122914D01*
X21333333Y-59122914D02*
X21238095Y-59170533D01*
X22190476Y-58980057D02*
X22238095Y-58932438D01*
X22238095Y-58932438D02*
X22333333Y-58884819D01*
X22333333Y-58884819D02*
X22571428Y-58884819D01*
X22571428Y-58884819D02*
X22666666Y-58932438D01*
X22666666Y-58932438D02*
X22714285Y-58980057D01*
X22714285Y-58980057D02*
X22761904Y-59075295D01*
X22761904Y-59075295D02*
X22761904Y-59170533D01*
X22761904Y-59170533D02*
X22714285Y-59313390D01*
X22714285Y-59313390D02*
X22142857Y-59884819D01*
X22142857Y-59884819D02*
X22761904Y-59884819D01*
X14738095Y-11804819D02*
X14738095Y-10804819D01*
X14738095Y-11281009D02*
X15309523Y-11281009D01*
X15309523Y-11804819D02*
X15309523Y-10804819D01*
X16309523Y-11804819D02*
X15738095Y-11804819D01*
X16023809Y-11804819D02*
X16023809Y-10804819D01*
X16023809Y-10804819D02*
X15928571Y-10947676D01*
X15928571Y-10947676D02*
X15833333Y-11042914D01*
X15833333Y-11042914D02*
X15738095Y-11090533D01*
X51789580Y-35441666D02*
X51837200Y-35489285D01*
X51837200Y-35489285D02*
X51884819Y-35632142D01*
X51884819Y-35632142D02*
X51884819Y-35727380D01*
X51884819Y-35727380D02*
X51837200Y-35870237D01*
X51837200Y-35870237D02*
X51741961Y-35965475D01*
X51741961Y-35965475D02*
X51646723Y-36013094D01*
X51646723Y-36013094D02*
X51456247Y-36060713D01*
X51456247Y-36060713D02*
X51313390Y-36060713D01*
X51313390Y-36060713D02*
X51122914Y-36013094D01*
X51122914Y-36013094D02*
X51027676Y-35965475D01*
X51027676Y-35965475D02*
X50932438Y-35870237D01*
X50932438Y-35870237D02*
X50884819Y-35727380D01*
X50884819Y-35727380D02*
X50884819Y-35632142D01*
X50884819Y-35632142D02*
X50932438Y-35489285D01*
X50932438Y-35489285D02*
X50980057Y-35441666D01*
X50884819Y-34584523D02*
X50884819Y-34774999D01*
X50884819Y-34774999D02*
X50932438Y-34870237D01*
X50932438Y-34870237D02*
X50980057Y-34917856D01*
X50980057Y-34917856D02*
X51122914Y-35013094D01*
X51122914Y-35013094D02*
X51313390Y-35060713D01*
X51313390Y-35060713D02*
X51694342Y-35060713D01*
X51694342Y-35060713D02*
X51789580Y-35013094D01*
X51789580Y-35013094D02*
X51837200Y-34965475D01*
X51837200Y-34965475D02*
X51884819Y-34870237D01*
X51884819Y-34870237D02*
X51884819Y-34679761D01*
X51884819Y-34679761D02*
X51837200Y-34584523D01*
X51837200Y-34584523D02*
X51789580Y-34536904D01*
X51789580Y-34536904D02*
X51694342Y-34489285D01*
X51694342Y-34489285D02*
X51456247Y-34489285D01*
X51456247Y-34489285D02*
X51361009Y-34536904D01*
X51361009Y-34536904D02*
X51313390Y-34584523D01*
X51313390Y-34584523D02*
X51265771Y-34679761D01*
X51265771Y-34679761D02*
X51265771Y-34870237D01*
X51265771Y-34870237D02*
X51313390Y-34965475D01*
X51313390Y-34965475D02*
X51361009Y-35013094D01*
X51361009Y-35013094D02*
X51456247Y-35060713D01*
X20761905Y-62104819D02*
X20761905Y-61104819D01*
X20761905Y-61104819D02*
X21000000Y-61104819D01*
X21000000Y-61104819D02*
X21142857Y-61152438D01*
X21142857Y-61152438D02*
X21238095Y-61247676D01*
X21238095Y-61247676D02*
X21285714Y-61342914D01*
X21285714Y-61342914D02*
X21333333Y-61533390D01*
X21333333Y-61533390D02*
X21333333Y-61676247D01*
X21333333Y-61676247D02*
X21285714Y-61866723D01*
X21285714Y-61866723D02*
X21238095Y-61961961D01*
X21238095Y-61961961D02*
X21142857Y-62057200D01*
X21142857Y-62057200D02*
X21000000Y-62104819D01*
X21000000Y-62104819D02*
X20761905Y-62104819D01*
X21666667Y-61104819D02*
X22285714Y-61104819D01*
X22285714Y-61104819D02*
X21952381Y-61485771D01*
X21952381Y-61485771D02*
X22095238Y-61485771D01*
X22095238Y-61485771D02*
X22190476Y-61533390D01*
X22190476Y-61533390D02*
X22238095Y-61581009D01*
X22238095Y-61581009D02*
X22285714Y-61676247D01*
X22285714Y-61676247D02*
X22285714Y-61914342D01*
X22285714Y-61914342D02*
X22238095Y-62009580D01*
X22238095Y-62009580D02*
X22190476Y-62057200D01*
X22190476Y-62057200D02*
X22095238Y-62104819D01*
X22095238Y-62104819D02*
X21809524Y-62104819D01*
X21809524Y-62104819D02*
X21714286Y-62057200D01*
X21714286Y-62057200D02*
X21666667Y-62009580D01*
X13833333Y-49789580D02*
X13785714Y-49837200D01*
X13785714Y-49837200D02*
X13642857Y-49884819D01*
X13642857Y-49884819D02*
X13547619Y-49884819D01*
X13547619Y-49884819D02*
X13404762Y-49837200D01*
X13404762Y-49837200D02*
X13309524Y-49741961D01*
X13309524Y-49741961D02*
X13261905Y-49646723D01*
X13261905Y-49646723D02*
X13214286Y-49456247D01*
X13214286Y-49456247D02*
X13214286Y-49313390D01*
X13214286Y-49313390D02*
X13261905Y-49122914D01*
X13261905Y-49122914D02*
X13309524Y-49027676D01*
X13309524Y-49027676D02*
X13404762Y-48932438D01*
X13404762Y-48932438D02*
X13547619Y-48884819D01*
X13547619Y-48884819D02*
X13642857Y-48884819D01*
X13642857Y-48884819D02*
X13785714Y-48932438D01*
X13785714Y-48932438D02*
X13833333Y-48980057D01*
X14166667Y-48884819D02*
X14785714Y-48884819D01*
X14785714Y-48884819D02*
X14452381Y-49265771D01*
X14452381Y-49265771D02*
X14595238Y-49265771D01*
X14595238Y-49265771D02*
X14690476Y-49313390D01*
X14690476Y-49313390D02*
X14738095Y-49361009D01*
X14738095Y-49361009D02*
X14785714Y-49456247D01*
X14785714Y-49456247D02*
X14785714Y-49694342D01*
X14785714Y-49694342D02*
X14738095Y-49789580D01*
X14738095Y-49789580D02*
X14690476Y-49837200D01*
X14690476Y-49837200D02*
X14595238Y-49884819D01*
X14595238Y-49884819D02*
X14309524Y-49884819D01*
X14309524Y-49884819D02*
X14214286Y-49837200D01*
X14214286Y-49837200D02*
X14166667Y-49789580D01*
X41799405Y-12654819D02*
X41799405Y-11654819D01*
X41799405Y-11654819D02*
X42037500Y-11654819D01*
X42037500Y-11654819D02*
X42180357Y-11702438D01*
X42180357Y-11702438D02*
X42275595Y-11797676D01*
X42275595Y-11797676D02*
X42323214Y-11892914D01*
X42323214Y-11892914D02*
X42370833Y-12083390D01*
X42370833Y-12083390D02*
X42370833Y-12226247D01*
X42370833Y-12226247D02*
X42323214Y-12416723D01*
X42323214Y-12416723D02*
X42275595Y-12511961D01*
X42275595Y-12511961D02*
X42180357Y-12607200D01*
X42180357Y-12607200D02*
X42037500Y-12654819D01*
X42037500Y-12654819D02*
X41799405Y-12654819D01*
X42751786Y-11750057D02*
X42799405Y-11702438D01*
X42799405Y-11702438D02*
X42894643Y-11654819D01*
X42894643Y-11654819D02*
X43132738Y-11654819D01*
X43132738Y-11654819D02*
X43227976Y-11702438D01*
X43227976Y-11702438D02*
X43275595Y-11750057D01*
X43275595Y-11750057D02*
X43323214Y-11845295D01*
X43323214Y-11845295D02*
X43323214Y-11940533D01*
X43323214Y-11940533D02*
X43275595Y-12083390D01*
X43275595Y-12083390D02*
X42704167Y-12654819D01*
X42704167Y-12654819D02*
X43323214Y-12654819D01*
X25833333Y-56884819D02*
X25500000Y-56408628D01*
X25261905Y-56884819D02*
X25261905Y-55884819D01*
X25261905Y-55884819D02*
X25642857Y-55884819D01*
X25642857Y-55884819D02*
X25738095Y-55932438D01*
X25738095Y-55932438D02*
X25785714Y-55980057D01*
X25785714Y-55980057D02*
X25833333Y-56075295D01*
X25833333Y-56075295D02*
X25833333Y-56218152D01*
X25833333Y-56218152D02*
X25785714Y-56313390D01*
X25785714Y-56313390D02*
X25738095Y-56361009D01*
X25738095Y-56361009D02*
X25642857Y-56408628D01*
X25642857Y-56408628D02*
X25261905Y-56408628D01*
X26309524Y-56884819D02*
X26500000Y-56884819D01*
X26500000Y-56884819D02*
X26595238Y-56837200D01*
X26595238Y-56837200D02*
X26642857Y-56789580D01*
X26642857Y-56789580D02*
X26738095Y-56646723D01*
X26738095Y-56646723D02*
X26785714Y-56456247D01*
X26785714Y-56456247D02*
X26785714Y-56075295D01*
X26785714Y-56075295D02*
X26738095Y-55980057D01*
X26738095Y-55980057D02*
X26690476Y-55932438D01*
X26690476Y-55932438D02*
X26595238Y-55884819D01*
X26595238Y-55884819D02*
X26404762Y-55884819D01*
X26404762Y-55884819D02*
X26309524Y-55932438D01*
X26309524Y-55932438D02*
X26261905Y-55980057D01*
X26261905Y-55980057D02*
X26214286Y-56075295D01*
X26214286Y-56075295D02*
X26214286Y-56313390D01*
X26214286Y-56313390D02*
X26261905Y-56408628D01*
X26261905Y-56408628D02*
X26309524Y-56456247D01*
X26309524Y-56456247D02*
X26404762Y-56503866D01*
X26404762Y-56503866D02*
X26595238Y-56503866D01*
X26595238Y-56503866D02*
X26690476Y-56456247D01*
X26690476Y-56456247D02*
X26738095Y-56408628D01*
X26738095Y-56408628D02*
X26785714Y-56313390D01*
X45919642Y-15584819D02*
X45586309Y-15108628D01*
X45348214Y-15584819D02*
X45348214Y-14584819D01*
X45348214Y-14584819D02*
X45729166Y-14584819D01*
X45729166Y-14584819D02*
X45824404Y-14632438D01*
X45824404Y-14632438D02*
X45872023Y-14680057D01*
X45872023Y-14680057D02*
X45919642Y-14775295D01*
X45919642Y-14775295D02*
X45919642Y-14918152D01*
X45919642Y-14918152D02*
X45872023Y-15013390D01*
X45872023Y-15013390D02*
X45824404Y-15061009D01*
X45824404Y-15061009D02*
X45729166Y-15108628D01*
X45729166Y-15108628D02*
X45348214Y-15108628D01*
X46872023Y-15584819D02*
X46300595Y-15584819D01*
X46586309Y-15584819D02*
X46586309Y-14584819D01*
X46586309Y-14584819D02*
X46491071Y-14727676D01*
X46491071Y-14727676D02*
X46395833Y-14822914D01*
X46395833Y-14822914D02*
X46300595Y-14870533D01*
X47824404Y-15584819D02*
X47252976Y-15584819D01*
X47538690Y-15584819D02*
X47538690Y-14584819D01*
X47538690Y-14584819D02*
X47443452Y-14727676D01*
X47443452Y-14727676D02*
X47348214Y-14822914D01*
X47348214Y-14822914D02*
X47252976Y-14870533D01*
X57738095Y-11804819D02*
X57738095Y-10804819D01*
X57738095Y-11281009D02*
X58309523Y-11281009D01*
X58309523Y-11804819D02*
X58309523Y-10804819D01*
X58738095Y-10900057D02*
X58785714Y-10852438D01*
X58785714Y-10852438D02*
X58880952Y-10804819D01*
X58880952Y-10804819D02*
X59119047Y-10804819D01*
X59119047Y-10804819D02*
X59214285Y-10852438D01*
X59214285Y-10852438D02*
X59261904Y-10900057D01*
X59261904Y-10900057D02*
X59309523Y-10995295D01*
X59309523Y-10995295D02*
X59309523Y-11090533D01*
X59309523Y-11090533D02*
X59261904Y-11233390D01*
X59261904Y-11233390D02*
X58690476Y-11804819D01*
X58690476Y-11804819D02*
X59309523Y-11804819D01*
X41429580Y-21166666D02*
X41477200Y-21214285D01*
X41477200Y-21214285D02*
X41524819Y-21357142D01*
X41524819Y-21357142D02*
X41524819Y-21452380D01*
X41524819Y-21452380D02*
X41477200Y-21595237D01*
X41477200Y-21595237D02*
X41381961Y-21690475D01*
X41381961Y-21690475D02*
X41286723Y-21738094D01*
X41286723Y-21738094D02*
X41096247Y-21785713D01*
X41096247Y-21785713D02*
X40953390Y-21785713D01*
X40953390Y-21785713D02*
X40762914Y-21738094D01*
X40762914Y-21738094D02*
X40667676Y-21690475D01*
X40667676Y-21690475D02*
X40572438Y-21595237D01*
X40572438Y-21595237D02*
X40524819Y-21452380D01*
X40524819Y-21452380D02*
X40524819Y-21357142D01*
X40524819Y-21357142D02*
X40572438Y-21214285D01*
X40572438Y-21214285D02*
X40620057Y-21166666D01*
X41524819Y-20214285D02*
X41524819Y-20785713D01*
X41524819Y-20499999D02*
X40524819Y-20499999D01*
X40524819Y-20499999D02*
X40667676Y-20595237D01*
X40667676Y-20595237D02*
X40762914Y-20690475D01*
X40762914Y-20690475D02*
X40810533Y-20785713D01*
X42333333Y-17024819D02*
X42000000Y-16548628D01*
X41761905Y-17024819D02*
X41761905Y-16024819D01*
X41761905Y-16024819D02*
X42142857Y-16024819D01*
X42142857Y-16024819D02*
X42238095Y-16072438D01*
X42238095Y-16072438D02*
X42285714Y-16120057D01*
X42285714Y-16120057D02*
X42333333Y-16215295D01*
X42333333Y-16215295D02*
X42333333Y-16358152D01*
X42333333Y-16358152D02*
X42285714Y-16453390D01*
X42285714Y-16453390D02*
X42238095Y-16501009D01*
X42238095Y-16501009D02*
X42142857Y-16548628D01*
X42142857Y-16548628D02*
X41761905Y-16548628D01*
X42666667Y-16024819D02*
X43285714Y-16024819D01*
X43285714Y-16024819D02*
X42952381Y-16405771D01*
X42952381Y-16405771D02*
X43095238Y-16405771D01*
X43095238Y-16405771D02*
X43190476Y-16453390D01*
X43190476Y-16453390D02*
X43238095Y-16501009D01*
X43238095Y-16501009D02*
X43285714Y-16596247D01*
X43285714Y-16596247D02*
X43285714Y-16834342D01*
X43285714Y-16834342D02*
X43238095Y-16929580D01*
X43238095Y-16929580D02*
X43190476Y-16977200D01*
X43190476Y-16977200D02*
X43095238Y-17024819D01*
X43095238Y-17024819D02*
X42809524Y-17024819D01*
X42809524Y-17024819D02*
X42714286Y-16977200D01*
X42714286Y-16977200D02*
X42666667Y-16929580D01*
X26833333Y-19024819D02*
X26500000Y-18548628D01*
X26261905Y-19024819D02*
X26261905Y-18024819D01*
X26261905Y-18024819D02*
X26642857Y-18024819D01*
X26642857Y-18024819D02*
X26738095Y-18072438D01*
X26738095Y-18072438D02*
X26785714Y-18120057D01*
X26785714Y-18120057D02*
X26833333Y-18215295D01*
X26833333Y-18215295D02*
X26833333Y-18358152D01*
X26833333Y-18358152D02*
X26785714Y-18453390D01*
X26785714Y-18453390D02*
X26738095Y-18501009D01*
X26738095Y-18501009D02*
X26642857Y-18548628D01*
X26642857Y-18548628D02*
X26261905Y-18548628D01*
X27785714Y-19024819D02*
X27214286Y-19024819D01*
X27500000Y-19024819D02*
X27500000Y-18024819D01*
X27500000Y-18024819D02*
X27404762Y-18167676D01*
X27404762Y-18167676D02*
X27309524Y-18262914D01*
X27309524Y-18262914D02*
X27214286Y-18310533D01*
X35238095Y-22854819D02*
X35238095Y-23664342D01*
X35238095Y-23664342D02*
X35285714Y-23759580D01*
X35285714Y-23759580D02*
X35333333Y-23807200D01*
X35333333Y-23807200D02*
X35428571Y-23854819D01*
X35428571Y-23854819D02*
X35619047Y-23854819D01*
X35619047Y-23854819D02*
X35714285Y-23807200D01*
X35714285Y-23807200D02*
X35761904Y-23759580D01*
X35761904Y-23759580D02*
X35809523Y-23664342D01*
X35809523Y-23664342D02*
X35809523Y-22854819D01*
X36238095Y-22950057D02*
X36285714Y-22902438D01*
X36285714Y-22902438D02*
X36380952Y-22854819D01*
X36380952Y-22854819D02*
X36619047Y-22854819D01*
X36619047Y-22854819D02*
X36714285Y-22902438D01*
X36714285Y-22902438D02*
X36761904Y-22950057D01*
X36761904Y-22950057D02*
X36809523Y-23045295D01*
X36809523Y-23045295D02*
X36809523Y-23140533D01*
X36809523Y-23140533D02*
X36761904Y-23283390D01*
X36761904Y-23283390D02*
X36190476Y-23854819D01*
X36190476Y-23854819D02*
X36809523Y-23854819D01*
X54666667Y-30657200D02*
X54809524Y-30704819D01*
X54809524Y-30704819D02*
X55047619Y-30704819D01*
X55047619Y-30704819D02*
X55142857Y-30657200D01*
X55142857Y-30657200D02*
X55190476Y-30609580D01*
X55190476Y-30609580D02*
X55238095Y-30514342D01*
X55238095Y-30514342D02*
X55238095Y-30419104D01*
X55238095Y-30419104D02*
X55190476Y-30323866D01*
X55190476Y-30323866D02*
X55142857Y-30276247D01*
X55142857Y-30276247D02*
X55047619Y-30228628D01*
X55047619Y-30228628D02*
X54857143Y-30181009D01*
X54857143Y-30181009D02*
X54761905Y-30133390D01*
X54761905Y-30133390D02*
X54714286Y-30085771D01*
X54714286Y-30085771D02*
X54666667Y-29990533D01*
X54666667Y-29990533D02*
X54666667Y-29895295D01*
X54666667Y-29895295D02*
X54714286Y-29800057D01*
X54714286Y-29800057D02*
X54761905Y-29752438D01*
X54761905Y-29752438D02*
X54857143Y-29704819D01*
X54857143Y-29704819D02*
X55095238Y-29704819D01*
X55095238Y-29704819D02*
X55238095Y-29752438D01*
X55571429Y-29704819D02*
X55809524Y-30704819D01*
X55809524Y-30704819D02*
X56000000Y-29990533D01*
X56000000Y-29990533D02*
X56190476Y-30704819D01*
X56190476Y-30704819D02*
X56428572Y-29704819D01*
X56761905Y-29800057D02*
X56809524Y-29752438D01*
X56809524Y-29752438D02*
X56904762Y-29704819D01*
X56904762Y-29704819D02*
X57142857Y-29704819D01*
X57142857Y-29704819D02*
X57238095Y-29752438D01*
X57238095Y-29752438D02*
X57285714Y-29800057D01*
X57285714Y-29800057D02*
X57333333Y-29895295D01*
X57333333Y-29895295D02*
X57333333Y-29990533D01*
X57333333Y-29990533D02*
X57285714Y-30133390D01*
X57285714Y-30133390D02*
X56714286Y-30704819D01*
X56714286Y-30704819D02*
X57333333Y-30704819D01*
X46929580Y-25442857D02*
X46977200Y-25490476D01*
X46977200Y-25490476D02*
X47024819Y-25633333D01*
X47024819Y-25633333D02*
X47024819Y-25728571D01*
X47024819Y-25728571D02*
X46977200Y-25871428D01*
X46977200Y-25871428D02*
X46881961Y-25966666D01*
X46881961Y-25966666D02*
X46786723Y-26014285D01*
X46786723Y-26014285D02*
X46596247Y-26061904D01*
X46596247Y-26061904D02*
X46453390Y-26061904D01*
X46453390Y-26061904D02*
X46262914Y-26014285D01*
X46262914Y-26014285D02*
X46167676Y-25966666D01*
X46167676Y-25966666D02*
X46072438Y-25871428D01*
X46072438Y-25871428D02*
X46024819Y-25728571D01*
X46024819Y-25728571D02*
X46024819Y-25633333D01*
X46024819Y-25633333D02*
X46072438Y-25490476D01*
X46072438Y-25490476D02*
X46120057Y-25442857D01*
X47024819Y-24490476D02*
X47024819Y-25061904D01*
X47024819Y-24776190D02*
X46024819Y-24776190D01*
X46024819Y-24776190D02*
X46167676Y-24871428D01*
X46167676Y-24871428D02*
X46262914Y-24966666D01*
X46262914Y-24966666D02*
X46310533Y-25061904D01*
X46120057Y-24109523D02*
X46072438Y-24061904D01*
X46072438Y-24061904D02*
X46024819Y-23966666D01*
X46024819Y-23966666D02*
X46024819Y-23728571D01*
X46024819Y-23728571D02*
X46072438Y-23633333D01*
X46072438Y-23633333D02*
X46120057Y-23585714D01*
X46120057Y-23585714D02*
X46215295Y-23538095D01*
X46215295Y-23538095D02*
X46310533Y-23538095D01*
X46310533Y-23538095D02*
X46453390Y-23585714D01*
X46453390Y-23585714D02*
X47024819Y-24157142D01*
X47024819Y-24157142D02*
X47024819Y-23538095D01*
X35238095Y-18854819D02*
X35238095Y-19664342D01*
X35238095Y-19664342D02*
X35285714Y-19759580D01*
X35285714Y-19759580D02*
X35333333Y-19807200D01*
X35333333Y-19807200D02*
X35428571Y-19854819D01*
X35428571Y-19854819D02*
X35619047Y-19854819D01*
X35619047Y-19854819D02*
X35714285Y-19807200D01*
X35714285Y-19807200D02*
X35761904Y-19759580D01*
X35761904Y-19759580D02*
X35809523Y-19664342D01*
X35809523Y-19664342D02*
X35809523Y-18854819D01*
X36809523Y-19854819D02*
X36238095Y-19854819D01*
X36523809Y-19854819D02*
X36523809Y-18854819D01*
X36523809Y-18854819D02*
X36428571Y-18997676D01*
X36428571Y-18997676D02*
X36333333Y-19092914D01*
X36333333Y-19092914D02*
X36238095Y-19140533D01*
X23008333Y-21884819D02*
X22675000Y-21408628D01*
X22436905Y-21884819D02*
X22436905Y-20884819D01*
X22436905Y-20884819D02*
X22817857Y-20884819D01*
X22817857Y-20884819D02*
X22913095Y-20932438D01*
X22913095Y-20932438D02*
X22960714Y-20980057D01*
X22960714Y-20980057D02*
X23008333Y-21075295D01*
X23008333Y-21075295D02*
X23008333Y-21218152D01*
X23008333Y-21218152D02*
X22960714Y-21313390D01*
X22960714Y-21313390D02*
X22913095Y-21361009D01*
X22913095Y-21361009D02*
X22817857Y-21408628D01*
X22817857Y-21408628D02*
X22436905Y-21408628D01*
X23389286Y-20980057D02*
X23436905Y-20932438D01*
X23436905Y-20932438D02*
X23532143Y-20884819D01*
X23532143Y-20884819D02*
X23770238Y-20884819D01*
X23770238Y-20884819D02*
X23865476Y-20932438D01*
X23865476Y-20932438D02*
X23913095Y-20980057D01*
X23913095Y-20980057D02*
X23960714Y-21075295D01*
X23960714Y-21075295D02*
X23960714Y-21170533D01*
X23960714Y-21170533D02*
X23913095Y-21313390D01*
X23913095Y-21313390D02*
X23341667Y-21884819D01*
X23341667Y-21884819D02*
X23960714Y-21884819D01*
X41999405Y-14804819D02*
X41999405Y-13804819D01*
X41999405Y-13804819D02*
X42237500Y-13804819D01*
X42237500Y-13804819D02*
X42380357Y-13852438D01*
X42380357Y-13852438D02*
X42475595Y-13947676D01*
X42475595Y-13947676D02*
X42523214Y-14042914D01*
X42523214Y-14042914D02*
X42570833Y-14233390D01*
X42570833Y-14233390D02*
X42570833Y-14376247D01*
X42570833Y-14376247D02*
X42523214Y-14566723D01*
X42523214Y-14566723D02*
X42475595Y-14661961D01*
X42475595Y-14661961D02*
X42380357Y-14757200D01*
X42380357Y-14757200D02*
X42237500Y-14804819D01*
X42237500Y-14804819D02*
X41999405Y-14804819D01*
X43523214Y-14804819D02*
X42951786Y-14804819D01*
X43237500Y-14804819D02*
X43237500Y-13804819D01*
X43237500Y-13804819D02*
X43142262Y-13947676D01*
X43142262Y-13947676D02*
X43047024Y-14042914D01*
X43047024Y-14042914D02*
X42951786Y-14090533D01*
X24691666Y-19254819D02*
X24691666Y-19969104D01*
X24691666Y-19969104D02*
X24644047Y-20111961D01*
X24644047Y-20111961D02*
X24548809Y-20207200D01*
X24548809Y-20207200D02*
X24405952Y-20254819D01*
X24405952Y-20254819D02*
X24310714Y-20254819D01*
X25691666Y-20254819D02*
X25120238Y-20254819D01*
X25405952Y-20254819D02*
X25405952Y-19254819D01*
X25405952Y-19254819D02*
X25310714Y-19397676D01*
X25310714Y-19397676D02*
X25215476Y-19492914D01*
X25215476Y-19492914D02*
X25120238Y-19540533D01*
X31929580Y-21166666D02*
X31977200Y-21214285D01*
X31977200Y-21214285D02*
X32024819Y-21357142D01*
X32024819Y-21357142D02*
X32024819Y-21452380D01*
X32024819Y-21452380D02*
X31977200Y-21595237D01*
X31977200Y-21595237D02*
X31881961Y-21690475D01*
X31881961Y-21690475D02*
X31786723Y-21738094D01*
X31786723Y-21738094D02*
X31596247Y-21785713D01*
X31596247Y-21785713D02*
X31453390Y-21785713D01*
X31453390Y-21785713D02*
X31262914Y-21738094D01*
X31262914Y-21738094D02*
X31167676Y-21690475D01*
X31167676Y-21690475D02*
X31072438Y-21595237D01*
X31072438Y-21595237D02*
X31024819Y-21452380D01*
X31024819Y-21452380D02*
X31024819Y-21357142D01*
X31024819Y-21357142D02*
X31072438Y-21214285D01*
X31072438Y-21214285D02*
X31120057Y-21166666D01*
X31120057Y-20785713D02*
X31072438Y-20738094D01*
X31072438Y-20738094D02*
X31024819Y-20642856D01*
X31024819Y-20642856D02*
X31024819Y-20404761D01*
X31024819Y-20404761D02*
X31072438Y-20309523D01*
X31072438Y-20309523D02*
X31120057Y-20261904D01*
X31120057Y-20261904D02*
X31215295Y-20214285D01*
X31215295Y-20214285D02*
X31310533Y-20214285D01*
X31310533Y-20214285D02*
X31453390Y-20261904D01*
X31453390Y-20261904D02*
X32024819Y-20833332D01*
X32024819Y-20833332D02*
X32024819Y-20214285D01*
X51884819Y-32166666D02*
X51408628Y-32499999D01*
X51884819Y-32738094D02*
X50884819Y-32738094D01*
X50884819Y-32738094D02*
X50884819Y-32357142D01*
X50884819Y-32357142D02*
X50932438Y-32261904D01*
X50932438Y-32261904D02*
X50980057Y-32214285D01*
X50980057Y-32214285D02*
X51075295Y-32166666D01*
X51075295Y-32166666D02*
X51218152Y-32166666D01*
X51218152Y-32166666D02*
X51313390Y-32214285D01*
X51313390Y-32214285D02*
X51361009Y-32261904D01*
X51361009Y-32261904D02*
X51408628Y-32357142D01*
X51408628Y-32357142D02*
X51408628Y-32738094D01*
X50884819Y-31833332D02*
X50884819Y-31166666D01*
X50884819Y-31166666D02*
X51884819Y-31595237D01*
X50108333Y-20884819D02*
X49775000Y-20408628D01*
X49536905Y-20884819D02*
X49536905Y-19884819D01*
X49536905Y-19884819D02*
X49917857Y-19884819D01*
X49917857Y-19884819D02*
X50013095Y-19932438D01*
X50013095Y-19932438D02*
X50060714Y-19980057D01*
X50060714Y-19980057D02*
X50108333Y-20075295D01*
X50108333Y-20075295D02*
X50108333Y-20218152D01*
X50108333Y-20218152D02*
X50060714Y-20313390D01*
X50060714Y-20313390D02*
X50013095Y-20361009D01*
X50013095Y-20361009D02*
X49917857Y-20408628D01*
X49917857Y-20408628D02*
X49536905Y-20408628D01*
X51013095Y-19884819D02*
X50536905Y-19884819D01*
X50536905Y-19884819D02*
X50489286Y-20361009D01*
X50489286Y-20361009D02*
X50536905Y-20313390D01*
X50536905Y-20313390D02*
X50632143Y-20265771D01*
X50632143Y-20265771D02*
X50870238Y-20265771D01*
X50870238Y-20265771D02*
X50965476Y-20313390D01*
X50965476Y-20313390D02*
X51013095Y-20361009D01*
X51013095Y-20361009D02*
X51060714Y-20456247D01*
X51060714Y-20456247D02*
X51060714Y-20694342D01*
X51060714Y-20694342D02*
X51013095Y-20789580D01*
X51013095Y-20789580D02*
X50965476Y-20837200D01*
X50965476Y-20837200D02*
X50870238Y-20884819D01*
X50870238Y-20884819D02*
X50632143Y-20884819D01*
X50632143Y-20884819D02*
X50536905Y-20837200D01*
X50536905Y-20837200D02*
X50489286Y-20789580D01*
X13833333Y-51789580D02*
X13785714Y-51837200D01*
X13785714Y-51837200D02*
X13642857Y-51884819D01*
X13642857Y-51884819D02*
X13547619Y-51884819D01*
X13547619Y-51884819D02*
X13404762Y-51837200D01*
X13404762Y-51837200D02*
X13309524Y-51741961D01*
X13309524Y-51741961D02*
X13261905Y-51646723D01*
X13261905Y-51646723D02*
X13214286Y-51456247D01*
X13214286Y-51456247D02*
X13214286Y-51313390D01*
X13214286Y-51313390D02*
X13261905Y-51122914D01*
X13261905Y-51122914D02*
X13309524Y-51027676D01*
X13309524Y-51027676D02*
X13404762Y-50932438D01*
X13404762Y-50932438D02*
X13547619Y-50884819D01*
X13547619Y-50884819D02*
X13642857Y-50884819D01*
X13642857Y-50884819D02*
X13785714Y-50932438D01*
X13785714Y-50932438D02*
X13833333Y-50980057D01*
X14690476Y-51218152D02*
X14690476Y-51884819D01*
X14452381Y-50837200D02*
X14214286Y-51551485D01*
X14214286Y-51551485D02*
X14833333Y-51551485D01*
X54666667Y-46157200D02*
X54809524Y-46204819D01*
X54809524Y-46204819D02*
X55047619Y-46204819D01*
X55047619Y-46204819D02*
X55142857Y-46157200D01*
X55142857Y-46157200D02*
X55190476Y-46109580D01*
X55190476Y-46109580D02*
X55238095Y-46014342D01*
X55238095Y-46014342D02*
X55238095Y-45919104D01*
X55238095Y-45919104D02*
X55190476Y-45823866D01*
X55190476Y-45823866D02*
X55142857Y-45776247D01*
X55142857Y-45776247D02*
X55047619Y-45728628D01*
X55047619Y-45728628D02*
X54857143Y-45681009D01*
X54857143Y-45681009D02*
X54761905Y-45633390D01*
X54761905Y-45633390D02*
X54714286Y-45585771D01*
X54714286Y-45585771D02*
X54666667Y-45490533D01*
X54666667Y-45490533D02*
X54666667Y-45395295D01*
X54666667Y-45395295D02*
X54714286Y-45300057D01*
X54714286Y-45300057D02*
X54761905Y-45252438D01*
X54761905Y-45252438D02*
X54857143Y-45204819D01*
X54857143Y-45204819D02*
X55095238Y-45204819D01*
X55095238Y-45204819D02*
X55238095Y-45252438D01*
X55571429Y-45204819D02*
X55809524Y-46204819D01*
X55809524Y-46204819D02*
X56000000Y-45490533D01*
X56000000Y-45490533D02*
X56190476Y-46204819D01*
X56190476Y-46204819D02*
X56428572Y-45204819D01*
X57333333Y-46204819D02*
X56761905Y-46204819D01*
X57047619Y-46204819D02*
X57047619Y-45204819D01*
X57047619Y-45204819D02*
X56952381Y-45347676D01*
X56952381Y-45347676D02*
X56857143Y-45442914D01*
X56857143Y-45442914D02*
X56761905Y-45490533D01*
X30742507Y-47864141D02*
X30742507Y-47054618D01*
X30742507Y-47054618D02*
X30694888Y-46959380D01*
X30694888Y-46959380D02*
X30647269Y-46911761D01*
X30647269Y-46911761D02*
X30552031Y-46864141D01*
X30552031Y-46864141D02*
X30361555Y-46864141D01*
X30361555Y-46864141D02*
X30266317Y-46911761D01*
X30266317Y-46911761D02*
X30218698Y-46959380D01*
X30218698Y-46959380D02*
X30171079Y-47054618D01*
X30171079Y-47054618D02*
X30171079Y-47864141D01*
X29790126Y-47864141D02*
X29171079Y-47864141D01*
X29171079Y-47864141D02*
X29504412Y-47483189D01*
X29504412Y-47483189D02*
X29361555Y-47483189D01*
X29361555Y-47483189D02*
X29266317Y-47435570D01*
X29266317Y-47435570D02*
X29218698Y-47387951D01*
X29218698Y-47387951D02*
X29171079Y-47292713D01*
X29171079Y-47292713D02*
X29171079Y-47054618D01*
X29171079Y-47054618D02*
X29218698Y-46959380D01*
X29218698Y-46959380D02*
X29266317Y-46911761D01*
X29266317Y-46911761D02*
X29361555Y-46864141D01*
X29361555Y-46864141D02*
X29647269Y-46864141D01*
X29647269Y-46864141D02*
X29742507Y-46911761D01*
X29742507Y-46911761D02*
X29790126Y-46959380D01*
%TO.C,C5*%
D12*
X50140580Y-39490000D02*
X49859420Y-39490000D01*
X50140580Y-40510000D02*
X49859420Y-40510000D01*
%TO.C,C8*%
X30490000Y-21140580D02*
X30490000Y-20859420D01*
X31510000Y-21140580D02*
X31510000Y-20859420D01*
%TO.C,R8*%
X26237258Y-55977500D02*
X25762742Y-55977500D01*
X26237258Y-57022500D02*
X25762742Y-57022500D01*
%TO.C,C7*%
X39990000Y-21140580D02*
X39990000Y-20859420D01*
X41010000Y-21140580D02*
X41010000Y-20859420D01*
%TO.C,C9*%
X50415580Y-13490000D02*
X50134420Y-13490000D01*
X50415580Y-14510000D02*
X50134420Y-14510000D01*
%TO.C,R6*%
X49762742Y-43477500D02*
X50237258Y-43477500D01*
X49762742Y-44522500D02*
X50237258Y-44522500D01*
%TO.C,J3*%
X23810000Y-60380000D02*
X23810000Y-59000000D01*
X25190000Y-60380000D02*
X23810000Y-60380000D01*
X26460000Y-57620000D02*
X34190000Y-57620000D01*
X26460000Y-60380000D02*
X26460000Y-57620000D01*
X26460000Y-60380000D02*
X34190000Y-60380000D01*
X34190000Y-60380000D02*
X34190000Y-57620000D01*
%TO.C,J6*%
X13080000Y-53880000D02*
X13080000Y-52500000D01*
X14460000Y-53880000D02*
X13080000Y-53880000D01*
X15730000Y-51120000D02*
X33620000Y-51120000D01*
X15730000Y-53880000D02*
X15730000Y-51120000D01*
X15730000Y-53880000D02*
X33620000Y-53880000D01*
X33620000Y-53880000D02*
X33620000Y-51120000D01*
%TO.C,R4*%
X50037742Y-15977500D02*
X50512258Y-15977500D01*
X50037742Y-17022500D02*
X50512258Y-17022500D01*
%TO.C,C13*%
X50015000Y-24811252D02*
X50015000Y-24288748D01*
X51485000Y-24811252D02*
X51485000Y-24288748D01*
%TO.C,R10*%
X46737258Y-15477500D02*
X46262742Y-15477500D01*
X46737258Y-16522500D02*
X46262742Y-16522500D01*
%TO.C,J2*%
X52540000Y-19940000D02*
X52540000Y-20860000D01*
X52540000Y-20860000D02*
X54140000Y-20860000D01*
X52540000Y-25140000D02*
X52540000Y-26060000D01*
X52540000Y-26060000D02*
X60360000Y-26060000D01*
X54140000Y-19940000D02*
X54140000Y-20860000D01*
X54140000Y-20860000D02*
X54140000Y-21140000D01*
X54140000Y-24860000D02*
X52925000Y-24860000D01*
X54140000Y-24860000D02*
X54140000Y-25140000D01*
X54140000Y-25140000D02*
X52540000Y-25140000D01*
X54140000Y-26060000D02*
X54140000Y-25140000D01*
X56000000Y-22500000D02*
X60360000Y-22500000D01*
X56000000Y-23500000D02*
X56000000Y-22500000D01*
X58100000Y-24300000D02*
X60360000Y-24300000D01*
X58100000Y-24800000D02*
X60360000Y-24800000D01*
X60360000Y-19940000D02*
X52540000Y-19940000D01*
X60360000Y-23500000D02*
X56000000Y-23500000D01*
X60360000Y-26060000D02*
X60360000Y-19940000D01*
X56500000Y-20700000D02*
X58100000Y-20700000D01*
X58100000Y-21700000D01*
X56500000Y-21700000D01*
X56500000Y-20700000D01*
X56500000Y-24300000D02*
X58100000Y-24300000D01*
X58100000Y-25300000D01*
X56500000Y-25300000D01*
X56500000Y-24300000D01*
%TO.C,R12*%
X21737258Y-57477500D02*
X21262742Y-57477500D01*
X21737258Y-58522500D02*
X21262742Y-58522500D01*
%TO.C,C6*%
X49490000Y-35134420D02*
X49490000Y-35415580D01*
X50510000Y-35134420D02*
X50510000Y-35415580D01*
%TO.C,D3*%
X20500000Y-60960000D02*
X23185000Y-60960000D01*
X23185000Y-59040000D02*
X20500000Y-59040000D01*
X23185000Y-60960000D02*
X23185000Y-59040000D01*
%TO.C,C3*%
X14140580Y-47490000D02*
X13859420Y-47490000D01*
X14140580Y-48510000D02*
X13859420Y-48510000D01*
%TO.C,D2*%
X41052500Y-12740000D02*
X41052500Y-14660000D01*
X41052500Y-14660000D02*
X43737500Y-14660000D01*
X43737500Y-12740000D02*
X41052500Y-12740000D01*
%TO.C,R9*%
X26237258Y-54477500D02*
X25762742Y-54477500D01*
X26237258Y-55522500D02*
X25762742Y-55522500D01*
%TO.C,R11*%
X46799758Y-13177500D02*
X46325242Y-13177500D01*
X46799758Y-14222500D02*
X46325242Y-14222500D01*
%TO.C,C1*%
X41990000Y-21140580D02*
X41990000Y-20859420D01*
X43010000Y-21140580D02*
X43010000Y-20859420D01*
%TO.C,R3*%
X42262742Y-17477500D02*
X42737258Y-17477500D01*
X42262742Y-18522500D02*
X42737258Y-18522500D01*
%TO.C,R1*%
X26762742Y-19477500D02*
X27237258Y-19477500D01*
X26762742Y-20522500D02*
X27237258Y-20522500D01*
%TO.C,U2*%
X35090000Y-19440000D02*
X36910000Y-19440000D01*
X35090000Y-19490000D02*
X35090000Y-19440000D01*
X35090000Y-21390000D02*
X35090000Y-20610000D01*
X35090000Y-22560000D02*
X35090000Y-22510000D01*
X36910000Y-19440000D02*
X36910000Y-19490000D01*
X36910000Y-22510000D02*
X36910000Y-22560000D01*
X36910000Y-22560000D02*
X35090000Y-22560000D01*
X37690000Y-22840000D02*
X37210000Y-22840000D01*
X37450000Y-22510000D01*
X37690000Y-22840000D01*
G36*
X37690000Y-22840000D02*
G01*
X37210000Y-22840000D01*
X37450000Y-22510000D01*
X37690000Y-22840000D01*
G37*
%TO.C,SW2*%
X53250000Y-33000000D02*
X53250000Y-35000000D01*
X54300000Y-31700000D02*
X54750000Y-31250000D01*
X54300000Y-36300000D02*
X54750000Y-36750000D01*
X54750000Y-31250000D02*
X57250000Y-31250000D01*
X54750000Y-36750000D02*
X57250000Y-36750000D01*
X57700000Y-31700000D02*
X57250000Y-31250000D01*
X57700000Y-36300000D02*
X57250000Y-36750000D01*
X58750000Y-33000000D02*
X58750000Y-35000000D01*
%TO.C,C12*%
X47490000Y-24940580D02*
X47490000Y-24659420D01*
X48510000Y-24940580D02*
X48510000Y-24659420D01*
%TO.C,U1*%
X33940000Y-13440000D02*
X38060000Y-13440000D01*
X33940000Y-13535000D02*
X33940000Y-13440000D01*
X33940000Y-18560000D02*
X33940000Y-18465000D01*
X38060000Y-13440000D02*
X38060000Y-13535000D01*
X38060000Y-18465000D02*
X38060000Y-18560000D01*
X38060000Y-18560000D02*
X33940000Y-18560000D01*
X38840000Y-18800000D02*
X38360000Y-18800000D01*
X38600000Y-18470000D01*
X38840000Y-18800000D01*
G36*
X38840000Y-18800000D02*
G01*
X38360000Y-18800000D01*
X38600000Y-18470000D01*
X38840000Y-18800000D01*
G37*
%TO.C,R2*%
X23412258Y-19477500D02*
X22937742Y-19477500D01*
X23412258Y-20522500D02*
X22937742Y-20522500D01*
%TO.C,D1*%
X41052500Y-15040000D02*
X41052500Y-16960000D01*
X41052500Y-16960000D02*
X43737500Y-16960000D01*
X43737500Y-15040000D02*
X41052500Y-15040000D01*
%TO.C,J1*%
X20430000Y-12000000D02*
X20430000Y-9270000D01*
X20430000Y-15600000D02*
X20430000Y-14700000D01*
X29500000Y-18680000D02*
X20550000Y-18680000D01*
X29620000Y-9270000D02*
X20430000Y-9270000D01*
X29620000Y-12000000D02*
X29620000Y-9270000D01*
X29620000Y-15600000D02*
X29620000Y-14700000D01*
%TO.C,C2*%
X32490000Y-21140580D02*
X32490000Y-20859420D01*
X33510000Y-21140580D02*
X33510000Y-20859420D01*
%TO.C,R7*%
X49477500Y-31762742D02*
X49477500Y-32237258D01*
X50522500Y-31762742D02*
X50522500Y-32237258D01*
%TO.C,R5*%
X50512258Y-18477500D02*
X50037742Y-18477500D01*
X50512258Y-19522500D02*
X50037742Y-19522500D01*
%TO.C,C4*%
X14140580Y-49490000D02*
X13859420Y-49490000D01*
X14140580Y-50510000D02*
X13859420Y-50510000D01*
%TO.C,SW1*%
X53250000Y-43000000D02*
X53250000Y-41000000D01*
X54300000Y-39700000D02*
X54750000Y-39250000D01*
X54300000Y-44300000D02*
X54750000Y-44750000D01*
X57250000Y-39250000D02*
X54750000Y-39250000D01*
X57250000Y-44750000D02*
X54750000Y-44750000D01*
X57700000Y-39700000D02*
X57250000Y-39250000D01*
X57700000Y-44300000D02*
X57250000Y-44750000D01*
X58750000Y-43000000D02*
X58750000Y-41000000D01*
%TO.C,U3*%
X5680603Y-27618961D02*
X11880603Y-27618961D01*
X5680603Y-46018961D02*
X5680603Y-27618961D01*
X5680603Y-46018961D02*
X11880603Y-46018961D01*
X30530603Y-46018961D02*
X31530603Y-46018961D01*
X31530603Y-27618961D02*
X30530603Y-27618961D01*
X31530603Y-27618961D02*
X31530603Y-29118961D01*
X31530603Y-46018961D02*
X31530603Y-44518961D01*
X12555603Y-46518961D02*
X12055603Y-46018961D01*
X12555603Y-46018961D01*
X12555603Y-46518961D01*
G36*
X12555603Y-46518961D02*
G01*
X12055603Y-46018961D01*
X12555603Y-46018961D01*
X12555603Y-46518961D01*
G37*
%TD*%
%LPC*%
D13*
%TO.C,C5*%
X50775000Y-40000000D03*
X49225000Y-40000000D03*
%TD*%
D14*
%TO.C,C8*%
X31000000Y-21775000D03*
X31000000Y-20225000D03*
%TD*%
D15*
%TO.C,R8*%
X26825000Y-56500000D03*
X25175000Y-56500000D03*
%TD*%
D14*
%TO.C,C7*%
X40500000Y-21775000D03*
X40500000Y-20225000D03*
%TD*%
D13*
%TO.C,C9*%
X51050000Y-14000000D03*
X49500000Y-14000000D03*
%TD*%
D16*
%TO.C,R6*%
X49175000Y-44000000D03*
X50825000Y-44000000D03*
%TD*%
D17*
%TO.C,J3*%
X25190000Y-59000000D03*
D18*
X27730000Y-59000000D03*
X30270000Y-59000000D03*
X32810000Y-59000000D03*
%TD*%
D17*
%TO.C,J6*%
X14460000Y-52500000D03*
D18*
X17000000Y-52500000D03*
X19540000Y-52500000D03*
X22080000Y-52500000D03*
X24620000Y-52500000D03*
X27160000Y-52500000D03*
X29700000Y-52500000D03*
X32240000Y-52500000D03*
%TD*%
D19*
%TO.C,H3*%
X15500000Y-58500000D03*
%TD*%
D16*
%TO.C,R4*%
X49450000Y-16500000D03*
X51100000Y-16500000D03*
%TD*%
D20*
%TO.C,C13*%
X50750000Y-25500000D03*
X50750000Y-23600000D03*
%TD*%
D19*
%TO.C,H4*%
X58500000Y-58500000D03*
%TD*%
D15*
%TO.C,R10*%
X47325000Y-16000000D03*
X45675000Y-16000000D03*
%TD*%
D21*
%TO.C,J2*%
X54000000Y-24000000D03*
D22*
X54000000Y-22000000D03*
%TD*%
D15*
%TO.C,R12*%
X22325000Y-58000000D03*
X20675000Y-58000000D03*
%TD*%
D19*
%TO.C,H1*%
X15500000Y-15500000D03*
%TD*%
D23*
%TO.C,C6*%
X50000000Y-34500000D03*
X50000000Y-36050000D03*
%TD*%
D24*
%TO.C,D3*%
X22437500Y-60000000D03*
X20562500Y-60000000D03*
%TD*%
D13*
%TO.C,C3*%
X14775000Y-48000000D03*
X13225000Y-48000000D03*
%TD*%
D25*
%TO.C,D2*%
X41800000Y-13700000D03*
X43675000Y-13700000D03*
%TD*%
D15*
%TO.C,R9*%
X26825000Y-55000000D03*
X25175000Y-55000000D03*
%TD*%
%TO.C,R11*%
X47387500Y-13700000D03*
X45737500Y-13700000D03*
%TD*%
D19*
%TO.C,H2*%
X58500000Y-15500000D03*
%TD*%
D14*
%TO.C,C1*%
X42500000Y-21775000D03*
X42500000Y-20225000D03*
%TD*%
D16*
%TO.C,R3*%
X41675000Y-18000000D03*
X43325000Y-18000000D03*
%TD*%
%TO.C,R1*%
X26175000Y-20000000D03*
X27825000Y-20000000D03*
%TD*%
D26*
%TO.C,U2*%
X37137500Y-21950000D03*
X37137500Y-21000000D03*
X37137500Y-20050000D03*
X34862500Y-20050000D03*
X34862500Y-21950000D03*
%TD*%
D27*
%TO.C,SW2*%
X52850000Y-32100000D03*
X59150000Y-32100000D03*
X52850000Y-35900000D03*
X59150000Y-35900000D03*
%TD*%
D14*
%TO.C,C12*%
X48000000Y-25575000D03*
X48000000Y-24025000D03*
%TD*%
D28*
%TO.C,U1*%
X38475000Y-17905000D03*
X38475000Y-16635000D03*
X38475000Y-15365000D03*
X38475000Y-14095000D03*
X33525000Y-14095000D03*
X33525000Y-15365000D03*
X33525000Y-16635000D03*
X33525000Y-17905000D03*
D29*
X36000000Y-16000000D03*
%TD*%
D15*
%TO.C,R2*%
X24000000Y-20000000D03*
X22350000Y-20000000D03*
%TD*%
D25*
%TO.C,D1*%
X41800000Y-16000000D03*
X43675000Y-16000000D03*
%TD*%
D30*
%TO.C,J1*%
X28000000Y-18000000D03*
X27150000Y-18000000D03*
X26300000Y-18000000D03*
X25450000Y-18000000D03*
X24600000Y-18000000D03*
X23750000Y-18000000D03*
X22900000Y-18000000D03*
X22050000Y-18000000D03*
X22050000Y-16650000D03*
X22900000Y-16650000D03*
X23750000Y-16650000D03*
X24600000Y-16650000D03*
X25450000Y-16650000D03*
X26300000Y-16650000D03*
X27150000Y-16650000D03*
X28000000Y-16650000D03*
D31*
X29350000Y-17020000D03*
D32*
X29350000Y-13640000D03*
D31*
X20700000Y-17020000D03*
D32*
X20700000Y-13640000D03*
%TD*%
D14*
%TO.C,C2*%
X33000000Y-21775000D03*
X33000000Y-20225000D03*
%TD*%
D33*
%TO.C,R7*%
X50000000Y-31175000D03*
X50000000Y-32825000D03*
%TD*%
D15*
%TO.C,R5*%
X51100000Y-19000000D03*
X49450000Y-19000000D03*
%TD*%
D13*
%TO.C,C4*%
X14775000Y-50000000D03*
X13225000Y-50000000D03*
%TD*%
D27*
%TO.C,SW1*%
X59150000Y-43900000D03*
X52850000Y-43900000D03*
X59150000Y-40100000D03*
X52850000Y-40100000D03*
%TD*%
D34*
%TO.C,U3*%
X13320603Y-45568961D03*
X14590603Y-45568961D03*
X15860603Y-45568961D03*
X17130603Y-45568961D03*
X18400603Y-45568961D03*
X19670603Y-45568961D03*
X20940603Y-45568961D03*
X22210603Y-45568961D03*
X23480603Y-45568961D03*
X24750603Y-45568961D03*
X26020603Y-45568961D03*
X27290603Y-45568961D03*
X28560603Y-45568961D03*
X29830603Y-45568961D03*
D35*
X31080603Y-43803961D03*
X31080603Y-42533961D03*
X31080603Y-41263961D03*
X31080603Y-39993961D03*
X31080603Y-38723961D03*
X31080603Y-37453961D03*
X31080603Y-36183961D03*
X31080603Y-34913961D03*
X31080603Y-33643961D03*
X31080603Y-32373961D03*
X31080603Y-31103961D03*
X31080603Y-29833961D03*
D34*
X29830603Y-28068961D03*
X28560603Y-28068961D03*
X27290603Y-28068961D03*
X26020603Y-28068961D03*
X24750603Y-28068961D03*
X23480603Y-28068961D03*
X22210603Y-28068961D03*
X20940603Y-28068961D03*
X19670603Y-28068961D03*
X18400603Y-28068961D03*
X17130603Y-28068961D03*
X15860603Y-28068961D03*
X14590603Y-28068961D03*
X13320603Y-28068961D03*
D36*
X20340603Y-39718961D03*
X21740603Y-39718961D03*
X19640603Y-39018961D03*
X21040603Y-39018961D03*
X22440603Y-39018961D03*
X20340603Y-38318961D03*
D37*
X21040603Y-38318961D03*
D36*
X21740603Y-38318961D03*
X19640603Y-37618961D03*
X21040603Y-37618961D03*
X22440603Y-37618961D03*
X20340603Y-36918961D03*
X21740603Y-36918961D03*
%TD*%
D17*
%TO.C,J5*%
X59120000Y-28500000D03*
D18*
X56580000Y-28500000D03*
X54040000Y-28500000D03*
X51500000Y-28500000D03*
X48960000Y-28500000D03*
X46420000Y-28500000D03*
X43880000Y-28500000D03*
X41340000Y-28500000D03*
%TD*%
D17*
%TO.C,J4*%
X37420000Y-59000000D03*
D18*
X39960000Y-59000000D03*
X42500000Y-59000000D03*
X45040000Y-59000000D03*
X47580000Y-59000000D03*
X50120000Y-59000000D03*
X52660000Y-59000000D03*
%TD*%
%LPD*%
M02*
