M48
; DRILL file KiCad 10.0.1 date 2026-06-07T05:50:04
; FORMAT={-:-/ absolute / metric / decimal}
; #@! TF.CreationDate,2026-06-07T05:50:04+01:00
; #@! TF.GenerationSoftware,Kicad,Pcbnew,10.0.1
; #@! TF.FileFunction,Plated,1,2,PTH
FMAT,2
METRIC
; #@! TA.AperFunction,Plated,PTH,ComponentDrill
T1C0.200
; #@! TA.AperFunction,Plated,PTH,ViaDrill
T2C0.300
; #@! TA.AperFunction,Plated,PTH,ViaDrill
T3C0.400
; #@! TA.AperFunction,Plated,PTH,ComponentDrill
T4C0.400
; #@! TA.AperFunction,Plated,PTH,ComponentDrill
T5C0.600
; #@! TA.AperFunction,Plated,PTH,ComponentDrill
T6C0.750
; #@! TA.AperFunction,Plated,PTH,ComponentDrill
T7C1.000
%
G90
G05
T1
X19.641Y-37.619
X19.641Y-39.019
X20.341Y-36.919
X20.341Y-38.319
X20.341Y-39.719
X21.041Y-37.619
X21.041Y-39.019
X21.741Y-36.919
X21.741Y-38.319
X21.741Y-39.719
X22.441Y-37.619
X22.441Y-39.019
X35.3Y-14.8
X35.3Y-16.0
X35.3Y-17.2
X36.7Y-14.8
X36.7Y-16.0
X36.7Y-17.2
T2
X13.0Y-51.0
X17.634Y-44.134
X19.25Y-47.0
X20.83Y-47.5
X20.83Y-49.375
X21.455Y-46.815
X23.942Y-42.942
X24.0Y-15.5
X27.459Y-49.375
X28.5Y-37.5
X28.5Y-47.0
X30.0Y-19.0
X31.25Y-45.5
X31.5Y-28.5
X31.75Y-15.5
X32.0Y-17.955
X32.331Y-34.5
X32.427Y-17.322
X32.494Y-13.326
X33.0Y-44.5
X33.0Y-47.5
X33.932Y-43.567
X33.932Y-48.75
X34.0Y-36.5
X34.0Y-39.0
X34.0Y-40.5
X34.5Y-50.0
X35.0Y-13.9
X36.0Y-41.0
X36.8Y-44.66
X37.0Y-23.0
X37.5Y-39.5
X40.0Y-15.5
X40.0Y-17.0
X40.957Y-17.957
X46.5Y-21.0
X48.0Y-41.5
T3
X14.6Y-43.0
X16.6Y-40.8
X21.4Y-26.6
X31.879Y-19.279
X41.532Y-22.275
X43.6Y-24.4
X44.0Y-22.275
X45.0Y-30.27
X47.2Y-45.4
X47.8Y-52.4
T4
X22.05Y-16.65
X22.05Y-18.0
X22.9Y-16.65
X22.9Y-18.0
X23.75Y-16.65
X23.75Y-18.0
X24.6Y-16.65
X24.6Y-18.0
X25.45Y-16.65
X25.45Y-18.0
X26.3Y-16.65
X26.3Y-18.0
X27.15Y-16.65
X27.15Y-18.0
X28.0Y-16.65
X28.0Y-18.0
T6
X55.0Y-22.25
X57.0Y-22.25
T7
X14.46Y-52.5
X17.0Y-52.5
X19.54Y-52.5
X22.08Y-52.5
X24.62Y-52.5
X27.16Y-52.5
X29.7Y-52.5
X32.24Y-52.5
X39.0Y-29.42
X39.0Y-31.96
X39.0Y-34.5
X39.0Y-37.04
X39.0Y-39.58
X39.0Y-42.12
X39.0Y-44.66
X39.0Y-47.2
X44.5Y-36.26
X44.5Y-38.8
X44.5Y-41.34
X44.5Y-43.88
X44.5Y-46.42
X44.5Y-48.96
X44.5Y-51.5
X51.5Y-14.735
X51.5Y-17.275
T5
G00X20.7Y-14.04
M15
G01X20.7Y-13.24
M16
G05
G00X20.7Y-17.77
M15
G01X20.7Y-16.27
M16
G05
G00X29.35Y-14.04
M15
G01X29.35Y-13.24
M16
G05
G00X29.35Y-17.77
M15
G01X29.35Y-16.27
M16
G05
M30
