%TF.GenerationSoftware,KiCad,Pcbnew,10.0.1*%
%TF.CreationDate,2026-05-20T22:31:14-07:00*%
%TF.ProjectId,Amigo,416d6967-6f2e-46b6-9963-61645f706362,rev?*%
%TF.SameCoordinates,Original*%
%TF.FileFunction,Soldermask,Bot*%
%TF.FilePolarity,Negative*%
%FSLAX46Y46*%
G04 Gerber Fmt 4.6, Leading zero omitted, Abs format (unit mm)*
G04 Created by KiCad (PCBNEW 10.0.1) date 2026-05-20 22:31:14*
%MOMM*%
%LPD*%
G01*
G04 APERTURE LIST*
G04 Aperture macros list*
%AMRoundRect*
0 Rectangle with rounded corners*
0 $1 Rounding radius*
0 $2 $3 $4 $5 $6 $7 $8 $9 X,Y pos of 4 corners*
0 Add a 4 corners polygon primitive as box body*
4,1,4,$2,$3,$4,$5,$6,$7,$8,$9,$2,$3,0*
0 Add four circle primitives for the rounded corners*
1,1,$1+$1,$2,$3*
1,1,$1+$1,$4,$5*
1,1,$1+$1,$6,$7*
1,1,$1+$1,$8,$9*
0 Add four rect primitives between the rounded corners*
20,1,$1+$1,$2,$3,$4,$5,0*
20,1,$1+$1,$4,$5,$6,$7,0*
20,1,$1+$1,$6,$7,$8,$9,0*
20,1,$1+$1,$8,$9,$2,$3,0*%
G04 Aperture macros list end*
%ADD10R,1.700000X1.700000*%
%ADD11C,1.700000*%
%ADD12C,3.200000*%
%ADD13RoundRect,0.250000X0.625000X-0.350000X0.625000X0.350000X-0.625000X0.350000X-0.625000X-0.350000X0*%
%ADD14O,1.750000X1.200000*%
%ADD15C,0.700000*%
%ADD16O,0.900000X2.400000*%
%ADD17O,0.900000X1.700000*%
%ADD18RoundRect,0.225000X0.225000X0.250000X-0.225000X0.250000X-0.225000X-0.250000X0.225000X-0.250000X0*%
G04 APERTURE END LIST*
D10*
%TO.C,J3*%
X25190000Y-59000000D03*
D11*
X27730000Y-59000000D03*
X30270000Y-59000000D03*
X32810000Y-59000000D03*
%TD*%
D10*
%TO.C,J6*%
X14460000Y-52500000D03*
D11*
X17000000Y-52500000D03*
X19540000Y-52500000D03*
X22080000Y-52500000D03*
X24620000Y-52500000D03*
X27160000Y-52500000D03*
X29700000Y-52500000D03*
X32240000Y-52500000D03*
%TD*%
D12*
%TO.C,H3*%
X15500000Y-58500000D03*
%TD*%
%TO.C,H4*%
X58500000Y-58500000D03*
%TD*%
D13*
%TO.C,J2*%
X54000000Y-24000000D03*
D14*
X54000000Y-22000000D03*
%TD*%
D12*
%TO.C,H1*%
X15500000Y-15500000D03*
%TD*%
%TO.C,H2*%
X58500000Y-15500000D03*
%TD*%
D15*
%TO.C,J1*%
X28000000Y-18000000D03*
X27150000Y-18000000D03*
X26300000Y-18000000D03*
X25450000Y-18000000D03*
X24600000Y-18000000D03*
X23750000Y-18000000D03*
X22900000Y-18000000D03*
X22050000Y-18000000D03*
X22050000Y-16650000D03*
X22900000Y-16650000D03*
X23750000Y-16650000D03*
X24600000Y-16650000D03*
X25450000Y-16650000D03*
X26300000Y-16650000D03*
X27150000Y-16650000D03*
X28000000Y-16650000D03*
D16*
X29350000Y-17020000D03*
D17*
X29350000Y-13640000D03*
D16*
X20700000Y-17020000D03*
D17*
X20700000Y-13640000D03*
%TD*%
D10*
%TO.C,J5*%
X59120000Y-28500000D03*
D11*
X56580000Y-28500000D03*
X54040000Y-28500000D03*
X51500000Y-28500000D03*
X48960000Y-28500000D03*
X46420000Y-28500000D03*
X43880000Y-28500000D03*
X41340000Y-28500000D03*
%TD*%
D18*
%TO.C,C11*%
X53775000Y-55500000D03*
X52225000Y-55500000D03*
%TD*%
D10*
%TO.C,J4*%
X37420000Y-59000000D03*
D11*
X39960000Y-59000000D03*
X42500000Y-59000000D03*
X45040000Y-59000000D03*
X47580000Y-59000000D03*
X50120000Y-59000000D03*
X52660000Y-59000000D03*
%TD*%
D18*
%TO.C,C10*%
X50550000Y-55500000D03*
X49000000Y-55500000D03*
%TD*%
M02*
