%TF.GenerationSoftware,KiCad,Pcbnew,10.0.1*%
%TF.CreationDate,2026-06-07T05:50:02+01:00*%
%TF.ProjectId,Amigo,416d6967-6f2e-46b6-9963-61645f706362,rev?*%
%TF.SameCoordinates,Original*%
%TF.FileFunction,Copper,L1,Top*%
%TF.FilePolarity,Positive*%
%FSLAX46Y46*%
G04 Gerber Fmt 4.6, Leading zero omitted, Abs format (unit mm)*
G04 Created by KiCad (PCBNEW 10.0.1) date 2026-06-07 05:50:02*
%MOMM*%
%LPD*%
G01*
G04 APERTURE LIST*
G04 Aperture macros list*
%AMRoundRect*
0 Rectangle with rounded corners*
0 $1 Rounding radius*
0 $2 $3 $4 $5 $6 $7 $8 $9 X,Y pos of 4 corners*
0 Add a 4 corners polygon primitive as box body*
4,1,4,$2,$3,$4,$5,$6,$7,$8,$9,$2,$3,0*
0 Add four circle primitives for the rounded corners*
1,1,$1+$1,$2,$3*
1,1,$1+$1,$4,$5*
1,1,$1+$1,$6,$7*
1,1,$1+$1,$8,$9*
0 Add four rect primitives between the rounded corners*
20,1,$1+$1,$2,$3,$4,$5,0*
20,1,$1+$1,$4,$5,$6,$7,0*
20,1,$1+$1,$6,$7,$8,$9,0*
20,1,$1+$1,$8,$9,$2,$3,0*%
G04 Aperture macros list end*
%TA.AperFunction,SMDPad,CuDef*%
%ADD10RoundRect,0.225000X0.225000X0.250000X-0.225000X0.250000X-0.225000X-0.250000X0.225000X-0.250000X0*%
%TD*%
%TA.AperFunction,SMDPad,CuDef*%
%ADD11RoundRect,0.225000X0.250000X-0.225000X0.250000X0.225000X-0.250000X0.225000X-0.250000X-0.225000X0*%
%TD*%
%TA.AperFunction,SMDPad,CuDef*%
%ADD12RoundRect,0.200000X-0.200000X-0.275000X0.200000X-0.275000X0.200000X0.275000X-0.200000X0.275000X0*%
%TD*%
%TA.AperFunction,ComponentPad*%
%ADD13R,1.700000X1.700000*%
%TD*%
%TA.AperFunction,ComponentPad*%
%ADD14C,1.700000*%
%TD*%
%TA.AperFunction,SMDPad,CuDef*%
%ADD15RoundRect,0.200000X0.200000X0.275000X-0.200000X0.275000X-0.200000X-0.275000X0.200000X-0.275000X0*%
%TD*%
%TA.AperFunction,ComponentPad*%
%ADD16RoundRect,0.250000X-0.350000X-0.625000X0.350000X-0.625000X0.350000X0.625000X-0.350000X0.625000X0*%
%TD*%
%TA.AperFunction,ComponentPad*%
%ADD17O,1.200000X1.750000*%
%TD*%
%TA.AperFunction,SMDPad,CuDef*%
%ADD18RoundRect,0.225000X-0.250000X0.225000X-0.250000X-0.225000X0.250000X-0.225000X0.250000X0.225000X0*%
%TD*%
%TA.AperFunction,SMDPad,CuDef*%
%ADD19RoundRect,0.243750X-0.243750X-0.456250X0.243750X-0.456250X0.243750X0.456250X-0.243750X0.456250X0*%
%TD*%
%TA.AperFunction,SMDPad,CuDef*%
%ADD20RoundRect,0.150000X0.512500X0.150000X-0.512500X0.150000X-0.512500X-0.150000X0.512500X-0.150000X0*%
%TD*%
%TA.AperFunction,SMDPad,CuDef*%
%ADD21R,1.700000X1.000000*%
%TD*%
%TA.AperFunction,SMDPad,CuDef*%
%ADD22RoundRect,0.150000X0.825000X0.150000X-0.825000X0.150000X-0.825000X-0.150000X0.825000X-0.150000X0*%
%TD*%
%TA.AperFunction,HeatsinkPad*%
%ADD23C,0.500000*%
%TD*%
%TA.AperFunction,HeatsinkPad*%
%ADD24R,2.410000X3.300000*%
%TD*%
%TA.AperFunction,SMDPad,CuDef*%
%ADD25RoundRect,0.225000X-0.225000X-0.250000X0.225000X-0.250000X0.225000X0.250000X-0.225000X0.250000X0*%
%TD*%
%TA.AperFunction,ComponentPad*%
%ADD26C,0.700000*%
%TD*%
%TA.AperFunction,ComponentPad*%
%ADD27O,0.900000X2.400000*%
%TD*%
%TA.AperFunction,ComponentPad*%
%ADD28O,0.900000X1.700000*%
%TD*%
%TA.AperFunction,SMDPad,CuDef*%
%ADD29RoundRect,0.200000X-0.275000X0.200000X-0.275000X-0.200000X0.275000X-0.200000X0.275000X0.200000X0*%
%TD*%
%TA.AperFunction,SMDPad,CuDef*%
%ADD30R,0.900000X1.500000*%
%TD*%
%TA.AperFunction,SMDPad,CuDef*%
%ADD31R,1.500000X0.900000*%
%TD*%
%TA.AperFunction,HeatsinkPad*%
%ADD32C,0.600000*%
%TD*%
%TA.AperFunction,HeatsinkPad*%
%ADD33R,3.900000X3.900000*%
%TD*%
%TA.AperFunction,ViaPad*%
%ADD34C,0.600000*%
%TD*%
%TA.AperFunction,ViaPad*%
%ADD35C,0.800000*%
%TD*%
%TA.AperFunction,ViaPad*%
%ADD36C,0.500000*%
%TD*%
%TA.AperFunction,Conductor*%
%ADD37C,0.250000*%
%TD*%
%TA.AperFunction,Conductor*%
%ADD38C,0.500000*%
%TD*%
%TA.AperFunction,Conductor*%
%ADD39C,0.800000*%
%TD*%
G04 APERTURE END LIST*
D10*
%TO.P,C5,1*%
%TO.N,EN*%
X51525000Y-48500000D03*
%TO.P,C5,2*%
%TO.N,GND*%
X49975000Y-48500000D03*
%TD*%
D11*
%TO.P,C8,1*%
%TO.N,+3V3*%
X31000000Y-21775000D03*
%TO.P,C8,2*%
%TO.N,GND*%
X31000000Y-20225000D03*
%TD*%
%TO.P,C7,1*%
%TO.N,BAT_SW*%
X40500000Y-21775000D03*
%TO.P,C7,2*%
%TO.N,GND*%
X40500000Y-20225000D03*
%TD*%
D10*
%TO.P,C9,1*%
%TO.N,BAT_SENSE*%
X47275000Y-18000000D03*
%TO.P,C9,2*%
%TO.N,GND*%
X45725000Y-18000000D03*
%TD*%
D12*
%TO.P,R6,1*%
%TO.N,+3V3*%
X49425000Y-52500000D03*
%TO.P,R6,2*%
%TO.N,EN*%
X51075000Y-52500000D03*
%TD*%
D13*
%TO.P,J6,1,Pin_1_1*%
%TO.N,+3V3*%
X14460000Y-52500000D03*
D14*
%TO.P,J6,2,Pin_2_2*%
%TO.N,GND*%
X17000000Y-52500000D03*
%TO.P,J6,3,Pin_3_3*%
%TO.N,BUTTON_ROW_0*%
X19540000Y-52500000D03*
%TO.P,J6,4,Pin_4_4*%
%TO.N,BUTTON_ROW_1*%
X22080000Y-52500000D03*
%TO.P,J6,5,Pin_5_5*%
%TO.N,BUTTON_ROW_2*%
X24620000Y-52500000D03*
%TO.P,J6,6,Pin_6_6*%
%TO.N,BUTTON_COL_0*%
X27160000Y-52500000D03*
%TO.P,J6,7,Pin_7_7*%
%TO.N,BUTTON_COL_1*%
X29700000Y-52500000D03*
%TO.P,J6,8,Pin_8_8*%
%TO.N,BUTTON_COL_2*%
X32240000Y-52500000D03*
%TD*%
D13*
%TO.P,J5,1,Pin_1_1*%
%TO.N,BAT+*%
X51500000Y-17275000D03*
D14*
%TO.P,J5,2,Pin_2_2*%
%TO.N,BAT_SW*%
X51500000Y-14735000D03*
%TD*%
D13*
%TO.P,J3,1,Pin_1_1*%
%TO.N,+3V3*%
X39000000Y-29420000D03*
D14*
%TO.P,J3,2,Pin_2_2*%
%TO.N,GND*%
X39000000Y-31960000D03*
%TO.P,J3,3,Pin_3_3*%
%TO.N,LCD_CS*%
X39000000Y-34500000D03*
%TO.P,J3,4,Pin_4_4*%
%TO.N,LCD_RST*%
X39000000Y-37040000D03*
%TO.P,J3,5,Pin_5_5*%
%TO.N,LCD_DC*%
X39000000Y-39580000D03*
%TO.P,J3,6,Pin_6_6*%
%TO.N,LCD_MOSI*%
X39000000Y-42120000D03*
%TO.P,J3,7,Pin_7_7*%
%TO.N,LCD_SCK*%
X39000000Y-44660000D03*
%TO.P,J3,8,Pin_8_8*%
%TO.N,LCD_BL*%
X39000000Y-47200000D03*
%TD*%
D12*
%TO.P,R4,1*%
%TO.N,BAT_SW*%
X45675000Y-20000000D03*
%TO.P,R4,2*%
%TO.N,BAT_SENSE*%
X47325000Y-20000000D03*
%TD*%
D15*
%TO.P,R10,1*%
%TO.N,VBUS_5V*%
X47325000Y-16000000D03*
%TO.P,R10,2*%
%TO.N,Net-(D1-A)*%
X45675000Y-16000000D03*
%TD*%
D16*
%TO.P,J2,1,Pin_1_1*%
%TO.N,BAT+*%
X55000000Y-22250000D03*
D17*
%TO.P,J2,2,Pin_2_2*%
%TO.N,GND*%
X57000000Y-22250000D03*
%TD*%
D12*
%TO.P,R12,1*%
%TO.N,Net-(D3-K)*%
X14175000Y-26000000D03*
%TO.P,R12,2*%
%TO.N,LED_STATUS*%
X15825000Y-26000000D03*
%TD*%
D18*
%TO.P,C6,1*%
%TO.N,IO0*%
X50250000Y-43700000D03*
%TO.P,C6,2*%
%TO.N,GND*%
X50250000Y-45250000D03*
%TD*%
D19*
%TO.P,D3,1,K_1*%
%TO.N,Net-(D3-K)*%
X14062500Y-24000000D03*
%TO.P,D3,2,A_2*%
%TO.N,GND*%
X15937500Y-24000000D03*
%TD*%
D10*
%TO.P,C3,1*%
%TO.N,+3V3*%
X14775000Y-48000000D03*
%TO.P,C3,2*%
%TO.N,GND*%
X13225000Y-48000000D03*
%TD*%
D19*
%TO.P,D2,1,K_1*%
%TO.N,Net-(D2-K)*%
X41800000Y-13700000D03*
%TO.P,D2,2,A_2*%
%TO.N,Net-(D2-A)*%
X43675000Y-13700000D03*
%TD*%
D15*
%TO.P,R11,1*%
%TO.N,VBUS_5V*%
X47387500Y-13700000D03*
%TO.P,R11,2*%
%TO.N,Net-(D2-A)*%
X45737500Y-13700000D03*
%TD*%
D11*
%TO.P,C1,1*%
%TO.N,BAT+*%
X42500000Y-21775000D03*
%TO.P,C1,2*%
%TO.N,GND*%
X42500000Y-20225000D03*
%TD*%
D12*
%TO.P,R3,1*%
%TO.N,Net-(U1-PROG)*%
X41675000Y-18000000D03*
%TO.P,R3,2*%
%TO.N,GND*%
X43325000Y-18000000D03*
%TD*%
%TO.P,R1,1*%
%TO.N,USB_CC1*%
X26175000Y-20000000D03*
%TO.P,R1,2*%
%TO.N,GND*%
X27825000Y-20000000D03*
%TD*%
D20*
%TO.P,U2,1,VIN_1*%
%TO.N,BAT_SW*%
X37137500Y-21950000D03*
%TO.P,U2,2,GND_2*%
%TO.N,GND*%
X37137500Y-21000000D03*
%TO.P,U2,3,EN_3*%
%TO.N,BAT_SW*%
X37137500Y-20050000D03*
%TO.P,U2,4,NC_4*%
%TO.N,unconnected-(U2-NC-Pad4)*%
X34862500Y-20050000D03*
%TO.P,U2,5,VOUT_5*%
%TO.N,+3V3*%
X34862500Y-21950000D03*
%TD*%
D21*
%TO.P,SW2,1,1_1*%
%TO.N,IO0*%
X53350000Y-41600000D03*
X59650000Y-41600000D03*
%TO.P,SW2,2,2_2*%
%TO.N,GND*%
X53350000Y-45400000D03*
X59650000Y-45400000D03*
%TD*%
D22*
%TO.P,U1,1,TEMP_1*%
%TO.N,unconnected-(U1-TEMP-Pad1)*%
X38475000Y-17905000D03*
%TO.P,U1,2,PROG_2*%
%TO.N,Net-(U1-PROG)*%
X38475000Y-16635000D03*
%TO.P,U1,3,GND_3*%
%TO.N,GND*%
X38475000Y-15365000D03*
%TO.P,U1,4,V_{CC}_4*%
%TO.N,VBUS_5V*%
X38475000Y-14095000D03*
%TO.P,U1,5,BAT_5*%
%TO.N,BAT+*%
X33525000Y-14095000D03*
%TO.P,U1,6,~{STDBY}_6*%
%TO.N,Net-(D2-K)*%
X33525000Y-15365000D03*
%TO.P,U1,7,~{CHRG}_7*%
%TO.N,Net-(D1-K)*%
X33525000Y-16635000D03*
%TO.P,U1,8,CE_8*%
%TO.N,VBUS_5V*%
X33525000Y-17905000D03*
D23*
%TO.P,U1,9,EPAD_9*%
%TO.N,GND*%
X36700000Y-17200000D03*
X36700000Y-16000000D03*
X36700000Y-14800000D03*
D24*
X36000000Y-16000000D03*
D23*
X35300000Y-17200000D03*
X35300000Y-16000000D03*
X35300000Y-14800000D03*
%TD*%
D25*
%TO.P,C11,1*%
%TO.N,BAT+*%
X46050000Y-31200000D03*
%TO.P,C11,2*%
%TO.N,GND*%
X47600000Y-31200000D03*
%TD*%
D15*
%TO.P,R2,1*%
%TO.N,USB_CC2*%
X24000000Y-20000000D03*
%TO.P,R2,2*%
%TO.N,GND*%
X22350000Y-20000000D03*
%TD*%
D19*
%TO.P,D1,1,K_1*%
%TO.N,Net-(D1-K)*%
X41800000Y-16000000D03*
%TO.P,D1,2,A_2*%
%TO.N,Net-(D1-A)*%
X43675000Y-16000000D03*
%TD*%
D26*
%TO.P,J1,A1,GND_A1*%
%TO.N,GND*%
X28000000Y-18000000D03*
%TO.P,J1,A4,VBUS_A4*%
%TO.N,VBUS_5V*%
X27150000Y-18000000D03*
%TO.P,J1,A5,CC1_A5*%
%TO.N,USB_CC1*%
X26300000Y-18000000D03*
%TO.P,J1,A6,D+_A6*%
%TO.N,unconnected-(J1-D+-PadA6)*%
X25450000Y-18000000D03*
%TO.P,J1,A7,D-_A7*%
%TO.N,unconnected-(J1-D--PadA7)*%
X24600000Y-18000000D03*
%TO.P,J1,A8,SBU1_A8*%
%TO.N,unconnected-(J1-SBU1-PadA8)*%
X23750000Y-18000000D03*
%TO.P,J1,A9,VBUS_A9*%
%TO.N,VBUS_5V*%
X22900000Y-18000000D03*
%TO.P,J1,A12,GND_A12*%
%TO.N,GND*%
X22050000Y-18000000D03*
%TO.P,J1,B1,GND_B1*%
X22050000Y-16650000D03*
%TO.P,J1,B4,VBUS_B4*%
%TO.N,VBUS_5V*%
X22900000Y-16650000D03*
%TO.P,J1,B5,CC2_B5*%
%TO.N,USB_CC2*%
X23750000Y-16650000D03*
%TO.P,J1,B6,D+_B6*%
%TO.N,unconnected-(J1-D+-PadB6)*%
X24600000Y-16650000D03*
%TO.P,J1,B7,D-_B7*%
%TO.N,unconnected-(J1-D--PadB7)*%
X25450000Y-16650000D03*
%TO.P,J1,B8,SBU2_B8*%
%TO.N,unconnected-(J1-SBU2-PadB8)*%
X26300000Y-16650000D03*
%TO.P,J1,B9,VBUS_B9*%
%TO.N,VBUS_5V*%
X27150000Y-16650000D03*
%TO.P,J1,B12,GND_B12*%
%TO.N,GND*%
X28000000Y-16650000D03*
D27*
%TO.P,J1,SH,SHIELD_SH*%
X29350000Y-17020000D03*
D28*
X29350000Y-13640000D03*
D27*
X20700000Y-17020000D03*
D28*
X20700000Y-13640000D03*
%TD*%
D11*
%TO.P,C2,1*%
%TO.N,+3V3*%
X33000000Y-21775000D03*
%TO.P,C2,2*%
%TO.N,GND*%
X33000000Y-20225000D03*
%TD*%
D13*
%TO.P,J4,1,Pin_1_1*%
%TO.N,AUDIO_LRC_WS*%
X44500000Y-51500000D03*
D14*
%TO.P,J4,2,Pin_2_2*%
%TO.N,AUDIO_BCLK*%
X44500000Y-48960000D03*
%TO.P,J4,3,Pin_3_3*%
%TO.N,AUDIO_DOUT*%
X44500000Y-46420000D03*
%TO.P,J4,4,Pin_4_4*%
%TO.N,unconnected-(J4-Pin_4-Pad4)*%
X44500000Y-43880000D03*
%TO.P,J4,5,Pin_5_5*%
%TO.N,unconnected-(J4-Pin_5-Pad5)*%
X44500000Y-41340000D03*
%TO.P,J4,6,Pin_6_6*%
%TO.N,GND*%
X44500000Y-38800000D03*
%TO.P,J4,7,Pin_7_7*%
%TO.N,BAT+*%
X44500000Y-36260000D03*
%TD*%
D29*
%TO.P,R7,1*%
%TO.N,+3V3*%
X50250000Y-40375000D03*
%TO.P,R7,2*%
%TO.N,IO0*%
X50250000Y-42025000D03*
%TD*%
D25*
%TO.P,C10,1*%
%TO.N,BAT+*%
X46050000Y-33400000D03*
%TO.P,C10,2*%
%TO.N,GND*%
X47600000Y-33400000D03*
%TD*%
D15*
%TO.P,R5,1*%
%TO.N,BAT_SENSE*%
X47325000Y-22000000D03*
%TO.P,R5,2*%
%TO.N,GND*%
X45675000Y-22000000D03*
%TD*%
D10*
%TO.P,C4,1*%
%TO.N,+3V3*%
X14775000Y-50000000D03*
%TO.P,C4,2*%
%TO.N,GND*%
X13225000Y-50000000D03*
%TD*%
D21*
%TO.P,SW1,1,1_1*%
%TO.N,EN*%
X59900000Y-52400000D03*
X53600000Y-52400000D03*
%TO.P,SW1,2,2_2*%
%TO.N,GND*%
X59900000Y-48600000D03*
X53600000Y-48600000D03*
%TD*%
D30*
%TO.P,U3,1,GND_1*%
%TO.N,GND*%
X13320603Y-45568961D03*
%TO.P,U3,2,3V3_2*%
%TO.N,+3V3*%
X14590603Y-45568961D03*
%TO.P,U3,3,EN_3*%
%TO.N,EN*%
X15860603Y-45568961D03*
%TO.P,U3,4,IO4_4*%
%TO.N,BAT_SENSE*%
X17130603Y-45568961D03*
%TO.P,U3,5,IO5_5*%
%TO.N,AUDIO_BCLK*%
X18400603Y-45568961D03*
%TO.P,U3,6,IO6_6*%
%TO.N,AUDIO_LRC_WS*%
X19670603Y-45568961D03*
%TO.P,U3,7,IO7_7*%
%TO.N,AUDIO_DOUT*%
X20940603Y-45568961D03*
%TO.P,U3,8,IO15_8*%
%TO.N,BUTTON_ROW_1*%
X22210603Y-45568961D03*
%TO.P,U3,9,IO16_9*%
%TO.N,BUTTON_ROW_2*%
X23480603Y-45568961D03*
%TO.P,U3,10,IO17_10*%
%TO.N,BUTTON_COL_0*%
X24750603Y-45568961D03*
%TO.P,U3,11,IO18_11*%
%TO.N,BUTTON_COL_1*%
X26020603Y-45568961D03*
%TO.P,U3,12,IO8_12*%
%TO.N,LCD_RST*%
X27290603Y-45568961D03*
%TO.P,U3,13,USB_D-_13*%
%TO.N,unconnected-(U3-USB_D--Pad13)*%
X28560603Y-45568961D03*
%TO.P,U3,14,USB_D+_14*%
%TO.N,unconnected-(U3-USB_D+-Pad14)*%
X29830603Y-45568961D03*
D31*
%TO.P,U3,15,IO3_15*%
%TO.N,unconnected-(U3-IO3-Pad15)*%
X31080603Y-43803961D03*
%TO.P,U3,16,IO46_16*%
%TO.N,unconnected-(U3-IO46-Pad16)*%
X31080603Y-42533961D03*
%TO.P,U3,17,IO9_17*%
%TO.N,LCD_BL*%
X31080603Y-41263961D03*
%TO.P,U3,18,IO10_18*%
%TO.N,LCD_SCK*%
X31080603Y-39993961D03*
%TO.P,U3,19,IO11_19*%
%TO.N,LCD_MOSI*%
X31080603Y-38723961D03*
%TO.P,U3,20,IO12_20*%
%TO.N,LCD_CS*%
X31080603Y-37453961D03*
%TO.P,U3,21,IO13_21*%
%TO.N,LCD_DC*%
X31080603Y-36183961D03*
%TO.P,U3,22,IO14_22*%
%TO.N,BUTTON_ROW_0*%
X31080603Y-34913961D03*
%TO.P,U3,23,IO21_23*%
%TO.N,BUTTON_COL_2*%
X31080603Y-33643961D03*
%TO.P,U3,24,IO47_24*%
%TO.N,unconnected-(U3-IO47-Pad24)*%
X31080603Y-32373961D03*
%TO.P,U3,25,IO48_25*%
%TO.N,unconnected-(U3-IO48-Pad25)*%
X31080603Y-31103961D03*
%TO.P,U3,26,IO45_26*%
%TO.N,unconnected-(U3-IO45-Pad26)*%
X31080603Y-29833961D03*
D30*
%TO.P,U3,27,IO0_27*%
%TO.N,IO0*%
X29830603Y-28068961D03*
%TO.P,U3,28,IO35_28*%
%TO.N,unconnected-(U3-IO35-Pad28)*%
X28560603Y-28068961D03*
%TO.P,U3,29,IO36_29*%
%TO.N,unconnected-(U3-IO36-Pad29)*%
X27290603Y-28068961D03*
%TO.P,U3,30,IO37_30*%
%TO.N,unconnected-(U3-IO37-Pad30)*%
X26020603Y-28068961D03*
%TO.P,U3,31,IO38_31*%
%TO.N,unconnected-(U3-IO38-Pad31)*%
X24750603Y-28068961D03*
%TO.P,U3,32,IO39_32*%
%TO.N,unconnected-(U3-IO39-Pad32)*%
X23480603Y-28068961D03*
%TO.P,U3,33,IO40_33*%
%TO.N,unconnected-(U3-IO40-Pad33)*%
X22210603Y-28068961D03*
%TO.P,U3,34,IO41_34*%
%TO.N,unconnected-(U3-IO41-Pad34)*%
X20940603Y-28068961D03*
%TO.P,U3,35,IO42_35*%
%TO.N,unconnected-(U3-IO42-Pad35)*%
X19670603Y-28068961D03*
%TO.P,U3,36,RXD0_36*%
%TO.N,unconnected-(U3-RXD0-Pad36)*%
X18400603Y-28068961D03*
%TO.P,U3,37,TXD0_37*%
%TO.N,unconnected-(U3-TXD0-Pad37)*%
X17130603Y-28068961D03*
%TO.P,U3,38,IO2_38*%
%TO.N,LED_STATUS*%
X15860603Y-28068961D03*
%TO.P,U3,39,IO1_39*%
%TO.N,unconnected-(U3-IO1-Pad39)*%
X14590603Y-28068961D03*
%TO.P,U3,40,GND_40*%
%TO.N,GND*%
X13320603Y-28068961D03*
D32*
%TO.P,U3,41,GND_41*%
X20340603Y-39718961D03*
X21740603Y-39718961D03*
X19640603Y-39018961D03*
X21040603Y-39018961D03*
X22440603Y-39018961D03*
X20340603Y-38318961D03*
D33*
X21040603Y-38318961D03*
D32*
X21740603Y-38318961D03*
X19640603Y-37618961D03*
X21040603Y-37618961D03*
X22440603Y-37618961D03*
X20340603Y-36918961D03*
X21740603Y-36918961D03*
%TD*%
D34*
%TO.N,*%
X31250000Y-45500000D03*
%TO.N,EN*%
X33932500Y-43567500D03*
X23941942Y-42941942D03*
%TO.N,GND*%
X40000000Y-15500000D03*
X46500000Y-21000000D03*
X13000000Y-51000000D03*
D35*
%TO.N,+3V3*%
X21400000Y-26600000D03*
X16600000Y-40800000D03*
X47200000Y-45400000D03*
X14600000Y-43000000D03*
X47800000Y-52400000D03*
D34*
%TO.N,BAT_SENSE*%
X17633884Y-44133884D03*
X37000000Y-23000000D03*
%TO.N,BUTTON_ROW_0*%
X21455000Y-46814798D03*
X28500000Y-37500000D03*
%TO.N,BUTTON_COL_2*%
X34500000Y-50000000D03*
X32330605Y-34500000D03*
D35*
%TO.N,BAT+*%
X45000000Y-30270000D03*
X41531992Y-22275001D03*
X31878541Y-19278541D03*
X43600000Y-24400000D03*
X44000000Y-22275000D03*
D34*
%TO.N,LCD_RST*%
X33000000Y-44500000D03*
X28500000Y-47000000D03*
%TO.N,LCD_DC*%
X37500000Y-39500000D03*
X34000000Y-36500000D03*
%TO.N,LCD_MOSI*%
X34000000Y-39000000D03*
X36000000Y-41000000D03*
%TO.N,LCD_SCK*%
X36800000Y-44660000D03*
X34000000Y-40500000D03*
D36*
%TO.N,VBUS_5V*%
X32426541Y-17321651D03*
X32000000Y-17955000D03*
X35000000Y-13899998D03*
X24000000Y-15500000D03*
X30000000Y-19000000D03*
D34*
%TO.N,IO0*%
X31500000Y-28500000D03*
X48000000Y-41500000D03*
%TO.N,Net-(D2-K)*%
X32494113Y-13325911D03*
X31750000Y-15500000D03*
%TO.N,Net-(U1-PROG)*%
X40957396Y-17957396D03*
X40000000Y-17000000D03*
%TO.N,AUDIO_LRC_WS*%
X27458883Y-49375000D03*
X20830000Y-49375000D03*
%TO.N,AUDIO_BCLK*%
X19250000Y-47000000D03*
X33932500Y-48750000D03*
%TO.N,AUDIO_DOUT*%
X20830000Y-47500000D03*
X33000000Y-47500000D03*
%TD*%
%TO.N,EN*%
D37*
X15860603Y-45023281D02*
X15860603Y-45568961D01*
X48500000Y-48568299D02*
X44986701Y-45055000D01*
X22558058Y-42941942D02*
X22000000Y-43500000D01*
X51525000Y-50693299D02*
X51525000Y-48500000D01*
X37998299Y-44000000D02*
X34365000Y-44000000D01*
X51075000Y-51143299D02*
X49543299Y-51143299D01*
X41056701Y-45055000D02*
X39486701Y-43485000D01*
X59900000Y-52400000D02*
X53600000Y-52400000D01*
X49543299Y-51143299D02*
X48500000Y-50100000D01*
X22000000Y-43500000D02*
X17383884Y-43500000D01*
X38513299Y-43485000D02*
X37998299Y-44000000D01*
X17383884Y-43500000D02*
X15860603Y-45023281D01*
X51075000Y-51143299D02*
X51525000Y-50693299D01*
X53500000Y-52500000D02*
X53600000Y-52400000D01*
X48500000Y-50100000D02*
X48500000Y-48568299D01*
X44986701Y-45055000D02*
X41056701Y-45055000D01*
X34365000Y-44000000D02*
X33932500Y-43567500D01*
X51075000Y-52500000D02*
X53500000Y-52500000D01*
X39486701Y-43485000D02*
X38513299Y-43485000D01*
X23941942Y-42941942D02*
X22558058Y-42941942D01*
%TO.N,GND*%
D38*
X38475000Y-15365000D02*
X39865000Y-15365000D01*
D37*
X53500000Y-48500000D02*
X53600000Y-48600000D01*
D38*
X13000000Y-50225000D02*
X13225000Y-50000000D01*
X17000000Y-52500000D02*
X17000000Y-51000000D01*
X17000000Y-52500000D02*
X16862277Y-52500000D01*
X33775000Y-21000000D02*
X33000000Y-20225000D01*
X13000000Y-51000000D02*
X13000000Y-50225000D01*
X22050000Y-16650000D02*
X22050000Y-18000000D01*
X21680000Y-17020000D02*
X22050000Y-16650000D01*
X37137500Y-21000000D02*
X33775000Y-21000000D01*
D37*
X53600000Y-48600000D02*
X59900000Y-48600000D01*
D38*
X28980000Y-16650000D02*
X29350000Y-17020000D01*
X20700000Y-17020000D02*
X21680000Y-17020000D01*
X28000000Y-16650000D02*
X28980000Y-16650000D01*
X39865000Y-15365000D02*
X40000000Y-15500000D01*
X29350000Y-17020000D02*
X29350000Y-13640000D01*
%TO.N,+3V3*%
X47200000Y-41239339D02*
X47200000Y-45400000D01*
X50250000Y-40375000D02*
X50250000Y-31850000D01*
X14460000Y-50315000D02*
X14775000Y-50000000D01*
X16600000Y-40800000D02*
X16600000Y-41000000D01*
X34862500Y-21950000D02*
X33175000Y-21950000D01*
X14775000Y-48000000D02*
X14775000Y-45753358D01*
X50250000Y-40375000D02*
X48064339Y-40375000D01*
X47820000Y-29420000D02*
X39000000Y-29420000D01*
X16600000Y-41000000D02*
X14600000Y-43000000D01*
X49325000Y-52400000D02*
X49425000Y-52500000D01*
X14775000Y-50000000D02*
X14775000Y-48000000D01*
X14775000Y-45753358D02*
X14590603Y-45568961D01*
X14600000Y-45559564D02*
X14590603Y-45568961D01*
X47800000Y-52400000D02*
X49325000Y-52400000D01*
X48064339Y-40375000D02*
X47200000Y-41239339D01*
X33175000Y-21950000D02*
X33000000Y-21775000D01*
X14600000Y-43000000D02*
X14600000Y-45559564D01*
X31000000Y-21775000D02*
X33000000Y-21775000D01*
X14460000Y-52500000D02*
X14460000Y-50315000D01*
X31000000Y-21775000D02*
X26225000Y-21775000D01*
X39000000Y-26087500D02*
X39000000Y-29420000D01*
X34862500Y-21950000D02*
X39000000Y-26087500D01*
X50250000Y-31850000D02*
X47820000Y-29420000D01*
X26225000Y-21775000D02*
X21400000Y-26600000D01*
%TO.N,BAT_SW*%
D37*
X49035000Y-17200000D02*
X46815948Y-17200000D01*
D38*
X40325000Y-21950000D02*
X40500000Y-21775000D01*
D37*
X44675000Y-21000000D02*
X41275000Y-21000000D01*
X46500000Y-19175000D02*
X45675000Y-20000000D01*
D38*
X40500000Y-21775000D02*
X37312500Y-21775000D01*
D37*
X41275000Y-21000000D02*
X40500000Y-21775000D01*
D38*
X38775000Y-20050000D02*
X37137500Y-20050000D01*
X40500000Y-21775000D02*
X38775000Y-20050000D01*
D37*
X46500000Y-17515948D02*
X46500000Y-19175000D01*
X51500000Y-14735000D02*
X49035000Y-17200000D01*
X45675000Y-20000000D02*
X44675000Y-21000000D01*
X46815948Y-17200000D02*
X46500000Y-17515948D01*
D38*
X37312500Y-21775000D02*
X37137500Y-21950000D01*
%TO.N,BAT_SENSE*%
D37*
X37000000Y-23000000D02*
X46325000Y-23000000D01*
X17130603Y-44637165D02*
X17130603Y-45568961D01*
X17633884Y-44133884D02*
X17130603Y-44637165D01*
X47275000Y-19950000D02*
X47325000Y-20000000D01*
X47275000Y-18000000D02*
X47275000Y-19950000D01*
X47325000Y-22000000D02*
X47325000Y-20000000D01*
X46325000Y-23000000D02*
X47325000Y-22000000D01*
%TO.N,BUTTON_ROW_0*%
X21455000Y-50585000D02*
X21455000Y-46814798D01*
X31080603Y-34913961D02*
X30086039Y-34913961D01*
X28500000Y-36500000D02*
X28500000Y-37500000D01*
X19540000Y-52500000D02*
X21455000Y-50585000D01*
X30086039Y-34913961D02*
X28500000Y-36500000D01*
%TO.N,BUTTON_ROW_1*%
X22080000Y-45699564D02*
X22210603Y-45568961D01*
X22080000Y-52500000D02*
X22080000Y-45699564D01*
%TO.N,BUTTON_ROW_2*%
X23480603Y-51360603D02*
X23480603Y-45568961D01*
X24620000Y-52500000D02*
X23480603Y-51360603D01*
%TO.N,BUTTON_COL_0*%
X27160000Y-52500000D02*
X24750603Y-50090603D01*
X24750603Y-50090603D02*
X24750603Y-45568961D01*
%TO.N,BUTTON_COL_1*%
X26020603Y-48820603D02*
X26020603Y-45568961D01*
X29700000Y-52500000D02*
X26020603Y-48820603D01*
%TO.N,BUTTON_COL_2*%
X32330605Y-34500000D02*
X31474566Y-33643961D01*
X34500000Y-50240000D02*
X32240000Y-52500000D01*
X34500000Y-50000000D02*
X34500000Y-50240000D01*
X31474566Y-33643961D02*
X31080603Y-33643961D01*
%TO.N,BAT+*%
D38*
X46050000Y-33400000D02*
X46050000Y-34710000D01*
X44000000Y-22275000D02*
X44000000Y-22000000D01*
X46050000Y-31200000D02*
X46050000Y-33400000D01*
X45000000Y-30270000D02*
X45000000Y-30675000D01*
X51500000Y-17275000D02*
X51500000Y-19224780D01*
X42500000Y-21775000D02*
X42031993Y-21775000D01*
X33525000Y-14095000D02*
X32094339Y-14095000D01*
X46324780Y-24400000D02*
X43600000Y-24400000D01*
X42031993Y-21775000D02*
X41531992Y-22275001D01*
X30500000Y-18289172D02*
X31489369Y-19278541D01*
X55000000Y-20775000D02*
X51500000Y-17275000D01*
X45000000Y-30675000D02*
X45525000Y-31200000D01*
X45525000Y-31200000D02*
X46050000Y-31200000D01*
X43775000Y-21775000D02*
X42500000Y-21775000D01*
X51500000Y-19224780D02*
X46324780Y-24400000D01*
X32094339Y-14095000D02*
X30500000Y-15689339D01*
X30500000Y-15689339D02*
X30500000Y-18289172D01*
X31489369Y-19278541D02*
X31878541Y-19278541D01*
X46050000Y-34710000D02*
X44500000Y-36260000D01*
X55000000Y-22250000D02*
X55000000Y-20775000D01*
X44000000Y-22000000D02*
X43775000Y-21775000D01*
%TO.N,LCD_CS*%
D37*
X36046039Y-37453961D02*
X31080603Y-37453961D01*
X39000000Y-34500000D02*
X36046039Y-37453961D01*
%TO.N,LCD_RST*%
X39000000Y-37040000D02*
X33000000Y-43040000D01*
X28141642Y-47000000D02*
X27290603Y-46148961D01*
X28500000Y-47000000D02*
X28141642Y-47000000D01*
X27290603Y-46148961D02*
X27290603Y-45568961D01*
X33000000Y-43040000D02*
X33000000Y-44500000D01*
%TO.N,LCD_DC*%
X37580000Y-39580000D02*
X37500000Y-39500000D01*
X34000000Y-36500000D02*
X31396642Y-36500000D01*
X31396642Y-36500000D02*
X31080603Y-36183961D01*
X39000000Y-39580000D02*
X37580000Y-39580000D01*
%TO.N,LCD_MOSI*%
X39000000Y-42120000D02*
X37880000Y-41000000D01*
X31356642Y-39000000D02*
X31080603Y-38723961D01*
X34000000Y-39000000D02*
X31356642Y-39000000D01*
X37880000Y-41000000D02*
X36000000Y-41000000D01*
%TO.N,LCD_SCK*%
X33500000Y-40000000D02*
X31086642Y-40000000D01*
X36800000Y-44660000D02*
X39000000Y-44660000D01*
X31086642Y-40000000D02*
X31080603Y-39993961D01*
X34000000Y-40500000D02*
X33500000Y-40000000D01*
%TO.N,LCD_BL*%
X32741116Y-48125000D02*
X33000000Y-48125000D01*
X39000000Y-47200000D02*
X38075000Y-48125000D01*
X38075000Y-48125000D02*
X32741116Y-48125000D01*
X32375000Y-47758884D02*
X32741116Y-48125000D01*
X32080603Y-41263961D02*
X32375000Y-41558358D01*
X31080603Y-41263961D02*
X32080603Y-41263961D01*
X32375000Y-41558358D02*
X32375000Y-47758884D01*
%TO.N,VBUS_5V*%
D38*
X27150000Y-18494974D02*
X27655026Y-19000000D01*
X26494974Y-15500000D02*
X24000000Y-15500000D01*
X32000000Y-17955000D02*
X33475000Y-17955000D01*
X32426541Y-17321651D02*
X33009890Y-17905000D01*
X38475000Y-14095000D02*
X38279998Y-13899998D01*
X38279998Y-13899998D02*
X35000000Y-13899998D01*
X27150000Y-18000000D02*
X27150000Y-18494974D01*
D39*
X47387500Y-15937500D02*
X47325000Y-16000000D01*
D38*
X22900000Y-18000000D02*
X22900000Y-16650000D01*
D39*
X47387500Y-13700000D02*
X47387500Y-15937500D01*
D38*
X27150000Y-16155026D02*
X26494974Y-15500000D01*
X33475000Y-17955000D02*
X33525000Y-17905000D01*
X33009890Y-17905000D02*
X33525000Y-17905000D01*
X27150000Y-16650000D02*
X27150000Y-16155026D01*
X27150000Y-16650000D02*
X27150000Y-18000000D01*
X38475000Y-14095000D02*
X40095000Y-14095000D01*
X46175000Y-14850000D02*
X47325000Y-16000000D01*
X27655026Y-19000000D02*
X30000000Y-19000000D01*
X40095000Y-14095000D02*
X40850000Y-14850000D01*
X40850000Y-14850000D02*
X46175000Y-14850000D01*
%TO.N,Net-(D1-A)*%
D37*
X43675000Y-16000000D02*
X45675000Y-16000000D01*
%TO.N,Net-(D3-K)*%
X14175000Y-26000000D02*
X14175000Y-24112500D01*
X14175000Y-24112500D02*
X14062500Y-24000000D01*
%TO.N,LED_STATUS*%
X15825000Y-26000000D02*
X15825000Y-28033358D01*
X15825000Y-28033358D02*
X15860603Y-28068961D01*
%TO.N,IO0*%
X48000000Y-41500000D02*
X49725000Y-41500000D01*
X31500000Y-28500000D02*
X30261642Y-28500000D01*
X50275000Y-42025000D02*
X50700000Y-41600000D01*
X50700000Y-41600000D02*
X53350000Y-41600000D01*
X50250000Y-42025000D02*
X50275000Y-42025000D01*
X30261642Y-28500000D02*
X29830603Y-28068961D01*
X49725000Y-41500000D02*
X50250000Y-42025000D01*
X53350000Y-41600000D02*
X59650000Y-41600000D01*
X50250000Y-43700000D02*
X50250000Y-42025000D01*
%TO.N,Net-(D2-K)*%
X32890000Y-16000000D02*
X33525000Y-15365000D01*
X32890000Y-16000000D02*
X32250000Y-16000000D01*
X32606322Y-13213702D02*
X32494113Y-13325911D01*
X41800000Y-13700000D02*
X41313702Y-13213702D01*
X41313702Y-13213702D02*
X32606322Y-13213702D01*
X32250000Y-16000000D02*
X31750000Y-15500000D01*
%TO.N,Net-(D2-A)*%
X43675000Y-13700000D02*
X45737500Y-13700000D01*
%TO.N,Net-(U1-PROG)*%
X41000000Y-18000000D02*
X40957396Y-17957396D01*
X41675000Y-18000000D02*
X41000000Y-18000000D01*
X38840000Y-17000000D02*
X38475000Y-16635000D01*
X40000000Y-17000000D02*
X38840000Y-17000000D01*
%TO.N,USB_CC1*%
X26175000Y-20000000D02*
X26175000Y-18125000D01*
X26175000Y-18125000D02*
X26300000Y-18000000D01*
%TO.N,Net-(D1-K)*%
X31075000Y-17933868D02*
X31075000Y-16925000D01*
X41800000Y-16000000D02*
X41800000Y-16230908D01*
X39500908Y-18530000D02*
X31671132Y-18530000D01*
X31671132Y-18530000D02*
X31075000Y-17933868D01*
X31075000Y-16925000D02*
X31365000Y-16635000D01*
X41800000Y-16230908D02*
X39500908Y-18530000D01*
X31365000Y-16635000D02*
X33525000Y-16635000D01*
%TO.N,USB_CC2*%
X22995000Y-15495000D02*
X20378984Y-15495000D01*
X19925000Y-15948984D02*
X19925000Y-18091016D01*
X19925000Y-18091016D02*
X20508984Y-18675000D01*
X23750000Y-16250000D02*
X22995000Y-15495000D01*
X22675000Y-18675000D02*
X24000000Y-20000000D01*
X20508984Y-18675000D02*
X22675000Y-18675000D01*
X23750000Y-16650000D02*
X23750000Y-16250000D01*
X20378984Y-15495000D02*
X19925000Y-15948984D01*
%TO.N,AUDIO_LRC_WS*%
X36883884Y-51500000D02*
X34758884Y-49375000D01*
X20830000Y-49375000D02*
X20205000Y-48750000D01*
X19670603Y-46420603D02*
X19670603Y-45568961D01*
X34758884Y-49375000D02*
X27458883Y-49375000D01*
X20205000Y-46955000D02*
X19670603Y-46420603D01*
X20205000Y-48750000D02*
X20205000Y-46955000D01*
X44500000Y-51500000D02*
X36883884Y-51500000D01*
%TO.N,AUDIO_BCLK*%
X19251642Y-47000000D02*
X19250000Y-47000000D01*
X33932500Y-48750000D02*
X40500000Y-48750000D01*
X40500000Y-48750000D02*
X40710000Y-48960000D01*
X18400603Y-46148961D02*
X18400603Y-45568961D01*
X40710000Y-48960000D02*
X44500000Y-48960000D01*
X19251642Y-47000000D02*
X18400603Y-46148961D01*
%TO.N,AUDIO_DOUT*%
X44105000Y-46025000D02*
X44500000Y-46420000D01*
X35025000Y-46025000D02*
X44105000Y-46025000D01*
X20830000Y-47500000D02*
X20830000Y-45679564D01*
X33550000Y-47500000D02*
X35025000Y-46025000D01*
X20830000Y-45679564D02*
X20940603Y-45568961D01*
X33000000Y-47500000D02*
X33550000Y-47500000D01*
%TO.N,EN*%
X51075000Y-52500000D02*
X51075000Y-51143299D01*
%TD*%
%TA.AperFunction,Conductor*%
%TO.N,GND*%
G36*
X20063673Y-12320185D02*
G01*
X20109428Y-12372989D01*
X20119372Y-12442147D01*
X20090347Y-12505703D01*
X20084315Y-12512181D01*
X19962089Y-12634406D01*
X19962086Y-12634410D01*
X19858124Y-12789999D01*
X19858119Y-12790008D01*
X19786508Y-12962894D01*
X19786506Y-12962902D01*
X19750000Y-13146428D01*
X19750000Y-13390000D01*
X20400000Y-13390000D01*
X20400000Y-13890000D01*
X19750000Y-13890000D01*
X19750000Y-14133571D01*
X19786506Y-14317097D01*
X19786508Y-14317105D01*
X19858119Y-14489991D01*
X19858124Y-14490000D01*
X19962086Y-14645589D01*
X19962089Y-14645593D01*
X20094406Y-14777910D01*
X20094410Y-14777913D01*
X20249999Y-14881875D01*
X20250012Y-14881882D01*
X20370137Y-14931639D01*
X20424541Y-14975480D01*
X20446606Y-15041774D01*
X20429327Y-15109473D01*
X20378190Y-15157084D01*
X20365430Y-15162600D01*
X20346640Y-15169500D01*
X20336131Y-15169500D01*
X20253346Y-15191682D01*
X20205110Y-15219531D01*
X20195871Y-15224864D01*
X20195868Y-15224866D01*
X20179122Y-15234534D01*
X19664537Y-15749119D01*
X19664535Y-15749122D01*
X19623325Y-15820500D01*
X19621682Y-15823345D01*
X19610996Y-15863226D01*
X19610996Y-15863227D01*
X19610995Y-15863226D01*
X19599500Y-15906127D01*
X19599500Y-15906131D01*
X19599500Y-18048163D01*
X19599500Y-18133869D01*
X19601419Y-18141030D01*
X19621682Y-18216656D01*
X19640934Y-18250000D01*
X19664535Y-18290878D01*
X20309122Y-18935465D01*
X20373398Y-18972575D01*
X20375171Y-18973599D01*
X20383345Y-18978318D01*
X20466131Y-19000500D01*
X21585188Y-19000500D01*
X21652227Y-19020185D01*
X21697982Y-19072989D01*
X21707926Y-19142147D01*
X21678901Y-19205703D01*
X21672869Y-19212181D01*
X21594928Y-19290121D01*
X21594927Y-19290122D01*
X21506980Y-19435604D01*
X21456409Y-19597893D01*
X21450000Y-19668427D01*
X21450000Y-19750000D01*
X22226000Y-19750000D01*
X22293039Y-19769685D01*
X22338794Y-19822489D01*
X22350000Y-19874000D01*
X22350000Y-20000000D01*
X22476000Y-20000000D01*
X22543039Y-20019685D01*
X22588794Y-20072489D01*
X22600000Y-20124000D01*
X22600000Y-20974999D01*
X22606581Y-20974999D01*
X22677102Y-20968591D01*
X22677107Y-20968590D01*
X22839396Y-20918018D01*
X22984877Y-20830072D01*
X23105072Y-20709877D01*
X23193017Y-20564398D01*
X23218135Y-20483792D01*
X23256872Y-20425644D01*
X23320897Y-20397669D01*
X23389883Y-20408750D01*
X23441926Y-20455368D01*
X23447001Y-20464377D01*
X23471950Y-20513342D01*
X23471952Y-20513344D01*
X23471954Y-20513347D01*
X23561652Y-20603045D01*
X23561654Y-20603046D01*
X23561658Y-20603050D01*
X23663252Y-20654815D01*
X23674698Y-20660647D01*
X23768475Y-20675499D01*
X23768481Y-20675500D01*
X24231518Y-20675499D01*
X24325304Y-20660646D01*
X24438342Y-20603050D01*
X24528050Y-20513342D01*
X24585646Y-20400304D01*
X24585646Y-20400302D01*
X24585647Y-20400301D01*
X24600499Y-20306524D01*
X24600500Y-20306519D01*
X24600499Y-19693482D01*
X24585646Y-19599696D01*
X24528050Y-19486658D01*
X24528046Y-19486654D01*
X24528045Y-19486652D01*
X24438347Y-19396954D01*
X24438344Y-19396952D01*
X24438342Y-19396950D01*
X24343203Y-19348474D01*
X24325301Y-19339352D01*
X24231524Y-19324500D01*
X24231519Y-19324500D01*
X23836189Y-19324500D01*
X23769150Y-19304815D01*
X23748508Y-19288181D01*
X23101918Y-18641591D01*
X23092585Y-18624499D01*
X23079193Y-18610359D01*
X23076185Y-18594464D01*
X23068433Y-18580268D01*
X23069822Y-18560842D01*
X23066201Y-18541708D01*
X23072263Y-18526712D01*
X23073417Y-18510576D01*
X23085088Y-18494984D01*
X23092387Y-18476931D01*
X23109972Y-18461744D01*
X23115289Y-18454643D01*
X23118012Y-18452661D01*
X23122656Y-18449377D01*
X23207314Y-18400500D01*
X23244790Y-18363023D01*
X23253413Y-18356927D01*
X23276878Y-18348893D01*
X23298642Y-18337010D01*
X23309353Y-18337776D01*
X23319516Y-18334297D01*
X23343597Y-18340224D01*
X23368334Y-18341994D01*
X23379229Y-18348996D01*
X23387361Y-18350998D01*
X23395164Y-18359237D01*
X23412681Y-18370495D01*
X23442686Y-18400500D01*
X23533031Y-18452661D01*
X23549499Y-18462169D01*
X23556814Y-18466392D01*
X23684108Y-18500500D01*
X23684110Y-18500500D01*
X23815890Y-18500500D01*
X23815892Y-18500500D01*
X23943186Y-18466392D01*
X24057314Y-18400500D01*
X24087319Y-18370495D01*
X24148642Y-18337010D01*
X24218334Y-18341994D01*
X24262681Y-18370495D01*
X24292686Y-18400500D01*
X24383031Y-18452661D01*
X24399499Y-18462169D01*
X24406814Y-18466392D01*
X24534108Y-18500500D01*
X24534110Y-18500500D01*
X24665890Y-18500500D01*
X24665892Y-18500500D01*
X24793186Y-18466392D01*
X24907314Y-18400500D01*
X24937319Y-18370495D01*
X24998642Y-18337010D01*
X25068334Y-18341994D01*
X25112681Y-18370495D01*
X25142686Y-18400500D01*
X25233031Y-18452661D01*
X25249499Y-18462169D01*
X25256814Y-18466392D01*
X25384108Y-18500500D01*
X25384110Y-18500500D01*
X25515890Y-18500500D01*
X25515892Y-18500500D01*
X25643186Y-18466392D01*
X25663499Y-18454663D01*
X25731399Y-18438191D01*
X25797426Y-18461043D01*
X25840617Y-18515964D01*
X25849500Y-18562051D01*
X25849500Y-19263466D01*
X25829815Y-19330505D01*
X25781796Y-19373950D01*
X25736656Y-19396950D01*
X25646954Y-19486652D01*
X25646951Y-19486657D01*
X25589352Y-19599698D01*
X25574500Y-19693475D01*
X25574500Y-20306517D01*
X25585292Y-20374657D01*
X25589354Y-20400304D01*
X25646950Y-20513342D01*
X25646952Y-20513344D01*
X25646954Y-20513347D01*
X25736652Y-20603045D01*
X25736654Y-20603046D01*
X25736658Y-20603050D01*
X25838252Y-20654815D01*
X25849698Y-20660647D01*
X25943475Y-20675499D01*
X25943481Y-20675500D01*
X26406518Y-20675499D01*
X26500304Y-20660646D01*
X26613342Y-20603050D01*
X26703050Y-20513342D01*
X26727995Y-20464384D01*
X26775967Y-20413591D01*
X26843788Y-20396796D01*
X26909923Y-20419333D01*
X26953375Y-20474048D01*
X26956863Y-20483791D01*
X26981981Y-20564396D01*
X27069927Y-20709877D01*
X27190122Y-20830072D01*
X27335604Y-20918019D01*
X27335603Y-20918019D01*
X27497894Y-20968590D01*
X27497893Y-20968590D01*
X27568408Y-20974998D01*
X27568426Y-20974999D01*
X28075000Y-20974999D01*
X28081581Y-20974999D01*
X28152102Y-20968591D01*
X28152107Y-20968590D01*
X28314396Y-20918018D01*
X28459877Y-20830072D01*
X28580072Y-20709877D01*
X28668019Y-20564395D01*
X28718590Y-20402106D01*
X28725000Y-20331572D01*
X28725000Y-20250000D01*
X28075000Y-20250000D01*
X28075000Y-20974999D01*
X27568426Y-20974999D01*
X27574999Y-20974998D01*
X27575000Y-20974998D01*
X27575000Y-20124000D01*
X27594685Y-20056961D01*
X27647489Y-20011206D01*
X27699000Y-20000000D01*
X27825000Y-20000000D01*
X27825000Y-19874000D01*
X27844685Y-19806961D01*
X27897489Y-19761206D01*
X27949000Y-19750000D01*
X28724999Y-19750000D01*
X28724999Y-19668417D01*
X28717998Y-19591361D01*
X28719416Y-19591232D01*
X28724978Y-19529098D01*
X28767841Y-19473922D01*
X28833731Y-19450678D01*
X28840367Y-19450500D01*
X30014939Y-19450500D01*
X30081978Y-19470185D01*
X30127733Y-19522989D01*
X30137677Y-19592147D01*
X30120477Y-19639598D01*
X30088455Y-19691511D01*
X30088452Y-19691518D01*
X30035144Y-19852393D01*
X30025000Y-19951677D01*
X30025000Y-19975000D01*
X32750000Y-19975000D01*
X32750000Y-19275000D01*
X32749999Y-19274999D01*
X32701693Y-19275000D01*
X32701675Y-19275001D01*
X32609715Y-19284396D01*
X32578165Y-19278530D01*
X32546367Y-19274179D01*
X32544035Y-19272186D01*
X32541022Y-19271626D01*
X32517652Y-19249636D01*
X32493254Y-19228783D01*
X32491634Y-19225154D01*
X32490137Y-19223746D01*
X32478375Y-19196778D01*
X32477837Y-19194990D01*
X32438118Y-19046757D01*
X32427882Y-19029027D01*
X32423732Y-19015240D01*
X32423589Y-18994123D01*
X32418610Y-18973599D01*
X32423357Y-18959883D01*
X32423259Y-18945372D01*
X32434555Y-18927529D01*
X32441463Y-18907572D01*
X32452870Y-18898601D01*
X32460634Y-18886339D01*
X32479784Y-18877436D01*
X32496385Y-18864382D01*
X32515995Y-18860602D01*
X32523992Y-18856885D01*
X32530594Y-18857788D01*
X32542470Y-18855500D01*
X39543759Y-18855500D01*
X39543761Y-18855500D01*
X39626547Y-18833318D01*
X39700770Y-18790465D01*
X40321704Y-18169529D01*
X40383025Y-18136046D01*
X40452716Y-18141030D01*
X40508650Y-18182901D01*
X40516769Y-18195211D01*
X40556891Y-18264703D01*
X40556894Y-18264707D01*
X40556896Y-18264710D01*
X40650082Y-18357896D01*
X40764210Y-18423788D01*
X40891504Y-18457896D01*
X40891506Y-18457896D01*
X41023282Y-18457896D01*
X41023288Y-18457896D01*
X41023293Y-18457894D01*
X41026235Y-18457507D01*
X41028731Y-18457896D01*
X41031415Y-18457896D01*
X41031415Y-18458314D01*
X41095272Y-18468268D01*
X41142747Y-18507558D01*
X41146950Y-18513343D01*
X41236652Y-18603045D01*
X41236654Y-18603046D01*
X41236658Y-18603050D01*
X41347877Y-18659719D01*
X41349698Y-18660647D01*
X41443475Y-18675499D01*
X41443481Y-18675500D01*
X41906518Y-18675499D01*
X42000304Y-18660646D01*
X42113342Y-18603050D01*
X42203050Y-18513342D01*
X42227995Y-18464384D01*
X42275967Y-18413591D01*
X42343788Y-18396796D01*
X42409923Y-18419333D01*
X42453375Y-18474048D01*
X42456863Y-18483791D01*
X42481981Y-18564396D01*
X42569927Y-18709877D01*
X42690122Y-18830072D01*
X42835604Y-18918019D01*
X42835603Y-18918019D01*
X42997894Y-18968590D01*
X42997893Y-18968590D01*
X43068408Y-18974998D01*
X43068426Y-18974999D01*
X43575000Y-18974999D01*
X43581581Y-18974999D01*
X43652102Y-18968591D01*
X43652107Y-18968590D01*
X43814396Y-18918018D01*
X43959877Y-18830072D01*
X44080072Y-18709877D01*
X44168019Y-18564395D01*
X44218590Y-18402106D01*
X44225000Y-18331572D01*
X44225000Y-18298322D01*
X44775001Y-18298322D01*
X44785144Y-18397607D01*
X44838452Y-18558481D01*
X44838457Y-18558492D01*
X44927424Y-18702728D01*
X44927427Y-18702732D01*
X45047267Y-18822572D01*
X45047271Y-18822575D01*
X45191507Y-18911542D01*
X45191518Y-18911547D01*
X45352393Y-18964855D01*
X45451683Y-18974999D01*
X45475000Y-18974998D01*
X45475000Y-18250000D01*
X44775001Y-18250000D01*
X44775001Y-18298322D01*
X44225000Y-18298322D01*
X44225000Y-18250000D01*
X43575000Y-18250000D01*
X43575000Y-18974999D01*
X43068426Y-18974999D01*
X43074999Y-18974998D01*
X43075000Y-18974998D01*
X43075000Y-18124000D01*
X43094685Y-18056961D01*
X43147489Y-18011206D01*
X43199000Y-18000000D01*
X43325000Y-18000000D01*
X43325000Y-17874000D01*
X43344685Y-17806961D01*
X43397489Y-17761206D01*
X43449000Y-17750000D01*
X44224999Y-17750000D01*
X44224999Y-17701677D01*
X44775000Y-17701677D01*
X44775000Y-17750000D01*
X45475000Y-17750000D01*
X45475000Y-17024999D01*
X45451693Y-17025000D01*
X45451674Y-17025001D01*
X45352392Y-17035144D01*
X45191518Y-17088452D01*
X45191507Y-17088457D01*
X45047271Y-17177424D01*
X45047267Y-17177427D01*
X44927427Y-17297267D01*
X44927424Y-17297271D01*
X44838457Y-17441507D01*
X44838452Y-17441518D01*
X44785144Y-17602393D01*
X44775000Y-17701677D01*
X44224999Y-17701677D01*
X44224999Y-17668417D01*
X44218591Y-17597897D01*
X44218590Y-17597892D01*
X44168018Y-17435603D01*
X44080072Y-17290122D01*
X43959877Y-17169927D01*
X43894850Y-17130617D01*
X43847662Y-17079089D01*
X43835824Y-17010229D01*
X43863093Y-16945901D01*
X43920812Y-16906527D01*
X43959000Y-16900500D01*
X43972268Y-16900500D01*
X43985601Y-16899249D01*
X44002274Y-16897686D01*
X44002278Y-16897684D01*
X44002281Y-16897684D01*
X44084251Y-16869001D01*
X44128679Y-16853455D01*
X44236430Y-16773930D01*
X44315955Y-16666179D01*
X44338045Y-16603050D01*
X44360184Y-16539781D01*
X44360184Y-16539778D01*
X44360186Y-16539774D01*
X44362664Y-16513347D01*
X44363000Y-16509768D01*
X44363000Y-16449500D01*
X44382685Y-16382461D01*
X44435489Y-16336706D01*
X44487000Y-16325500D01*
X44975253Y-16325500D01*
X45042292Y-16345185D01*
X45085738Y-16393205D01*
X45089353Y-16400300D01*
X45089354Y-16400304D01*
X45145127Y-16509764D01*
X45146951Y-16513343D01*
X45146954Y-16513347D01*
X45236652Y-16603045D01*
X45236654Y-16603046D01*
X45236658Y-16603050D01*
X45349694Y-16660645D01*
X45349698Y-16660647D01*
X45443475Y-16675499D01*
X45443481Y-16675500D01*
X45906518Y-16675499D01*
X46000304Y-16660646D01*
X46113342Y-16603050D01*
X46203050Y-16513342D01*
X46260646Y-16400304D01*
X46260646Y-16400302D01*
X46260647Y-16400301D01*
X46272672Y-16324376D01*
X46275500Y-16306519D01*
X46275499Y-15886962D01*
X46295183Y-15819925D01*
X46347987Y-15774170D01*
X46417146Y-15764226D01*
X46480702Y-15793251D01*
X46487180Y-15799283D01*
X46688181Y-16000284D01*
X46721666Y-16061607D01*
X46724500Y-16087964D01*
X46724500Y-16306517D01*
X46731950Y-16353554D01*
X46739354Y-16400304D01*
X46796950Y-16513342D01*
X46796952Y-16513344D01*
X46796954Y-16513347D01*
X46886652Y-16603045D01*
X46886661Y-16603052D01*
X46959206Y-16640016D01*
X47010002Y-16687990D01*
X47026797Y-16755811D01*
X47004259Y-16821946D01*
X46949544Y-16865397D01*
X46902911Y-16874500D01*
X46773095Y-16874500D01*
X46690307Y-16896682D01*
X46616086Y-16939534D01*
X46456884Y-17098736D01*
X46395560Y-17132220D01*
X46325869Y-17127236D01*
X46304107Y-17116593D01*
X46258490Y-17088456D01*
X46258481Y-17088452D01*
X46097606Y-17035144D01*
X45998322Y-17025000D01*
X45975000Y-17025000D01*
X45975000Y-18974999D01*
X45982754Y-18982753D01*
X45983645Y-18982817D01*
X45994428Y-18990889D01*
X46007350Y-18994684D01*
X46021849Y-19011417D01*
X46039578Y-19024689D01*
X46044285Y-19037309D01*
X46053105Y-19047488D01*
X46056256Y-19069405D01*
X46063995Y-19090153D01*
X46061132Y-19103313D01*
X46063049Y-19116646D01*
X46053849Y-19136789D01*
X46049143Y-19158426D01*
X46035874Y-19176151D01*
X46034024Y-19180202D01*
X46027992Y-19186680D01*
X45926491Y-19288181D01*
X45865168Y-19321666D01*
X45838810Y-19324500D01*
X45443482Y-19324500D01*
X45362519Y-19337323D01*
X45349696Y-19339354D01*
X45236658Y-19396950D01*
X45236657Y-19396951D01*
X45236652Y-19396954D01*
X45146954Y-19486652D01*
X45146951Y-19486657D01*
X45089352Y-19599698D01*
X45074500Y-19693475D01*
X45074500Y-20088810D01*
X45054815Y-20155849D01*
X45038181Y-20176491D01*
X44576492Y-20638181D01*
X44515169Y-20671666D01*
X44488811Y-20674500D01*
X43594314Y-20674500D01*
X43527275Y-20654815D01*
X43481520Y-20602011D01*
X43470956Y-20537897D01*
X43474999Y-20498321D01*
X43475000Y-20498309D01*
X43475000Y-20475000D01*
X40624000Y-20475000D01*
X40556961Y-20455315D01*
X40511206Y-20402511D01*
X40500000Y-20351000D01*
X40500000Y-20225000D01*
X40374000Y-20225000D01*
X40306961Y-20205315D01*
X40261206Y-20152511D01*
X40250000Y-20101000D01*
X40250000Y-19275000D01*
X40750000Y-19275000D01*
X40750000Y-19975000D01*
X42250000Y-19975000D01*
X42750000Y-19975000D01*
X43474999Y-19975000D01*
X43474999Y-19951692D01*
X43474998Y-19951677D01*
X43464855Y-19852392D01*
X43411547Y-19691518D01*
X43411542Y-19691507D01*
X43322575Y-19547271D01*
X43322572Y-19547267D01*
X43202732Y-19427427D01*
X43202728Y-19427424D01*
X43058492Y-19338457D01*
X43058481Y-19338452D01*
X42897606Y-19285144D01*
X42798322Y-19275000D01*
X42750000Y-19275000D01*
X42750000Y-19975000D01*
X42250000Y-19975000D01*
X42250000Y-19275000D01*
X42249999Y-19274999D01*
X42201693Y-19275000D01*
X42201675Y-19275001D01*
X42102392Y-19285144D01*
X41941518Y-19338452D01*
X41941507Y-19338457D01*
X41797271Y-19427424D01*
X41797267Y-19427427D01*
X41677427Y-19547267D01*
X41677424Y-19547271D01*
X41605538Y-19663816D01*
X41553590Y-19710541D01*
X41484627Y-19721762D01*
X41420545Y-19693919D01*
X41394462Y-19663816D01*
X41322575Y-19547271D01*
X41322572Y-19547267D01*
X41202732Y-19427427D01*
X41202728Y-19427424D01*
X41058492Y-19338457D01*
X41058481Y-19338452D01*
X40897606Y-19285144D01*
X40798322Y-19275000D01*
X40750000Y-19275000D01*
X40250000Y-19275000D01*
X40249999Y-19274999D01*
X40201693Y-19275000D01*
X40201675Y-19275001D01*
X40102392Y-19285144D01*
X39941518Y-19338452D01*
X39941507Y-19338457D01*
X39797271Y-19427424D01*
X39797267Y-19427427D01*
X39677427Y-19547267D01*
X39677424Y-19547271D01*
X39588457Y-19691507D01*
X39588452Y-19691518D01*
X39535143Y-19852393D01*
X39531943Y-19883723D01*
X39505546Y-19948415D01*
X39448365Y-19988566D01*
X39378554Y-19991429D01*
X39320904Y-19958801D01*
X39051616Y-19689513D01*
X39051614Y-19689511D01*
X38978429Y-19647257D01*
X38948888Y-19630201D01*
X38936780Y-19626957D01*
X38924673Y-19623713D01*
X38924670Y-19623712D01*
X38876492Y-19610803D01*
X38834309Y-19599500D01*
X38834308Y-19599500D01*
X37862052Y-19599500D01*
X37807592Y-19586901D01*
X37751391Y-19559426D01*
X37683261Y-19549500D01*
X37683260Y-19549500D01*
X36591740Y-19549500D01*
X36591739Y-19549500D01*
X36523608Y-19559426D01*
X36418514Y-19610803D01*
X36335803Y-19693514D01*
X36284426Y-19798608D01*
X36274500Y-19866739D01*
X36274500Y-20231967D01*
X36254815Y-20299006D01*
X36226504Y-20329944D01*
X36223445Y-20332316D01*
X36107318Y-20448442D01*
X36107314Y-20448447D01*
X36023718Y-20589801D01*
X35977899Y-20747513D01*
X35977704Y-20749998D01*
X35977705Y-20750000D01*
X38297295Y-20750000D01*
X38297295Y-20749998D01*
X38297100Y-20747511D01*
X38271413Y-20659094D01*
X38271488Y-20632837D01*
X38267752Y-20606853D01*
X38271586Y-20598456D01*
X38271613Y-20589225D01*
X38285870Y-20567179D01*
X38296777Y-20543297D01*
X38304543Y-20538305D01*
X38309556Y-20530555D01*
X38333468Y-20519717D01*
X38355555Y-20505523D01*
X38369074Y-20503579D01*
X38373194Y-20501712D01*
X38390490Y-20500500D01*
X38537035Y-20500500D01*
X38604074Y-20520185D01*
X38624716Y-20536819D01*
X39200716Y-21112819D01*
X39234201Y-21174142D01*
X39229217Y-21243834D01*
X39187345Y-21299767D01*
X39121881Y-21324184D01*
X39113035Y-21324500D01*
X38420402Y-21324500D01*
X38353363Y-21304815D01*
X38329347Y-21284672D01*
X38297296Y-21250000D01*
X35977705Y-21250000D01*
X35977704Y-21250001D01*
X35977899Y-21252486D01*
X36023718Y-21410198D01*
X36107314Y-21551552D01*
X36107321Y-21551561D01*
X36223439Y-21667679D01*
X36226497Y-21670051D01*
X36228280Y-21672520D01*
X36228960Y-21673200D01*
X36228850Y-21673309D01*
X36267406Y-21726692D01*
X36274500Y-21768033D01*
X36274500Y-22133260D01*
X36284426Y-22201391D01*
X36335803Y-22306485D01*
X36418514Y-22389196D01*
X36418515Y-22389196D01*
X36418517Y-22389198D01*
X36523607Y-22440573D01*
X36565344Y-22446654D01*
X36628843Y-22475798D01*
X36666507Y-22534646D01*
X36666376Y-22604516D01*
X36648464Y-22641296D01*
X36642458Y-22649727D01*
X36599500Y-22692686D01*
X36546602Y-22784307D01*
X36543163Y-22789136D01*
X36520163Y-22807219D01*
X36498983Y-22827414D01*
X36493015Y-22828564D01*
X36488237Y-22832321D01*
X36459102Y-22835099D01*
X36430376Y-22840636D01*
X36424735Y-22838377D01*
X36418683Y-22838955D01*
X36392670Y-22825541D01*
X36365511Y-22814668D01*
X36357089Y-22807192D01*
X36356584Y-22806932D01*
X36356361Y-22806546D01*
X36354483Y-22804879D01*
X35761819Y-22212215D01*
X35728334Y-22150892D01*
X35725500Y-22124534D01*
X35725500Y-21766739D01*
X35715573Y-21698608D01*
X35715573Y-21698607D01*
X35664198Y-21593517D01*
X35664196Y-21593515D01*
X35664196Y-21593514D01*
X35581485Y-21510803D01*
X35476391Y-21459426D01*
X35408261Y-21449500D01*
X35408260Y-21449500D01*
X34316740Y-21449500D01*
X34316739Y-21449500D01*
X34248608Y-21459426D01*
X34206902Y-21479815D01*
X34192797Y-21486711D01*
X34192408Y-21486901D01*
X34137948Y-21499500D01*
X33776657Y-21499500D01*
X33709618Y-21479815D01*
X33669870Y-21438528D01*
X33660683Y-21422963D01*
X33659719Y-21416874D01*
X33598528Y-21296780D01*
X33568460Y-21266712D01*
X33560469Y-21253173D01*
X33555603Y-21233926D01*
X33546090Y-21216503D01*
X33547216Y-21200746D01*
X33543346Y-21185434D01*
X33549657Y-21166614D01*
X33551074Y-21146811D01*
X33560540Y-21134164D01*
X33565563Y-21119191D01*
X33581048Y-21106770D01*
X33592946Y-21090878D01*
X33602160Y-21084606D01*
X33702731Y-21022573D01*
X33822572Y-20902732D01*
X33822575Y-20902728D01*
X33911542Y-20758492D01*
X33911547Y-20758481D01*
X33964856Y-20597606D01*
X33965831Y-20588063D01*
X33992226Y-20523371D01*
X34049406Y-20483218D01*
X34119217Y-20480354D01*
X34143644Y-20489260D01*
X34248607Y-20540573D01*
X34267303Y-20543297D01*
X34316739Y-20550500D01*
X34316740Y-20550500D01*
X35408261Y-20550500D01*
X35430971Y-20547191D01*
X35476393Y-20540573D01*
X35581483Y-20489198D01*
X35664198Y-20406483D01*
X35715573Y-20301393D01*
X35725500Y-20233260D01*
X35725500Y-19866740D01*
X35723409Y-19852392D01*
X35715573Y-19798608D01*
X35715573Y-19798607D01*
X35664198Y-19693517D01*
X35664196Y-19693515D01*
X35664196Y-19693514D01*
X35581485Y-19610803D01*
X35476391Y-19559426D01*
X35408261Y-19549500D01*
X35408260Y-19549500D01*
X34316740Y-19549500D01*
X34316739Y-19549500D01*
X34248608Y-19559426D01*
X34143516Y-19610802D01*
X34080141Y-19674177D01*
X34018817Y-19707661D01*
X33949126Y-19702676D01*
X33893192Y-19660805D01*
X33886922Y-19651592D01*
X33822575Y-19547271D01*
X33822572Y-19547267D01*
X33702732Y-19427427D01*
X33702728Y-19427424D01*
X33558492Y-19338457D01*
X33558481Y-19338452D01*
X33397606Y-19285144D01*
X33298322Y-19275000D01*
X33250000Y-19275000D01*
X33250000Y-20101000D01*
X33230315Y-20168039D01*
X33177511Y-20213794D01*
X33126000Y-20225000D01*
X33000000Y-20225000D01*
X33000000Y-20351000D01*
X32980315Y-20418039D01*
X32927511Y-20463794D01*
X32876000Y-20475000D01*
X30025001Y-20475000D01*
X30025001Y-20498322D01*
X30035144Y-20597607D01*
X30088452Y-20758481D01*
X30088457Y-20758492D01*
X30177424Y-20902728D01*
X30177427Y-20902732D01*
X30297266Y-21022571D01*
X30397840Y-21084606D01*
X30413390Y-21101895D01*
X30432007Y-21115830D01*
X30436317Y-21127385D01*
X30444564Y-21136554D01*
X30448298Y-21159503D01*
X30456427Y-21181293D01*
X30453805Y-21193344D01*
X30455787Y-21205517D01*
X30446519Y-21226845D01*
X30441578Y-21249567D01*
X30429824Y-21265269D01*
X30427943Y-21269599D01*
X30420428Y-21277822D01*
X30410074Y-21288177D01*
X30348753Y-21321665D01*
X30322389Y-21324500D01*
X26165691Y-21324500D01*
X26096944Y-21342920D01*
X26051112Y-21355201D01*
X26051107Y-21355204D01*
X26007695Y-21380267D01*
X26007696Y-21380268D01*
X25948389Y-21414508D01*
X25948383Y-21414513D01*
X21399597Y-25963299D01*
X21338274Y-25996784D01*
X21328107Y-25998556D01*
X21320949Y-25999498D01*
X21168216Y-26040423D01*
X21168209Y-26040426D01*
X21031290Y-26119475D01*
X21031282Y-26119481D01*
X20919481Y-26231282D01*
X20919475Y-26231290D01*
X20840426Y-26368209D01*
X20840423Y-26368216D01*
X20799500Y-26520943D01*
X20799500Y-26679057D01*
X20838703Y-26825362D01*
X20840423Y-26831783D01*
X20840423Y-26831784D01*
X20898549Y-26932462D01*
X20915021Y-27000362D01*
X20892168Y-27066389D01*
X20837246Y-27109579D01*
X20791161Y-27118461D01*
X20470850Y-27118461D01*
X20412373Y-27130092D01*
X20412372Y-27130093D01*
X20374494Y-27155403D01*
X20307816Y-27176281D01*
X20240436Y-27157796D01*
X20236712Y-27155403D01*
X20198833Y-27130093D01*
X20198832Y-27130092D01*
X20140355Y-27118461D01*
X20140351Y-27118461D01*
X19200855Y-27118461D01*
X19200850Y-27118461D01*
X19142373Y-27130092D01*
X19142372Y-27130093D01*
X19104494Y-27155403D01*
X19037816Y-27176281D01*
X18970436Y-27157796D01*
X18966712Y-27155403D01*
X18928833Y-27130093D01*
X18928832Y-27130092D01*
X18870355Y-27118461D01*
X18870351Y-27118461D01*
X17930855Y-27118461D01*
X17930850Y-27118461D01*
X17872373Y-27130092D01*
X17872372Y-27130093D01*
X17834494Y-27155403D01*
X17767816Y-27176281D01*
X17700436Y-27157796D01*
X17696712Y-27155403D01*
X17658833Y-27130093D01*
X17658832Y-27130092D01*
X17600355Y-27118461D01*
X17600351Y-27118461D01*
X16660855Y-27118461D01*
X16660850Y-27118461D01*
X16602373Y-27130092D01*
X16602372Y-27130093D01*
X16564494Y-27155403D01*
X16497816Y-27176281D01*
X16464221Y-27172264D01*
X16444046Y-27166986D01*
X16388834Y-27130094D01*
X16330351Y-27118461D01*
X16258550Y-27118461D01*
X16243118Y-27114424D01*
X16226295Y-27104306D01*
X16207461Y-27098776D01*
X16196971Y-27086670D01*
X16183243Y-27078414D01*
X16174560Y-27060806D01*
X16161706Y-27045972D01*
X16157333Y-27025873D01*
X16152341Y-27015749D01*
X16153297Y-27007322D01*
X16150500Y-26994461D01*
X16150500Y-26736533D01*
X16170185Y-26669494D01*
X16218203Y-26626049D01*
X16263342Y-26603050D01*
X16353050Y-26513342D01*
X16410646Y-26400304D01*
X16410646Y-26400302D01*
X16410647Y-26400301D01*
X16425499Y-26306524D01*
X16425500Y-26306519D01*
X16425499Y-25693482D01*
X16410646Y-25599696D01*
X16353050Y-25486658D01*
X16353046Y-25486654D01*
X16353045Y-25486652D01*
X16265983Y-25399590D01*
X16232498Y-25338267D01*
X16237482Y-25268575D01*
X16279354Y-25212642D01*
X16327710Y-25190656D01*
X16332669Y-25189594D01*
X16497709Y-25134905D01*
X16497714Y-25134903D01*
X16645691Y-25043629D01*
X16768629Y-24920691D01*
X16859903Y-24772714D01*
X16859905Y-24772709D01*
X16914592Y-24607673D01*
X16924999Y-24505815D01*
X16925000Y-24505802D01*
X16925000Y-24250000D01*
X16061500Y-24250000D01*
X15994461Y-24230315D01*
X15948706Y-24177511D01*
X15937500Y-24126000D01*
X15937500Y-24000000D01*
X15811500Y-24000000D01*
X15744461Y-23980315D01*
X15698706Y-23927511D01*
X15687500Y-23876000D01*
X15687500Y-23750000D01*
X16187500Y-23750000D01*
X16925000Y-23750000D01*
X16925000Y-23494197D01*
X16924999Y-23494184D01*
X16914592Y-23392326D01*
X16859905Y-23227290D01*
X16859903Y-23227285D01*
X16768629Y-23079308D01*
X16645691Y-22956370D01*
X16497714Y-22865096D01*
X16497709Y-22865094D01*
X16332673Y-22810407D01*
X16230815Y-22800000D01*
X16187500Y-22800000D01*
X16187500Y-23750000D01*
X15687500Y-23750000D01*
X15687500Y-22800000D01*
X15644184Y-22800000D01*
X15542326Y-22810407D01*
X15377290Y-22865094D01*
X15377285Y-22865096D01*
X15229308Y-22956370D01*
X15106370Y-23079308D01*
X15015096Y-23227285D01*
X15015094Y-23227290D01*
X14959896Y-23393867D01*
X14920123Y-23451312D01*
X14855607Y-23478135D01*
X14786831Y-23465820D01*
X14735632Y-23418277D01*
X14725149Y-23395818D01*
X14703455Y-23333821D01*
X14703454Y-23333819D01*
X14623930Y-23226069D01*
X14516180Y-23146545D01*
X14516178Y-23146544D01*
X14389781Y-23102315D01*
X14389769Y-23102313D01*
X14359768Y-23099500D01*
X14359764Y-23099500D01*
X13765236Y-23099500D01*
X13765232Y-23099500D01*
X13735230Y-23102313D01*
X13735218Y-23102315D01*
X13608821Y-23146544D01*
X13608819Y-23146545D01*
X13501069Y-23226069D01*
X13421545Y-23333819D01*
X13421544Y-23333821D01*
X13377315Y-23460218D01*
X13377313Y-23460230D01*
X13374500Y-23490231D01*
X13374500Y-24509768D01*
X13377313Y-24539769D01*
X13377315Y-24539781D01*
X13421544Y-24666178D01*
X13421545Y-24666180D01*
X13501069Y-24773930D01*
X13608819Y-24853454D01*
X13608821Y-24853455D01*
X13735218Y-24897684D01*
X13735221Y-24897684D01*
X13735226Y-24897686D01*
X13737068Y-24897858D01*
X13738344Y-24898366D01*
X13740836Y-24898911D01*
X13743147Y-24898579D01*
X13772247Y-24911868D01*
X13801976Y-24923708D01*
X13803819Y-24926287D01*
X13806703Y-24927604D01*
X13823998Y-24954516D01*
X13842607Y-24980549D01*
X13843277Y-24984515D01*
X13844477Y-24986382D01*
X13849500Y-25021317D01*
X13849500Y-25263466D01*
X13829815Y-25330505D01*
X13781796Y-25373950D01*
X13736656Y-25396950D01*
X13646954Y-25486652D01*
X13646951Y-25486657D01*
X13589352Y-25599698D01*
X13574500Y-25693475D01*
X13574500Y-26306517D01*
X13584271Y-26368209D01*
X13589354Y-26400304D01*
X13646950Y-26513342D01*
X13646952Y-26513344D01*
X13646954Y-26513347D01*
X13740887Y-26607280D01*
X13774372Y-26668603D01*
X13769388Y-26738295D01*
X13727516Y-26794228D01*
X13662052Y-26818645D01*
X13653206Y-26818961D01*
X13570603Y-26818961D01*
X13570603Y-29318961D01*
X13818431Y-29318961D01*
X13818447Y-29318960D01*
X13877975Y-29312559D01*
X13877982Y-29312557D01*
X14012689Y-29262315D01*
X14012696Y-29262311D01*
X14127790Y-29176151D01*
X14127793Y-29176148D01*
X14207893Y-29069150D01*
X14263826Y-29027279D01*
X14307159Y-29019461D01*
X15060353Y-29019461D01*
X15060354Y-29019460D01*
X15075171Y-29016513D01*
X15118832Y-29007829D01*
X15118834Y-29007828D01*
X15156711Y-28982519D01*
X15223388Y-28961640D01*
X15290768Y-28980124D01*
X15294495Y-28982519D01*
X15332371Y-29007828D01*
X15332373Y-29007829D01*
X15390850Y-29019460D01*
X15390853Y-29019461D01*
X15390855Y-29019461D01*
X16330353Y-29019461D01*
X16330354Y-29019460D01*
X16345171Y-29016513D01*
X16388832Y-29007829D01*
X16388834Y-29007828D01*
X16426711Y-28982519D01*
X16493388Y-28961640D01*
X16560768Y-28980124D01*
X16564495Y-28982519D01*
X16602371Y-29007828D01*
X16602373Y-29007829D01*
X16660850Y-29019460D01*
X16660853Y-29019461D01*
X16660855Y-29019461D01*
X17600353Y-29019461D01*
X17600354Y-29019460D01*
X17615171Y-29016513D01*
X17658832Y-29007829D01*
X17658834Y-29007828D01*
X17696711Y-28982519D01*
X17763388Y-28961640D01*
X17830768Y-28980124D01*
X17834495Y-28982519D01*
X17872371Y-29007828D01*
X17872373Y-29007829D01*
X17930850Y-29019460D01*
X17930853Y-29019461D01*
X17930855Y-29019461D01*
X18870353Y-29019461D01*
X18870354Y-29019460D01*
X18885171Y-29016513D01*
X18928832Y-29007829D01*
X18928834Y-29007828D01*
X18966711Y-28982519D01*
X19033388Y-28961640D01*
X19100768Y-28980124D01*
X19104495Y-28982519D01*
X19142371Y-29007828D01*
X19142373Y-29007829D01*
X19200850Y-29019460D01*
X19200853Y-29019461D01*
X19200855Y-29019461D01*
X20140353Y-29019461D01*
X20140354Y-29019460D01*
X20155171Y-29016513D01*
X20198832Y-29007829D01*
X20198834Y-29007828D01*
X20236711Y-28982519D01*
X20303388Y-28961640D01*
X20370768Y-28980124D01*
X20374495Y-28982519D01*
X20412371Y-29007828D01*
X20412373Y-29007829D01*
X20470850Y-29019460D01*
X20470853Y-29019461D01*
X20470855Y-29019461D01*
X21410353Y-29019461D01*
X21410354Y-29019460D01*
X21425171Y-29016513D01*
X21468832Y-29007829D01*
X21468834Y-29007828D01*
X21506711Y-28982519D01*
X21573388Y-28961640D01*
X21640768Y-28980124D01*
X21644495Y-28982519D01*
X21682371Y-29007828D01*
X21682373Y-29007829D01*
X21740850Y-29019460D01*
X21740853Y-29019461D01*
X21740855Y-29019461D01*
X22680353Y-29019461D01*
X22680354Y-29019460D01*
X22695171Y-29016513D01*
X22738832Y-29007829D01*
X22738834Y-29007828D01*
X22776711Y-28982519D01*
X22843388Y-28961640D01*
X22910768Y-28980124D01*
X22914495Y-28982519D01*
X22952371Y-29007828D01*
X22952373Y-29007829D01*
X23010850Y-29019460D01*
X23010853Y-29019461D01*
X23010855Y-29019461D01*
X23950353Y-29019461D01*
X23950354Y-29019460D01*
X23965171Y-29016513D01*
X24008832Y-29007829D01*
X24008834Y-29007828D01*
X24046711Y-28982519D01*
X24113388Y-28961640D01*
X24180768Y-28980124D01*
X24184495Y-28982519D01*
X24222371Y-29007828D01*
X24222373Y-29007829D01*
X24280850Y-29019460D01*
X24280853Y-29019461D01*
X24280855Y-29019461D01*
X25220353Y-29019461D01*
X25220354Y-29019460D01*
X25235171Y-29016513D01*
X25278832Y-29007829D01*
X25278834Y-29007828D01*
X25316711Y-28982519D01*
X25383388Y-28961640D01*
X25450768Y-28980124D01*
X25454495Y-28982519D01*
X25492371Y-29007828D01*
X25492373Y-29007829D01*
X25550850Y-29019460D01*
X25550853Y-29019461D01*
X25550855Y-29019461D01*
X26490353Y-29019461D01*
X26490354Y-29019460D01*
X26505171Y-29016513D01*
X26548832Y-29007829D01*
X26548834Y-29007828D01*
X26586711Y-28982519D01*
X26653388Y-28961640D01*
X26720768Y-28980124D01*
X26724495Y-28982519D01*
X26762371Y-29007828D01*
X26762373Y-29007829D01*
X26820850Y-29019460D01*
X26820853Y-29019461D01*
X26820855Y-29019461D01*
X27760353Y-29019461D01*
X27760354Y-29019460D01*
X27775171Y-29016513D01*
X27818832Y-29007829D01*
X27818834Y-29007828D01*
X27856711Y-28982519D01*
X27923388Y-28961640D01*
X27990768Y-28980124D01*
X27994495Y-28982519D01*
X28032371Y-29007828D01*
X28032373Y-29007829D01*
X28090850Y-29019460D01*
X28090853Y-29019461D01*
X28090855Y-29019461D01*
X29030353Y-29019461D01*
X29030354Y-29019460D01*
X29045171Y-29016513D01*
X29088832Y-29007829D01*
X29088834Y-29007828D01*
X29126711Y-28982519D01*
X29193388Y-28961640D01*
X29260768Y-28980124D01*
X29264495Y-28982519D01*
X29302371Y-29007828D01*
X29302373Y-29007829D01*
X29360850Y-29019460D01*
X29360853Y-29019461D01*
X30106636Y-29019461D01*
X30173675Y-29039146D01*
X30219430Y-29091950D01*
X30229374Y-29161108D01*
X30200349Y-29224664D01*
X30194317Y-29231142D01*
X30186051Y-29239407D01*
X30141735Y-29305730D01*
X30141734Y-29305731D01*
X30130103Y-29364208D01*
X30130103Y-30303713D01*
X30141734Y-30362190D01*
X30141735Y-30362191D01*
X30167045Y-30400070D01*
X30187923Y-30466748D01*
X30169438Y-30534128D01*
X30167045Y-30537852D01*
X30141735Y-30575730D01*
X30141734Y-30575731D01*
X30130103Y-30634208D01*
X30130103Y-31573713D01*
X30141734Y-31632190D01*
X30141735Y-31632191D01*
X30167045Y-31670070D01*
X30187923Y-31736748D01*
X30169438Y-31804128D01*
X30167045Y-31807852D01*
X30141735Y-31845730D01*
X30141734Y-31845731D01*
X30130103Y-31904208D01*
X30130103Y-32843713D01*
X30141734Y-32902190D01*
X30141735Y-32902191D01*
X30167045Y-32940070D01*
X30187923Y-33006748D01*
X30169438Y-33074128D01*
X30167045Y-33077852D01*
X30141735Y-33115730D01*
X30141734Y-33115731D01*
X30130103Y-33174208D01*
X30130103Y-34113713D01*
X30141734Y-34172190D01*
X30141735Y-34172191D01*
X30167045Y-34210070D01*
X30187923Y-34276748D01*
X30182624Y-34314889D01*
X30177283Y-34332530D01*
X30141736Y-34385730D01*
X30130103Y-34444213D01*
X30130103Y-34488380D01*
X30124784Y-34505951D01*
X30115297Y-34520444D01*
X30110418Y-34537062D01*
X30096562Y-34549067D01*
X30086520Y-34564411D01*
X30070703Y-34571475D01*
X30057614Y-34582817D01*
X30038199Y-34589797D01*
X29960400Y-34610643D01*
X29960398Y-34610643D01*
X29960398Y-34610644D01*
X29886177Y-34653496D01*
X29886174Y-34653498D01*
X28239537Y-36300135D01*
X28239533Y-36300141D01*
X28196681Y-36374361D01*
X28196682Y-36374362D01*
X28174500Y-36457147D01*
X28174500Y-37066324D01*
X28154815Y-37133363D01*
X28138181Y-37154005D01*
X28099502Y-37192683D01*
X28099500Y-37192686D01*
X28033608Y-37306812D01*
X27999500Y-37434108D01*
X27999500Y-37565891D01*
X28033608Y-37693187D01*
X28045869Y-37714423D01*
X28099500Y-37807314D01*
X28192686Y-37900500D01*
X28306814Y-37966392D01*
X28434108Y-38000500D01*
X28434110Y-38000500D01*
X28565890Y-38000500D01*
X28565892Y-38000500D01*
X28693186Y-37966392D01*
X28807314Y-37900500D01*
X28900500Y-37807314D01*
X28966392Y-37693186D01*
X29000500Y-37565892D01*
X29000500Y-37434108D01*
X28966392Y-37306814D01*
X28900500Y-37192686D01*
X28861819Y-37154005D01*
X28828334Y-37092682D01*
X28825500Y-37066324D01*
X28825500Y-36686189D01*
X28845185Y-36619150D01*
X28861819Y-36598508D01*
X29360827Y-36099500D01*
X29939328Y-35520998D01*
X30000649Y-35487515D01*
X30070341Y-35492499D01*
X30126274Y-35534371D01*
X30150691Y-35599835D01*
X30143592Y-35643646D01*
X30144118Y-35643751D01*
X30130103Y-35714208D01*
X30130103Y-36653713D01*
X30141734Y-36712190D01*
X30141735Y-36712191D01*
X30167045Y-36750070D01*
X30187923Y-36816748D01*
X30169438Y-36884128D01*
X30167045Y-36887852D01*
X30141735Y-36925730D01*
X30141734Y-36925731D01*
X30130103Y-36984208D01*
X30130103Y-37923713D01*
X30141734Y-37982190D01*
X30141735Y-37982191D01*
X30167045Y-38020070D01*
X30187923Y-38086748D01*
X30169438Y-38154128D01*
X30167045Y-38157852D01*
X30141735Y-38195730D01*
X30141734Y-38195731D01*
X30130103Y-38254208D01*
X30130103Y-39193713D01*
X30141734Y-39252190D01*
X30141735Y-39252191D01*
X30167045Y-39290070D01*
X30187923Y-39356748D01*
X30169438Y-39424128D01*
X30167045Y-39427852D01*
X30141735Y-39465730D01*
X30141734Y-39465731D01*
X30130103Y-39524208D01*
X30130103Y-40463713D01*
X30141734Y-40522190D01*
X30141735Y-40522191D01*
X30167045Y-40560070D01*
X30187923Y-40626748D01*
X30169438Y-40694128D01*
X30167045Y-40697852D01*
X30141735Y-40735730D01*
X30141734Y-40735731D01*
X30130103Y-40794208D01*
X30130103Y-41733713D01*
X30141734Y-41792190D01*
X30141735Y-41792191D01*
X30167045Y-41830070D01*
X30187923Y-41896748D01*
X30169438Y-41964128D01*
X30167045Y-41967852D01*
X30141735Y-42005730D01*
X30141734Y-42005731D01*
X30130103Y-42064208D01*
X30130103Y-43003713D01*
X30141734Y-43062190D01*
X30141735Y-43062191D01*
X30167045Y-43100070D01*
X30187923Y-43166748D01*
X30169438Y-43234128D01*
X30167045Y-43237852D01*
X30141735Y-43275730D01*
X30141734Y-43275731D01*
X30130103Y-43334208D01*
X30130103Y-44273713D01*
X30141734Y-44332190D01*
X30141735Y-44332191D01*
X30186051Y-44398514D01*
X30194317Y-44406780D01*
X30227802Y-44468103D01*
X30222818Y-44537795D01*
X30180946Y-44593728D01*
X30115482Y-44618145D01*
X30106636Y-44618461D01*
X29360850Y-44618461D01*
X29302373Y-44630092D01*
X29302372Y-44630093D01*
X29264494Y-44655403D01*
X29197816Y-44676281D01*
X29130436Y-44657796D01*
X29126712Y-44655403D01*
X29088833Y-44630093D01*
X29088832Y-44630092D01*
X29030355Y-44618461D01*
X29030351Y-44618461D01*
X28090855Y-44618461D01*
X28090850Y-44618461D01*
X28032373Y-44630092D01*
X28032372Y-44630093D01*
X27994494Y-44655403D01*
X27927816Y-44676281D01*
X27860436Y-44657796D01*
X27856712Y-44655403D01*
X27818833Y-44630093D01*
X27818832Y-44630092D01*
X27760355Y-44618461D01*
X27760351Y-44618461D01*
X26820855Y-44618461D01*
X26820850Y-44618461D01*
X26762373Y-44630092D01*
X26762372Y-44630093D01*
X26724494Y-44655403D01*
X26657816Y-44676281D01*
X26590436Y-44657796D01*
X26586712Y-44655403D01*
X26548833Y-44630093D01*
X26548832Y-44630092D01*
X26490355Y-44618461D01*
X26490351Y-44618461D01*
X25550855Y-44618461D01*
X25550850Y-44618461D01*
X25492373Y-44630092D01*
X25492372Y-44630093D01*
X25454494Y-44655403D01*
X25387816Y-44676281D01*
X25320436Y-44657796D01*
X25316712Y-44655403D01*
X25278833Y-44630093D01*
X25278832Y-44630092D01*
X25220355Y-44618461D01*
X25220351Y-44618461D01*
X24280855Y-44618461D01*
X24280850Y-44618461D01*
X24222373Y-44630092D01*
X24222372Y-44630093D01*
X24184494Y-44655403D01*
X24117816Y-44676281D01*
X24050436Y-44657796D01*
X24046712Y-44655403D01*
X24008833Y-44630093D01*
X24008832Y-44630092D01*
X23950355Y-44618461D01*
X23950351Y-44618461D01*
X23010855Y-44618461D01*
X23010850Y-44618461D01*
X22952373Y-44630092D01*
X22952372Y-44630093D01*
X22914494Y-44655403D01*
X22847816Y-44676281D01*
X22780436Y-44657796D01*
X22776712Y-44655403D01*
X22738833Y-44630093D01*
X22738832Y-44630092D01*
X22680355Y-44618461D01*
X22680351Y-44618461D01*
X21740855Y-44618461D01*
X21740850Y-44618461D01*
X21682373Y-44630092D01*
X21682372Y-44630093D01*
X21644494Y-44655403D01*
X21577816Y-44676281D01*
X21510436Y-44657796D01*
X21506712Y-44655403D01*
X21468833Y-44630093D01*
X21468832Y-44630092D01*
X21410355Y-44618461D01*
X21410351Y-44618461D01*
X20470855Y-44618461D01*
X20470850Y-44618461D01*
X20412373Y-44630092D01*
X20412372Y-44630093D01*
X20374494Y-44655403D01*
X20307816Y-44676281D01*
X20240436Y-44657796D01*
X20236712Y-44655403D01*
X20198833Y-44630093D01*
X20198832Y-44630092D01*
X20140355Y-44618461D01*
X20140351Y-44618461D01*
X19200855Y-44618461D01*
X19200850Y-44618461D01*
X19142373Y-44630092D01*
X19142372Y-44630093D01*
X19104494Y-44655403D01*
X19037816Y-44676281D01*
X18970436Y-44657796D01*
X18966712Y-44655403D01*
X18928833Y-44630093D01*
X18928832Y-44630092D01*
X18870355Y-44618461D01*
X18870351Y-44618461D01*
X18146815Y-44618461D01*
X18079776Y-44598776D01*
X18034021Y-44545972D01*
X18024077Y-44476814D01*
X18039426Y-44432463D01*
X18100276Y-44327070D01*
X18134384Y-44199776D01*
X18134384Y-44067992D01*
X18111233Y-43981590D01*
X18112896Y-43911744D01*
X18152058Y-43853881D01*
X18216287Y-43826377D01*
X18231008Y-43825500D01*
X22042851Y-43825500D01*
X22042853Y-43825500D01*
X22125639Y-43803318D01*
X22199862Y-43760465D01*
X22656566Y-43303761D01*
X22717889Y-43270276D01*
X22744247Y-43267442D01*
X23508266Y-43267442D01*
X23575305Y-43287127D01*
X23595947Y-43303761D01*
X23634628Y-43342442D01*
X23748756Y-43408334D01*
X23876050Y-43442442D01*
X23876052Y-43442442D01*
X24007832Y-43442442D01*
X24007834Y-43442442D01*
X24135128Y-43408334D01*
X24249256Y-43342442D01*
X24342442Y-43249256D01*
X24408334Y-43135128D01*
X24442442Y-43007834D01*
X24442442Y-42876050D01*
X24408334Y-42748756D01*
X24342442Y-42634628D01*
X24249256Y-42541442D01*
X24192192Y-42508496D01*
X24135129Y-42475550D01*
X24071481Y-42458496D01*
X24007834Y-42441442D01*
X23876050Y-42441442D01*
X23748754Y-42475550D01*
X23634628Y-42541442D01*
X23634625Y-42541444D01*
X23595947Y-42580123D01*
X23534624Y-42613608D01*
X23508266Y-42616442D01*
X22515205Y-42616442D01*
X22432417Y-42638624D01*
X22358196Y-42681477D01*
X22358193Y-42681479D01*
X21901492Y-43138181D01*
X21840169Y-43171666D01*
X21813811Y-43174500D01*
X17434349Y-43174500D01*
X17434333Y-43174499D01*
X17426737Y-43174499D01*
X17341031Y-43174499D01*
X17314225Y-43181682D01*
X17258243Y-43196682D01*
X17258242Y-43196683D01*
X17184025Y-43239532D01*
X17184020Y-43239536D01*
X15841415Y-44582142D01*
X15780092Y-44615627D01*
X15753734Y-44618461D01*
X15390850Y-44618461D01*
X15332373Y-44630092D01*
X15332372Y-44630093D01*
X15294494Y-44655403D01*
X15276030Y-44661184D01*
X15259676Y-44671528D01*
X15243372Y-44671409D01*
X15227816Y-44676281D01*
X15209157Y-44671162D01*
X15189808Y-44671022D01*
X15163652Y-44658678D01*
X15160436Y-44657796D01*
X15157810Y-44656128D01*
X15157196Y-44655727D01*
X15118834Y-44630094D01*
X15117545Y-44629837D01*
X15106707Y-44622761D01*
X15091207Y-44604610D01*
X15072625Y-44589627D01*
X15068933Y-44578524D01*
X15061336Y-44569628D01*
X15058109Y-44545977D01*
X15050578Y-44523327D01*
X15050500Y-44518934D01*
X15050500Y-43449930D01*
X15070185Y-43382891D01*
X15076128Y-43374438D01*
X15080512Y-43368723D01*
X15080520Y-43368716D01*
X15159577Y-43231784D01*
X15200500Y-43079057D01*
X15200500Y-43079044D01*
X15201441Y-43071901D01*
X15229707Y-43008003D01*
X15236688Y-43000414D01*
X16928466Y-41308635D01*
X16954149Y-41288930D01*
X16957780Y-41286833D01*
X16968716Y-41280520D01*
X17080520Y-41168716D01*
X17159577Y-41031784D01*
X17200500Y-40879057D01*
X17200500Y-40720943D01*
X17159577Y-40568216D01*
X17134063Y-40524024D01*
X17080524Y-40431290D01*
X17080518Y-40431282D01*
X16968717Y-40319481D01*
X16968709Y-40319475D01*
X16831790Y-40240426D01*
X16831786Y-40240424D01*
X16831784Y-40240423D01*
X16679057Y-40199500D01*
X16520943Y-40199500D01*
X16368216Y-40240423D01*
X16368209Y-40240426D01*
X16231290Y-40319475D01*
X16231282Y-40319481D01*
X16119481Y-40431282D01*
X16119475Y-40431290D01*
X16040426Y-40568209D01*
X16040423Y-40568216D01*
X15999500Y-40720943D01*
X15999500Y-40879055D01*
X16000561Y-40887113D01*
X15998532Y-40887380D01*
X15997130Y-40946272D01*
X15966700Y-40996195D01*
X14599597Y-42363299D01*
X14538274Y-42396784D01*
X14528107Y-42398556D01*
X14520949Y-42399498D01*
X14368216Y-42440423D01*
X14368209Y-42440426D01*
X14231290Y-42519475D01*
X14231282Y-42519481D01*
X14119481Y-42631282D01*
X14119475Y-42631290D01*
X14040426Y-42768209D01*
X14040423Y-42768216D01*
X13999500Y-42920943D01*
X13999500Y-43079057D01*
X14038480Y-43224530D01*
X14040423Y-43231783D01*
X14040426Y-43231790D01*
X14119473Y-43368706D01*
X14119477Y-43368712D01*
X14119480Y-43368716D01*
X14119482Y-43368718D01*
X14123872Y-43374438D01*
X14149069Y-43439606D01*
X14149500Y-43449930D01*
X14149500Y-44248040D01*
X14129815Y-44315079D01*
X14077011Y-44360834D01*
X14007853Y-44370778D01*
X13982167Y-44364222D01*
X13877983Y-44325364D01*
X13877975Y-44325362D01*
X13818447Y-44318961D01*
X13570603Y-44318961D01*
X13570603Y-46791628D01*
X13724556Y-46818961D01*
X13818431Y-46818961D01*
X13818447Y-46818960D01*
X13877975Y-46812559D01*
X13877982Y-46812557D01*
X14012689Y-46762315D01*
X14012692Y-46762313D01*
X14126188Y-46677350D01*
X14191652Y-46652932D01*
X14259926Y-46667783D01*
X14309331Y-46717188D01*
X14324500Y-46776616D01*
X14324500Y-47322389D01*
X14304815Y-47389428D01*
X14288181Y-47410070D01*
X14277827Y-47420424D01*
X14216504Y-47453909D01*
X14146812Y-47448925D01*
X14090879Y-47407053D01*
X14084608Y-47397841D01*
X14022573Y-47297268D01*
X13902732Y-47177427D01*
X13902728Y-47177424D01*
X13758492Y-47088457D01*
X13758481Y-47088452D01*
X13683136Y-47063485D01*
X13475000Y-47026534D01*
X13475000Y-50974999D01*
X13498308Y-50974999D01*
X13498322Y-50974998D01*
X13597607Y-50964855D01*
X13758481Y-50911547D01*
X13758492Y-50911542D01*
X13820403Y-50873355D01*
X13887795Y-50854914D01*
X13954459Y-50875836D01*
X13999228Y-50929478D01*
X14009500Y-50978893D01*
X14009500Y-51325500D01*
X13989815Y-51392539D01*
X13937011Y-51438294D01*
X13885500Y-51449500D01*
X13590247Y-51449500D01*
X13531770Y-51461131D01*
X13531769Y-51461132D01*
X13465447Y-51505447D01*
X13421132Y-51571769D01*
X13421131Y-51571770D01*
X13409500Y-51630247D01*
X13409500Y-53369752D01*
X13421131Y-53428229D01*
X13421132Y-53428230D01*
X13465447Y-53494552D01*
X13531769Y-53538867D01*
X13531770Y-53538868D01*
X13590247Y-53550499D01*
X13590250Y-53550500D01*
X13590252Y-53550500D01*
X15329750Y-53550500D01*
X15329751Y-53550499D01*
X15344568Y-53547552D01*
X15388229Y-53538868D01*
X15388229Y-53538867D01*
X15388231Y-53538867D01*
X15454552Y-53494552D01*
X15498867Y-53428231D01*
X15498867Y-53428229D01*
X15498868Y-53428229D01*
X15510499Y-53369752D01*
X15510500Y-53369750D01*
X15510500Y-53066048D01*
X15530185Y-52999009D01*
X15582989Y-52953254D01*
X15652147Y-52943310D01*
X15715703Y-52972335D01*
X15745938Y-53014264D01*
X15746694Y-53013879D01*
X15845375Y-53207550D01*
X15884728Y-53261716D01*
X16517037Y-52629408D01*
X16534075Y-52692993D01*
X16599901Y-52807007D01*
X16692993Y-52900099D01*
X16807007Y-52965925D01*
X16870590Y-52982962D01*
X16238282Y-53615269D01*
X16238282Y-53615270D01*
X16292449Y-53654624D01*
X16481782Y-53751095D01*
X16683870Y-53816757D01*
X16893754Y-53850000D01*
X17106246Y-53850000D01*
X17316127Y-53816757D01*
X17316130Y-53816757D01*
X17518217Y-53751095D01*
X17707554Y-53654622D01*
X17761716Y-53615270D01*
X17761717Y-53615270D01*
X17129408Y-52982962D01*
X17192993Y-52965925D01*
X17307007Y-52900099D01*
X17400099Y-52807007D01*
X17465925Y-52692993D01*
X17482962Y-52629408D01*
X18115270Y-53261717D01*
X18115270Y-53261716D01*
X18154622Y-53207554D01*
X18251095Y-53018217D01*
X18308343Y-52842026D01*
X18347780Y-52784351D01*
X18412139Y-52757152D01*
X18480985Y-52769066D01*
X18532461Y-52816310D01*
X18540833Y-52832887D01*
X18568758Y-52900304D01*
X18595939Y-52965925D01*
X18609059Y-52997598D01*
X18654796Y-53066048D01*
X18724024Y-53169657D01*
X18870342Y-53315975D01*
X18870345Y-53315977D01*
X19042402Y-53430941D01*
X19233580Y-53510130D01*
X19378052Y-53538867D01*
X19436530Y-53550499D01*
X19436534Y-53550500D01*
X19436535Y-53550500D01*
X19643466Y-53550500D01*
X19643467Y-53550499D01*
X19846420Y-53510130D01*
X20037598Y-53430941D01*
X20209655Y-53315977D01*
X20355977Y-53169655D01*
X20470941Y-52997598D01*
X20550130Y-52806420D01*
X20590500Y-52603465D01*
X20590500Y-52396535D01*
X20550130Y-52193580D01*
X20510550Y-52098028D01*
X20503082Y-52028560D01*
X20534357Y-51966080D01*
X20537431Y-51962895D01*
X21096871Y-51403455D01*
X21542820Y-50957505D01*
X21604142Y-50924022D01*
X21673834Y-50929006D01*
X21729767Y-50970878D01*
X21754184Y-51036342D01*
X21754500Y-51045188D01*
X21754500Y-51414919D01*
X21734815Y-51481958D01*
X21682011Y-51527713D01*
X21677953Y-51529480D01*
X21582403Y-51569057D01*
X21410342Y-51684024D01*
X21264024Y-51830342D01*
X21149058Y-52002403D01*
X21069870Y-52193579D01*
X21069868Y-52193587D01*
X21029500Y-52396530D01*
X21029500Y-52603469D01*
X21069868Y-52806412D01*
X21069870Y-52806420D01*
X21135939Y-52965925D01*
X21149059Y-52997598D01*
X21194796Y-53066048D01*
X21264024Y-53169657D01*
X21410342Y-53315975D01*
X21410345Y-53315977D01*
X21582402Y-53430941D01*
X21773580Y-53510130D01*
X21918052Y-53538867D01*
X21976530Y-53550499D01*
X21976534Y-53550500D01*
X21976535Y-53550500D01*
X22183466Y-53550500D01*
X22183467Y-53550499D01*
X22386420Y-53510130D01*
X22577598Y-53430941D01*
X22749655Y-53315977D01*
X22895977Y-53169655D01*
X23010941Y-52997598D01*
X23090130Y-52806420D01*
X23130500Y-52603465D01*
X23130500Y-52396535D01*
X23090130Y-52193580D01*
X23010941Y-52002402D01*
X22895977Y-51830345D01*
X22895975Y-51830342D01*
X22749657Y-51684024D01*
X22577596Y-51569057D01*
X22482047Y-51529480D01*
X22427644Y-51485639D01*
X22405579Y-51419345D01*
X22405500Y-51414919D01*
X22405500Y-46643461D01*
X22425185Y-46576422D01*
X22477989Y-46530667D01*
X22529500Y-46519461D01*
X22680353Y-46519461D01*
X22680354Y-46519460D01*
X22697514Y-46516047D01*
X22738832Y-46507829D01*
X22738834Y-46507828D01*
X22776711Y-46482519D01*
X22843388Y-46461640D01*
X22882515Y-46467241D01*
X22899605Y-46472570D01*
X22952372Y-46507828D01*
X23010855Y-46519461D01*
X23049988Y-46519461D01*
X23068015Y-46525082D01*
X23082009Y-46534408D01*
X23098142Y-46539146D01*
X23110477Y-46553381D01*
X23126156Y-46563831D01*
X23132886Y-46579243D01*
X23143897Y-46591950D01*
X23149318Y-46616870D01*
X23154118Y-46627861D01*
X23153094Y-46634227D01*
X23155103Y-46643461D01*
X23155103Y-51317750D01*
X23155103Y-51403456D01*
X23162166Y-51429815D01*
X23177285Y-51486243D01*
X23188485Y-51505641D01*
X23220138Y-51560465D01*
X23220140Y-51560467D01*
X23622568Y-51962895D01*
X23656053Y-52024218D01*
X23651069Y-52093910D01*
X23649448Y-52098028D01*
X23609871Y-52193575D01*
X23609868Y-52193587D01*
X23569500Y-52396530D01*
X23569500Y-52603469D01*
X23609868Y-52806412D01*
X23609870Y-52806420D01*
X23675939Y-52965925D01*
X23689059Y-52997598D01*
X23734796Y-53066048D01*
X23804024Y-53169657D01*
X23950342Y-53315975D01*
X23950345Y-53315977D01*
X24122402Y-53430941D01*
X24313580Y-53510130D01*
X24458052Y-53538867D01*
X24516530Y-53550499D01*
X24516534Y-53550500D01*
X24516535Y-53550500D01*
X24723466Y-53550500D01*
X24723467Y-53550499D01*
X24926420Y-53510130D01*
X25117598Y-53430941D01*
X25289655Y-53315977D01*
X25435977Y-53169655D01*
X25550941Y-52997598D01*
X25630130Y-52806420D01*
X25670500Y-52603465D01*
X25670500Y-52396535D01*
X25630130Y-52193580D01*
X25550941Y-52002402D01*
X25435977Y-51830345D01*
X25435975Y-51830342D01*
X25289657Y-51684024D01*
X25203626Y-51626541D01*
X25117598Y-51569059D01*
X25117593Y-51569057D01*
X24926420Y-51489870D01*
X24926412Y-51489868D01*
X24723469Y-51449500D01*
X24723465Y-51449500D01*
X24516535Y-51449500D01*
X24516530Y-51449500D01*
X24313587Y-51489868D01*
X24313575Y-51489871D01*
X24218028Y-51529448D01*
X24148559Y-51536917D01*
X24086080Y-51505641D01*
X24082895Y-51502568D01*
X23842422Y-51262095D01*
X23808937Y-51200772D01*
X23806103Y-51174414D01*
X23806103Y-46643461D01*
X23825788Y-46576422D01*
X23878592Y-46530667D01*
X23893191Y-46525082D01*
X23911218Y-46519461D01*
X23950351Y-46519461D01*
X24008834Y-46507828D01*
X24061600Y-46472570D01*
X24078691Y-46467241D01*
X24096445Y-46466945D01*
X24113388Y-46461640D01*
X24130649Y-46466375D01*
X24148551Y-46466077D01*
X24163647Y-46475427D01*
X24180768Y-46480124D01*
X24184495Y-46482519D01*
X24222371Y-46507828D01*
X24222373Y-46507829D01*
X24280850Y-46519460D01*
X24280853Y-46519461D01*
X24280855Y-46519461D01*
X24301103Y-46519461D01*
X24368142Y-46539146D01*
X24413897Y-46591950D01*
X24425103Y-46643461D01*
X24425103Y-50047750D01*
X24425103Y-50133456D01*
X24436194Y-50174849D01*
X24447285Y-50216243D01*
X24458454Y-50235587D01*
X24490138Y-50290465D01*
X24490140Y-50290467D01*
X26162568Y-51962895D01*
X26196053Y-52024218D01*
X26191069Y-52093910D01*
X26189448Y-52098028D01*
X26149871Y-52193575D01*
X26149868Y-52193587D01*
X26109500Y-52396530D01*
X26109500Y-52603469D01*
X26149868Y-52806412D01*
X26149870Y-52806420D01*
X26215939Y-52965925D01*
X26229059Y-52997598D01*
X26274796Y-53066048D01*
X26344024Y-53169657D01*
X26490342Y-53315975D01*
X26490345Y-53315977D01*
X26662402Y-53430941D01*
X26853580Y-53510130D01*
X26998052Y-53538867D01*
X27056530Y-53550499D01*
X27056534Y-53550500D01*
X27056535Y-53550500D01*
X27263466Y-53550500D01*
X27263467Y-53550499D01*
X27466420Y-53510130D01*
X27657598Y-53430941D01*
X27829655Y-53315977D01*
X27975977Y-53169655D01*
X28090941Y-52997598D01*
X28170130Y-52806420D01*
X28210500Y-52603465D01*
X28210500Y-52396535D01*
X28170130Y-52193580D01*
X28090941Y-52002402D01*
X27975977Y-51830345D01*
X27975975Y-51830342D01*
X27829657Y-51684024D01*
X27743626Y-51626541D01*
X27657598Y-51569059D01*
X27657593Y-51569057D01*
X27466420Y-51489870D01*
X27466412Y-51489868D01*
X27263469Y-51449500D01*
X27263465Y-51449500D01*
X27056535Y-51449500D01*
X27056530Y-51449500D01*
X26853587Y-51489868D01*
X26853575Y-51489871D01*
X26758028Y-51529448D01*
X26688559Y-51536917D01*
X26626080Y-51505641D01*
X26622895Y-51502568D01*
X25112422Y-49992095D01*
X25078937Y-49930772D01*
X25076103Y-49904414D01*
X25076103Y-46643461D01*
X25095788Y-46576422D01*
X25148592Y-46530667D01*
X25163191Y-46525082D01*
X25181218Y-46519461D01*
X25220351Y-46519461D01*
X25278834Y-46507828D01*
X25331600Y-46472570D01*
X25348691Y-46467241D01*
X25366445Y-46466945D01*
X25383388Y-46461640D01*
X25400649Y-46466375D01*
X25418551Y-46466077D01*
X25433647Y-46475427D01*
X25450768Y-46480124D01*
X25454495Y-46482519D01*
X25492371Y-46507828D01*
X25492373Y-46507829D01*
X25550850Y-46519460D01*
X25550853Y-46519461D01*
X25550855Y-46519461D01*
X25571103Y-46519461D01*
X25638142Y-46539146D01*
X25683897Y-46591950D01*
X25695103Y-46643461D01*
X25695103Y-48777750D01*
X25695103Y-48863456D01*
X25701757Y-48888289D01*
X25717285Y-48946243D01*
X25730995Y-48969988D01*
X25760138Y-49020465D01*
X25760140Y-49020467D01*
X28702568Y-51962895D01*
X28736053Y-52024218D01*
X28731069Y-52093910D01*
X28729448Y-52098028D01*
X28689871Y-52193575D01*
X28689868Y-52193587D01*
X28649500Y-52396530D01*
X28649500Y-52603469D01*
X28689868Y-52806412D01*
X28689870Y-52806420D01*
X28755939Y-52965925D01*
X28769059Y-52997598D01*
X28814796Y-53066048D01*
X28884024Y-53169657D01*
X29030342Y-53315975D01*
X29030345Y-53315977D01*
X29202402Y-53430941D01*
X29393580Y-53510130D01*
X29538052Y-53538867D01*
X29596530Y-53550499D01*
X29596534Y-53550500D01*
X29596535Y-53550500D01*
X29803466Y-53550500D01*
X29803467Y-53550499D01*
X30006420Y-53510130D01*
X30197598Y-53430941D01*
X30369655Y-53315977D01*
X30515977Y-53169655D01*
X30630941Y-52997598D01*
X30710130Y-52806420D01*
X30750500Y-52603465D01*
X30750500Y-52396535D01*
X30710130Y-52193580D01*
X30630941Y-52002402D01*
X30515977Y-51830345D01*
X30515975Y-51830342D01*
X30369657Y-51684024D01*
X30283626Y-51626541D01*
X30197598Y-51569059D01*
X30197593Y-51569057D01*
X30006420Y-51489870D01*
X30006412Y-51489868D01*
X29803469Y-51449500D01*
X29803465Y-51449500D01*
X29596535Y-51449500D01*
X29596530Y-51449500D01*
X29393587Y-51489868D01*
X29393575Y-51489871D01*
X29298028Y-51529448D01*
X29228559Y-51536917D01*
X29166080Y-51505641D01*
X29162895Y-51502568D01*
X27671019Y-50010692D01*
X27662238Y-49994612D01*
X27649386Y-49981548D01*
X27645839Y-49964579D01*
X27637534Y-49949369D01*
X27638840Y-49931093D01*
X27635092Y-49913156D01*
X27641281Y-49896966D01*
X27642518Y-49879677D01*
X27653500Y-49865007D01*
X27660043Y-49847893D01*
X27678426Y-49831710D01*
X27684390Y-49823744D01*
X27685202Y-49823141D01*
X27690741Y-49819064D01*
X27766197Y-49775500D01*
X27811509Y-49730187D01*
X27819061Y-49724630D01*
X27843436Y-49715764D01*
X27866201Y-49703334D01*
X27882402Y-49701592D01*
X27884723Y-49700748D01*
X27886505Y-49701150D01*
X27892559Y-49700500D01*
X33900495Y-49700500D01*
X33967534Y-49720185D01*
X34013289Y-49772989D01*
X34023233Y-49842147D01*
X34020270Y-49856591D01*
X33999500Y-49934108D01*
X33999500Y-50065892D01*
X34026253Y-50165739D01*
X34024591Y-50235587D01*
X33994160Y-50285512D01*
X32777103Y-51502568D01*
X32715780Y-51536053D01*
X32646088Y-51531069D01*
X32641981Y-51529452D01*
X32546420Y-51489870D01*
X32546412Y-51489868D01*
X32343469Y-51449500D01*
X32343465Y-51449500D01*
X32136535Y-51449500D01*
X32136530Y-51449500D01*
X31933587Y-51489868D01*
X31933579Y-51489870D01*
X31742403Y-51569058D01*
X31570342Y-51684024D01*
X31424024Y-51830342D01*
X31309058Y-52002403D01*
X31229870Y-52193579D01*
X31229868Y-52193587D01*
X31189500Y-52396530D01*
X31189500Y-52603469D01*
X31229868Y-52806412D01*
X31229870Y-52806420D01*
X31295939Y-52965925D01*
X31309059Y-52997598D01*
X31354796Y-53066048D01*
X31424024Y-53169657D01*
X31570342Y-53315975D01*
X31570345Y-53315977D01*
X31742402Y-53430941D01*
X31933580Y-53510130D01*
X32078052Y-53538867D01*
X32136530Y-53550499D01*
X32136534Y-53550500D01*
X32136535Y-53550500D01*
X32343466Y-53550500D01*
X32343467Y-53550499D01*
X32546420Y-53510130D01*
X32737598Y-53430941D01*
X32909655Y-53315977D01*
X33055977Y-53169655D01*
X33170941Y-52997598D01*
X33250130Y-52806420D01*
X33290500Y-52603465D01*
X33290500Y-52396535D01*
X33250130Y-52193580D01*
X33210549Y-52098025D01*
X33203081Y-52028559D01*
X33234355Y-51966080D01*
X33237375Y-51962950D01*
X34699859Y-50500466D01*
X34699862Y-50500465D01*
X34760465Y-50439862D01*
X34762995Y-50435478D01*
X34772031Y-50426217D01*
X34780520Y-50421444D01*
X34798796Y-50405417D01*
X34807314Y-50400500D01*
X34900500Y-50307314D01*
X34940625Y-50237814D01*
X34991190Y-50189601D01*
X35059797Y-50176377D01*
X35124662Y-50202345D01*
X35135692Y-50212135D01*
X35881065Y-50957507D01*
X36623417Y-51699859D01*
X36623419Y-51699862D01*
X36684022Y-51760465D01*
X36721134Y-51781891D01*
X36730254Y-51787157D01*
X36730257Y-51787159D01*
X36739420Y-51792449D01*
X36758245Y-51803318D01*
X36841031Y-51825500D01*
X43325500Y-51825500D01*
X43392539Y-51845185D01*
X43438294Y-51897989D01*
X43449500Y-51949500D01*
X43449500Y-52369752D01*
X43461131Y-52428229D01*
X43461132Y-52428230D01*
X43505447Y-52494552D01*
X43571769Y-52538867D01*
X43571770Y-52538868D01*
X43630247Y-52550499D01*
X43630250Y-52550500D01*
X43630252Y-52550500D01*
X45369750Y-52550500D01*
X45369751Y-52550499D01*
X45384568Y-52547552D01*
X45428229Y-52538868D01*
X45428229Y-52538867D01*
X45428231Y-52538867D01*
X45494552Y-52494552D01*
X45538867Y-52428231D01*
X45538867Y-52428229D01*
X45538868Y-52428229D01*
X45550499Y-52369752D01*
X45550500Y-52369750D01*
X45550500Y-52320943D01*
X47199500Y-52320943D01*
X47199500Y-52479057D01*
X47215527Y-52538868D01*
X47240423Y-52631783D01*
X47240426Y-52631790D01*
X47319475Y-52768709D01*
X47319479Y-52768714D01*
X47319480Y-52768716D01*
X47431284Y-52880520D01*
X47431286Y-52880521D01*
X47431290Y-52880524D01*
X47540040Y-52943310D01*
X47568216Y-52959577D01*
X47720943Y-53000500D01*
X47720945Y-53000500D01*
X47879055Y-53000500D01*
X47879057Y-53000500D01*
X48031784Y-52959577D01*
X48168716Y-52880520D01*
X48168721Y-52880514D01*
X48174443Y-52876125D01*
X48239612Y-52850930D01*
X48249931Y-52850500D01*
X48737990Y-52850500D01*
X48805029Y-52870185D01*
X48848474Y-52918204D01*
X48896949Y-53013340D01*
X48896954Y-53013347D01*
X48986652Y-53103045D01*
X48986654Y-53103046D01*
X48986658Y-53103050D01*
X49099694Y-53160645D01*
X49099698Y-53160647D01*
X49193475Y-53175499D01*
X49193481Y-53175500D01*
X49656518Y-53175499D01*
X49750304Y-53160646D01*
X49863342Y-53103050D01*
X49953050Y-53013342D01*
X50010646Y-52900304D01*
X50010646Y-52900302D01*
X50010647Y-52900301D01*
X50025499Y-52806524D01*
X50025500Y-52806519D01*
X50025499Y-52193482D01*
X50010646Y-52099696D01*
X49953050Y-51986658D01*
X49953046Y-51986654D01*
X49953045Y-51986652D01*
X49863347Y-51896954D01*
X49863344Y-51896952D01*
X49863342Y-51896950D01*
X49786517Y-51857805D01*
X49750301Y-51839352D01*
X49656524Y-51824500D01*
X49193482Y-51824500D01*
X49112519Y-51837323D01*
X49099696Y-51839354D01*
X48986658Y-51896950D01*
X48986657Y-51896951D01*
X48986652Y-51896954D01*
X48970426Y-51913181D01*
X48909103Y-51946666D01*
X48882745Y-51949500D01*
X48249931Y-51949500D01*
X48182892Y-51929815D01*
X48174443Y-51923875D01*
X48168709Y-51919475D01*
X48031790Y-51840426D01*
X48031786Y-51840424D01*
X48031784Y-51840423D01*
X47879057Y-51799500D01*
X47720943Y-51799500D01*
X47568216Y-51840423D01*
X47568209Y-51840426D01*
X47431290Y-51919475D01*
X47431282Y-51919481D01*
X47319481Y-52031282D01*
X47319475Y-52031290D01*
X47240426Y-52168209D01*
X47240423Y-52168216D01*
X47199500Y-52320943D01*
X45550500Y-52320943D01*
X45550500Y-50630249D01*
X45550499Y-50630247D01*
X45538868Y-50571770D01*
X45538867Y-50571769D01*
X45494552Y-50505447D01*
X45428230Y-50461132D01*
X45428229Y-50461131D01*
X45369752Y-50449500D01*
X45369748Y-50449500D01*
X43630252Y-50449500D01*
X43630247Y-50449500D01*
X43571770Y-50461131D01*
X43571769Y-50461132D01*
X43505447Y-50505447D01*
X43461132Y-50571769D01*
X43461131Y-50571770D01*
X43449500Y-50630247D01*
X43449500Y-51050500D01*
X43429815Y-51117539D01*
X43377011Y-51163294D01*
X43325500Y-51174500D01*
X37070072Y-51174500D01*
X37003033Y-51154815D01*
X36982391Y-51138181D01*
X35131392Y-49287181D01*
X35097907Y-49225858D01*
X35102891Y-49156166D01*
X35144763Y-49100233D01*
X35210227Y-49075816D01*
X35219073Y-49075500D01*
X40313811Y-49075500D01*
X40380850Y-49095185D01*
X40401492Y-49111819D01*
X40510138Y-49220465D01*
X40584361Y-49263318D01*
X40667147Y-49285500D01*
X43414919Y-49285500D01*
X43481958Y-49305185D01*
X43527713Y-49357989D01*
X43529480Y-49362047D01*
X43569057Y-49457596D01*
X43684024Y-49629657D01*
X43830342Y-49775975D01*
X43830345Y-49775977D01*
X44002402Y-49890941D01*
X44193580Y-49970130D01*
X44396530Y-50010499D01*
X44396534Y-50010500D01*
X44396535Y-50010500D01*
X44603466Y-50010500D01*
X44603467Y-50010499D01*
X44806420Y-49970130D01*
X44997598Y-49890941D01*
X45169655Y-49775977D01*
X45315977Y-49629655D01*
X45430941Y-49457598D01*
X45510130Y-49266420D01*
X45550500Y-49063465D01*
X45550500Y-48856535D01*
X45510130Y-48653580D01*
X45430941Y-48462402D01*
X45315977Y-48290345D01*
X45315975Y-48290342D01*
X45169657Y-48144024D01*
X45002695Y-48032465D01*
X44997598Y-48029059D01*
X44977065Y-48020554D01*
X44806420Y-47949870D01*
X44806412Y-47949868D01*
X44603469Y-47909500D01*
X44603465Y-47909500D01*
X44396535Y-47909500D01*
X44396530Y-47909500D01*
X44193587Y-47949868D01*
X44193579Y-47949870D01*
X44002403Y-48029058D01*
X43830342Y-48144024D01*
X43684024Y-48290342D01*
X43569057Y-48462403D01*
X43529480Y-48557953D01*
X43485639Y-48612356D01*
X43419345Y-48634421D01*
X43414919Y-48634500D01*
X40896189Y-48634500D01*
X40829150Y-48614815D01*
X40808508Y-48598181D01*
X40699864Y-48489537D01*
X40699862Y-48489535D01*
X40662750Y-48468108D01*
X40625640Y-48446682D01*
X40584246Y-48435591D01*
X40542853Y-48424500D01*
X40542852Y-48424500D01*
X39412275Y-48424500D01*
X39345236Y-48404815D01*
X39299481Y-48352011D01*
X39289537Y-48282853D01*
X39318562Y-48219297D01*
X39364822Y-48185939D01*
X39497596Y-48130942D01*
X39497596Y-48130941D01*
X39497598Y-48130941D01*
X39669655Y-48015977D01*
X39815977Y-47869655D01*
X39930941Y-47697598D01*
X40010130Y-47506420D01*
X40050500Y-47303465D01*
X40050500Y-47096535D01*
X40010130Y-46893580D01*
X39930941Y-46702402D01*
X39930940Y-46702400D01*
X39930940Y-46702399D01*
X39824694Y-46543390D01*
X39803816Y-46476713D01*
X39822301Y-46409333D01*
X39874280Y-46362643D01*
X39927796Y-46350500D01*
X43325500Y-46350500D01*
X43392539Y-46370185D01*
X43438294Y-46422989D01*
X43449500Y-46474500D01*
X43449500Y-46523469D01*
X43489868Y-46726412D01*
X43489870Y-46726420D01*
X43528201Y-46818960D01*
X43569059Y-46917598D01*
X43602170Y-46967152D01*
X43684024Y-47089657D01*
X43830342Y-47235975D01*
X43830345Y-47235977D01*
X44002402Y-47350941D01*
X44193580Y-47430130D01*
X44375878Y-47466391D01*
X44396530Y-47470499D01*
X44396534Y-47470500D01*
X44396535Y-47470500D01*
X44603466Y-47470500D01*
X44603467Y-47470499D01*
X44806420Y-47430130D01*
X44997598Y-47350941D01*
X45169655Y-47235977D01*
X45315977Y-47089655D01*
X45430941Y-46917598D01*
X45510130Y-46726420D01*
X45550500Y-46523465D01*
X45550500Y-46378488D01*
X45570185Y-46311449D01*
X45622989Y-46265694D01*
X45692147Y-46255750D01*
X45755703Y-46284775D01*
X45762181Y-46290807D01*
X48138181Y-48666807D01*
X48171666Y-48728130D01*
X48174500Y-48754488D01*
X48174500Y-50142852D01*
X48196682Y-50225640D01*
X48203713Y-50237817D01*
X48239535Y-50299862D01*
X49282832Y-51343158D01*
X49282834Y-51343161D01*
X49343437Y-51403764D01*
X49390624Y-51431007D01*
X49399143Y-51435925D01*
X49399145Y-51435927D01*
X49403245Y-51438294D01*
X49417661Y-51446617D01*
X49500446Y-51468800D01*
X49500448Y-51468800D01*
X49593748Y-51468800D01*
X49593764Y-51468799D01*
X50625500Y-51468799D01*
X50634185Y-51471349D01*
X50643147Y-51470061D01*
X50667187Y-51481039D01*
X50692539Y-51488484D01*
X50698466Y-51495324D01*
X50706703Y-51499086D01*
X50720992Y-51521320D01*
X50738294Y-51541288D01*
X50740581Y-51551802D01*
X50744477Y-51557864D01*
X50749500Y-51592799D01*
X50749500Y-51763466D01*
X50729815Y-51830505D01*
X50681796Y-51873950D01*
X50636656Y-51896950D01*
X50546954Y-51986652D01*
X50546952Y-51986656D01*
X50546950Y-51986658D01*
X50531215Y-52017539D01*
X50489352Y-52099698D01*
X50474500Y-52193475D01*
X50474500Y-52806517D01*
X50481950Y-52853554D01*
X50489354Y-52900304D01*
X50546950Y-53013342D01*
X50546952Y-53013344D01*
X50546954Y-53013347D01*
X50636652Y-53103045D01*
X50636654Y-53103046D01*
X50636658Y-53103050D01*
X50749694Y-53160645D01*
X50749698Y-53160647D01*
X50843475Y-53175499D01*
X50843481Y-53175500D01*
X51306518Y-53175499D01*
X51400304Y-53160646D01*
X51513342Y-53103050D01*
X51603050Y-53013342D01*
X51660646Y-52900304D01*
X51660646Y-52900303D01*
X51664263Y-52893205D01*
X51712238Y-52842409D01*
X51774748Y-52825500D01*
X52428988Y-52825500D01*
X52496027Y-52845185D01*
X52541782Y-52897989D01*
X52550605Y-52925308D01*
X52561132Y-52978229D01*
X52561132Y-52978230D01*
X52605447Y-53044552D01*
X52671769Y-53088867D01*
X52671770Y-53088868D01*
X52730247Y-53100499D01*
X52730250Y-53100500D01*
X52730252Y-53100500D01*
X54469750Y-53100500D01*
X54469751Y-53100499D01*
X54484568Y-53097552D01*
X54528229Y-53088868D01*
X54528229Y-53088867D01*
X54528231Y-53088867D01*
X54594552Y-53044552D01*
X54638867Y-52978231D01*
X54638867Y-52978229D01*
X54638868Y-52978229D01*
X54650499Y-52919752D01*
X54650500Y-52919750D01*
X54650500Y-52849500D01*
X54670185Y-52782461D01*
X54722989Y-52736706D01*
X54774500Y-52725500D01*
X58725500Y-52725500D01*
X58792539Y-52745185D01*
X58838294Y-52797989D01*
X58849500Y-52849500D01*
X58849500Y-52919752D01*
X58861131Y-52978229D01*
X58861132Y-52978230D01*
X58905447Y-53044552D01*
X58971769Y-53088867D01*
X58971770Y-53088868D01*
X59030247Y-53100499D01*
X59030250Y-53100500D01*
X59030252Y-53100500D01*
X60769750Y-53100500D01*
X60769751Y-53100499D01*
X60784568Y-53097552D01*
X60828229Y-53088868D01*
X60828229Y-53088867D01*
X60828231Y-53088867D01*
X60894552Y-53044552D01*
X60938867Y-52978231D01*
X60938867Y-52978229D01*
X60938868Y-52978229D01*
X60950499Y-52919752D01*
X60950500Y-52919750D01*
X60950500Y-51880249D01*
X60950499Y-51880247D01*
X60938868Y-51821770D01*
X60938867Y-51821769D01*
X60894552Y-51755447D01*
X60828230Y-51711132D01*
X60828229Y-51711131D01*
X60769752Y-51699500D01*
X60769748Y-51699500D01*
X59030252Y-51699500D01*
X59030247Y-51699500D01*
X58971770Y-51711131D01*
X58971769Y-51711132D01*
X58905447Y-51755447D01*
X58861132Y-51821769D01*
X58861131Y-51821770D01*
X58849500Y-51880247D01*
X58849500Y-51950500D01*
X58829815Y-52017539D01*
X58777011Y-52063294D01*
X58725500Y-52074500D01*
X54774500Y-52074500D01*
X54707461Y-52054815D01*
X54661706Y-52002011D01*
X54650500Y-51950500D01*
X54650500Y-51880249D01*
X54650499Y-51880247D01*
X54638868Y-51821770D01*
X54638867Y-51821769D01*
X54594552Y-51755447D01*
X54528230Y-51711132D01*
X54528229Y-51711131D01*
X54469752Y-51699500D01*
X54469748Y-51699500D01*
X52730252Y-51699500D01*
X52730247Y-51699500D01*
X52671770Y-51711131D01*
X52671769Y-51711132D01*
X52605447Y-51755447D01*
X52561132Y-51821769D01*
X52561131Y-51821770D01*
X52549500Y-51880247D01*
X52549500Y-52050500D01*
X52529815Y-52117539D01*
X52477011Y-52163294D01*
X52425500Y-52174500D01*
X51774747Y-52174500D01*
X51707708Y-52154815D01*
X51664262Y-52106795D01*
X51660646Y-52099698D01*
X51660646Y-52099696D01*
X51603050Y-51986658D01*
X51603048Y-51986656D01*
X51603045Y-51986652D01*
X51513343Y-51896950D01*
X51468204Y-51873950D01*
X51417409Y-51825975D01*
X51400500Y-51763466D01*
X51400500Y-51329488D01*
X51420185Y-51262449D01*
X51436819Y-51241807D01*
X51561087Y-51117539D01*
X51785465Y-50893161D01*
X51828318Y-50818938D01*
X51850500Y-50736152D01*
X51850500Y-50650446D01*
X51850500Y-49252329D01*
X51852737Y-49244709D01*
X51851467Y-49236869D01*
X51862441Y-49211660D01*
X51870185Y-49185290D01*
X51876897Y-49178456D01*
X51879357Y-49172807D01*
X51893591Y-49161461D01*
X51905614Y-49149223D01*
X51911681Y-49145169D01*
X52003220Y-49098528D01*
X52046957Y-49054790D01*
X52057114Y-49048005D01*
X52079269Y-49041069D01*
X52099642Y-49029945D01*
X52111984Y-49030827D01*
X52123793Y-49027131D01*
X52146177Y-49033272D01*
X52169334Y-49034929D01*
X52179240Y-49042345D01*
X52191172Y-49045619D01*
X52206683Y-49062889D01*
X52225267Y-49076801D01*
X52229590Y-49088393D01*
X52237860Y-49097600D01*
X52241572Y-49120517D01*
X52249684Y-49142265D01*
X52249764Y-49144524D01*
X52249823Y-49144521D01*
X52250000Y-49147844D01*
X52256401Y-49207372D01*
X52256403Y-49207379D01*
X52306645Y-49342086D01*
X52306649Y-49342093D01*
X52392809Y-49457187D01*
X52392812Y-49457190D01*
X52507906Y-49543350D01*
X52507913Y-49543354D01*
X52642620Y-49593596D01*
X52642627Y-49593598D01*
X52702155Y-49599999D01*
X52702172Y-49600000D01*
X53350000Y-49600000D01*
X53850000Y-49600000D01*
X54497828Y-49600000D01*
X54497844Y-49599999D01*
X54557372Y-49593598D01*
X54557379Y-49593596D01*
X54692086Y-49543354D01*
X54692093Y-49543350D01*
X54807187Y-49457190D01*
X54807190Y-49457187D01*
X54893350Y-49342093D01*
X54893354Y-49342086D01*
X54943596Y-49207379D01*
X54943598Y-49207372D01*
X54949999Y-49147844D01*
X58550000Y-49147844D01*
X58556401Y-49207372D01*
X58556403Y-49207379D01*
X58606645Y-49342086D01*
X58606649Y-49342093D01*
X58692809Y-49457187D01*
X58692812Y-49457190D01*
X58807906Y-49543350D01*
X58807913Y-49543354D01*
X58942620Y-49593596D01*
X58942627Y-49593598D01*
X59002155Y-49599999D01*
X59002172Y-49600000D01*
X59650000Y-49600000D01*
X60150000Y-49600000D01*
X60797828Y-49600000D01*
X60797844Y-49599999D01*
X60857372Y-49593598D01*
X60857379Y-49593596D01*
X60992086Y-49543354D01*
X60992093Y-49543350D01*
X61107187Y-49457190D01*
X61107190Y-49457187D01*
X61193350Y-49342093D01*
X61193354Y-49342086D01*
X61243596Y-49207379D01*
X61243598Y-49207372D01*
X61249999Y-49147844D01*
X61250000Y-49147827D01*
X61250000Y-48850000D01*
X60150000Y-48850000D01*
X60150000Y-49600000D01*
X59650000Y-49600000D01*
X59650000Y-48850000D01*
X58550000Y-48850000D01*
X58550000Y-49147844D01*
X54949999Y-49147844D01*
X54950000Y-49147827D01*
X54950000Y-48850000D01*
X53850000Y-48850000D01*
X53850000Y-49600000D01*
X53350000Y-49600000D01*
X53350000Y-48350000D01*
X53850000Y-48350000D01*
X54950000Y-48350000D01*
X54950000Y-48052172D01*
X54949999Y-48052155D01*
X58550000Y-48052155D01*
X58550000Y-48350000D01*
X59650000Y-48350000D01*
X60150000Y-48350000D01*
X61250000Y-48350000D01*
X61250000Y-48052172D01*
X61249999Y-48052155D01*
X61243598Y-47992627D01*
X61243596Y-47992620D01*
X61193354Y-47857913D01*
X61193350Y-47857906D01*
X61107190Y-47742812D01*
X61107187Y-47742809D01*
X60992093Y-47656649D01*
X60992086Y-47656645D01*
X60857379Y-47606403D01*
X60857372Y-47606401D01*
X60797844Y-47600000D01*
X60150000Y-47600000D01*
X60150000Y-48350000D01*
X59650000Y-48350000D01*
X59650000Y-47600000D01*
X59002155Y-47600000D01*
X58942627Y-47606401D01*
X58942620Y-47606403D01*
X58807913Y-47656645D01*
X58807906Y-47656649D01*
X58692812Y-47742809D01*
X58692809Y-47742812D01*
X58606649Y-47857906D01*
X58606645Y-47857913D01*
X58556403Y-47992620D01*
X58556401Y-47992627D01*
X58550000Y-48052155D01*
X54949999Y-48052155D01*
X54943598Y-47992627D01*
X54943596Y-47992620D01*
X54893354Y-47857913D01*
X54893350Y-47857906D01*
X54807190Y-47742812D01*
X54807187Y-47742809D01*
X54692093Y-47656649D01*
X54692086Y-47656645D01*
X54557379Y-47606403D01*
X54557372Y-47606401D01*
X54497844Y-47600000D01*
X53850000Y-47600000D01*
X53850000Y-48350000D01*
X53350000Y-48350000D01*
X53350000Y-47600000D01*
X52702155Y-47600000D01*
X52642627Y-47606401D01*
X52642620Y-47606403D01*
X52507913Y-47656645D01*
X52507906Y-47656649D01*
X52392812Y-47742809D01*
X52392809Y-47742812D01*
X52306649Y-47857906D01*
X52306646Y-47857912D01*
X52279813Y-47929854D01*
X52237941Y-47985788D01*
X52172476Y-48010204D01*
X52104203Y-47995352D01*
X52075950Y-47974201D01*
X52003225Y-47901476D01*
X52003221Y-47901473D01*
X52003220Y-47901472D01*
X51883126Y-47840281D01*
X51883124Y-47840280D01*
X51883121Y-47840279D01*
X51783493Y-47824500D01*
X51783488Y-47824500D01*
X51266512Y-47824500D01*
X51266507Y-47824500D01*
X51166878Y-47840279D01*
X51046778Y-47901473D01*
X51027825Y-47920426D01*
X50966501Y-47953910D01*
X50896809Y-47948924D01*
X50840876Y-47907052D01*
X50834606Y-47897840D01*
X50772571Y-47797266D01*
X50652732Y-47677427D01*
X50652728Y-47677424D01*
X50508492Y-47588457D01*
X50508481Y-47588452D01*
X50347606Y-47535144D01*
X50248322Y-47525000D01*
X50225000Y-47525000D01*
X50225000Y-49474999D01*
X50248308Y-49474999D01*
X50248322Y-49474998D01*
X50347607Y-49464855D01*
X50508481Y-49411547D01*
X50508492Y-49411542D01*
X50652728Y-49322575D01*
X50652732Y-49322572D01*
X50772573Y-49202731D01*
X50834606Y-49102160D01*
X50886554Y-49055435D01*
X50955516Y-49044212D01*
X51006130Y-49062271D01*
X51017955Y-49069703D01*
X51046780Y-49098528D01*
X51136767Y-49144378D01*
X51141485Y-49147344D01*
X51161083Y-49169505D01*
X51182590Y-49189818D01*
X51184152Y-49195592D01*
X51187770Y-49199684D01*
X51191092Y-49221248D01*
X51199500Y-49252329D01*
X51199500Y-50507110D01*
X51179815Y-50574149D01*
X51163181Y-50594791D01*
X50976492Y-50781480D01*
X50915169Y-50814965D01*
X50888811Y-50817799D01*
X49729487Y-50817799D01*
X49662448Y-50798114D01*
X49641806Y-50781480D01*
X48861819Y-50001492D01*
X48828334Y-49940169D01*
X48825500Y-49913811D01*
X48825500Y-49033367D01*
X48845185Y-48966328D01*
X48897989Y-48920573D01*
X48967147Y-48910629D01*
X49030703Y-48939654D01*
X49067206Y-48994363D01*
X49088452Y-49058481D01*
X49088457Y-49058492D01*
X49177424Y-49202728D01*
X49177427Y-49202732D01*
X49297267Y-49322572D01*
X49297271Y-49322575D01*
X49441507Y-49411542D01*
X49441518Y-49411547D01*
X49602393Y-49464855D01*
X49701683Y-49474999D01*
X49725000Y-49474998D01*
X49725000Y-47524999D01*
X49701693Y-47525000D01*
X49701674Y-47525001D01*
X49602392Y-47535144D01*
X49441518Y-47588452D01*
X49441507Y-47588457D01*
X49297271Y-47677424D01*
X49297267Y-47677427D01*
X49177427Y-47797267D01*
X49177424Y-47797271D01*
X49088457Y-47941507D01*
X49088452Y-47941518D01*
X49035144Y-48102393D01*
X49025000Y-48201677D01*
X49025000Y-48363850D01*
X49005315Y-48430889D01*
X48952511Y-48476644D01*
X48883353Y-48486588D01*
X48819797Y-48457563D01*
X48793613Y-48425851D01*
X48792833Y-48424500D01*
X48760465Y-48368437D01*
X45216511Y-44824483D01*
X45183026Y-44763160D01*
X45188010Y-44693468D01*
X45216509Y-44649122D01*
X45315977Y-44549655D01*
X45430941Y-44377598D01*
X45510130Y-44186420D01*
X45550500Y-43983465D01*
X45550500Y-43776535D01*
X45510130Y-43573580D01*
X45430941Y-43382402D01*
X45315977Y-43210345D01*
X45315975Y-43210342D01*
X45169657Y-43064024D01*
X45036055Y-42974755D01*
X44997598Y-42949059D01*
X44966015Y-42935977D01*
X44806420Y-42869870D01*
X44806412Y-42869868D01*
X44603469Y-42829500D01*
X44603465Y-42829500D01*
X44396535Y-42829500D01*
X44396530Y-42829500D01*
X44193587Y-42869868D01*
X44193579Y-42869870D01*
X44002403Y-42949058D01*
X43830342Y-43064024D01*
X43684024Y-43210342D01*
X43569058Y-43382403D01*
X43489870Y-43573579D01*
X43489868Y-43573587D01*
X43449500Y-43776530D01*
X43449500Y-43983469D01*
X43489868Y-44186412D01*
X43489870Y-44186420D01*
X43569059Y-44377599D01*
X43569059Y-44377600D01*
X43675306Y-44536610D01*
X43696184Y-44603287D01*
X43677699Y-44670667D01*
X43625720Y-44717357D01*
X43572204Y-44729500D01*
X41242890Y-44729500D01*
X41175851Y-44709815D01*
X41155209Y-44693181D01*
X39686565Y-43224537D01*
X39686563Y-43224535D01*
X39618508Y-43185243D01*
X39570294Y-43134676D01*
X39557072Y-43066069D01*
X39583040Y-43001205D01*
X39611618Y-42974755D01*
X39669655Y-42935977D01*
X39815977Y-42789655D01*
X39930941Y-42617598D01*
X40010130Y-42426420D01*
X40050500Y-42223465D01*
X40050500Y-42016535D01*
X40010130Y-41813580D01*
X39930941Y-41622402D01*
X39815977Y-41450345D01*
X39815975Y-41450342D01*
X39669657Y-41304024D01*
X39568644Y-41236530D01*
X39497598Y-41189059D01*
X39478516Y-41181155D01*
X39306420Y-41109870D01*
X39306412Y-41109868D01*
X39103469Y-41069500D01*
X39103465Y-41069500D01*
X38896535Y-41069500D01*
X38896530Y-41069500D01*
X38693587Y-41109868D01*
X38693575Y-41109871D01*
X38598028Y-41149448D01*
X38528559Y-41156917D01*
X38466080Y-41125641D01*
X38462895Y-41122568D01*
X38079864Y-40739537D01*
X38079862Y-40739535D01*
X38042750Y-40718108D01*
X38005640Y-40696682D01*
X37964246Y-40685591D01*
X37922853Y-40674500D01*
X37922852Y-40674500D01*
X36433676Y-40674500D01*
X36366637Y-40654815D01*
X36362983Y-40652375D01*
X36353854Y-40646040D01*
X36307314Y-40599500D01*
X36193186Y-40533608D01*
X36190975Y-40533015D01*
X36180868Y-40526002D01*
X36162043Y-40502655D01*
X36141345Y-40480946D01*
X36140341Y-40475737D01*
X36137013Y-40471610D01*
X36133798Y-40441787D01*
X36128123Y-40412339D01*
X36130093Y-40407417D01*
X36129525Y-40402143D01*
X36142945Y-40375315D01*
X36154091Y-40347475D01*
X36160463Y-40340294D01*
X36160784Y-40339655D01*
X36161307Y-40339344D01*
X36163872Y-40336454D01*
X36836448Y-39663878D01*
X36897769Y-39630395D01*
X36967461Y-39635379D01*
X37023394Y-39677251D01*
X37031514Y-39689560D01*
X37033608Y-39693186D01*
X37099500Y-39807314D01*
X37192686Y-39900500D01*
X37276193Y-39948713D01*
X37306810Y-39966390D01*
X37306814Y-39966392D01*
X37434108Y-40000500D01*
X37434110Y-40000500D01*
X37565890Y-40000500D01*
X37565892Y-40000500D01*
X37693186Y-39966392D01*
X37769879Y-39922112D01*
X37785367Y-39917962D01*
X37796944Y-39910523D01*
X37831879Y-39905500D01*
X37914919Y-39905500D01*
X37981958Y-39925185D01*
X38027713Y-39977989D01*
X38029480Y-39982047D01*
X38069057Y-40077596D01*
X38184024Y-40249657D01*
X38330342Y-40395975D01*
X38330345Y-40395977D01*
X38502402Y-40510941D01*
X38693580Y-40590130D01*
X38888798Y-40628961D01*
X38896530Y-40630499D01*
X38896534Y-40630500D01*
X38896535Y-40630500D01*
X39103466Y-40630500D01*
X39103467Y-40630499D01*
X39306420Y-40590130D01*
X39497598Y-40510941D01*
X39669655Y-40395977D01*
X39815977Y-40249655D01*
X39930941Y-40077598D01*
X40010130Y-39886420D01*
X40050500Y-39683465D01*
X40050500Y-39476535D01*
X40010130Y-39273580D01*
X39930941Y-39082402D01*
X39815977Y-38910345D01*
X39815975Y-38910342D01*
X39669657Y-38764024D01*
X39531432Y-38671666D01*
X39497598Y-38649059D01*
X39471336Y-38638181D01*
X39306420Y-38569870D01*
X39306412Y-38569868D01*
X39103469Y-38529500D01*
X39103465Y-38529500D01*
X38896535Y-38529500D01*
X38896530Y-38529500D01*
X38693587Y-38569868D01*
X38693579Y-38569870D01*
X38502403Y-38649058D01*
X38330342Y-38764024D01*
X38184024Y-38910342D01*
X38069057Y-39082405D01*
X38058404Y-39108123D01*
X38014562Y-39162525D01*
X37948268Y-39184589D01*
X37880569Y-39167309D01*
X37872051Y-39161771D01*
X37863544Y-39155730D01*
X37807314Y-39099500D01*
X37693186Y-39033608D01*
X37690584Y-39032910D01*
X37679768Y-39025230D01*
X37661596Y-39002185D01*
X37641345Y-38980946D01*
X37640212Y-38975067D01*
X37636504Y-38970365D01*
X37633675Y-38941150D01*
X37628123Y-38912339D01*
X37630348Y-38906781D01*
X37629771Y-38900821D01*
X37643184Y-38874717D01*
X37654091Y-38847475D01*
X37661435Y-38839199D01*
X37661705Y-38838676D01*
X37662107Y-38838442D01*
X37663873Y-38836453D01*
X38462895Y-38037430D01*
X38524218Y-38003946D01*
X38593910Y-38008930D01*
X38598023Y-38010548D01*
X38693580Y-38050130D01*
X38888798Y-38088961D01*
X38896530Y-38090499D01*
X38896534Y-38090500D01*
X38896535Y-38090500D01*
X39103466Y-38090500D01*
X39103467Y-38090499D01*
X39306420Y-38050130D01*
X39497598Y-37970941D01*
X39669655Y-37855977D01*
X39815977Y-37709655D01*
X39930941Y-37537598D01*
X40010130Y-37346420D01*
X40050500Y-37143465D01*
X40050500Y-36936535D01*
X40010130Y-36733580D01*
X39930941Y-36542402D01*
X39815977Y-36370345D01*
X39815975Y-36370342D01*
X39669657Y-36224024D01*
X39541182Y-36138181D01*
X39497598Y-36109059D01*
X39306420Y-36029870D01*
X39306412Y-36029868D01*
X39103469Y-35989500D01*
X39103465Y-35989500D01*
X38896535Y-35989500D01*
X38896530Y-35989500D01*
X38693587Y-36029868D01*
X38693579Y-36029870D01*
X38502403Y-36109058D01*
X38330342Y-36224024D01*
X38184024Y-36370342D01*
X38069058Y-36542403D01*
X37989870Y-36733579D01*
X37989868Y-36733587D01*
X37949500Y-36936530D01*
X37949500Y-37143469D01*
X37982725Y-37310500D01*
X37989870Y-37346420D01*
X38026192Y-37434110D01*
X38029448Y-37441969D01*
X38036917Y-37511438D01*
X38005642Y-37573918D01*
X38002568Y-37577103D01*
X32912181Y-42667491D01*
X32850858Y-42700976D01*
X32781166Y-42695992D01*
X32725233Y-42654120D01*
X32700816Y-42588656D01*
X32700500Y-42579810D01*
X32700500Y-41515507D01*
X32700500Y-41515505D01*
X32678318Y-41432719D01*
X32635465Y-41358496D01*
X32280465Y-41003496D01*
X32206242Y-40960643D01*
X32129950Y-40940201D01*
X32123009Y-40938341D01*
X32063349Y-40901976D01*
X32036499Y-40854747D01*
X32031103Y-40837058D01*
X32031103Y-40794213D01*
X32019470Y-40735730D01*
X31983996Y-40682640D01*
X31978658Y-40665142D01*
X31978475Y-40647761D01*
X31973282Y-40631176D01*
X31978116Y-40613551D01*
X31977925Y-40595277D01*
X31987168Y-40580556D01*
X31991766Y-40563796D01*
X31994161Y-40560069D01*
X32019470Y-40522192D01*
X32019471Y-40522190D01*
X32031102Y-40463713D01*
X32031103Y-40463711D01*
X32031103Y-40449500D01*
X32050788Y-40382461D01*
X32103592Y-40336706D01*
X32155103Y-40325500D01*
X33313810Y-40325500D01*
X33343246Y-40334143D01*
X33373236Y-40340667D01*
X33378253Y-40344422D01*
X33380849Y-40345185D01*
X33401491Y-40361818D01*
X33463181Y-40423507D01*
X33496666Y-40484830D01*
X33499500Y-40511189D01*
X33499500Y-40565892D01*
X33505995Y-40590131D01*
X33533608Y-40693187D01*
X33558171Y-40735730D01*
X33599500Y-40807314D01*
X33692686Y-40900500D01*
X33791521Y-40957563D01*
X33800462Y-40962725D01*
X33806814Y-40966392D01*
X33934108Y-41000500D01*
X33934110Y-41000500D01*
X34065890Y-41000500D01*
X34065892Y-41000500D01*
X34193186Y-40966392D01*
X34307314Y-40900500D01*
X34400500Y-40807314D01*
X34466392Y-40693186D01*
X34500500Y-40565892D01*
X34500500Y-40434108D01*
X34466392Y-40306814D01*
X34400500Y-40192686D01*
X34307314Y-40099500D01*
X34250250Y-40066554D01*
X34193187Y-40033608D01*
X34121914Y-40014511D01*
X34065892Y-39999500D01*
X34065891Y-39999500D01*
X34011189Y-39999500D01*
X33944150Y-39979815D01*
X33923508Y-39963181D01*
X33699864Y-39739537D01*
X33699862Y-39739535D01*
X33662750Y-39718108D01*
X33625640Y-39696682D01*
X33576315Y-39683466D01*
X33542853Y-39674500D01*
X33542852Y-39674500D01*
X32155103Y-39674500D01*
X32153845Y-39674130D01*
X32152583Y-39674474D01*
X32120426Y-39664317D01*
X32088064Y-39654815D01*
X32087206Y-39653825D01*
X32085957Y-39653431D01*
X32064379Y-39627481D01*
X32042309Y-39602011D01*
X32041850Y-39600387D01*
X32041285Y-39599708D01*
X32040265Y-39594780D01*
X32032032Y-39565649D01*
X32031103Y-39558101D01*
X32031103Y-39524213D01*
X32020160Y-39469199D01*
X32019600Y-39464649D01*
X32024559Y-39434517D01*
X32027281Y-39404100D01*
X32030179Y-39400368D01*
X32030947Y-39395707D01*
X32051407Y-39373041D01*
X32070144Y-39348923D01*
X32074600Y-39347350D01*
X32077766Y-39343844D01*
X32107232Y-39335838D01*
X32136033Y-39325678D01*
X32142671Y-39325500D01*
X33566324Y-39325500D01*
X33633363Y-39345185D01*
X33654005Y-39361819D01*
X33692686Y-39400500D01*
X33806814Y-39466392D01*
X33934108Y-39500500D01*
X33934110Y-39500500D01*
X34065890Y-39500500D01*
X34065892Y-39500500D01*
X34193186Y-39466392D01*
X34307314Y-39400500D01*
X34400500Y-39307314D01*
X34466392Y-39193186D01*
X34500500Y-39065892D01*
X34500500Y-38934108D01*
X34466392Y-38806814D01*
X34400500Y-38692686D01*
X34307314Y-38599500D01*
X34222444Y-38550500D01*
X34193187Y-38533608D01*
X34129539Y-38516554D01*
X34065892Y-38499500D01*
X33934108Y-38499500D01*
X33806812Y-38533608D01*
X33692686Y-38599500D01*
X33692683Y-38599502D01*
X33654005Y-38638181D01*
X33592682Y-38671666D01*
X33566324Y-38674500D01*
X32155103Y-38674500D01*
X32088064Y-38654815D01*
X32042309Y-38602011D01*
X32031103Y-38550500D01*
X32031103Y-38254210D01*
X32031102Y-38254208D01*
X32019471Y-38195731D01*
X32019470Y-38195729D01*
X31994161Y-38157853D01*
X31973282Y-38091176D01*
X31978883Y-38052049D01*
X31984212Y-38034958D01*
X32019470Y-37982192D01*
X32031103Y-37923709D01*
X32031103Y-37884575D01*
X32036724Y-37866549D01*
X32046050Y-37852554D01*
X32050788Y-37836422D01*
X32065023Y-37824086D01*
X32075473Y-37808408D01*
X32090885Y-37801677D01*
X32103592Y-37790667D01*
X32128512Y-37785245D01*
X32139503Y-37780446D01*
X32145869Y-37781469D01*
X32155103Y-37779461D01*
X36088890Y-37779461D01*
X36088892Y-37779461D01*
X36171678Y-37757279D01*
X36245901Y-37714426D01*
X38462895Y-35497430D01*
X38524218Y-35463946D01*
X38593910Y-35468930D01*
X38598023Y-35470548D01*
X38693580Y-35510130D01*
X38815449Y-35534371D01*
X38896530Y-35550499D01*
X38896534Y-35550500D01*
X38896535Y-35550500D01*
X39103466Y-35550500D01*
X39103467Y-35550499D01*
X39306420Y-35510130D01*
X39497598Y-35430941D01*
X39669655Y-35315977D01*
X39815977Y-35169655D01*
X39930941Y-34997598D01*
X40010130Y-34806420D01*
X40050500Y-34603465D01*
X40050500Y-34396535D01*
X40010130Y-34193580D01*
X39930941Y-34002402D01*
X39815977Y-33830345D01*
X39815975Y-33830342D01*
X39669657Y-33684024D01*
X39583626Y-33626541D01*
X39497598Y-33569059D01*
X39497593Y-33569057D01*
X39435891Y-33543499D01*
X39332890Y-33500834D01*
X39278488Y-33456994D01*
X39256423Y-33390700D01*
X39273702Y-33323001D01*
X39324839Y-33275390D01*
X39342026Y-33268343D01*
X39518217Y-33211095D01*
X39707554Y-33114622D01*
X39761716Y-33075270D01*
X39761717Y-33075270D01*
X39129408Y-32442962D01*
X39192993Y-32425925D01*
X39307007Y-32360099D01*
X39400099Y-32267007D01*
X39465925Y-32152993D01*
X39482962Y-32089408D01*
X40115270Y-32721717D01*
X40115270Y-32721716D01*
X40154622Y-32667554D01*
X40251095Y-32478217D01*
X40316757Y-32276130D01*
X40316757Y-32276127D01*
X40350000Y-32066246D01*
X40350000Y-31853753D01*
X40316757Y-31643872D01*
X40316757Y-31643869D01*
X40251095Y-31441782D01*
X40154624Y-31252449D01*
X40115270Y-31198282D01*
X40115269Y-31198282D01*
X39482962Y-31830590D01*
X39465925Y-31767007D01*
X39400099Y-31652993D01*
X39307007Y-31559901D01*
X39192993Y-31494075D01*
X39129409Y-31477037D01*
X39761716Y-30844728D01*
X39707550Y-30805375D01*
X39513879Y-30706694D01*
X39514396Y-30705678D01*
X39464192Y-30665221D01*
X39442127Y-30598927D01*
X39459406Y-30531228D01*
X39510542Y-30483617D01*
X39566048Y-30470500D01*
X39869750Y-30470500D01*
X39869751Y-30470499D01*
X39888611Y-30466748D01*
X39928229Y-30458868D01*
X39928229Y-30458867D01*
X39928231Y-30458867D01*
X39994552Y-30414552D01*
X40038867Y-30348231D01*
X40038867Y-30348229D01*
X40038868Y-30348229D01*
X40050499Y-30289752D01*
X40050500Y-30289750D01*
X40050500Y-29994500D01*
X40070185Y-29927461D01*
X40122989Y-29881706D01*
X40174500Y-29870500D01*
X44324314Y-29870500D01*
X44391353Y-29890185D01*
X44437108Y-29942989D01*
X44447052Y-30012147D01*
X44442087Y-30030247D01*
X44442527Y-30030365D01*
X44440423Y-30038214D01*
X44440423Y-30038216D01*
X44399500Y-30190943D01*
X44399500Y-30349057D01*
X44434599Y-30480046D01*
X44440423Y-30501783D01*
X44440426Y-30501790D01*
X44519473Y-30638706D01*
X44519477Y-30638712D01*
X44519480Y-30638716D01*
X44519482Y-30638718D01*
X44523872Y-30644438D01*
X44549069Y-30709606D01*
X44549500Y-30719930D01*
X44549500Y-30734309D01*
X44561797Y-30780201D01*
X44580201Y-30848887D01*
X44639511Y-30951614D01*
X45248386Y-31560489D01*
X45351113Y-31619799D01*
X45375326Y-31626286D01*
X45386880Y-31629382D01*
X45393746Y-31631222D01*
X45421751Y-31648294D01*
X45453400Y-31667585D01*
X45453403Y-31667589D01*
X45453404Y-31667590D01*
X45453405Y-31667592D01*
X45472129Y-31694698D01*
X45476469Y-31703215D01*
X45476476Y-31703225D01*
X45563181Y-31789930D01*
X45596666Y-31851253D01*
X45599500Y-31877611D01*
X45599500Y-32722389D01*
X45579815Y-32789428D01*
X45563181Y-32810070D01*
X45476476Y-32896774D01*
X45476473Y-32896778D01*
X45415279Y-33016878D01*
X45399500Y-33116506D01*
X45399500Y-33683493D01*
X45415279Y-33783121D01*
X45415280Y-33783124D01*
X45415281Y-33783126D01*
X45476472Y-33903220D01*
X45476473Y-33903221D01*
X45476476Y-33903225D01*
X45563181Y-33989930D01*
X45596666Y-34051253D01*
X45599500Y-34077611D01*
X45599500Y-34472034D01*
X45579815Y-34539073D01*
X45563181Y-34559715D01*
X44908842Y-35214053D01*
X44847519Y-35247538D01*
X44796970Y-35247989D01*
X44603469Y-35209500D01*
X44603465Y-35209500D01*
X44396535Y-35209500D01*
X44396530Y-35209500D01*
X44193587Y-35249868D01*
X44193579Y-35249870D01*
X44002403Y-35329058D01*
X43830342Y-35444024D01*
X43684024Y-35590342D01*
X43569058Y-35762403D01*
X43489870Y-35953579D01*
X43489868Y-35953587D01*
X43449500Y-36156530D01*
X43449500Y-36363469D01*
X43489868Y-36566412D01*
X43489870Y-36566420D01*
X43542378Y-36693186D01*
X43569059Y-36757598D01*
X43610060Y-36818961D01*
X43684024Y-36929657D01*
X43830342Y-37075975D01*
X44002405Y-37190943D01*
X44105043Y-37233456D01*
X44167108Y-37259164D01*
X44221511Y-37303005D01*
X44243576Y-37369299D01*
X44226297Y-37436998D01*
X44175160Y-37484609D01*
X44157974Y-37491656D01*
X43981781Y-37548905D01*
X43792439Y-37645380D01*
X43738282Y-37684727D01*
X43738282Y-37684728D01*
X44370591Y-38317037D01*
X44307007Y-38334075D01*
X44192993Y-38399901D01*
X44099901Y-38492993D01*
X44034075Y-38607007D01*
X44017037Y-38670591D01*
X43384728Y-38038282D01*
X43384727Y-38038282D01*
X43345380Y-38092439D01*
X43248904Y-38281782D01*
X43183242Y-38483869D01*
X43183242Y-38483872D01*
X43150000Y-38693753D01*
X43150000Y-38906246D01*
X43183242Y-39116127D01*
X43183242Y-39116130D01*
X43248904Y-39318217D01*
X43345375Y-39507550D01*
X43384728Y-39561716D01*
X44017037Y-38929408D01*
X44034075Y-38992993D01*
X44099901Y-39107007D01*
X44192993Y-39200099D01*
X44307007Y-39265925D01*
X44370590Y-39282962D01*
X43738282Y-39915269D01*
X43738282Y-39915270D01*
X43792449Y-39954624D01*
X43981782Y-40051095D01*
X44157973Y-40108343D01*
X44215648Y-40147780D01*
X44242847Y-40212139D01*
X44230932Y-40280985D01*
X44183688Y-40332461D01*
X44167108Y-40340835D01*
X44002403Y-40409057D01*
X43830342Y-40524024D01*
X43684024Y-40670342D01*
X43569058Y-40842403D01*
X43489870Y-41033579D01*
X43489868Y-41033587D01*
X43449500Y-41236530D01*
X43449500Y-41443469D01*
X43489868Y-41646412D01*
X43489870Y-41646420D01*
X43526026Y-41733709D01*
X43569059Y-41837598D01*
X43626541Y-41923626D01*
X43684024Y-42009657D01*
X43830342Y-42155975D01*
X43830345Y-42155977D01*
X44002402Y-42270941D01*
X44193580Y-42350130D01*
X44396530Y-42390499D01*
X44396534Y-42390500D01*
X44396535Y-42390500D01*
X44603466Y-42390500D01*
X44603467Y-42390499D01*
X44806420Y-42350130D01*
X44997598Y-42270941D01*
X45169655Y-42155977D01*
X45315977Y-42009655D01*
X45430941Y-41837598D01*
X45510130Y-41646420D01*
X45550500Y-41443465D01*
X45550500Y-41236535D01*
X45510130Y-41033580D01*
X45430941Y-40842402D01*
X45315977Y-40670345D01*
X45315975Y-40670342D01*
X45169657Y-40524024D01*
X45046579Y-40441787D01*
X44997598Y-40409059D01*
X44997593Y-40409057D01*
X44916133Y-40375315D01*
X44832890Y-40340834D01*
X44778488Y-40296994D01*
X44756423Y-40230700D01*
X44773702Y-40163001D01*
X44824839Y-40115390D01*
X44842026Y-40108343D01*
X45018217Y-40051095D01*
X45207554Y-39954622D01*
X45261716Y-39915270D01*
X45261717Y-39915270D01*
X44629408Y-39282962D01*
X44692993Y-39265925D01*
X44807007Y-39200099D01*
X44900099Y-39107007D01*
X44965925Y-38992993D01*
X44982962Y-38929409D01*
X45615270Y-39561717D01*
X45615270Y-39561716D01*
X45654622Y-39507554D01*
X45751095Y-39318217D01*
X45816757Y-39116130D01*
X45816757Y-39116127D01*
X45850000Y-38906246D01*
X45850000Y-38693753D01*
X45816757Y-38483872D01*
X45816757Y-38483869D01*
X45751095Y-38281782D01*
X45654624Y-38092449D01*
X45615270Y-38038282D01*
X45615269Y-38038282D01*
X44982962Y-38670590D01*
X44965925Y-38607007D01*
X44900099Y-38492993D01*
X44807007Y-38399901D01*
X44692993Y-38334075D01*
X44629409Y-38317037D01*
X45261716Y-37684728D01*
X45207550Y-37645375D01*
X45018216Y-37548904D01*
X44842026Y-37491656D01*
X44784350Y-37452218D01*
X44757152Y-37387860D01*
X44769067Y-37319013D01*
X44816311Y-37267538D01*
X44832882Y-37259168D01*
X44997598Y-37190941D01*
X45169655Y-37075977D01*
X45315977Y-36929655D01*
X45430941Y-36757598D01*
X45510130Y-36566420D01*
X45550500Y-36363465D01*
X45550500Y-36156535D01*
X45512009Y-35963027D01*
X45518236Y-35893437D01*
X45545942Y-35851159D01*
X46410489Y-34986614D01*
X46469799Y-34883887D01*
X46478745Y-34850500D01*
X46500500Y-34769309D01*
X46500500Y-34077610D01*
X46509144Y-34048169D01*
X46515668Y-34018183D01*
X46519422Y-34013167D01*
X46520185Y-34010571D01*
X46536819Y-33989929D01*
X46547173Y-33979575D01*
X46608496Y-33946090D01*
X46678188Y-33951074D01*
X46734121Y-33992946D01*
X46740392Y-34002159D01*
X46802424Y-34102728D01*
X46802427Y-34102732D01*
X46922267Y-34222572D01*
X46922271Y-34222575D01*
X47066507Y-34311542D01*
X47066518Y-34311547D01*
X47227393Y-34364855D01*
X47326683Y-34374999D01*
X47850000Y-34374999D01*
X47873308Y-34374999D01*
X47873322Y-34374998D01*
X47972607Y-34364855D01*
X48133481Y-34311547D01*
X48133492Y-34311542D01*
X48277728Y-34222575D01*
X48277732Y-34222572D01*
X48397572Y-34102732D01*
X48397575Y-34102728D01*
X48486542Y-33958492D01*
X48486547Y-33958481D01*
X48539855Y-33797606D01*
X48549999Y-33698322D01*
X48550000Y-33698309D01*
X48550000Y-33650000D01*
X47850000Y-33650000D01*
X47850000Y-34374999D01*
X47326683Y-34374999D01*
X47350000Y-34374998D01*
X47350000Y-33150000D01*
X47850000Y-33150000D01*
X48549999Y-33150000D01*
X48549999Y-33101692D01*
X48549998Y-33101677D01*
X48539855Y-33002392D01*
X48486547Y-32841518D01*
X48486542Y-32841507D01*
X48397575Y-32697271D01*
X48397572Y-32697267D01*
X48277732Y-32577427D01*
X48277728Y-32577424D01*
X48133492Y-32488457D01*
X48133481Y-32488452D01*
X47972606Y-32435144D01*
X47873322Y-32425000D01*
X47850000Y-32425000D01*
X47850000Y-33150000D01*
X47350000Y-33150000D01*
X47350000Y-32424999D01*
X47326693Y-32425000D01*
X47326674Y-32425001D01*
X47227392Y-32435144D01*
X47066518Y-32488452D01*
X47066507Y-32488457D01*
X46922271Y-32577424D01*
X46922267Y-32577427D01*
X46802426Y-32697268D01*
X46740391Y-32797841D01*
X46723099Y-32813393D01*
X46709159Y-32832014D01*
X46697606Y-32836321D01*
X46688442Y-32844565D01*
X46665485Y-32848300D01*
X46643693Y-32856427D01*
X46631647Y-32853806D01*
X46619479Y-32855786D01*
X46598146Y-32846516D01*
X46575421Y-32841572D01*
X46559728Y-32829823D01*
X46555398Y-32827942D01*
X46547168Y-32820420D01*
X46536815Y-32810066D01*
X46503333Y-32748741D01*
X46500500Y-32722389D01*
X46500500Y-31877610D01*
X46520185Y-31810571D01*
X46536819Y-31789929D01*
X46547173Y-31779575D01*
X46608496Y-31746090D01*
X46678188Y-31751074D01*
X46734121Y-31792946D01*
X46740392Y-31802159D01*
X46802424Y-31902728D01*
X46802427Y-31902732D01*
X46922267Y-32022572D01*
X46922271Y-32022575D01*
X47066507Y-32111542D01*
X47066518Y-32111547D01*
X47227393Y-32164855D01*
X47326683Y-32174999D01*
X47850000Y-32174999D01*
X47873308Y-32174999D01*
X47873322Y-32174998D01*
X47972607Y-32164855D01*
X48133481Y-32111547D01*
X48133492Y-32111542D01*
X48277728Y-32022575D01*
X48277732Y-32022572D01*
X48397572Y-31902732D01*
X48397575Y-31902728D01*
X48486542Y-31758492D01*
X48486547Y-31758481D01*
X48539855Y-31597606D01*
X48549999Y-31498322D01*
X48550000Y-31498309D01*
X48550000Y-31450000D01*
X47850000Y-31450000D01*
X47850000Y-32174999D01*
X47326683Y-32174999D01*
X47350000Y-32174998D01*
X47350000Y-30224999D01*
X47326693Y-30225000D01*
X47326674Y-30225001D01*
X47227392Y-30235144D01*
X47066518Y-30288452D01*
X47066507Y-30288457D01*
X46922271Y-30377424D01*
X46922267Y-30377427D01*
X46802426Y-30497268D01*
X46740392Y-30597841D01*
X46688444Y-30644565D01*
X46619481Y-30655786D01*
X46555399Y-30627943D01*
X46547173Y-30620424D01*
X46528225Y-30601476D01*
X46528221Y-30601473D01*
X46528220Y-30601472D01*
X46408126Y-30540281D01*
X46408124Y-30540280D01*
X46408121Y-30540279D01*
X46308493Y-30524500D01*
X46308488Y-30524500D01*
X45791512Y-30524500D01*
X45791511Y-30524500D01*
X45731531Y-30533999D01*
X45662238Y-30525043D01*
X45608787Y-30480046D01*
X45588148Y-30413294D01*
X45592360Y-30379434D01*
X45600500Y-30349057D01*
X45600500Y-30190943D01*
X45559577Y-30038216D01*
X45559576Y-30038214D01*
X45557473Y-30030365D01*
X45559809Y-30029739D01*
X45553658Y-29972472D01*
X45584939Y-29909996D01*
X45645031Y-29874349D01*
X45675686Y-29870500D01*
X47582035Y-29870500D01*
X47649074Y-29890185D01*
X47669716Y-29906819D01*
X47831267Y-30068370D01*
X47864752Y-30129693D01*
X47859768Y-30199385D01*
X47850000Y-30214584D01*
X47850000Y-30950000D01*
X48555180Y-30950000D01*
X48605090Y-30922747D01*
X48674782Y-30927731D01*
X48719129Y-30956232D01*
X49763181Y-32000284D01*
X49796666Y-32061607D01*
X49799500Y-32087965D01*
X49799500Y-39738942D01*
X49779815Y-39805981D01*
X49758884Y-39830719D01*
X49746588Y-39841890D01*
X49736658Y-39846950D01*
X49693327Y-39890280D01*
X49691130Y-39892277D01*
X49662263Y-39906289D01*
X49634105Y-39921666D01*
X49629587Y-39922151D01*
X49628275Y-39922789D01*
X49626092Y-39922527D01*
X49607746Y-39924500D01*
X48005030Y-39924500D01*
X47914664Y-39948713D01*
X47914663Y-39948712D01*
X47890455Y-39955199D01*
X47890452Y-39955200D01*
X47787725Y-40014511D01*
X47787722Y-40014513D01*
X46839513Y-40962722D01*
X46839511Y-40962725D01*
X46780200Y-41065452D01*
X46780199Y-41065455D01*
X46773712Y-41089663D01*
X46773713Y-41089664D01*
X46749500Y-41180030D01*
X46749500Y-44950069D01*
X46729815Y-45017108D01*
X46723875Y-45025557D01*
X46719475Y-45031290D01*
X46640426Y-45168209D01*
X46640423Y-45168216D01*
X46599500Y-45320943D01*
X46599500Y-45479057D01*
X46632985Y-45604023D01*
X46640423Y-45631783D01*
X46640426Y-45631790D01*
X46719475Y-45768709D01*
X46719479Y-45768714D01*
X46719480Y-45768716D01*
X46831284Y-45880520D01*
X46831286Y-45880521D01*
X46831290Y-45880524D01*
X46968209Y-45959573D01*
X46968216Y-45959577D01*
X47120943Y-46000500D01*
X47120945Y-46000500D01*
X47279055Y-46000500D01*
X47279057Y-46000500D01*
X47431784Y-45959577D01*
X47568716Y-45880520D01*
X47680520Y-45768716D01*
X47759577Y-45631784D01*
X47788639Y-45523322D01*
X49275001Y-45523322D01*
X49285144Y-45622607D01*
X49338452Y-45783481D01*
X49338457Y-45783492D01*
X49427424Y-45927728D01*
X49427427Y-45927732D01*
X49547267Y-46047572D01*
X49547271Y-46047575D01*
X49691507Y-46136542D01*
X49691518Y-46136547D01*
X49852393Y-46189855D01*
X49951683Y-46199999D01*
X50500000Y-46199999D01*
X50548308Y-46199999D01*
X50548322Y-46199998D01*
X50647607Y-46189855D01*
X50808481Y-46136547D01*
X50808492Y-46136542D01*
X50952728Y-46047575D01*
X50952732Y-46047572D01*
X51052460Y-45947844D01*
X52000000Y-45947844D01*
X52006401Y-46007372D01*
X52006403Y-46007379D01*
X52056645Y-46142086D01*
X52056649Y-46142093D01*
X52142809Y-46257187D01*
X52142812Y-46257190D01*
X52257906Y-46343350D01*
X52257913Y-46343354D01*
X52392620Y-46393596D01*
X52392627Y-46393598D01*
X52452155Y-46399999D01*
X52452172Y-46400000D01*
X53100000Y-46400000D01*
X53600000Y-46400000D01*
X54247828Y-46400000D01*
X54247844Y-46399999D01*
X54307372Y-46393598D01*
X54307379Y-46393596D01*
X54442086Y-46343354D01*
X54442093Y-46343350D01*
X54557187Y-46257190D01*
X54557190Y-46257187D01*
X54643350Y-46142093D01*
X54643354Y-46142086D01*
X54693596Y-46007379D01*
X54693598Y-46007372D01*
X54699999Y-45947844D01*
X58300000Y-45947844D01*
X58306401Y-46007372D01*
X58306403Y-46007379D01*
X58356645Y-46142086D01*
X58356649Y-46142093D01*
X58442809Y-46257187D01*
X58442812Y-46257190D01*
X58557906Y-46343350D01*
X58557913Y-46343354D01*
X58692620Y-46393596D01*
X58692627Y-46393598D01*
X58752155Y-46399999D01*
X58752172Y-46400000D01*
X59400000Y-46400000D01*
X59900000Y-46400000D01*
X60547828Y-46400000D01*
X60547844Y-46399999D01*
X60607372Y-46393598D01*
X60607379Y-46393596D01*
X60742086Y-46343354D01*
X60742093Y-46343350D01*
X60857187Y-46257190D01*
X60857190Y-46257187D01*
X60943350Y-46142093D01*
X60943354Y-46142086D01*
X60993596Y-46007379D01*
X60993598Y-46007372D01*
X60999999Y-45947844D01*
X61000000Y-45947827D01*
X61000000Y-45650000D01*
X59900000Y-45650000D01*
X59900000Y-46400000D01*
X59400000Y-46400000D01*
X59400000Y-45650000D01*
X58300000Y-45650000D01*
X58300000Y-45947844D01*
X54699999Y-45947844D01*
X54700000Y-45947827D01*
X54700000Y-45650000D01*
X53600000Y-45650000D01*
X53600000Y-46400000D01*
X53100000Y-46400000D01*
X53100000Y-45650000D01*
X52000000Y-45650000D01*
X52000000Y-45947844D01*
X51052460Y-45947844D01*
X51072572Y-45927732D01*
X51072575Y-45927728D01*
X51161542Y-45783492D01*
X51161547Y-45783481D01*
X51214856Y-45622606D01*
X51218592Y-45586036D01*
X51218592Y-45586035D01*
X51224999Y-45523321D01*
X51225000Y-45523309D01*
X51225000Y-45500000D01*
X50500000Y-45500000D01*
X50500000Y-46199999D01*
X49951683Y-46199999D01*
X49999999Y-46199998D01*
X50000000Y-46199998D01*
X50000000Y-45500000D01*
X49275001Y-45500000D01*
X49275001Y-45523322D01*
X47788639Y-45523322D01*
X47800500Y-45479057D01*
X47800500Y-45320943D01*
X47759577Y-45168216D01*
X47735430Y-45126391D01*
X47680524Y-45031290D01*
X47680521Y-45031287D01*
X47680520Y-45031284D01*
X47680517Y-45031281D01*
X47676125Y-45025557D01*
X47650930Y-44960388D01*
X47650500Y-44950069D01*
X47650500Y-42086107D01*
X47670185Y-42019068D01*
X47722989Y-41973313D01*
X47792147Y-41963369D01*
X47806594Y-41966332D01*
X47806810Y-41966390D01*
X47806814Y-41966392D01*
X47934108Y-42000500D01*
X47934111Y-42000500D01*
X48065890Y-42000500D01*
X48065892Y-42000500D01*
X48193186Y-41966392D01*
X48307314Y-41900500D01*
X48345995Y-41861819D01*
X48407318Y-41828334D01*
X48433676Y-41825500D01*
X49450500Y-41825500D01*
X49517539Y-41845185D01*
X49563294Y-41897989D01*
X49574500Y-41949500D01*
X49574500Y-42256517D01*
X49576785Y-42270941D01*
X49589354Y-42350304D01*
X49646950Y-42463342D01*
X49646952Y-42463344D01*
X49646954Y-42463347D01*
X49736652Y-42553045D01*
X49736656Y-42553048D01*
X49736658Y-42553050D01*
X49849696Y-42610646D01*
X49849699Y-42610646D01*
X49856795Y-42614262D01*
X49867859Y-42624711D01*
X49881703Y-42631034D01*
X49892743Y-42648213D01*
X49907591Y-42662236D01*
X49911832Y-42677917D01*
X49919477Y-42689812D01*
X49924500Y-42724747D01*
X49924500Y-42959932D01*
X49904815Y-43026971D01*
X49856796Y-43070415D01*
X49746780Y-43126472D01*
X49746779Y-43126473D01*
X49746774Y-43126476D01*
X49651476Y-43221774D01*
X49651473Y-43221778D01*
X49651472Y-43221780D01*
X49594185Y-43334213D01*
X49590279Y-43341878D01*
X49574500Y-43441506D01*
X49574500Y-43958493D01*
X49590279Y-44058121D01*
X49590280Y-44058124D01*
X49590281Y-44058126D01*
X49630640Y-44137334D01*
X49651473Y-44178221D01*
X49651476Y-44178225D01*
X49670424Y-44197173D01*
X49703909Y-44258496D01*
X49698925Y-44328188D01*
X49657053Y-44384121D01*
X49647841Y-44390392D01*
X49547268Y-44452426D01*
X49427427Y-44572267D01*
X49427424Y-44572271D01*
X49338457Y-44716507D01*
X49338452Y-44716518D01*
X49285144Y-44877393D01*
X49275000Y-44976677D01*
X49275000Y-45000000D01*
X51224999Y-45000000D01*
X51224999Y-44976692D01*
X51224998Y-44976677D01*
X51214856Y-44877393D01*
X51214855Y-44877391D01*
X51206493Y-44852155D01*
X52000000Y-44852155D01*
X52000000Y-45150000D01*
X53100000Y-45150000D01*
X53600000Y-45150000D01*
X54700000Y-45150000D01*
X54700000Y-44852172D01*
X54699999Y-44852155D01*
X58300000Y-44852155D01*
X58300000Y-45150000D01*
X59400000Y-45150000D01*
X59900000Y-45150000D01*
X61000000Y-45150000D01*
X61000000Y-44852172D01*
X60999999Y-44852155D01*
X60993598Y-44792627D01*
X60993596Y-44792620D01*
X60943354Y-44657913D01*
X60943350Y-44657906D01*
X60857190Y-44542812D01*
X60857187Y-44542809D01*
X60742093Y-44456649D01*
X60742086Y-44456645D01*
X60607379Y-44406403D01*
X60607372Y-44406401D01*
X60547844Y-44400000D01*
X59900000Y-44400000D01*
X59900000Y-45150000D01*
X59400000Y-45150000D01*
X59400000Y-44400000D01*
X58752155Y-44400000D01*
X58692627Y-44406401D01*
X58692620Y-44406403D01*
X58557913Y-44456645D01*
X58557906Y-44456649D01*
X58442812Y-44542809D01*
X58442809Y-44542812D01*
X58356649Y-44657906D01*
X58356645Y-44657913D01*
X58306403Y-44792620D01*
X58306401Y-44792627D01*
X58300000Y-44852155D01*
X54699999Y-44852155D01*
X54693598Y-44792627D01*
X54693596Y-44792620D01*
X54643354Y-44657913D01*
X54643350Y-44657906D01*
X54557190Y-44542812D01*
X54557187Y-44542809D01*
X54442093Y-44456649D01*
X54442086Y-44456645D01*
X54307379Y-44406403D01*
X54307372Y-44406401D01*
X54247844Y-44400000D01*
X53600000Y-44400000D01*
X53600000Y-45150000D01*
X53100000Y-45150000D01*
X53100000Y-44400000D01*
X52452155Y-44400000D01*
X52392627Y-44406401D01*
X52392620Y-44406403D01*
X52257913Y-44456645D01*
X52257906Y-44456649D01*
X52142812Y-44542809D01*
X52142809Y-44542812D01*
X52056649Y-44657906D01*
X52056645Y-44657913D01*
X52006403Y-44792620D01*
X52006401Y-44792627D01*
X52000000Y-44852155D01*
X51206493Y-44852155D01*
X51161547Y-44716518D01*
X51161542Y-44716507D01*
X51072575Y-44572271D01*
X51072572Y-44572267D01*
X50952732Y-44452427D01*
X50952728Y-44452424D01*
X50852159Y-44390392D01*
X50805434Y-44338444D01*
X50794213Y-44269482D01*
X50822056Y-44205400D01*
X50829565Y-44197182D01*
X50848528Y-44178220D01*
X50909719Y-44058126D01*
X50909720Y-44058121D01*
X50925500Y-43958493D01*
X50925500Y-43441506D01*
X50909720Y-43341878D01*
X50909719Y-43341876D01*
X50909719Y-43341874D01*
X50848528Y-43221780D01*
X50848526Y-43221778D01*
X50848523Y-43221774D01*
X50753225Y-43126476D01*
X50753222Y-43126474D01*
X50753220Y-43126472D01*
X50643203Y-43070415D01*
X50632140Y-43059967D01*
X50618297Y-43053645D01*
X50607255Y-43036464D01*
X50592409Y-43022442D01*
X50588167Y-43006762D01*
X50580523Y-42994867D01*
X50575500Y-42959932D01*
X50575500Y-42724748D01*
X50595185Y-42657709D01*
X50643205Y-42614263D01*
X50650304Y-42610646D01*
X50763342Y-42553050D01*
X50853050Y-42463342D01*
X50910646Y-42350304D01*
X50910646Y-42350302D01*
X50910647Y-42350301D01*
X50925499Y-42256524D01*
X50925500Y-42256519D01*
X50925499Y-42049499D01*
X50945183Y-41982461D01*
X50997987Y-41936706D01*
X51049499Y-41925500D01*
X52175500Y-41925500D01*
X52242539Y-41945185D01*
X52288294Y-41997989D01*
X52299500Y-42049500D01*
X52299500Y-42119752D01*
X52311131Y-42178229D01*
X52311132Y-42178230D01*
X52355447Y-42244552D01*
X52421769Y-42288867D01*
X52421770Y-42288868D01*
X52480247Y-42300499D01*
X52480250Y-42300500D01*
X52480252Y-42300500D01*
X54219750Y-42300500D01*
X54219751Y-42300499D01*
X54234568Y-42297552D01*
X54278229Y-42288868D01*
X54278229Y-42288867D01*
X54278231Y-42288867D01*
X54344552Y-42244552D01*
X54388867Y-42178231D01*
X54388867Y-42178229D01*
X54388868Y-42178229D01*
X54400499Y-42119752D01*
X54400500Y-42119750D01*
X54400500Y-42049500D01*
X54420185Y-41982461D01*
X54472989Y-41936706D01*
X54524500Y-41925500D01*
X58475500Y-41925500D01*
X58542539Y-41945185D01*
X58588294Y-41997989D01*
X58599500Y-42049500D01*
X58599500Y-42119752D01*
X58611131Y-42178229D01*
X58611132Y-42178230D01*
X58655447Y-42244552D01*
X58721769Y-42288867D01*
X58721770Y-42288868D01*
X58780247Y-42300499D01*
X58780250Y-42300500D01*
X58780252Y-42300500D01*
X60519750Y-42300500D01*
X60519751Y-42300499D01*
X60534568Y-42297552D01*
X60578229Y-42288868D01*
X60578229Y-42288867D01*
X60578231Y-42288867D01*
X60644552Y-42244552D01*
X60688867Y-42178231D01*
X60688867Y-42178229D01*
X60688868Y-42178229D01*
X60700499Y-42119752D01*
X60700500Y-42119750D01*
X60700500Y-41080249D01*
X60700499Y-41080247D01*
X60688868Y-41021770D01*
X60688867Y-41021769D01*
X60644552Y-40955447D01*
X60578230Y-40911132D01*
X60578229Y-40911131D01*
X60519752Y-40899500D01*
X60519748Y-40899500D01*
X58780252Y-40899500D01*
X58780247Y-40899500D01*
X58721770Y-40911131D01*
X58721769Y-40911132D01*
X58655447Y-40955447D01*
X58611132Y-41021769D01*
X58611131Y-41021770D01*
X58599500Y-41080247D01*
X58599500Y-41150500D01*
X58579815Y-41217539D01*
X58527011Y-41263294D01*
X58475500Y-41274500D01*
X54524500Y-41274500D01*
X54457461Y-41254815D01*
X54411706Y-41202011D01*
X54400500Y-41150500D01*
X54400500Y-41080249D01*
X54400499Y-41080247D01*
X54388868Y-41021770D01*
X54388867Y-41021769D01*
X54344552Y-40955447D01*
X54278230Y-40911132D01*
X54278229Y-40911131D01*
X54219752Y-40899500D01*
X54219748Y-40899500D01*
X52480252Y-40899500D01*
X52480247Y-40899500D01*
X52421770Y-40911131D01*
X52421769Y-40911132D01*
X52355447Y-40955447D01*
X52311132Y-41021769D01*
X52311131Y-41021770D01*
X52299500Y-41080247D01*
X52299500Y-41150500D01*
X52279815Y-41217539D01*
X52227011Y-41263294D01*
X52175500Y-41274500D01*
X50750465Y-41274500D01*
X50750449Y-41274499D01*
X50742853Y-41274499D01*
X50657147Y-41274499D01*
X50603291Y-41288930D01*
X50574360Y-41296682D01*
X50545563Y-41313308D01*
X50545560Y-41313309D01*
X50537250Y-41318108D01*
X50500138Y-41339535D01*
X50446785Y-41392887D01*
X50441604Y-41397062D01*
X50415224Y-41407984D01*
X50390169Y-41421666D01*
X50379380Y-41422825D01*
X50377050Y-41423791D01*
X50374569Y-41423343D01*
X50363811Y-41424500D01*
X50161189Y-41424500D01*
X50094150Y-41404815D01*
X50073508Y-41388181D01*
X49924864Y-41239537D01*
X49924862Y-41239535D01*
X49911055Y-41231563D01*
X49867005Y-41206130D01*
X49818790Y-41155562D01*
X49817879Y-41150836D01*
X49799544Y-41165397D01*
X49790919Y-41166261D01*
X49783460Y-41170678D01*
X49752911Y-41174500D01*
X48433676Y-41174500D01*
X48366637Y-41154815D01*
X48345995Y-41138181D01*
X48307316Y-41099502D01*
X48307314Y-41099500D01*
X48237814Y-41059374D01*
X48189600Y-41008808D01*
X48176376Y-40940201D01*
X48202344Y-40875337D01*
X48212136Y-40864304D01*
X48214641Y-40861800D01*
X48275970Y-40828328D01*
X48302304Y-40825500D01*
X49607746Y-40825500D01*
X49626983Y-40831148D01*
X49647020Y-40831884D01*
X49671752Y-40844294D01*
X49674785Y-40845185D01*
X49676861Y-40846857D01*
X49678565Y-40847713D01*
X49687623Y-40854015D01*
X49736658Y-40903050D01*
X49816763Y-40943865D01*
X49823730Y-40948713D01*
X49840522Y-40969592D01*
X49860002Y-40987990D01*
X49862085Y-40996404D01*
X49864097Y-40998906D01*
X49888453Y-40981563D01*
X49938740Y-40975127D01*
X49943472Y-40975498D01*
X49943481Y-40975500D01*
X50556518Y-40975499D01*
X50650304Y-40960646D01*
X50763342Y-40903050D01*
X50853050Y-40813342D01*
X50910646Y-40700304D01*
X50910646Y-40700302D01*
X50910647Y-40700301D01*
X50925499Y-40606524D01*
X50925500Y-40606519D01*
X50925499Y-40143482D01*
X50910646Y-40049696D01*
X50853050Y-39936658D01*
X50853046Y-39936654D01*
X50853045Y-39936652D01*
X50763343Y-39846950D01*
X50755448Y-39841214D01*
X50757098Y-39838942D01*
X50717396Y-39801431D01*
X50700500Y-39738942D01*
X50700500Y-31790693D01*
X50700500Y-31790691D01*
X50669799Y-31676114D01*
X50669799Y-31676113D01*
X50610489Y-31573386D01*
X48096614Y-29059511D01*
X48027246Y-29019461D01*
X47993888Y-29000201D01*
X47981780Y-28996957D01*
X47969673Y-28993713D01*
X47969670Y-28993712D01*
X47911994Y-28978258D01*
X47879309Y-28969500D01*
X47879308Y-28969500D01*
X40174500Y-28969500D01*
X40107461Y-28949815D01*
X40061706Y-28897011D01*
X40050500Y-28845500D01*
X40050500Y-28550249D01*
X40050499Y-28550247D01*
X40038868Y-28491770D01*
X40038867Y-28491769D01*
X39994552Y-28425447D01*
X39928230Y-28381132D01*
X39928229Y-28381131D01*
X39869752Y-28369500D01*
X39869748Y-28369500D01*
X39574500Y-28369500D01*
X39507461Y-28349815D01*
X39461706Y-28297011D01*
X39450500Y-28245500D01*
X39450500Y-26028193D01*
X39450500Y-26028191D01*
X39419799Y-25913614D01*
X39397137Y-25874362D01*
X39360490Y-25810886D01*
X37195118Y-23645515D01*
X37185997Y-23628811D01*
X37172809Y-23615088D01*
X37169599Y-23598780D01*
X37161634Y-23584193D01*
X37162991Y-23565208D01*
X37159316Y-23546534D01*
X37165432Y-23531080D01*
X37166618Y-23514501D01*
X37178025Y-23499263D01*
X37185029Y-23481567D01*
X37202932Y-23465991D01*
X37208490Y-23458568D01*
X37210476Y-23457111D01*
X37215461Y-23453531D01*
X37307314Y-23400500D01*
X37353145Y-23354668D01*
X37361352Y-23348776D01*
X37385170Y-23340427D01*
X37407318Y-23328334D01*
X37425141Y-23326417D01*
X37427289Y-23325665D01*
X37428797Y-23326024D01*
X37433676Y-23325500D01*
X46367851Y-23325500D01*
X46367853Y-23325500D01*
X46450639Y-23303318D01*
X46450640Y-23303317D01*
X46458490Y-23301214D01*
X46459320Y-23304313D01*
X46513769Y-23298416D01*
X46576273Y-23329640D01*
X46611974Y-23389701D01*
X46609536Y-23459528D01*
X46579531Y-23508144D01*
X46174496Y-23913181D01*
X46113173Y-23946666D01*
X46086815Y-23949500D01*
X44049931Y-23949500D01*
X43982892Y-23929815D01*
X43974443Y-23923875D01*
X43968709Y-23919475D01*
X43831790Y-23840426D01*
X43831786Y-23840424D01*
X43831784Y-23840423D01*
X43679057Y-23799500D01*
X43520943Y-23799500D01*
X43368216Y-23840423D01*
X43368209Y-23840426D01*
X43231290Y-23919475D01*
X43231282Y-23919481D01*
X43119481Y-24031282D01*
X43119475Y-24031290D01*
X43040426Y-24168209D01*
X43040423Y-24168216D01*
X42999500Y-24320943D01*
X42999500Y-24479057D01*
X43033963Y-24607673D01*
X43040423Y-24631783D01*
X43040426Y-24631790D01*
X43119475Y-24768709D01*
X43119479Y-24768714D01*
X43119480Y-24768716D01*
X43231284Y-24880520D01*
X43231286Y-24880521D01*
X43231290Y-24880524D01*
X43312871Y-24927624D01*
X43368216Y-24959577D01*
X43520943Y-25000500D01*
X43520945Y-25000500D01*
X43679055Y-25000500D01*
X43679057Y-25000500D01*
X43831784Y-24959577D01*
X43968716Y-24880520D01*
X43968721Y-24880514D01*
X43974443Y-24876125D01*
X44039612Y-24850930D01*
X44049931Y-24850500D01*
X46384088Y-24850500D01*
X46384089Y-24850500D01*
X46455360Y-24831401D01*
X46474446Y-24826288D01*
X46474447Y-24826287D01*
X46474453Y-24826286D01*
X46498667Y-24819799D01*
X46601394Y-24760489D01*
X51860489Y-19501394D01*
X51919798Y-19398667D01*
X51919799Y-19398666D01*
X51950500Y-19284089D01*
X51950500Y-18661965D01*
X51970185Y-18594926D01*
X52022989Y-18549171D01*
X52092147Y-18539227D01*
X52155703Y-18568252D01*
X52162181Y-18574284D01*
X54513181Y-20925284D01*
X54527884Y-20952211D01*
X54544477Y-20978030D01*
X54545368Y-20984230D01*
X54546666Y-20986607D01*
X54549500Y-21012965D01*
X54549500Y-21094900D01*
X54529815Y-21161939D01*
X54477011Y-21207694D01*
X54466456Y-21211941D01*
X54437118Y-21222207D01*
X54327850Y-21302850D01*
X54247207Y-21412117D01*
X54247206Y-21412119D01*
X54202353Y-21540298D01*
X54202353Y-21540300D01*
X54199500Y-21570730D01*
X54199500Y-22929269D01*
X54202353Y-22959699D01*
X54202353Y-22959701D01*
X54247206Y-23087880D01*
X54247207Y-23087882D01*
X54327850Y-23197150D01*
X54437118Y-23277793D01*
X54479845Y-23292744D01*
X54565299Y-23322646D01*
X54595730Y-23325500D01*
X54595734Y-23325500D01*
X55404270Y-23325500D01*
X55434699Y-23322646D01*
X55434701Y-23322646D01*
X55498790Y-23300219D01*
X55562882Y-23277793D01*
X55672150Y-23197150D01*
X55752793Y-23087882D01*
X55778895Y-23013285D01*
X55819615Y-22956513D01*
X55884567Y-22930765D01*
X55953129Y-22944221D01*
X56003532Y-22992608D01*
X56006419Y-22997947D01*
X56059194Y-23101521D01*
X56160967Y-23241602D01*
X56283397Y-23364032D01*
X56423475Y-23465804D01*
X56577744Y-23544408D01*
X56742415Y-23597914D01*
X56742414Y-23597914D01*
X56749999Y-23599115D01*
X56750000Y-23599114D01*
X56750000Y-22530330D01*
X56769745Y-22550075D01*
X56855255Y-22599444D01*
X56950630Y-22625000D01*
X57049370Y-22625000D01*
X57144745Y-22599444D01*
X57230255Y-22550075D01*
X57250000Y-22530330D01*
X57250000Y-23599115D01*
X57257584Y-23597914D01*
X57422255Y-23544408D01*
X57576524Y-23465804D01*
X57716602Y-23364032D01*
X57839032Y-23241602D01*
X57940804Y-23101524D01*
X58019408Y-22947257D01*
X58072914Y-22782584D01*
X58100000Y-22611571D01*
X58100000Y-22500000D01*
X57280330Y-22500000D01*
X57300075Y-22480255D01*
X57349444Y-22394745D01*
X57375000Y-22299370D01*
X57375000Y-22200630D01*
X57349444Y-22105255D01*
X57300075Y-22019745D01*
X57280330Y-22000000D01*
X58100000Y-22000000D01*
X58100000Y-21888428D01*
X58072914Y-21717415D01*
X58019408Y-21552742D01*
X57940804Y-21398475D01*
X57839032Y-21258397D01*
X57716602Y-21135967D01*
X57576524Y-21034195D01*
X57422257Y-20955591D01*
X57257589Y-20902087D01*
X57257581Y-20902085D01*
X57250000Y-20900884D01*
X57250000Y-21969670D01*
X57230255Y-21949925D01*
X57144745Y-21900556D01*
X57049370Y-21875000D01*
X56950630Y-21875000D01*
X56855255Y-21900556D01*
X56769745Y-21949925D01*
X56750000Y-21969670D01*
X56750000Y-20900884D01*
X56749999Y-20900884D01*
X56742418Y-20902085D01*
X56742410Y-20902087D01*
X56577742Y-20955591D01*
X56423475Y-21034195D01*
X56283397Y-21135967D01*
X56160967Y-21258397D01*
X56059194Y-21398478D01*
X56006419Y-21502052D01*
X55958444Y-21552848D01*
X55890623Y-21569642D01*
X55824488Y-21547104D01*
X55781038Y-21492388D01*
X55778908Y-21486751D01*
X55752793Y-21412118D01*
X55672150Y-21302850D01*
X55562882Y-21222207D01*
X55533543Y-21211940D01*
X55476769Y-21171219D01*
X55451022Y-21106266D01*
X55450500Y-21094900D01*
X55450500Y-20715693D01*
X55450500Y-20715691D01*
X55419799Y-20601114D01*
X55384845Y-20540573D01*
X55360489Y-20498386D01*
X52586819Y-17724716D01*
X52553334Y-17663393D01*
X52550500Y-17637035D01*
X52550500Y-16405249D01*
X52550499Y-16405247D01*
X52538868Y-16346770D01*
X52538867Y-16346769D01*
X52494552Y-16280447D01*
X52428230Y-16236132D01*
X52428229Y-16236131D01*
X52369752Y-16224500D01*
X52369748Y-16224500D01*
X50770188Y-16224500D01*
X50703149Y-16204815D01*
X50657394Y-16152011D01*
X50647450Y-16082853D01*
X50676475Y-16019297D01*
X50682507Y-16012819D01*
X50962895Y-15732431D01*
X51024218Y-15698946D01*
X51093910Y-15703930D01*
X51098023Y-15705548D01*
X51193580Y-15745130D01*
X51396530Y-15785499D01*
X51396534Y-15785500D01*
X51396535Y-15785500D01*
X51603466Y-15785500D01*
X51603467Y-15785499D01*
X51806420Y-15745130D01*
X51997598Y-15665941D01*
X52169655Y-15550977D01*
X52315977Y-15404655D01*
X52331118Y-15381995D01*
X56699500Y-15381995D01*
X56699500Y-15618004D01*
X56699501Y-15618020D01*
X56728749Y-15840185D01*
X56730307Y-15852014D01*
X56775144Y-16019346D01*
X56791394Y-16079993D01*
X56881714Y-16298045D01*
X56881719Y-16298056D01*
X56944745Y-16407218D01*
X56999727Y-16502450D01*
X56999729Y-16502453D01*
X56999730Y-16502454D01*
X57143406Y-16689697D01*
X57143412Y-16689704D01*
X57310295Y-16856587D01*
X57310302Y-16856593D01*
X57362547Y-16896682D01*
X57497550Y-17000273D01*
X57621116Y-17071614D01*
X57701943Y-17118280D01*
X57701948Y-17118282D01*
X57701951Y-17118284D01*
X57920007Y-17208606D01*
X58147986Y-17269693D01*
X58381989Y-17300500D01*
X58381996Y-17300500D01*
X58618004Y-17300500D01*
X58618011Y-17300500D01*
X58852014Y-17269693D01*
X59079993Y-17208606D01*
X59298049Y-17118284D01*
X59502450Y-17000273D01*
X59689699Y-16856592D01*
X59856592Y-16689699D01*
X60000273Y-16502450D01*
X60118284Y-16298049D01*
X60208606Y-16079993D01*
X60269693Y-15852014D01*
X60300500Y-15618011D01*
X60300500Y-15381989D01*
X60269693Y-15147986D01*
X60208606Y-14920007D01*
X60118284Y-14701951D01*
X60118282Y-14701948D01*
X60118280Y-14701943D01*
X60070535Y-14619247D01*
X60000273Y-14497550D01*
X59856592Y-14310301D01*
X59856587Y-14310295D01*
X59689704Y-14143412D01*
X59689697Y-14143406D01*
X59502454Y-13999730D01*
X59502453Y-13999729D01*
X59502450Y-13999727D01*
X59420957Y-13952677D01*
X59298056Y-13881719D01*
X59298045Y-13881714D01*
X59079993Y-13791394D01*
X58852010Y-13730306D01*
X58618020Y-13699501D01*
X58618017Y-13699500D01*
X58618011Y-13699500D01*
X58381989Y-13699500D01*
X58381983Y-13699500D01*
X58381979Y-13699501D01*
X58147989Y-13730306D01*
X57920006Y-13791394D01*
X57701954Y-13881714D01*
X57701943Y-13881719D01*
X57497545Y-13999730D01*
X57310302Y-14143406D01*
X57310295Y-14143412D01*
X57143412Y-14310295D01*
X57143406Y-14310302D01*
X56999730Y-14497545D01*
X56881719Y-14701943D01*
X56881714Y-14701954D01*
X56791394Y-14920006D01*
X56730306Y-15147989D01*
X56699501Y-15381979D01*
X56699500Y-15381995D01*
X52331118Y-15381995D01*
X52430941Y-15232598D01*
X52510130Y-15041420D01*
X52550500Y-14838465D01*
X52550500Y-14631535D01*
X52510130Y-14428580D01*
X52430941Y-14237402D01*
X52315977Y-14065345D01*
X52315975Y-14065342D01*
X52169657Y-13919024D01*
X52083626Y-13861541D01*
X51997598Y-13804059D01*
X51967022Y-13791394D01*
X51806420Y-13724870D01*
X51806412Y-13724868D01*
X51603469Y-13684500D01*
X51603465Y-13684500D01*
X51396535Y-13684500D01*
X51396530Y-13684500D01*
X51193587Y-13724868D01*
X51193579Y-13724870D01*
X51002403Y-13804058D01*
X50830342Y-13919024D01*
X50684024Y-14065342D01*
X50569058Y-14237403D01*
X50489870Y-14428579D01*
X50489868Y-14428587D01*
X50449500Y-14631530D01*
X50449500Y-14838469D01*
X50487171Y-15027853D01*
X50489870Y-15041420D01*
X50525178Y-15126662D01*
X50529448Y-15136969D01*
X50536917Y-15206438D01*
X50505642Y-15268918D01*
X50502568Y-15272103D01*
X48936492Y-16838181D01*
X48875169Y-16871666D01*
X48848811Y-16874500D01*
X47747088Y-16874500D01*
X47680049Y-16854815D01*
X47634294Y-16802011D01*
X47624350Y-16732853D01*
X47653375Y-16669297D01*
X47690792Y-16640016D01*
X47763342Y-16603050D01*
X47853050Y-16513342D01*
X47910646Y-16400304D01*
X47910646Y-16400302D01*
X47910647Y-16400301D01*
X47920719Y-16336706D01*
X47925500Y-16306519D01*
X47925499Y-16239882D01*
X47942113Y-16177880D01*
X47947077Y-16169284D01*
X47988000Y-16016557D01*
X47988000Y-13620943D01*
X47988000Y-13610954D01*
X47987999Y-13610940D01*
X47987999Y-13393482D01*
X47984993Y-13374500D01*
X47973146Y-13299696D01*
X47915550Y-13186658D01*
X47915546Y-13186654D01*
X47915545Y-13186652D01*
X47825847Y-13096954D01*
X47825844Y-13096952D01*
X47825842Y-13096950D01*
X47745071Y-13055795D01*
X47712801Y-13039352D01*
X47619024Y-13024500D01*
X47155982Y-13024500D01*
X47075019Y-13037323D01*
X47062196Y-13039354D01*
X46949158Y-13096950D01*
X46949157Y-13096951D01*
X46949152Y-13096954D01*
X46859454Y-13186652D01*
X46859451Y-13186657D01*
X46859450Y-13186658D01*
X46857627Y-13190236D01*
X46801852Y-13299698D01*
X46787000Y-13393475D01*
X46787000Y-14525534D01*
X46767315Y-14592573D01*
X46714511Y-14638328D01*
X46645353Y-14648272D01*
X46581797Y-14619247D01*
X46575319Y-14613216D01*
X46451613Y-14489510D01*
X46348888Y-14430201D01*
X46336780Y-14426957D01*
X46324673Y-14423713D01*
X46323658Y-14423441D01*
X46319560Y-14422342D01*
X46280323Y-14398414D01*
X46259912Y-14385968D01*
X46259910Y-14385965D01*
X46259908Y-14385964D01*
X46241122Y-14347271D01*
X46229393Y-14323116D01*
X46229393Y-14323112D01*
X46229392Y-14323110D01*
X46232962Y-14293306D01*
X46237700Y-14253742D01*
X46237702Y-14253737D01*
X46237703Y-14253736D01*
X46237708Y-14253728D01*
X46264004Y-14214888D01*
X46265550Y-14213342D01*
X46323146Y-14100304D01*
X46323146Y-14100302D01*
X46323147Y-14100301D01*
X46337999Y-14006524D01*
X46338000Y-14006519D01*
X46337999Y-13393482D01*
X46323146Y-13299696D01*
X46265550Y-13186658D01*
X46265546Y-13186654D01*
X46265545Y-13186652D01*
X46175847Y-13096954D01*
X46175844Y-13096952D01*
X46175842Y-13096950D01*
X46095071Y-13055795D01*
X46062801Y-13039352D01*
X45969024Y-13024500D01*
X45505982Y-13024500D01*
X45425019Y-13037323D01*
X45412196Y-13039354D01*
X45299158Y-13096950D01*
X45299157Y-13096951D01*
X45299152Y-13096954D01*
X45209454Y-13186652D01*
X45209451Y-13186657D01*
X45209450Y-13186658D01*
X45176921Y-13250500D01*
X45148237Y-13306795D01*
X45100262Y-13357591D01*
X45037752Y-13374500D01*
X44487000Y-13374500D01*
X44419961Y-13354815D01*
X44374206Y-13302011D01*
X44363000Y-13250500D01*
X44363000Y-13190231D01*
X44360186Y-13160230D01*
X44360186Y-13160226D01*
X44360184Y-13160222D01*
X44360184Y-13160218D01*
X44315955Y-13033821D01*
X44315954Y-13033819D01*
X44236430Y-12926069D01*
X44128680Y-12846545D01*
X44128678Y-12846544D01*
X44002281Y-12802315D01*
X44002269Y-12802313D01*
X43972268Y-12799500D01*
X43972264Y-12799500D01*
X43377736Y-12799500D01*
X43377732Y-12799500D01*
X43347730Y-12802313D01*
X43347718Y-12802315D01*
X43221321Y-12846544D01*
X43221319Y-12846545D01*
X43113569Y-12926069D01*
X43034045Y-13033819D01*
X43034044Y-13033821D01*
X42989815Y-13160218D01*
X42989813Y-13160230D01*
X42987000Y-13190231D01*
X42987000Y-14209768D01*
X42989813Y-14239769D01*
X42991425Y-14247150D01*
X42988661Y-14247753D01*
X42991540Y-14304346D01*
X42956800Y-14364967D01*
X42894801Y-14397183D01*
X42870942Y-14399500D01*
X42604058Y-14399500D01*
X42537019Y-14379815D01*
X42491264Y-14327011D01*
X42481320Y-14257853D01*
X42483916Y-14247224D01*
X42483575Y-14247150D01*
X42485183Y-14239782D01*
X42485186Y-14239774D01*
X42487520Y-14214888D01*
X42488000Y-14209768D01*
X42488000Y-13190231D01*
X42485186Y-13160230D01*
X42485186Y-13160226D01*
X42485184Y-13160222D01*
X42485184Y-13160218D01*
X42440955Y-13033821D01*
X42440954Y-13033819D01*
X42361430Y-12926069D01*
X42253680Y-12846545D01*
X42253678Y-12846544D01*
X42127281Y-12802315D01*
X42127269Y-12802313D01*
X42097268Y-12799500D01*
X42097264Y-12799500D01*
X41502736Y-12799500D01*
X41502732Y-12799500D01*
X41472730Y-12802313D01*
X41472718Y-12802315D01*
X41346322Y-12846544D01*
X41346321Y-12846545D01*
X41322709Y-12863971D01*
X41257082Y-12887943D01*
X41249075Y-12888202D01*
X32770205Y-12888202D01*
X32708203Y-12871588D01*
X32687301Y-12859519D01*
X32602436Y-12836780D01*
X32560005Y-12825411D01*
X32428221Y-12825411D01*
X32300925Y-12859519D01*
X32186799Y-12925411D01*
X32186796Y-12925413D01*
X32093615Y-13018594D01*
X32093613Y-13018597D01*
X32027721Y-13132723D01*
X31993613Y-13260019D01*
X31993613Y-13391802D01*
X32027468Y-13518152D01*
X32025805Y-13588002D01*
X31986642Y-13645864D01*
X31939790Y-13670019D01*
X31920453Y-13675200D01*
X31920445Y-13675204D01*
X31817731Y-13734505D01*
X31817723Y-13734511D01*
X30139513Y-15412722D01*
X30139511Y-15412725D01*
X30104778Y-15472884D01*
X30054210Y-15521099D01*
X29985603Y-15534321D01*
X29928500Y-15513985D01*
X29800000Y-15428124D01*
X29799991Y-15428119D01*
X29627103Y-15356507D01*
X29627100Y-15356506D01*
X29600000Y-15351115D01*
X29600000Y-16103011D01*
X29590060Y-16085795D01*
X29534205Y-16029940D01*
X29465796Y-15990444D01*
X29389496Y-15970000D01*
X29310504Y-15970000D01*
X29234204Y-15990444D01*
X29165795Y-16029940D01*
X29109940Y-16085795D01*
X29100000Y-16103011D01*
X29100000Y-15351116D01*
X29099999Y-15351115D01*
X29072899Y-15356506D01*
X29072896Y-15356507D01*
X28900008Y-15428119D01*
X28899999Y-15428124D01*
X28744410Y-15532086D01*
X28744406Y-15532089D01*
X28612089Y-15664406D01*
X28612086Y-15664410D01*
X28504736Y-15825071D01*
X28503636Y-15824336D01*
X28459427Y-15869337D01*
X28391288Y-15884794D01*
X28351586Y-15875597D01*
X28247940Y-15832666D01*
X28247928Y-15832663D01*
X28083721Y-15800000D01*
X27916279Y-15800000D01*
X27752071Y-15832663D01*
X27752059Y-15832666D01*
X27625443Y-15885112D01*
X27555974Y-15892581D01*
X27493495Y-15861305D01*
X27490310Y-15858232D01*
X26771590Y-15139513D01*
X26771588Y-15139511D01*
X26697977Y-15097011D01*
X26668862Y-15080201D01*
X26656754Y-15076957D01*
X26644647Y-15073713D01*
X26644644Y-15073712D01*
X26606452Y-15063478D01*
X26554283Y-15049500D01*
X24059309Y-15049500D01*
X23940691Y-15049500D01*
X23826114Y-15080201D01*
X23826112Y-15080201D01*
X23826112Y-15080202D01*
X23723387Y-15139511D01*
X23723384Y-15139513D01*
X23639513Y-15223384D01*
X23639511Y-15223387D01*
X23580201Y-15326112D01*
X23573710Y-15350340D01*
X23537344Y-15410001D01*
X23474497Y-15440529D01*
X23405122Y-15432234D01*
X23366254Y-15405927D01*
X23194864Y-15234537D01*
X23194862Y-15234535D01*
X23153215Y-15210490D01*
X23120640Y-15191682D01*
X23079246Y-15180591D01*
X23037853Y-15169500D01*
X21079006Y-15169500D01*
X21011967Y-15149815D01*
X20966212Y-15097011D01*
X20956268Y-15027853D01*
X20985293Y-14964297D01*
X21031553Y-14930939D01*
X21149991Y-14881880D01*
X21150000Y-14881875D01*
X21305589Y-14777913D01*
X21305593Y-14777910D01*
X21437910Y-14645593D01*
X21437913Y-14645589D01*
X21541875Y-14490000D01*
X21541880Y-14489991D01*
X21613491Y-14317105D01*
X21613493Y-14317097D01*
X21649999Y-14133571D01*
X21650000Y-14133569D01*
X21650000Y-13890000D01*
X21000000Y-13890000D01*
X21000000Y-13390000D01*
X21650000Y-13390000D01*
X21650000Y-13146430D01*
X21649999Y-13146428D01*
X21613493Y-12962902D01*
X21613491Y-12962894D01*
X21541880Y-12790008D01*
X21541875Y-12789999D01*
X21437913Y-12634410D01*
X21437910Y-12634406D01*
X21315685Y-12512181D01*
X21282200Y-12450858D01*
X21287184Y-12381166D01*
X21329056Y-12325233D01*
X21394520Y-12300816D01*
X21403366Y-12300500D01*
X28646634Y-12300500D01*
X28713673Y-12320185D01*
X28759428Y-12372989D01*
X28769372Y-12442147D01*
X28740347Y-12505703D01*
X28734315Y-12512181D01*
X28612089Y-12634406D01*
X28612086Y-12634410D01*
X28508124Y-12789999D01*
X28508119Y-12790008D01*
X28436508Y-12962894D01*
X28436506Y-12962902D01*
X28400000Y-13146428D01*
X28400000Y-13390000D01*
X29050000Y-13390000D01*
X29050000Y-13890000D01*
X28400000Y-13890000D01*
X28400000Y-14133571D01*
X28436506Y-14317097D01*
X28436508Y-14317105D01*
X28508119Y-14489991D01*
X28508124Y-14490000D01*
X28612086Y-14645589D01*
X28612089Y-14645593D01*
X28744406Y-14777910D01*
X28744410Y-14777913D01*
X28899999Y-14881875D01*
X28900012Y-14881882D01*
X29072889Y-14953489D01*
X29072896Y-14953491D01*
X29100000Y-14958882D01*
X29100000Y-14206988D01*
X29109940Y-14224205D01*
X29165795Y-14280060D01*
X29234204Y-14319556D01*
X29310504Y-14340000D01*
X29389496Y-14340000D01*
X29465796Y-14319556D01*
X29534205Y-14280060D01*
X29590060Y-14224205D01*
X29600000Y-14206988D01*
X29600000Y-14958881D01*
X29627103Y-14953491D01*
X29627110Y-14953489D01*
X29799987Y-14881882D01*
X29800000Y-14881875D01*
X29955589Y-14777913D01*
X29955593Y-14777910D01*
X30087910Y-14645593D01*
X30087913Y-14645589D01*
X30191875Y-14490000D01*
X30191880Y-14489991D01*
X30263491Y-14317105D01*
X30263493Y-14317097D01*
X30299999Y-14133571D01*
X30300000Y-14133569D01*
X30300000Y-13890000D01*
X29650000Y-13890000D01*
X29650000Y-13390000D01*
X30300000Y-13390000D01*
X30300000Y-13146430D01*
X30299999Y-13146428D01*
X30263493Y-12962902D01*
X30263491Y-12962894D01*
X30191880Y-12790008D01*
X30191875Y-12789999D01*
X30087913Y-12634410D01*
X30087910Y-12634406D01*
X29965685Y-12512181D01*
X29932200Y-12450858D01*
X29937184Y-12381166D01*
X29979056Y-12325233D01*
X30044520Y-12300816D01*
X30053366Y-12300500D01*
X61575500Y-12300500D01*
X61642539Y-12320185D01*
X61688294Y-12372989D01*
X61699500Y-12424500D01*
X61699500Y-61575500D01*
X61679815Y-61642539D01*
X61627011Y-61688294D01*
X61575500Y-61699500D01*
X12424500Y-61699500D01*
X12357461Y-61679815D01*
X12311706Y-61627011D01*
X12300500Y-61575500D01*
X12300500Y-58381995D01*
X13699500Y-58381995D01*
X13699500Y-58618004D01*
X13699501Y-58618020D01*
X13730306Y-58852010D01*
X13791394Y-59079993D01*
X13881714Y-59298045D01*
X13881719Y-59298056D01*
X13952677Y-59420957D01*
X13999727Y-59502450D01*
X13999729Y-59502453D01*
X13999730Y-59502454D01*
X14143406Y-59689697D01*
X14143412Y-59689704D01*
X14310295Y-59856587D01*
X14310301Y-59856592D01*
X14497550Y-60000273D01*
X14628918Y-60076118D01*
X14701943Y-60118280D01*
X14701948Y-60118282D01*
X14701951Y-60118284D01*
X14920007Y-60208606D01*
X15147986Y-60269693D01*
X15381989Y-60300500D01*
X15381996Y-60300500D01*
X15618004Y-60300500D01*
X15618011Y-60300500D01*
X15852014Y-60269693D01*
X16079993Y-60208606D01*
X16298049Y-60118284D01*
X16502450Y-60000273D01*
X16689699Y-59856592D01*
X16856592Y-59689699D01*
X17000273Y-59502450D01*
X17118284Y-59298049D01*
X17208606Y-59079993D01*
X17269693Y-58852014D01*
X17300500Y-58618011D01*
X17300500Y-58381995D01*
X56699500Y-58381995D01*
X56699500Y-58618004D01*
X56699501Y-58618020D01*
X56730306Y-58852010D01*
X56791394Y-59079993D01*
X56881714Y-59298045D01*
X56881719Y-59298056D01*
X56952677Y-59420957D01*
X56999727Y-59502450D01*
X56999729Y-59502453D01*
X56999730Y-59502454D01*
X57143406Y-59689697D01*
X57143412Y-59689704D01*
X57310295Y-59856587D01*
X57310301Y-59856592D01*
X57497550Y-60000273D01*
X57628918Y-60076118D01*
X57701943Y-60118280D01*
X57701948Y-60118282D01*
X57701951Y-60118284D01*
X57920007Y-60208606D01*
X58147986Y-60269693D01*
X58381989Y-60300500D01*
X58381996Y-60300500D01*
X58618004Y-60300500D01*
X58618011Y-60300500D01*
X58852014Y-60269693D01*
X59079993Y-60208606D01*
X59298049Y-60118284D01*
X59502450Y-60000273D01*
X59689699Y-59856592D01*
X59856592Y-59689699D01*
X60000273Y-59502450D01*
X60118284Y-59298049D01*
X60208606Y-59079993D01*
X60269693Y-58852014D01*
X60300500Y-58618011D01*
X60300500Y-58381989D01*
X60269693Y-58147986D01*
X60208606Y-57920007D01*
X60118284Y-57701951D01*
X60118282Y-57701948D01*
X60118280Y-57701943D01*
X60076118Y-57628918D01*
X60000273Y-57497550D01*
X59856592Y-57310301D01*
X59856587Y-57310295D01*
X59689704Y-57143412D01*
X59689697Y-57143406D01*
X59502454Y-56999730D01*
X59502453Y-56999729D01*
X59502450Y-56999727D01*
X59420957Y-56952677D01*
X59298056Y-56881719D01*
X59298045Y-56881714D01*
X59079993Y-56791394D01*
X58852010Y-56730306D01*
X58618020Y-56699501D01*
X58618017Y-56699500D01*
X58618011Y-56699500D01*
X58381989Y-56699500D01*
X58381983Y-56699500D01*
X58381979Y-56699501D01*
X58147989Y-56730306D01*
X57920006Y-56791394D01*
X57701954Y-56881714D01*
X57701943Y-56881719D01*
X57497545Y-56999730D01*
X57310302Y-57143406D01*
X57310295Y-57143412D01*
X57143412Y-57310295D01*
X57143406Y-57310302D01*
X56999730Y-57497545D01*
X56881719Y-57701943D01*
X56881714Y-57701954D01*
X56791394Y-57920006D01*
X56730306Y-58147989D01*
X56699501Y-58381979D01*
X56699500Y-58381995D01*
X17300500Y-58381995D01*
X17300500Y-58381989D01*
X17269693Y-58147986D01*
X17208606Y-57920007D01*
X17118284Y-57701951D01*
X17118282Y-57701948D01*
X17118280Y-57701943D01*
X17076118Y-57628918D01*
X17000273Y-57497550D01*
X16856592Y-57310301D01*
X16856587Y-57310295D01*
X16689704Y-57143412D01*
X16689697Y-57143406D01*
X16502454Y-56999730D01*
X16502453Y-56999729D01*
X16502450Y-56999727D01*
X16420957Y-56952677D01*
X16298056Y-56881719D01*
X16298045Y-56881714D01*
X16079993Y-56791394D01*
X15852010Y-56730306D01*
X15618020Y-56699501D01*
X15618017Y-56699500D01*
X15618011Y-56699500D01*
X15381989Y-56699500D01*
X15381983Y-56699500D01*
X15381979Y-56699501D01*
X15147989Y-56730306D01*
X14920006Y-56791394D01*
X14701954Y-56881714D01*
X14701943Y-56881719D01*
X14497545Y-56999730D01*
X14310302Y-57143406D01*
X14310295Y-57143412D01*
X14143412Y-57310295D01*
X14143406Y-57310302D01*
X13999730Y-57497545D01*
X13881719Y-57701943D01*
X13881714Y-57701954D01*
X13791394Y-57920006D01*
X13730306Y-58147989D01*
X13699501Y-58381979D01*
X13699500Y-58381995D01*
X12300500Y-58381995D01*
X12300500Y-50875167D01*
X12320185Y-50808128D01*
X12372989Y-50762373D01*
X12442147Y-50752429D01*
X12505703Y-50781454D01*
X12512181Y-50787486D01*
X12547267Y-50822572D01*
X12547271Y-50822575D01*
X12691507Y-50911542D01*
X12691518Y-50911547D01*
X12852393Y-50964855D01*
X12951683Y-50974999D01*
X12975000Y-50974998D01*
X12975000Y-47020308D01*
X12947158Y-46969321D01*
X12952142Y-46899629D01*
X12994012Y-46843695D01*
X13059476Y-46819277D01*
X13068324Y-46818961D01*
X13070603Y-46818961D01*
X13070603Y-44318961D01*
X12822758Y-44318961D01*
X12763230Y-44325362D01*
X12763223Y-44325364D01*
X12628516Y-44375606D01*
X12628509Y-44375610D01*
X12513415Y-44461770D01*
X12512181Y-44463005D01*
X12510649Y-44463841D01*
X12506315Y-44467086D01*
X12505848Y-44466462D01*
X12450858Y-44496490D01*
X12381166Y-44491506D01*
X12325233Y-44449634D01*
X12300816Y-44384170D01*
X12300500Y-44375324D01*
X12300500Y-29262598D01*
X12320185Y-29195559D01*
X12372989Y-29149804D01*
X12442147Y-29139860D01*
X12505703Y-29168885D01*
X12512181Y-29174917D01*
X12513415Y-29176151D01*
X12628509Y-29262311D01*
X12628516Y-29262315D01*
X12763223Y-29312557D01*
X12763230Y-29312559D01*
X12822758Y-29318960D01*
X12822775Y-29318961D01*
X13070603Y-29318961D01*
X13070603Y-26818961D01*
X12822758Y-26818961D01*
X12763230Y-26825362D01*
X12763223Y-26825364D01*
X12628516Y-26875606D01*
X12628509Y-26875610D01*
X12513415Y-26961770D01*
X12512181Y-26963005D01*
X12510649Y-26963841D01*
X12506315Y-26967086D01*
X12505848Y-26966462D01*
X12450858Y-26996490D01*
X12381166Y-26991506D01*
X12325233Y-26949634D01*
X12300816Y-26884170D01*
X12300500Y-26875324D01*
X12300500Y-20331582D01*
X21450001Y-20331582D01*
X21456408Y-20402102D01*
X21456409Y-20402107D01*
X21506981Y-20564396D01*
X21594927Y-20709877D01*
X21715122Y-20830072D01*
X21860604Y-20918019D01*
X21860603Y-20918019D01*
X22022894Y-20968590D01*
X22022893Y-20968590D01*
X22093408Y-20974998D01*
X22093426Y-20974999D01*
X22099999Y-20974998D01*
X22100000Y-20974998D01*
X22100000Y-20250000D01*
X21450001Y-20250000D01*
X21450001Y-20331582D01*
X12300500Y-20331582D01*
X12300500Y-15381995D01*
X13699500Y-15381995D01*
X13699500Y-15618004D01*
X13699501Y-15618020D01*
X13728749Y-15840185D01*
X13730307Y-15852014D01*
X13775144Y-16019346D01*
X13791394Y-16079993D01*
X13881714Y-16298045D01*
X13881719Y-16298056D01*
X13944745Y-16407218D01*
X13999727Y-16502450D01*
X13999729Y-16502453D01*
X13999730Y-16502454D01*
X14143406Y-16689697D01*
X14143412Y-16689704D01*
X14310295Y-16856587D01*
X14310302Y-16856593D01*
X14362547Y-16896682D01*
X14497550Y-17000273D01*
X14621116Y-17071614D01*
X14701943Y-17118280D01*
X14701948Y-17118282D01*
X14701951Y-17118284D01*
X14920007Y-17208606D01*
X15147986Y-17269693D01*
X15381989Y-17300500D01*
X15381996Y-17300500D01*
X15618004Y-17300500D01*
X15618011Y-17300500D01*
X15852014Y-17269693D01*
X16079993Y-17208606D01*
X16298049Y-17118284D01*
X16502450Y-17000273D01*
X16689699Y-16856592D01*
X16856592Y-16689699D01*
X17000273Y-16502450D01*
X17118284Y-16298049D01*
X17208606Y-16079993D01*
X17269693Y-15852014D01*
X17300500Y-15618011D01*
X17300500Y-15381989D01*
X17269693Y-15147986D01*
X17208606Y-14920007D01*
X17118284Y-14701951D01*
X17118282Y-14701948D01*
X17118280Y-14701943D01*
X17070535Y-14619247D01*
X17000273Y-14497550D01*
X16856592Y-14310301D01*
X16856587Y-14310295D01*
X16689704Y-14143412D01*
X16689697Y-14143406D01*
X16502454Y-13999730D01*
X16502453Y-13999729D01*
X16502450Y-13999727D01*
X16420957Y-13952677D01*
X16298056Y-13881719D01*
X16298045Y-13881714D01*
X16079993Y-13791394D01*
X15852010Y-13730306D01*
X15618020Y-13699501D01*
X15618017Y-13699500D01*
X15618011Y-13699500D01*
X15381989Y-13699500D01*
X15381983Y-13699500D01*
X15381979Y-13699501D01*
X15147989Y-13730306D01*
X14920006Y-13791394D01*
X14701954Y-13881714D01*
X14701943Y-13881719D01*
X14497545Y-13999730D01*
X14310302Y-14143406D01*
X14310295Y-14143412D01*
X14143412Y-14310295D01*
X14143406Y-14310302D01*
X13999730Y-14497545D01*
X13881719Y-14701943D01*
X13881714Y-14701954D01*
X13791394Y-14920006D01*
X13730306Y-15147989D01*
X13699501Y-15381979D01*
X13699500Y-15381995D01*
X12300500Y-15381995D01*
X12300500Y-12424500D01*
X12320185Y-12357461D01*
X12372989Y-12311706D01*
X12424500Y-12300500D01*
X19996634Y-12300500D01*
X20063673Y-12320185D01*
G37*
%TD.AperFunction*%
%TA.AperFunction,Conductor*%
G36*
X17830768Y-46480124D02*
G01*
X17834495Y-46482519D01*
X17872371Y-46507828D01*
X17872373Y-46507829D01*
X17930850Y-46519460D01*
X17930853Y-46519461D01*
X17930855Y-46519461D01*
X18259414Y-46519461D01*
X18326453Y-46539146D01*
X18347095Y-46555780D01*
X18713181Y-46921866D01*
X18746666Y-46983189D01*
X18749500Y-47009547D01*
X18749500Y-47065892D01*
X18765293Y-47124833D01*
X18783608Y-47193187D01*
X18787047Y-47199143D01*
X18849500Y-47307314D01*
X18942686Y-47400500D01*
X19056814Y-47466392D01*
X19184108Y-47500500D01*
X19184110Y-47500500D01*
X19315890Y-47500500D01*
X19315892Y-47500500D01*
X19443186Y-47466392D01*
X19557314Y-47400500D01*
X19650500Y-47307314D01*
X19650504Y-47307306D01*
X19655448Y-47300865D01*
X19657534Y-47302466D01*
X19698674Y-47263235D01*
X19767280Y-47250009D01*
X19832147Y-47275973D01*
X19872678Y-47332885D01*
X19879500Y-47373448D01*
X19879500Y-48792852D01*
X19901682Y-48875640D01*
X19920717Y-48908608D01*
X19944535Y-48949862D01*
X19944537Y-48949864D01*
X20293181Y-49298508D01*
X20326666Y-49359831D01*
X20329500Y-49386189D01*
X20329500Y-49440892D01*
X20335921Y-49464855D01*
X20363608Y-49568187D01*
X20381975Y-49599999D01*
X20429500Y-49682314D01*
X20522686Y-49775500D01*
X20636814Y-49841392D01*
X20764108Y-49875500D01*
X20764110Y-49875500D01*
X20895889Y-49875500D01*
X20895892Y-49875500D01*
X20973410Y-49854729D01*
X21043256Y-49856392D01*
X21101118Y-49895554D01*
X21128623Y-49959782D01*
X21129500Y-49974504D01*
X21129500Y-50398810D01*
X21109815Y-50465849D01*
X21093181Y-50486491D01*
X20077103Y-51502568D01*
X20015780Y-51536053D01*
X19946088Y-51531069D01*
X19941981Y-51529452D01*
X19846420Y-51489870D01*
X19846412Y-51489868D01*
X19643469Y-51449500D01*
X19643465Y-51449500D01*
X19436535Y-51449500D01*
X19436530Y-51449500D01*
X19233587Y-51489868D01*
X19233579Y-51489870D01*
X19042403Y-51569058D01*
X18870342Y-51684024D01*
X18724024Y-51830342D01*
X18609057Y-52002403D01*
X18540835Y-52167108D01*
X18496994Y-52221511D01*
X18430700Y-52243576D01*
X18363000Y-52226297D01*
X18315390Y-52175159D01*
X18308343Y-52157973D01*
X18251095Y-51981782D01*
X18154624Y-51792449D01*
X18115270Y-51738282D01*
X18115269Y-51738282D01*
X17482962Y-52370590D01*
X17465925Y-52307007D01*
X17400099Y-52192993D01*
X17307007Y-52099901D01*
X17192993Y-52034075D01*
X17129409Y-52017037D01*
X17761716Y-51384728D01*
X17707550Y-51345375D01*
X17518217Y-51248904D01*
X17316129Y-51183242D01*
X17106246Y-51150000D01*
X16893754Y-51150000D01*
X16683872Y-51183242D01*
X16683869Y-51183242D01*
X16481782Y-51248904D01*
X16292439Y-51345380D01*
X16238282Y-51384727D01*
X16238282Y-51384728D01*
X16870591Y-52017037D01*
X16807007Y-52034075D01*
X16692993Y-52099901D01*
X16599901Y-52192993D01*
X16534075Y-52307007D01*
X16517037Y-52370591D01*
X15884728Y-51738282D01*
X15884727Y-51738282D01*
X15845380Y-51792439D01*
X15746694Y-51986121D01*
X15745678Y-51985603D01*
X15705212Y-52035813D01*
X15638916Y-52057872D01*
X15571218Y-52040588D01*
X15523612Y-51989447D01*
X15510500Y-51933951D01*
X15510500Y-51630249D01*
X15510499Y-51630247D01*
X15498868Y-51571770D01*
X15498867Y-51571769D01*
X15454552Y-51505447D01*
X15388230Y-51461132D01*
X15388229Y-51461131D01*
X15329752Y-51449500D01*
X15329748Y-51449500D01*
X15034500Y-51449500D01*
X14967461Y-51429815D01*
X14921706Y-51377011D01*
X14910500Y-51325500D01*
X14910500Y-50799500D01*
X14930185Y-50732461D01*
X14982989Y-50686706D01*
X15028707Y-50676760D01*
X15028638Y-50675882D01*
X15033491Y-50675500D01*
X15133121Y-50659720D01*
X15133121Y-50659719D01*
X15133126Y-50659719D01*
X15253220Y-50598528D01*
X15348528Y-50503220D01*
X15409719Y-50383126D01*
X15409720Y-50383121D01*
X15425500Y-50283493D01*
X15425500Y-49716506D01*
X15409720Y-49616878D01*
X15409719Y-49616876D01*
X15409719Y-49616874D01*
X15348528Y-49496780D01*
X15348526Y-49496778D01*
X15348523Y-49496774D01*
X15261819Y-49410070D01*
X15228334Y-49348747D01*
X15225500Y-49322389D01*
X15225500Y-48677611D01*
X15245185Y-48610572D01*
X15261819Y-48589930D01*
X15348523Y-48503225D01*
X15348528Y-48503220D01*
X15409719Y-48383126D01*
X15409720Y-48383121D01*
X15425500Y-48283493D01*
X15425500Y-47716506D01*
X15409720Y-47616878D01*
X15409719Y-47616876D01*
X15409719Y-47616874D01*
X15348528Y-47496780D01*
X15348526Y-47496778D01*
X15348523Y-47496774D01*
X15261819Y-47410070D01*
X15228334Y-47348747D01*
X15225500Y-47322389D01*
X15225500Y-46637664D01*
X15245185Y-46570625D01*
X15297989Y-46524870D01*
X15367147Y-46514926D01*
X15373677Y-46516044D01*
X15390855Y-46519461D01*
X16330353Y-46519461D01*
X16330354Y-46519460D01*
X16347514Y-46516047D01*
X16388832Y-46507829D01*
X16388834Y-46507828D01*
X16426711Y-46482519D01*
X16493388Y-46461640D01*
X16560768Y-46480124D01*
X16564495Y-46482519D01*
X16602371Y-46507828D01*
X16602373Y-46507829D01*
X16660850Y-46519460D01*
X16660853Y-46519461D01*
X16660855Y-46519461D01*
X17600353Y-46519461D01*
X17600354Y-46519460D01*
X17617514Y-46516047D01*
X17658832Y-46507829D01*
X17658834Y-46507828D01*
X17696711Y-46482519D01*
X17763388Y-46461640D01*
X17830768Y-46480124D01*
G37*
%TD.AperFunction*%
%TA.AperFunction,Conductor*%
G36*
X30389428Y-22245185D02*
G01*
X30410070Y-22261819D01*
X30496774Y-22348523D01*
X30496778Y-22348526D01*
X30496780Y-22348528D01*
X30616874Y-22409719D01*
X30616876Y-22409719D01*
X30616878Y-22409720D01*
X30716507Y-22425500D01*
X30716512Y-22425500D01*
X31283493Y-22425500D01*
X31383121Y-22409720D01*
X31383121Y-22409719D01*
X31383126Y-22409719D01*
X31503220Y-22348528D01*
X31545265Y-22306483D01*
X31589930Y-22261819D01*
X31651253Y-22228334D01*
X31677611Y-22225500D01*
X32322389Y-22225500D01*
X32389428Y-22245185D01*
X32410070Y-22261819D01*
X32496774Y-22348523D01*
X32496778Y-22348526D01*
X32496780Y-22348528D01*
X32616874Y-22409719D01*
X32616876Y-22409719D01*
X32616878Y-22409720D01*
X32716507Y-22425500D01*
X32716512Y-22425500D01*
X33283493Y-22425500D01*
X33383123Y-22409720D01*
X33392405Y-22406704D01*
X33393326Y-22409541D01*
X33430989Y-22400500D01*
X34137948Y-22400500D01*
X34192407Y-22413098D01*
X34248607Y-22440573D01*
X34282673Y-22445536D01*
X34316739Y-22450500D01*
X34316740Y-22450500D01*
X34674535Y-22450500D01*
X34741574Y-22470185D01*
X34762216Y-22486819D01*
X38513181Y-26237784D01*
X38546666Y-26299107D01*
X38549500Y-26325465D01*
X38549500Y-28245500D01*
X38529815Y-28312539D01*
X38477011Y-28358294D01*
X38425500Y-28369500D01*
X38130247Y-28369500D01*
X38071770Y-28381131D01*
X38071769Y-28381132D01*
X38005447Y-28425447D01*
X37961132Y-28491769D01*
X37961131Y-28491770D01*
X37949500Y-28550247D01*
X37949500Y-30289752D01*
X37961131Y-30348229D01*
X37961132Y-30348230D01*
X38005447Y-30414552D01*
X38071769Y-30458867D01*
X38071770Y-30458868D01*
X38130247Y-30470499D01*
X38130250Y-30470500D01*
X38433952Y-30470500D01*
X38500991Y-30490185D01*
X38546746Y-30542989D01*
X38556690Y-30612147D01*
X38527665Y-30675703D01*
X38485735Y-30705938D01*
X38486121Y-30706694D01*
X38292439Y-30805380D01*
X38238282Y-30844727D01*
X38238282Y-30844728D01*
X38870591Y-31477037D01*
X38807007Y-31494075D01*
X38692993Y-31559901D01*
X38599901Y-31652993D01*
X38534075Y-31767007D01*
X38517037Y-31830591D01*
X37884728Y-31198282D01*
X37884727Y-31198282D01*
X37845380Y-31252439D01*
X37748904Y-31441782D01*
X37683242Y-31643869D01*
X37683242Y-31643872D01*
X37650000Y-31853753D01*
X37650000Y-32066246D01*
X37683242Y-32276127D01*
X37683242Y-32276130D01*
X37748904Y-32478217D01*
X37845375Y-32667550D01*
X37884728Y-32721716D01*
X38517037Y-32089408D01*
X38534075Y-32152993D01*
X38599901Y-32267007D01*
X38692993Y-32360099D01*
X38807007Y-32425925D01*
X38870590Y-32442962D01*
X38238282Y-33075269D01*
X38238282Y-33075270D01*
X38292449Y-33114624D01*
X38481782Y-33211095D01*
X38657973Y-33268343D01*
X38715648Y-33307780D01*
X38742847Y-33372139D01*
X38730932Y-33440985D01*
X38683688Y-33492461D01*
X38667108Y-33500835D01*
X38502403Y-33569057D01*
X38330342Y-33684024D01*
X38184024Y-33830342D01*
X38069058Y-34002403D01*
X37989870Y-34193579D01*
X37989868Y-34193587D01*
X37949500Y-34396530D01*
X37949500Y-34603469D01*
X37982488Y-34769308D01*
X37989870Y-34806420D01*
X38028839Y-34900500D01*
X38029448Y-34901969D01*
X38036917Y-34971438D01*
X38005642Y-35033918D01*
X38002568Y-35037103D01*
X35947531Y-37092142D01*
X35886208Y-37125627D01*
X35859850Y-37128461D01*
X34375248Y-37128461D01*
X34308209Y-37108776D01*
X34262454Y-37055972D01*
X34252510Y-36986814D01*
X34281535Y-36923258D01*
X34301733Y-36906580D01*
X34300865Y-36905448D01*
X34307306Y-36900504D01*
X34307314Y-36900500D01*
X34400500Y-36807314D01*
X34466392Y-36693186D01*
X34500500Y-36565892D01*
X34500500Y-36434108D01*
X34466392Y-36306814D01*
X34400500Y-36192686D01*
X34307314Y-36099500D01*
X34222444Y-36050500D01*
X34193187Y-36033608D01*
X34129539Y-36016554D01*
X34065892Y-35999500D01*
X33934108Y-35999500D01*
X33806812Y-36033608D01*
X33692686Y-36099500D01*
X33692683Y-36099502D01*
X33654005Y-36138181D01*
X33592682Y-36171666D01*
X33566324Y-36174500D01*
X32155103Y-36174500D01*
X32088064Y-36154815D01*
X32042309Y-36102011D01*
X32031103Y-36050500D01*
X32031103Y-35714210D01*
X32031102Y-35714208D01*
X32019471Y-35655731D01*
X32019470Y-35655729D01*
X31994161Y-35617853D01*
X31973282Y-35551176D01*
X31991766Y-35483796D01*
X31994161Y-35480069D01*
X32019470Y-35442192D01*
X32019471Y-35442190D01*
X32031102Y-35383713D01*
X32031103Y-35383711D01*
X32031103Y-35099504D01*
X32050788Y-35032465D01*
X32103592Y-34986710D01*
X32172750Y-34976766D01*
X32187183Y-34979726D01*
X32264713Y-35000500D01*
X32264715Y-35000500D01*
X32396495Y-35000500D01*
X32396497Y-35000500D01*
X32523791Y-34966392D01*
X32637919Y-34900500D01*
X32731105Y-34807314D01*
X32796997Y-34693186D01*
X32831105Y-34565892D01*
X32831105Y-34434108D01*
X32796997Y-34306814D01*
X32731105Y-34192686D01*
X32637919Y-34099500D01*
X32554353Y-34051253D01*
X32523792Y-34033608D01*
X32437815Y-34010571D01*
X32396497Y-33999500D01*
X32396496Y-33999500D01*
X32341794Y-33999500D01*
X32274755Y-33979815D01*
X32254113Y-33963181D01*
X32067422Y-33776490D01*
X32033937Y-33715167D01*
X32031103Y-33688809D01*
X32031103Y-33174210D01*
X32031102Y-33174208D01*
X32019471Y-33115731D01*
X32019470Y-33115729D01*
X31994161Y-33077853D01*
X31973282Y-33011176D01*
X31991766Y-32943796D01*
X31994161Y-32940069D01*
X32019470Y-32902192D01*
X32019471Y-32902190D01*
X32030190Y-32848300D01*
X32031103Y-32843709D01*
X32031103Y-31904213D01*
X32031103Y-31904210D01*
X32027642Y-31886812D01*
X32027641Y-31886810D01*
X32019470Y-31845730D01*
X31988369Y-31799185D01*
X31984107Y-31789675D01*
X31980732Y-31764970D01*
X31973282Y-31741176D01*
X31976086Y-31730952D01*
X31974652Y-31720448D01*
X31985169Y-31697841D01*
X31991766Y-31673796D01*
X31994161Y-31670069D01*
X32019470Y-31632192D01*
X32019471Y-31632190D01*
X32031102Y-31573713D01*
X32031103Y-31573711D01*
X32031103Y-30634210D01*
X32031102Y-30634208D01*
X32019471Y-30575731D01*
X32019470Y-30575729D01*
X31994161Y-30537853D01*
X31973282Y-30471176D01*
X31991766Y-30403796D01*
X31994161Y-30400069D01*
X32019470Y-30362192D01*
X32019471Y-30362190D01*
X32031102Y-30303713D01*
X32031103Y-30303711D01*
X32031103Y-29364210D01*
X32031102Y-29364208D01*
X32019471Y-29305731D01*
X32019470Y-29305730D01*
X31975155Y-29239408D01*
X31908833Y-29195093D01*
X31908832Y-29195092D01*
X31850355Y-29183461D01*
X31850351Y-29183461D01*
X31779986Y-29183461D01*
X31712947Y-29163776D01*
X31667192Y-29110972D01*
X31657248Y-29041814D01*
X31686273Y-28978258D01*
X31717986Y-28952074D01*
X31735672Y-28941862D01*
X31807314Y-28900500D01*
X31900500Y-28807314D01*
X31966392Y-28693186D01*
X32000500Y-28565892D01*
X32000500Y-28434108D01*
X31966392Y-28306814D01*
X31900500Y-28192686D01*
X31807314Y-28099500D01*
X31722444Y-28050500D01*
X31693187Y-28033608D01*
X31629539Y-28016554D01*
X31565892Y-27999500D01*
X31434108Y-27999500D01*
X31306812Y-28033608D01*
X31192686Y-28099500D01*
X31192683Y-28099502D01*
X31154005Y-28138181D01*
X31092682Y-28171666D01*
X31066324Y-28174500D01*
X30605103Y-28174500D01*
X30538064Y-28154815D01*
X30492309Y-28102011D01*
X30481103Y-28050500D01*
X30481103Y-27299210D01*
X30481102Y-27299208D01*
X30469471Y-27240731D01*
X30469470Y-27240730D01*
X30425155Y-27174408D01*
X30358833Y-27130093D01*
X30358832Y-27130092D01*
X30300355Y-27118461D01*
X30300351Y-27118461D01*
X29360855Y-27118461D01*
X29360850Y-27118461D01*
X29302373Y-27130092D01*
X29302372Y-27130093D01*
X29264494Y-27155403D01*
X29197816Y-27176281D01*
X29130436Y-27157796D01*
X29126712Y-27155403D01*
X29088833Y-27130093D01*
X29088832Y-27130092D01*
X29030355Y-27118461D01*
X29030351Y-27118461D01*
X28090855Y-27118461D01*
X28090850Y-27118461D01*
X28032373Y-27130092D01*
X28032372Y-27130093D01*
X27994494Y-27155403D01*
X27927816Y-27176281D01*
X27860436Y-27157796D01*
X27856712Y-27155403D01*
X27818833Y-27130093D01*
X27818832Y-27130092D01*
X27760355Y-27118461D01*
X27760351Y-27118461D01*
X26820855Y-27118461D01*
X26820850Y-27118461D01*
X26762373Y-27130092D01*
X26762372Y-27130093D01*
X26724494Y-27155403D01*
X26657816Y-27176281D01*
X26590436Y-27157796D01*
X26586712Y-27155403D01*
X26548833Y-27130093D01*
X26548832Y-27130092D01*
X26490355Y-27118461D01*
X26490351Y-27118461D01*
X25550855Y-27118461D01*
X25550850Y-27118461D01*
X25492373Y-27130092D01*
X25492372Y-27130093D01*
X25454494Y-27155403D01*
X25387816Y-27176281D01*
X25320436Y-27157796D01*
X25316712Y-27155403D01*
X25278833Y-27130093D01*
X25278832Y-27130092D01*
X25220355Y-27118461D01*
X25220351Y-27118461D01*
X24280855Y-27118461D01*
X24280850Y-27118461D01*
X24222373Y-27130092D01*
X24222372Y-27130093D01*
X24184494Y-27155403D01*
X24117816Y-27176281D01*
X24050436Y-27157796D01*
X24046712Y-27155403D01*
X24008833Y-27130093D01*
X24008832Y-27130092D01*
X23950355Y-27118461D01*
X23950351Y-27118461D01*
X23010855Y-27118461D01*
X23010850Y-27118461D01*
X22952373Y-27130092D01*
X22952372Y-27130093D01*
X22914494Y-27155403D01*
X22847816Y-27176281D01*
X22780436Y-27157796D01*
X22776712Y-27155403D01*
X22738833Y-27130093D01*
X22738832Y-27130092D01*
X22680355Y-27118461D01*
X22680351Y-27118461D01*
X22008839Y-27118461D01*
X21941800Y-27098776D01*
X21896045Y-27045972D01*
X21886101Y-26976814D01*
X21901451Y-26932462D01*
X21959577Y-26831784D01*
X22000500Y-26679057D01*
X22000500Y-26679044D01*
X22001441Y-26671901D01*
X22029707Y-26608003D01*
X22036688Y-26600414D01*
X26375284Y-22261819D01*
X26436607Y-22228334D01*
X26462965Y-22225500D01*
X30322389Y-22225500D01*
X30389428Y-22245185D01*
G37*
%TD.AperFunction*%
%TA.AperFunction,Conductor*%
G36*
X46643834Y-19594006D02*
G01*
X46699767Y-19635878D01*
X46724184Y-19701342D01*
X46724500Y-19710188D01*
X46724500Y-20306517D01*
X46735292Y-20374657D01*
X46739354Y-20400304D01*
X46796950Y-20513342D01*
X46796952Y-20513344D01*
X46796954Y-20513347D01*
X46886652Y-20603045D01*
X46886654Y-20603046D01*
X46886658Y-20603050D01*
X46931796Y-20626049D01*
X46982591Y-20674023D01*
X46999500Y-20736533D01*
X46999500Y-21263466D01*
X46979815Y-21330505D01*
X46931796Y-21373950D01*
X46886656Y-21396950D01*
X46796954Y-21486652D01*
X46796950Y-21486657D01*
X46772005Y-21535614D01*
X46724029Y-21586409D01*
X46656208Y-21603203D01*
X46590074Y-21580664D01*
X46546623Y-21525948D01*
X46543135Y-21516207D01*
X46518017Y-21435600D01*
X46430072Y-21290122D01*
X46309877Y-21169927D01*
X46164395Y-21081980D01*
X46164396Y-21081980D01*
X46002105Y-21031409D01*
X46002106Y-21031409D01*
X45931572Y-21025000D01*
X45925000Y-21025000D01*
X45925000Y-21876000D01*
X45905315Y-21943039D01*
X45852511Y-21988794D01*
X45801000Y-22000000D01*
X45675000Y-22000000D01*
X45675000Y-22126000D01*
X45655315Y-22193039D01*
X45602511Y-22238794D01*
X45551000Y-22250000D01*
X44753659Y-22250000D01*
X44739338Y-22257819D01*
X44669647Y-22252832D01*
X44613715Y-22210958D01*
X44593213Y-22168751D01*
X44559577Y-22043216D01*
X44546026Y-22019745D01*
X44480524Y-21906290D01*
X44480518Y-21906282D01*
X44450412Y-21876176D01*
X44429242Y-21839509D01*
X44427961Y-21840250D01*
X44386266Y-21768033D01*
X44360489Y-21723386D01*
X44174284Y-21537181D01*
X44140799Y-21475858D01*
X44145783Y-21406166D01*
X44187655Y-21350233D01*
X44253119Y-21325816D01*
X44261965Y-21325500D01*
X44697770Y-21325500D01*
X44764809Y-21345185D01*
X44810564Y-21397989D01*
X44820508Y-21467147D01*
X44816155Y-21486390D01*
X44781409Y-21597893D01*
X44775000Y-21668427D01*
X44775000Y-21750000D01*
X45425000Y-21750000D01*
X45425000Y-21025000D01*
X45424999Y-21024999D01*
X45418436Y-21025000D01*
X45415636Y-21025128D01*
X45415630Y-21025000D01*
X45415621Y-21025001D01*
X45415620Y-21024797D01*
X45415577Y-21023846D01*
X45393478Y-21019456D01*
X45366041Y-21017494D01*
X45359697Y-21012745D01*
X45351928Y-21011202D01*
X45332128Y-20992106D01*
X45310108Y-20975622D01*
X45307339Y-20968199D01*
X45301636Y-20962699D01*
X45295302Y-20935928D01*
X45285691Y-20910158D01*
X45287375Y-20902416D01*
X45285551Y-20894706D01*
X45294696Y-20868762D01*
X45300543Y-20841885D01*
X45307398Y-20832727D01*
X45308779Y-20828811D01*
X45321694Y-20813631D01*
X45423507Y-20711818D01*
X45484830Y-20678333D01*
X45511188Y-20675499D01*
X45906517Y-20675499D01*
X45906518Y-20675499D01*
X46000304Y-20660646D01*
X46113342Y-20603050D01*
X46203050Y-20513342D01*
X46260646Y-20400304D01*
X46260646Y-20400302D01*
X46260647Y-20400301D01*
X46275499Y-20306524D01*
X46275500Y-20306519D01*
X46275499Y-19911187D01*
X46295183Y-19844149D01*
X46311813Y-19823512D01*
X46512820Y-19622506D01*
X46574142Y-19589022D01*
X46643834Y-19594006D01*
G37*
%TD.AperFunction*%
%TA.AperFunction,Conductor*%
G36*
X36566555Y-14682402D02*
G01*
X36610903Y-14710903D01*
X36629289Y-14729289D01*
X36615224Y-14743355D01*
X36600000Y-14780109D01*
X36600000Y-14819891D01*
X36615224Y-14856645D01*
X36643355Y-14884776D01*
X36680109Y-14900000D01*
X36719891Y-14900000D01*
X36756645Y-14884776D01*
X36784776Y-14856645D01*
X36800000Y-14819891D01*
X36800000Y-14780109D01*
X36784776Y-14743355D01*
X36770710Y-14729289D01*
X36789096Y-14710904D01*
X36850419Y-14677419D01*
X36920111Y-14682403D01*
X36964458Y-14710904D01*
X37411350Y-15157796D01*
X37444835Y-15219119D01*
X37439851Y-15288811D01*
X37411350Y-15333158D01*
X37344508Y-15400000D01*
X37411350Y-15466842D01*
X37444835Y-15528165D01*
X37439851Y-15597857D01*
X37411350Y-15642204D01*
X37053554Y-16000000D01*
X37288765Y-16235211D01*
X37322250Y-16296534D01*
X37317266Y-16366226D01*
X37312486Y-16377349D01*
X37309428Y-16383603D01*
X37309425Y-16383611D01*
X37299500Y-16451739D01*
X37299500Y-16451740D01*
X37299500Y-16818260D01*
X37305085Y-16856592D01*
X37307799Y-16875219D01*
X37297985Y-16944396D01*
X37272775Y-16980777D01*
X36876777Y-17376777D01*
X36375975Y-17877577D01*
X36481236Y-17921178D01*
X36481240Y-17921179D01*
X36626126Y-17949999D01*
X36626129Y-17950000D01*
X36773871Y-17950000D01*
X36773873Y-17949999D01*
X36918759Y-17921179D01*
X36918767Y-17921177D01*
X37055254Y-17864642D01*
X37055264Y-17864637D01*
X37106609Y-17830330D01*
X37173287Y-17809452D01*
X37240667Y-17827937D01*
X37287357Y-17879915D01*
X37299500Y-17933432D01*
X37299500Y-18080500D01*
X37279815Y-18147539D01*
X37227011Y-18193294D01*
X37175500Y-18204500D01*
X34824500Y-18204500D01*
X34757461Y-18184815D01*
X34711706Y-18132011D01*
X34700500Y-18080500D01*
X34700500Y-17933432D01*
X34720185Y-17866393D01*
X34772989Y-17820638D01*
X34842147Y-17810694D01*
X34893391Y-17830330D01*
X34944735Y-17864637D01*
X34944745Y-17864642D01*
X35081232Y-17921177D01*
X35081240Y-17921179D01*
X35226126Y-17949999D01*
X35226129Y-17950000D01*
X35373871Y-17950000D01*
X35373873Y-17949999D01*
X35518760Y-17921179D01*
X35518775Y-17921175D01*
X35624024Y-17877578D01*
X35624024Y-17877577D01*
X35123223Y-17376777D01*
X34926555Y-17180109D01*
X35200000Y-17180109D01*
X35200000Y-17219891D01*
X35215224Y-17256645D01*
X35243355Y-17284776D01*
X35280109Y-17300000D01*
X35319891Y-17300000D01*
X35356645Y-17284776D01*
X35384776Y-17256645D01*
X35400000Y-17219891D01*
X35400000Y-17199999D01*
X35653554Y-17199999D01*
X35653554Y-17200001D01*
X35977929Y-17524376D01*
X36022069Y-17524376D01*
X36346446Y-17200000D01*
X36326555Y-17180109D01*
X36600000Y-17180109D01*
X36600000Y-17219891D01*
X36615224Y-17256645D01*
X36643355Y-17284776D01*
X36680109Y-17300000D01*
X36719891Y-17300000D01*
X36756645Y-17284776D01*
X36784776Y-17256645D01*
X36800000Y-17219891D01*
X36800000Y-17180109D01*
X36784776Y-17143355D01*
X36756645Y-17115224D01*
X36719891Y-17100000D01*
X36680109Y-17100000D01*
X36643355Y-17115224D01*
X36615224Y-17143355D01*
X36600000Y-17180109D01*
X36326555Y-17180109D01*
X36022068Y-16875622D01*
X35977930Y-16875622D01*
X35653554Y-17199999D01*
X35400000Y-17199999D01*
X35400000Y-17180109D01*
X35384776Y-17143355D01*
X35356645Y-17115224D01*
X35319891Y-17100000D01*
X35280109Y-17100000D01*
X35243355Y-17115224D01*
X35215224Y-17143355D01*
X35200000Y-17180109D01*
X34926555Y-17180109D01*
X34727224Y-16980778D01*
X34693739Y-16919455D01*
X34692201Y-16875219D01*
X34695775Y-16850693D01*
X34700500Y-16818260D01*
X34700500Y-16600000D01*
X35053554Y-16600000D01*
X35300000Y-16846446D01*
X35546446Y-16600000D01*
X36453554Y-16600000D01*
X36700000Y-16846446D01*
X36946446Y-16600000D01*
X36700000Y-16353554D01*
X36453554Y-16600000D01*
X35546446Y-16600000D01*
X35300000Y-16353554D01*
X35053554Y-16600000D01*
X34700500Y-16600000D01*
X34700500Y-16451740D01*
X34690573Y-16383607D01*
X34687515Y-16377353D01*
X34675755Y-16308481D01*
X34703097Y-16244183D01*
X34711234Y-16235209D01*
X34946445Y-15999999D01*
X34926555Y-15980109D01*
X35200000Y-15980109D01*
X35200000Y-16019891D01*
X35215224Y-16056645D01*
X35243355Y-16084776D01*
X35280109Y-16100000D01*
X35319891Y-16100000D01*
X35356645Y-16084776D01*
X35384776Y-16056645D01*
X35400000Y-16019891D01*
X35400000Y-15999999D01*
X35653554Y-15999999D01*
X35653554Y-16000001D01*
X35977929Y-16324376D01*
X36022069Y-16324376D01*
X36346446Y-16000000D01*
X36326555Y-15980109D01*
X36600000Y-15980109D01*
X36600000Y-16019891D01*
X36615224Y-16056645D01*
X36643355Y-16084776D01*
X36680109Y-16100000D01*
X36719891Y-16100000D01*
X36756645Y-16084776D01*
X36784776Y-16056645D01*
X36800000Y-16019891D01*
X36800000Y-15980109D01*
X36784776Y-15943355D01*
X36756645Y-15915224D01*
X36719891Y-15900000D01*
X36680109Y-15900000D01*
X36643355Y-15915224D01*
X36615224Y-15943355D01*
X36600000Y-15980109D01*
X36326555Y-15980109D01*
X36022068Y-15675622D01*
X35977930Y-15675622D01*
X35653554Y-15999999D01*
X35400000Y-15999999D01*
X35400000Y-15980109D01*
X35384776Y-15943355D01*
X35356645Y-15915224D01*
X35319891Y-15900000D01*
X35280109Y-15900000D01*
X35243355Y-15915224D01*
X35215224Y-15943355D01*
X35200000Y-15980109D01*
X34926555Y-15980109D01*
X34711235Y-15764789D01*
X34677750Y-15703466D01*
X34682734Y-15633774D01*
X34687517Y-15622645D01*
X34690572Y-15616395D01*
X34690571Y-15616395D01*
X34690573Y-15616393D01*
X34700500Y-15548260D01*
X34700500Y-15400000D01*
X35053554Y-15400000D01*
X35300000Y-15646446D01*
X35546446Y-15400000D01*
X36453554Y-15400000D01*
X36700000Y-15646446D01*
X36946446Y-15400000D01*
X36700000Y-15153554D01*
X36453554Y-15400000D01*
X35546446Y-15400000D01*
X35300000Y-15153554D01*
X35053554Y-15400000D01*
X34700500Y-15400000D01*
X34700500Y-15181740D01*
X34697042Y-15158007D01*
X34692201Y-15124779D01*
X34702014Y-15055602D01*
X34727224Y-15019220D01*
X35035541Y-14710903D01*
X35096864Y-14677418D01*
X35166556Y-14682402D01*
X35210903Y-14710903D01*
X35229289Y-14729289D01*
X35215224Y-14743355D01*
X35200000Y-14780109D01*
X35200000Y-14819891D01*
X35215224Y-14856645D01*
X35243355Y-14884776D01*
X35280109Y-14900000D01*
X35319891Y-14900000D01*
X35356645Y-14884776D01*
X35384776Y-14856645D01*
X35400000Y-14819891D01*
X35400000Y-14780109D01*
X35384776Y-14743355D01*
X35370709Y-14729288D01*
X35389094Y-14710904D01*
X35450417Y-14677419D01*
X35520109Y-14682403D01*
X35564457Y-14710904D01*
X35977929Y-15124376D01*
X36022069Y-15124376D01*
X36435541Y-14710903D01*
X36496864Y-14677418D01*
X36566555Y-14682402D01*
G37*
%TD.AperFunction*%
%TA.AperFunction,Conductor*%
G36*
X27836876Y-16530280D02*
G01*
X27830448Y-16536709D01*
X27800000Y-16610218D01*
X27800000Y-16689782D01*
X27830448Y-16763291D01*
X27886709Y-16819552D01*
X27960218Y-16850000D01*
X28039782Y-16850000D01*
X28113291Y-16819552D01*
X28169552Y-16763291D01*
X28200000Y-16689782D01*
X28200000Y-16610218D01*
X28169552Y-16536709D01*
X28161020Y-16528177D01*
X28220109Y-16532403D01*
X28264457Y-16560904D01*
X28782060Y-17078506D01*
X28815545Y-17139829D01*
X28810561Y-17209520D01*
X28782061Y-17253868D01*
X28710929Y-17325000D01*
X28782060Y-17396131D01*
X28815545Y-17457454D01*
X28810561Y-17527146D01*
X28782060Y-17571493D01*
X28264457Y-18089095D01*
X28203134Y-18122580D01*
X28163124Y-18119718D01*
X28169552Y-18113291D01*
X28200000Y-18039782D01*
X28200000Y-17960218D01*
X28169552Y-17886709D01*
X28113291Y-17830448D01*
X28039782Y-17800000D01*
X27960218Y-17800000D01*
X27886709Y-17830448D01*
X27830448Y-17886709D01*
X27800000Y-17960218D01*
X27800000Y-18039782D01*
X27830448Y-18113291D01*
X27839487Y-18122330D01*
X27832069Y-18125098D01*
X27806248Y-18119481D01*
X27779889Y-18117596D01*
X27770835Y-18111777D01*
X27763796Y-18110246D01*
X27735542Y-18089095D01*
X27686819Y-18040372D01*
X27653334Y-17979049D01*
X27650500Y-17952691D01*
X27650500Y-17934110D01*
X27650500Y-17934108D01*
X27616392Y-17806814D01*
X27616388Y-17806807D01*
X27613281Y-17799304D01*
X27614616Y-17798751D01*
X27612959Y-17792569D01*
X27605523Y-17780997D01*
X27600500Y-17746062D01*
X27600500Y-17546309D01*
X27620185Y-17479270D01*
X27672989Y-17433515D01*
X27742147Y-17423571D01*
X27805703Y-17452596D01*
X27812181Y-17458628D01*
X28000000Y-17646446D01*
X28000001Y-17646446D01*
X28321446Y-17325001D01*
X28321446Y-17324999D01*
X28000001Y-17003553D01*
X28000000Y-17003553D01*
X27812181Y-17191372D01*
X27792744Y-17201984D01*
X27776011Y-17216485D01*
X27762679Y-17218401D01*
X27750858Y-17224857D01*
X27728771Y-17223277D01*
X27706853Y-17226429D01*
X27694601Y-17220833D01*
X27681166Y-17219873D01*
X27663439Y-17206602D01*
X27643297Y-17197404D01*
X27636014Y-17186072D01*
X27625233Y-17178001D01*
X27617495Y-17157255D01*
X27605523Y-17138626D01*
X27602371Y-17116707D01*
X27600816Y-17112537D01*
X27600500Y-17103691D01*
X27600500Y-16903936D01*
X27614618Y-16851246D01*
X27613282Y-16850693D01*
X27616388Y-16843192D01*
X27616392Y-16843186D01*
X27650500Y-16715892D01*
X27650500Y-16697308D01*
X27659144Y-16667867D01*
X27665668Y-16637881D01*
X27669422Y-16632865D01*
X27670185Y-16630269D01*
X27686819Y-16609627D01*
X27735542Y-16560904D01*
X27796865Y-16527419D01*
X27836876Y-16530280D01*
G37*
%TD.AperFunction*%
%TA.AperFunction,Conductor*%
G36*
X22838251Y-15829144D02*
G01*
X22868238Y-15835668D01*
X22873253Y-15839422D01*
X22875850Y-15840185D01*
X22896492Y-15856819D01*
X22977492Y-15937819D01*
X23010977Y-15999142D01*
X23005993Y-16068834D01*
X22964121Y-16124767D01*
X22898657Y-16149184D01*
X22889811Y-16149500D01*
X22834108Y-16149500D01*
X22706812Y-16183608D01*
X22592686Y-16249500D01*
X22592683Y-16249502D01*
X22499502Y-16342683D01*
X22499500Y-16342686D01*
X22433608Y-16456812D01*
X22413354Y-16532403D01*
X22399500Y-16584108D01*
X22399500Y-16715892D01*
X22415051Y-16773929D01*
X22433608Y-16843186D01*
X22436718Y-16850693D01*
X22435381Y-16851246D01*
X22437035Y-16857422D01*
X22444477Y-16869001D01*
X22449500Y-16903936D01*
X22449500Y-17103691D01*
X22429815Y-17170730D01*
X22377011Y-17216485D01*
X22307853Y-17226429D01*
X22244297Y-17197404D01*
X22237819Y-17191372D01*
X22050001Y-17003553D01*
X22050000Y-17003553D01*
X21728553Y-17325000D01*
X22050000Y-17646446D01*
X22050001Y-17646446D01*
X22237819Y-17458628D01*
X22257255Y-17448015D01*
X22273989Y-17433515D01*
X22287320Y-17431598D01*
X22299142Y-17425143D01*
X22321228Y-17426722D01*
X22343147Y-17423571D01*
X22355398Y-17429166D01*
X22368834Y-17430127D01*
X22386560Y-17443397D01*
X22406703Y-17452596D01*
X22413985Y-17463927D01*
X22424767Y-17471999D01*
X22432504Y-17492744D01*
X22444477Y-17511374D01*
X22447628Y-17533292D01*
X22449184Y-17537463D01*
X22449500Y-17546309D01*
X22449500Y-17746062D01*
X22435383Y-17798751D01*
X22436719Y-17799304D01*
X22433608Y-17806814D01*
X22399500Y-17934108D01*
X22399500Y-17952691D01*
X22390855Y-17982128D01*
X22384332Y-18012119D01*
X22380577Y-18017134D01*
X22379815Y-18019730D01*
X22363181Y-18040372D01*
X22363180Y-18040373D01*
X22314456Y-18089096D01*
X22253133Y-18122580D01*
X22213124Y-18119718D01*
X22219552Y-18113291D01*
X22250000Y-18039782D01*
X22250000Y-17960218D01*
X22219552Y-17886709D01*
X22163291Y-17830448D01*
X22089782Y-17800000D01*
X22010218Y-17800000D01*
X21936709Y-17830448D01*
X21880448Y-17886709D01*
X21850000Y-17960218D01*
X21850000Y-18039782D01*
X21880448Y-18113291D01*
X21888978Y-18121821D01*
X21829889Y-18117596D01*
X21785542Y-18089095D01*
X21267939Y-17571493D01*
X21234454Y-17510170D01*
X21239438Y-17440479D01*
X21267939Y-17396131D01*
X21339070Y-17325000D01*
X21267938Y-17253868D01*
X21234454Y-17192545D01*
X21239438Y-17122853D01*
X21267939Y-17078506D01*
X21736228Y-16610218D01*
X21850000Y-16610218D01*
X21850000Y-16689782D01*
X21880448Y-16763291D01*
X21936709Y-16819552D01*
X22010218Y-16850000D01*
X22089782Y-16850000D01*
X22163291Y-16819552D01*
X22219552Y-16763291D01*
X22250000Y-16689782D01*
X22250000Y-16610218D01*
X22219552Y-16536709D01*
X22163291Y-16480448D01*
X22089782Y-16450000D01*
X22010218Y-16450000D01*
X21936709Y-16480448D01*
X21880448Y-16536709D01*
X21850000Y-16610218D01*
X21736228Y-16610218D01*
X21873223Y-16473223D01*
X22489626Y-15856819D01*
X22550949Y-15823334D01*
X22577307Y-15820500D01*
X22808811Y-15820500D01*
X22838251Y-15829144D01*
G37*
%TD.AperFunction*%
%TA.AperFunction,Conductor*%
G36*
X39924074Y-14565185D02*
G01*
X39944716Y-14581819D01*
X40573386Y-15210489D01*
X40676113Y-15269799D01*
X40700321Y-15276284D01*
X40700324Y-15276286D01*
X40700325Y-15276286D01*
X40730447Y-15284357D01*
X40790691Y-15300500D01*
X40995942Y-15300500D01*
X41062981Y-15320185D01*
X41108736Y-15372989D01*
X41118680Y-15442147D01*
X41116083Y-15452775D01*
X41116425Y-15452850D01*
X41114813Y-15460230D01*
X41112000Y-15490231D01*
X41112000Y-16407218D01*
X41092315Y-16474257D01*
X41075681Y-16494899D01*
X40681102Y-16889477D01*
X40619779Y-16922962D01*
X40550087Y-16917978D01*
X40494154Y-16876106D01*
X40473646Y-16833888D01*
X40466392Y-16806814D01*
X40400500Y-16692686D01*
X40307314Y-16599500D01*
X40240464Y-16560904D01*
X40193187Y-16533608D01*
X40117555Y-16513343D01*
X40065892Y-16499500D01*
X39934108Y-16499500D01*
X39811312Y-16532403D01*
X39802545Y-16534752D01*
X39732695Y-16533089D01*
X39674833Y-16493926D01*
X39655990Y-16462668D01*
X39649996Y-16448282D01*
X39640573Y-16383607D01*
X39589198Y-16278517D01*
X39572168Y-16261487D01*
X39562733Y-16238842D01*
X39561491Y-16227512D01*
X39556029Y-16217509D01*
X39557752Y-16193406D01*
X39555120Y-16169388D01*
X39560199Y-16159186D01*
X39561013Y-16147817D01*
X39575495Y-16128471D01*
X39586265Y-16106844D01*
X39596054Y-16101007D01*
X39602885Y-16091884D01*
X39614075Y-16084419D01*
X39701550Y-16032687D01*
X39701561Y-16032678D01*
X39817678Y-15916561D01*
X39817685Y-15916552D01*
X39901281Y-15775198D01*
X39947100Y-15617486D01*
X39947295Y-15615001D01*
X39947295Y-15615000D01*
X38599000Y-15615000D01*
X38531961Y-15595315D01*
X38486206Y-15542511D01*
X38475000Y-15491000D01*
X38475000Y-15239000D01*
X38494685Y-15171961D01*
X38547489Y-15126206D01*
X38599000Y-15115000D01*
X39947295Y-15115000D01*
X39947295Y-15114998D01*
X39947100Y-15112513D01*
X39901281Y-14954801D01*
X39817685Y-14813447D01*
X39817678Y-14813438D01*
X39761421Y-14757181D01*
X39750808Y-14737744D01*
X39736308Y-14721011D01*
X39734391Y-14707679D01*
X39727936Y-14695858D01*
X39729515Y-14673771D01*
X39726364Y-14651853D01*
X39731959Y-14639601D01*
X39732920Y-14626166D01*
X39746190Y-14608439D01*
X39755389Y-14588297D01*
X39766720Y-14581014D01*
X39774792Y-14570233D01*
X39795537Y-14562495D01*
X39814167Y-14550523D01*
X39836085Y-14547371D01*
X39840256Y-14545816D01*
X39849102Y-14545500D01*
X39857035Y-14545500D01*
X39924074Y-14565185D01*
G37*
%TD.AperFunction*%
%TD*%
M02*
