%TF.GenerationSoftware,KiCad,Pcbnew,10.0.1*%
%TF.CreationDate,2026-06-07T05:50:02+01:00*%
%TF.ProjectId,Amigo,416d6967-6f2e-46b6-9963-61645f706362,rev?*%
%TF.SameCoordinates,Original*%
%TF.FileFunction,Legend,Top*%
%TF.FilePolarity,Positive*%
%FSLAX46Y46*%
G04 Gerber Fmt 4.6, Leading zero omitted, Abs format (unit mm)*
G04 Created by KiCad (PCBNEW 10.0.1) date 2026-06-07 05:50:02*
%MOMM*%
%LPD*%
G01*
G04 APERTURE LIST*
G04 Aperture macros list*
%AMRoundRect*
0 Rectangle with rounded corners*
0 $1 Rounding radius*
0 $2 $3 $4 $5 $6 $7 $8 $9 X,Y pos of 4 corners*
0 Add a 4 corners polygon primitive as box body*
4,1,4,$2,$3,$4,$5,$6,$7,$8,$9,$2,$3,0*
0 Add four circle primitives for the rounded corners*
1,1,$1+$1,$2,$3*
1,1,$1+$1,$4,$5*
1,1,$1+$1,$6,$7*
1,1,$1+$1,$8,$9*
0 Add four rect primitives between the rounded corners*
20,1,$1+$1,$2,$3,$4,$5,0*
20,1,$1+$1,$4,$5,$6,$7,0*
20,1,$1+$1,$6,$7,$8,$9,0*
20,1,$1+$1,$8,$9,$2,$3,0*%
G04 Aperture macros list end*
%ADD10C,0.100000*%
%ADD11C,0.150000*%
%ADD12C,0.120000*%
%ADD13RoundRect,0.225000X0.225000X0.250000X-0.225000X0.250000X-0.225000X-0.250000X0.225000X-0.250000X0*%
%ADD14RoundRect,0.225000X0.250000X-0.225000X0.250000X0.225000X-0.250000X0.225000X-0.250000X-0.225000X0*%
%ADD15RoundRect,0.200000X-0.200000X-0.275000X0.200000X-0.275000X0.200000X0.275000X-0.200000X0.275000X0*%
%ADD16R,1.700000X1.700000*%
%ADD17C,1.700000*%
%ADD18RoundRect,0.200000X0.200000X0.275000X-0.200000X0.275000X-0.200000X-0.275000X0.200000X-0.275000X0*%
%ADD19RoundRect,0.250000X-0.350000X-0.625000X0.350000X-0.625000X0.350000X0.625000X-0.350000X0.625000X0*%
%ADD20O,1.200000X1.750000*%
%ADD21RoundRect,0.225000X-0.250000X0.225000X-0.250000X-0.225000X0.250000X-0.225000X0.250000X0.225000X0*%
%ADD22RoundRect,0.243750X-0.243750X-0.456250X0.243750X-0.456250X0.243750X0.456250X-0.243750X0.456250X0*%
%ADD23C,3.200000*%
%ADD24RoundRect,0.150000X0.512500X0.150000X-0.512500X0.150000X-0.512500X-0.150000X0.512500X-0.150000X0*%
%ADD25R,1.700000X1.000000*%
%ADD26RoundRect,0.150000X0.825000X0.150000X-0.825000X0.150000X-0.825000X-0.150000X0.825000X-0.150000X0*%
%ADD27R,2.410000X3.300000*%
%ADD28RoundRect,0.225000X-0.225000X-0.250000X0.225000X-0.250000X0.225000X0.250000X-0.225000X0.250000X0*%
%ADD29C,0.700000*%
%ADD30O,0.900000X2.400000*%
%ADD31O,0.900000X1.700000*%
%ADD32RoundRect,0.200000X-0.275000X0.200000X-0.275000X-0.200000X0.275000X-0.200000X0.275000X0.200000X0*%
%ADD33R,0.900000X1.500000*%
%ADD34R,1.500000X0.900000*%
%ADD35C,0.600000*%
%ADD36R,3.900000X3.900000*%
G04 APERTURE END LIST*
D10*
X42303884Y-48277180D02*
X42351503Y-48324800D01*
X42351503Y-48324800D02*
X42303884Y-48372419D01*
X42303884Y-48372419D02*
X42256265Y-48324800D01*
X42256265Y-48324800D02*
X42303884Y-48277180D01*
X42303884Y-48277180D02*
X42303884Y-48372419D01*
X42303884Y-47753371D02*
X42351503Y-47800990D01*
X42351503Y-47800990D02*
X42303884Y-47848609D01*
X42303884Y-47848609D02*
X42256265Y-47800990D01*
X42256265Y-47800990D02*
X42303884Y-47753371D01*
X42303884Y-47753371D02*
X42303884Y-47848609D01*
X42684836Y-48753371D02*
X42732455Y-48705752D01*
X42732455Y-48705752D02*
X42827693Y-48562895D01*
X42827693Y-48562895D02*
X42875312Y-48467657D01*
X42875312Y-48467657D02*
X42922931Y-48324800D01*
X42922931Y-48324800D02*
X42970550Y-48086704D01*
X42970550Y-48086704D02*
X42970550Y-47896228D01*
X42970550Y-47896228D02*
X42922931Y-47658133D01*
X42922931Y-47658133D02*
X42875312Y-47515276D01*
X42875312Y-47515276D02*
X42827693Y-47420038D01*
X42827693Y-47420038D02*
X42732455Y-47277180D01*
X42732455Y-47277180D02*
X42684836Y-47229561D01*
D11*
X50583333Y-50289580D02*
X50535714Y-50337200D01*
X50535714Y-50337200D02*
X50392857Y-50384819D01*
X50392857Y-50384819D02*
X50297619Y-50384819D01*
X50297619Y-50384819D02*
X50154762Y-50337200D01*
X50154762Y-50337200D02*
X50059524Y-50241961D01*
X50059524Y-50241961D02*
X50011905Y-50146723D01*
X50011905Y-50146723D02*
X49964286Y-49956247D01*
X49964286Y-49956247D02*
X49964286Y-49813390D01*
X49964286Y-49813390D02*
X50011905Y-49622914D01*
X50011905Y-49622914D02*
X50059524Y-49527676D01*
X50059524Y-49527676D02*
X50154762Y-49432438D01*
X50154762Y-49432438D02*
X50297619Y-49384819D01*
X50297619Y-49384819D02*
X50392857Y-49384819D01*
X50392857Y-49384819D02*
X50535714Y-49432438D01*
X50535714Y-49432438D02*
X50583333Y-49480057D01*
X51488095Y-49384819D02*
X51011905Y-49384819D01*
X51011905Y-49384819D02*
X50964286Y-49861009D01*
X50964286Y-49861009D02*
X51011905Y-49813390D01*
X51011905Y-49813390D02*
X51107143Y-49765771D01*
X51107143Y-49765771D02*
X51345238Y-49765771D01*
X51345238Y-49765771D02*
X51440476Y-49813390D01*
X51440476Y-49813390D02*
X51488095Y-49861009D01*
X51488095Y-49861009D02*
X51535714Y-49956247D01*
X51535714Y-49956247D02*
X51535714Y-50194342D01*
X51535714Y-50194342D02*
X51488095Y-50289580D01*
X51488095Y-50289580D02*
X51440476Y-50337200D01*
X51440476Y-50337200D02*
X51345238Y-50384819D01*
X51345238Y-50384819D02*
X51107143Y-50384819D01*
X51107143Y-50384819D02*
X51011905Y-50337200D01*
X51011905Y-50337200D02*
X50964286Y-50289580D01*
X29929580Y-21166666D02*
X29977200Y-21214285D01*
X29977200Y-21214285D02*
X30024819Y-21357142D01*
X30024819Y-21357142D02*
X30024819Y-21452380D01*
X30024819Y-21452380D02*
X29977200Y-21595237D01*
X29977200Y-21595237D02*
X29881961Y-21690475D01*
X29881961Y-21690475D02*
X29786723Y-21738094D01*
X29786723Y-21738094D02*
X29596247Y-21785713D01*
X29596247Y-21785713D02*
X29453390Y-21785713D01*
X29453390Y-21785713D02*
X29262914Y-21738094D01*
X29262914Y-21738094D02*
X29167676Y-21690475D01*
X29167676Y-21690475D02*
X29072438Y-21595237D01*
X29072438Y-21595237D02*
X29024819Y-21452380D01*
X29024819Y-21452380D02*
X29024819Y-21357142D01*
X29024819Y-21357142D02*
X29072438Y-21214285D01*
X29072438Y-21214285D02*
X29120057Y-21166666D01*
X29453390Y-20595237D02*
X29405771Y-20690475D01*
X29405771Y-20690475D02*
X29358152Y-20738094D01*
X29358152Y-20738094D02*
X29262914Y-20785713D01*
X29262914Y-20785713D02*
X29215295Y-20785713D01*
X29215295Y-20785713D02*
X29120057Y-20738094D01*
X29120057Y-20738094D02*
X29072438Y-20690475D01*
X29072438Y-20690475D02*
X29024819Y-20595237D01*
X29024819Y-20595237D02*
X29024819Y-20404761D01*
X29024819Y-20404761D02*
X29072438Y-20309523D01*
X29072438Y-20309523D02*
X29120057Y-20261904D01*
X29120057Y-20261904D02*
X29215295Y-20214285D01*
X29215295Y-20214285D02*
X29262914Y-20214285D01*
X29262914Y-20214285D02*
X29358152Y-20261904D01*
X29358152Y-20261904D02*
X29405771Y-20309523D01*
X29405771Y-20309523D02*
X29453390Y-20404761D01*
X29453390Y-20404761D02*
X29453390Y-20595237D01*
X29453390Y-20595237D02*
X29501009Y-20690475D01*
X29501009Y-20690475D02*
X29548628Y-20738094D01*
X29548628Y-20738094D02*
X29643866Y-20785713D01*
X29643866Y-20785713D02*
X29834342Y-20785713D01*
X29834342Y-20785713D02*
X29929580Y-20738094D01*
X29929580Y-20738094D02*
X29977200Y-20690475D01*
X29977200Y-20690475D02*
X30024819Y-20595237D01*
X30024819Y-20595237D02*
X30024819Y-20404761D01*
X30024819Y-20404761D02*
X29977200Y-20309523D01*
X29977200Y-20309523D02*
X29929580Y-20261904D01*
X29929580Y-20261904D02*
X29834342Y-20214285D01*
X29834342Y-20214285D02*
X29643866Y-20214285D01*
X29643866Y-20214285D02*
X29548628Y-20261904D01*
X29548628Y-20261904D02*
X29501009Y-20309523D01*
X29501009Y-20309523D02*
X29453390Y-20404761D01*
X39429580Y-21166666D02*
X39477200Y-21214285D01*
X39477200Y-21214285D02*
X39524819Y-21357142D01*
X39524819Y-21357142D02*
X39524819Y-21452380D01*
X39524819Y-21452380D02*
X39477200Y-21595237D01*
X39477200Y-21595237D02*
X39381961Y-21690475D01*
X39381961Y-21690475D02*
X39286723Y-21738094D01*
X39286723Y-21738094D02*
X39096247Y-21785713D01*
X39096247Y-21785713D02*
X38953390Y-21785713D01*
X38953390Y-21785713D02*
X38762914Y-21738094D01*
X38762914Y-21738094D02*
X38667676Y-21690475D01*
X38667676Y-21690475D02*
X38572438Y-21595237D01*
X38572438Y-21595237D02*
X38524819Y-21452380D01*
X38524819Y-21452380D02*
X38524819Y-21357142D01*
X38524819Y-21357142D02*
X38572438Y-21214285D01*
X38572438Y-21214285D02*
X38620057Y-21166666D01*
X38524819Y-20833332D02*
X38524819Y-20166666D01*
X38524819Y-20166666D02*
X39524819Y-20595237D01*
X46333333Y-19789580D02*
X46285714Y-19837200D01*
X46285714Y-19837200D02*
X46142857Y-19884819D01*
X46142857Y-19884819D02*
X46047619Y-19884819D01*
X46047619Y-19884819D02*
X45904762Y-19837200D01*
X45904762Y-19837200D02*
X45809524Y-19741961D01*
X45809524Y-19741961D02*
X45761905Y-19646723D01*
X45761905Y-19646723D02*
X45714286Y-19456247D01*
X45714286Y-19456247D02*
X45714286Y-19313390D01*
X45714286Y-19313390D02*
X45761905Y-19122914D01*
X45761905Y-19122914D02*
X45809524Y-19027676D01*
X45809524Y-19027676D02*
X45904762Y-18932438D01*
X45904762Y-18932438D02*
X46047619Y-18884819D01*
X46047619Y-18884819D02*
X46142857Y-18884819D01*
X46142857Y-18884819D02*
X46285714Y-18932438D01*
X46285714Y-18932438D02*
X46333333Y-18980057D01*
X46809524Y-19884819D02*
X47000000Y-19884819D01*
X47000000Y-19884819D02*
X47095238Y-19837200D01*
X47095238Y-19837200D02*
X47142857Y-19789580D01*
X47142857Y-19789580D02*
X47238095Y-19646723D01*
X47238095Y-19646723D02*
X47285714Y-19456247D01*
X47285714Y-19456247D02*
X47285714Y-19075295D01*
X47285714Y-19075295D02*
X47238095Y-18980057D01*
X47238095Y-18980057D02*
X47190476Y-18932438D01*
X47190476Y-18932438D02*
X47095238Y-18884819D01*
X47095238Y-18884819D02*
X46904762Y-18884819D01*
X46904762Y-18884819D02*
X46809524Y-18932438D01*
X46809524Y-18932438D02*
X46761905Y-18980057D01*
X46761905Y-18980057D02*
X46714286Y-19075295D01*
X46714286Y-19075295D02*
X46714286Y-19313390D01*
X46714286Y-19313390D02*
X46761905Y-19408628D01*
X46761905Y-19408628D02*
X46809524Y-19456247D01*
X46809524Y-19456247D02*
X46904762Y-19503866D01*
X46904762Y-19503866D02*
X47095238Y-19503866D01*
X47095238Y-19503866D02*
X47190476Y-19456247D01*
X47190476Y-19456247D02*
X47238095Y-19408628D01*
X47238095Y-19408628D02*
X47285714Y-19313390D01*
X50083333Y-51524819D02*
X49750000Y-51048628D01*
X49511905Y-51524819D02*
X49511905Y-50524819D01*
X49511905Y-50524819D02*
X49892857Y-50524819D01*
X49892857Y-50524819D02*
X49988095Y-50572438D01*
X49988095Y-50572438D02*
X50035714Y-50620057D01*
X50035714Y-50620057D02*
X50083333Y-50715295D01*
X50083333Y-50715295D02*
X50083333Y-50858152D01*
X50083333Y-50858152D02*
X50035714Y-50953390D01*
X50035714Y-50953390D02*
X49988095Y-51001009D01*
X49988095Y-51001009D02*
X49892857Y-51048628D01*
X49892857Y-51048628D02*
X49511905Y-51048628D01*
X50940476Y-50524819D02*
X50750000Y-50524819D01*
X50750000Y-50524819D02*
X50654762Y-50572438D01*
X50654762Y-50572438D02*
X50607143Y-50620057D01*
X50607143Y-50620057D02*
X50511905Y-50762914D01*
X50511905Y-50762914D02*
X50464286Y-50953390D01*
X50464286Y-50953390D02*
X50464286Y-51334342D01*
X50464286Y-51334342D02*
X50511905Y-51429580D01*
X50511905Y-51429580D02*
X50559524Y-51477200D01*
X50559524Y-51477200D02*
X50654762Y-51524819D01*
X50654762Y-51524819D02*
X50845238Y-51524819D01*
X50845238Y-51524819D02*
X50940476Y-51477200D01*
X50940476Y-51477200D02*
X50988095Y-51429580D01*
X50988095Y-51429580D02*
X51035714Y-51334342D01*
X51035714Y-51334342D02*
X51035714Y-51096247D01*
X51035714Y-51096247D02*
X50988095Y-51001009D01*
X50988095Y-51001009D02*
X50940476Y-50953390D01*
X50940476Y-50953390D02*
X50845238Y-50905771D01*
X50845238Y-50905771D02*
X50654762Y-50905771D01*
X50654762Y-50905771D02*
X50559524Y-50953390D01*
X50559524Y-50953390D02*
X50511905Y-51001009D01*
X50511905Y-51001009D02*
X50464286Y-51096247D01*
X11534819Y-52833333D02*
X12249104Y-52833333D01*
X12249104Y-52833333D02*
X12391961Y-52880952D01*
X12391961Y-52880952D02*
X12487200Y-52976190D01*
X12487200Y-52976190D02*
X12534819Y-53119047D01*
X12534819Y-53119047D02*
X12534819Y-53214285D01*
X11534819Y-51928571D02*
X11534819Y-52119047D01*
X11534819Y-52119047D02*
X11582438Y-52214285D01*
X11582438Y-52214285D02*
X11630057Y-52261904D01*
X11630057Y-52261904D02*
X11772914Y-52357142D01*
X11772914Y-52357142D02*
X11963390Y-52404761D01*
X11963390Y-52404761D02*
X12344342Y-52404761D01*
X12344342Y-52404761D02*
X12439580Y-52357142D01*
X12439580Y-52357142D02*
X12487200Y-52309523D01*
X12487200Y-52309523D02*
X12534819Y-52214285D01*
X12534819Y-52214285D02*
X12534819Y-52023809D01*
X12534819Y-52023809D02*
X12487200Y-51928571D01*
X12487200Y-51928571D02*
X12439580Y-51880952D01*
X12439580Y-51880952D02*
X12344342Y-51833333D01*
X12344342Y-51833333D02*
X12106247Y-51833333D01*
X12106247Y-51833333D02*
X12011009Y-51880952D01*
X12011009Y-51880952D02*
X11963390Y-51928571D01*
X11963390Y-51928571D02*
X11915771Y-52023809D01*
X11915771Y-52023809D02*
X11915771Y-52214285D01*
X11915771Y-52214285D02*
X11963390Y-52309523D01*
X11963390Y-52309523D02*
X12011009Y-52357142D01*
X12011009Y-52357142D02*
X12106247Y-52404761D01*
X51166666Y-19109819D02*
X51166666Y-19824104D01*
X51166666Y-19824104D02*
X51119047Y-19966961D01*
X51119047Y-19966961D02*
X51023809Y-20062200D01*
X51023809Y-20062200D02*
X50880952Y-20109819D01*
X50880952Y-20109819D02*
X50785714Y-20109819D01*
X52119047Y-19109819D02*
X51642857Y-19109819D01*
X51642857Y-19109819D02*
X51595238Y-19586009D01*
X51595238Y-19586009D02*
X51642857Y-19538390D01*
X51642857Y-19538390D02*
X51738095Y-19490771D01*
X51738095Y-19490771D02*
X51976190Y-19490771D01*
X51976190Y-19490771D02*
X52071428Y-19538390D01*
X52071428Y-19538390D02*
X52119047Y-19586009D01*
X52119047Y-19586009D02*
X52166666Y-19681247D01*
X52166666Y-19681247D02*
X52166666Y-19919342D01*
X52166666Y-19919342D02*
X52119047Y-20014580D01*
X52119047Y-20014580D02*
X52071428Y-20062200D01*
X52071428Y-20062200D02*
X51976190Y-20109819D01*
X51976190Y-20109819D02*
X51738095Y-20109819D01*
X51738095Y-20109819D02*
X51642857Y-20062200D01*
X51642857Y-20062200D02*
X51595238Y-20014580D01*
X38666666Y-26494819D02*
X38666666Y-27209104D01*
X38666666Y-27209104D02*
X38619047Y-27351961D01*
X38619047Y-27351961D02*
X38523809Y-27447200D01*
X38523809Y-27447200D02*
X38380952Y-27494819D01*
X38380952Y-27494819D02*
X38285714Y-27494819D01*
X39047619Y-26494819D02*
X39666666Y-26494819D01*
X39666666Y-26494819D02*
X39333333Y-26875771D01*
X39333333Y-26875771D02*
X39476190Y-26875771D01*
X39476190Y-26875771D02*
X39571428Y-26923390D01*
X39571428Y-26923390D02*
X39619047Y-26971009D01*
X39619047Y-26971009D02*
X39666666Y-27066247D01*
X39666666Y-27066247D02*
X39666666Y-27304342D01*
X39666666Y-27304342D02*
X39619047Y-27399580D01*
X39619047Y-27399580D02*
X39571428Y-27447200D01*
X39571428Y-27447200D02*
X39476190Y-27494819D01*
X39476190Y-27494819D02*
X39190476Y-27494819D01*
X39190476Y-27494819D02*
X39095238Y-27447200D01*
X39095238Y-27447200D02*
X39047619Y-27399580D01*
X46333333Y-19024819D02*
X46000000Y-18548628D01*
X45761905Y-19024819D02*
X45761905Y-18024819D01*
X45761905Y-18024819D02*
X46142857Y-18024819D01*
X46142857Y-18024819D02*
X46238095Y-18072438D01*
X46238095Y-18072438D02*
X46285714Y-18120057D01*
X46285714Y-18120057D02*
X46333333Y-18215295D01*
X46333333Y-18215295D02*
X46333333Y-18358152D01*
X46333333Y-18358152D02*
X46285714Y-18453390D01*
X46285714Y-18453390D02*
X46238095Y-18501009D01*
X46238095Y-18501009D02*
X46142857Y-18548628D01*
X46142857Y-18548628D02*
X45761905Y-18548628D01*
X47190476Y-18358152D02*
X47190476Y-19024819D01*
X46952381Y-17977200D02*
X46714286Y-18691485D01*
X46714286Y-18691485D02*
X47333333Y-18691485D01*
X45857142Y-17884819D02*
X45523809Y-17408628D01*
X45285714Y-17884819D02*
X45285714Y-16884819D01*
X45285714Y-16884819D02*
X45666666Y-16884819D01*
X45666666Y-16884819D02*
X45761904Y-16932438D01*
X45761904Y-16932438D02*
X45809523Y-16980057D01*
X45809523Y-16980057D02*
X45857142Y-17075295D01*
X45857142Y-17075295D02*
X45857142Y-17218152D01*
X45857142Y-17218152D02*
X45809523Y-17313390D01*
X45809523Y-17313390D02*
X45761904Y-17361009D01*
X45761904Y-17361009D02*
X45666666Y-17408628D01*
X45666666Y-17408628D02*
X45285714Y-17408628D01*
X46809523Y-17884819D02*
X46238095Y-17884819D01*
X46523809Y-17884819D02*
X46523809Y-16884819D01*
X46523809Y-16884819D02*
X46428571Y-17027676D01*
X46428571Y-17027676D02*
X46333333Y-17122914D01*
X46333333Y-17122914D02*
X46238095Y-17170533D01*
X47428571Y-16884819D02*
X47523809Y-16884819D01*
X47523809Y-16884819D02*
X47619047Y-16932438D01*
X47619047Y-16932438D02*
X47666666Y-16980057D01*
X47666666Y-16980057D02*
X47714285Y-17075295D01*
X47714285Y-17075295D02*
X47761904Y-17265771D01*
X47761904Y-17265771D02*
X47761904Y-17503866D01*
X47761904Y-17503866D02*
X47714285Y-17694342D01*
X47714285Y-17694342D02*
X47666666Y-17789580D01*
X47666666Y-17789580D02*
X47619047Y-17837200D01*
X47619047Y-17837200D02*
X47523809Y-17884819D01*
X47523809Y-17884819D02*
X47428571Y-17884819D01*
X47428571Y-17884819D02*
X47333333Y-17837200D01*
X47333333Y-17837200D02*
X47285714Y-17789580D01*
X47285714Y-17789580D02*
X47238095Y-17694342D01*
X47238095Y-17694342D02*
X47190476Y-17503866D01*
X47190476Y-17503866D02*
X47190476Y-17265771D01*
X47190476Y-17265771D02*
X47238095Y-17075295D01*
X47238095Y-17075295D02*
X47285714Y-16980057D01*
X47285714Y-16980057D02*
X47333333Y-16932438D01*
X47333333Y-16932438D02*
X47428571Y-16884819D01*
X55666666Y-19154819D02*
X55666666Y-19869104D01*
X55666666Y-19869104D02*
X55619047Y-20011961D01*
X55619047Y-20011961D02*
X55523809Y-20107200D01*
X55523809Y-20107200D02*
X55380952Y-20154819D01*
X55380952Y-20154819D02*
X55285714Y-20154819D01*
X56095238Y-19250057D02*
X56142857Y-19202438D01*
X56142857Y-19202438D02*
X56238095Y-19154819D01*
X56238095Y-19154819D02*
X56476190Y-19154819D01*
X56476190Y-19154819D02*
X56571428Y-19202438D01*
X56571428Y-19202438D02*
X56619047Y-19250057D01*
X56619047Y-19250057D02*
X56666666Y-19345295D01*
X56666666Y-19345295D02*
X56666666Y-19440533D01*
X56666666Y-19440533D02*
X56619047Y-19583390D01*
X56619047Y-19583390D02*
X56047619Y-20154819D01*
X56047619Y-20154819D02*
X56666666Y-20154819D01*
X14357142Y-25024819D02*
X14023809Y-24548628D01*
X13785714Y-25024819D02*
X13785714Y-24024819D01*
X13785714Y-24024819D02*
X14166666Y-24024819D01*
X14166666Y-24024819D02*
X14261904Y-24072438D01*
X14261904Y-24072438D02*
X14309523Y-24120057D01*
X14309523Y-24120057D02*
X14357142Y-24215295D01*
X14357142Y-24215295D02*
X14357142Y-24358152D01*
X14357142Y-24358152D02*
X14309523Y-24453390D01*
X14309523Y-24453390D02*
X14261904Y-24501009D01*
X14261904Y-24501009D02*
X14166666Y-24548628D01*
X14166666Y-24548628D02*
X13785714Y-24548628D01*
X15309523Y-25024819D02*
X14738095Y-25024819D01*
X15023809Y-25024819D02*
X15023809Y-24024819D01*
X15023809Y-24024819D02*
X14928571Y-24167676D01*
X14928571Y-24167676D02*
X14833333Y-24262914D01*
X14833333Y-24262914D02*
X14738095Y-24310533D01*
X15690476Y-24120057D02*
X15738095Y-24072438D01*
X15738095Y-24072438D02*
X15833333Y-24024819D01*
X15833333Y-24024819D02*
X16071428Y-24024819D01*
X16071428Y-24024819D02*
X16166666Y-24072438D01*
X16166666Y-24072438D02*
X16214285Y-24120057D01*
X16214285Y-24120057D02*
X16261904Y-24215295D01*
X16261904Y-24215295D02*
X16261904Y-24310533D01*
X16261904Y-24310533D02*
X16214285Y-24453390D01*
X16214285Y-24453390D02*
X15642857Y-25024819D01*
X15642857Y-25024819D02*
X16261904Y-25024819D01*
X52039580Y-44641666D02*
X52087200Y-44689285D01*
X52087200Y-44689285D02*
X52134819Y-44832142D01*
X52134819Y-44832142D02*
X52134819Y-44927380D01*
X52134819Y-44927380D02*
X52087200Y-45070237D01*
X52087200Y-45070237D02*
X51991961Y-45165475D01*
X51991961Y-45165475D02*
X51896723Y-45213094D01*
X51896723Y-45213094D02*
X51706247Y-45260713D01*
X51706247Y-45260713D02*
X51563390Y-45260713D01*
X51563390Y-45260713D02*
X51372914Y-45213094D01*
X51372914Y-45213094D02*
X51277676Y-45165475D01*
X51277676Y-45165475D02*
X51182438Y-45070237D01*
X51182438Y-45070237D02*
X51134819Y-44927380D01*
X51134819Y-44927380D02*
X51134819Y-44832142D01*
X51134819Y-44832142D02*
X51182438Y-44689285D01*
X51182438Y-44689285D02*
X51230057Y-44641666D01*
X51134819Y-43784523D02*
X51134819Y-43974999D01*
X51134819Y-43974999D02*
X51182438Y-44070237D01*
X51182438Y-44070237D02*
X51230057Y-44117856D01*
X51230057Y-44117856D02*
X51372914Y-44213094D01*
X51372914Y-44213094D02*
X51563390Y-44260713D01*
X51563390Y-44260713D02*
X51944342Y-44260713D01*
X51944342Y-44260713D02*
X52039580Y-44213094D01*
X52039580Y-44213094D02*
X52087200Y-44165475D01*
X52087200Y-44165475D02*
X52134819Y-44070237D01*
X52134819Y-44070237D02*
X52134819Y-43879761D01*
X52134819Y-43879761D02*
X52087200Y-43784523D01*
X52087200Y-43784523D02*
X52039580Y-43736904D01*
X52039580Y-43736904D02*
X51944342Y-43689285D01*
X51944342Y-43689285D02*
X51706247Y-43689285D01*
X51706247Y-43689285D02*
X51611009Y-43736904D01*
X51611009Y-43736904D02*
X51563390Y-43784523D01*
X51563390Y-43784523D02*
X51515771Y-43879761D01*
X51515771Y-43879761D02*
X51515771Y-44070237D01*
X51515771Y-44070237D02*
X51563390Y-44165475D01*
X51563390Y-44165475D02*
X51611009Y-44213094D01*
X51611009Y-44213094D02*
X51706247Y-44260713D01*
X14261905Y-22804819D02*
X14261905Y-21804819D01*
X14261905Y-21804819D02*
X14500000Y-21804819D01*
X14500000Y-21804819D02*
X14642857Y-21852438D01*
X14642857Y-21852438D02*
X14738095Y-21947676D01*
X14738095Y-21947676D02*
X14785714Y-22042914D01*
X14785714Y-22042914D02*
X14833333Y-22233390D01*
X14833333Y-22233390D02*
X14833333Y-22376247D01*
X14833333Y-22376247D02*
X14785714Y-22566723D01*
X14785714Y-22566723D02*
X14738095Y-22661961D01*
X14738095Y-22661961D02*
X14642857Y-22757200D01*
X14642857Y-22757200D02*
X14500000Y-22804819D01*
X14500000Y-22804819D02*
X14261905Y-22804819D01*
X15166667Y-21804819D02*
X15785714Y-21804819D01*
X15785714Y-21804819D02*
X15452381Y-22185771D01*
X15452381Y-22185771D02*
X15595238Y-22185771D01*
X15595238Y-22185771D02*
X15690476Y-22233390D01*
X15690476Y-22233390D02*
X15738095Y-22281009D01*
X15738095Y-22281009D02*
X15785714Y-22376247D01*
X15785714Y-22376247D02*
X15785714Y-22614342D01*
X15785714Y-22614342D02*
X15738095Y-22709580D01*
X15738095Y-22709580D02*
X15690476Y-22757200D01*
X15690476Y-22757200D02*
X15595238Y-22804819D01*
X15595238Y-22804819D02*
X15309524Y-22804819D01*
X15309524Y-22804819D02*
X15214286Y-22757200D01*
X15214286Y-22757200D02*
X15166667Y-22709580D01*
X13833333Y-49789580D02*
X13785714Y-49837200D01*
X13785714Y-49837200D02*
X13642857Y-49884819D01*
X13642857Y-49884819D02*
X13547619Y-49884819D01*
X13547619Y-49884819D02*
X13404762Y-49837200D01*
X13404762Y-49837200D02*
X13309524Y-49741961D01*
X13309524Y-49741961D02*
X13261905Y-49646723D01*
X13261905Y-49646723D02*
X13214286Y-49456247D01*
X13214286Y-49456247D02*
X13214286Y-49313390D01*
X13214286Y-49313390D02*
X13261905Y-49122914D01*
X13261905Y-49122914D02*
X13309524Y-49027676D01*
X13309524Y-49027676D02*
X13404762Y-48932438D01*
X13404762Y-48932438D02*
X13547619Y-48884819D01*
X13547619Y-48884819D02*
X13642857Y-48884819D01*
X13642857Y-48884819D02*
X13785714Y-48932438D01*
X13785714Y-48932438D02*
X13833333Y-48980057D01*
X14166667Y-48884819D02*
X14785714Y-48884819D01*
X14785714Y-48884819D02*
X14452381Y-49265771D01*
X14452381Y-49265771D02*
X14595238Y-49265771D01*
X14595238Y-49265771D02*
X14690476Y-49313390D01*
X14690476Y-49313390D02*
X14738095Y-49361009D01*
X14738095Y-49361009D02*
X14785714Y-49456247D01*
X14785714Y-49456247D02*
X14785714Y-49694342D01*
X14785714Y-49694342D02*
X14738095Y-49789580D01*
X14738095Y-49789580D02*
X14690476Y-49837200D01*
X14690476Y-49837200D02*
X14595238Y-49884819D01*
X14595238Y-49884819D02*
X14309524Y-49884819D01*
X14309524Y-49884819D02*
X14214286Y-49837200D01*
X14214286Y-49837200D02*
X14166667Y-49789580D01*
X41799405Y-12654819D02*
X41799405Y-11654819D01*
X41799405Y-11654819D02*
X42037500Y-11654819D01*
X42037500Y-11654819D02*
X42180357Y-11702438D01*
X42180357Y-11702438D02*
X42275595Y-11797676D01*
X42275595Y-11797676D02*
X42323214Y-11892914D01*
X42323214Y-11892914D02*
X42370833Y-12083390D01*
X42370833Y-12083390D02*
X42370833Y-12226247D01*
X42370833Y-12226247D02*
X42323214Y-12416723D01*
X42323214Y-12416723D02*
X42275595Y-12511961D01*
X42275595Y-12511961D02*
X42180357Y-12607200D01*
X42180357Y-12607200D02*
X42037500Y-12654819D01*
X42037500Y-12654819D02*
X41799405Y-12654819D01*
X42751786Y-11750057D02*
X42799405Y-11702438D01*
X42799405Y-11702438D02*
X42894643Y-11654819D01*
X42894643Y-11654819D02*
X43132738Y-11654819D01*
X43132738Y-11654819D02*
X43227976Y-11702438D01*
X43227976Y-11702438D02*
X43275595Y-11750057D01*
X43275595Y-11750057D02*
X43323214Y-11845295D01*
X43323214Y-11845295D02*
X43323214Y-11940533D01*
X43323214Y-11940533D02*
X43275595Y-12083390D01*
X43275595Y-12083390D02*
X42704167Y-12654819D01*
X42704167Y-12654819D02*
X43323214Y-12654819D01*
X45919642Y-15584819D02*
X45586309Y-15108628D01*
X45348214Y-15584819D02*
X45348214Y-14584819D01*
X45348214Y-14584819D02*
X45729166Y-14584819D01*
X45729166Y-14584819D02*
X45824404Y-14632438D01*
X45824404Y-14632438D02*
X45872023Y-14680057D01*
X45872023Y-14680057D02*
X45919642Y-14775295D01*
X45919642Y-14775295D02*
X45919642Y-14918152D01*
X45919642Y-14918152D02*
X45872023Y-15013390D01*
X45872023Y-15013390D02*
X45824404Y-15061009D01*
X45824404Y-15061009D02*
X45729166Y-15108628D01*
X45729166Y-15108628D02*
X45348214Y-15108628D01*
X46872023Y-15584819D02*
X46300595Y-15584819D01*
X46586309Y-15584819D02*
X46586309Y-14584819D01*
X46586309Y-14584819D02*
X46491071Y-14727676D01*
X46491071Y-14727676D02*
X46395833Y-14822914D01*
X46395833Y-14822914D02*
X46300595Y-14870533D01*
X47824404Y-15584819D02*
X47252976Y-15584819D01*
X47538690Y-15584819D02*
X47538690Y-14584819D01*
X47538690Y-14584819D02*
X47443452Y-14727676D01*
X47443452Y-14727676D02*
X47348214Y-14822914D01*
X47348214Y-14822914D02*
X47252976Y-14870533D01*
X14166666Y-54804819D02*
X13833333Y-54328628D01*
X13595238Y-54804819D02*
X13595238Y-53804819D01*
X13595238Y-53804819D02*
X13976190Y-53804819D01*
X13976190Y-53804819D02*
X14071428Y-53852438D01*
X14071428Y-53852438D02*
X14119047Y-53900057D01*
X14119047Y-53900057D02*
X14166666Y-53995295D01*
X14166666Y-53995295D02*
X14166666Y-54138152D01*
X14166666Y-54138152D02*
X14119047Y-54233390D01*
X14119047Y-54233390D02*
X14071428Y-54281009D01*
X14071428Y-54281009D02*
X13976190Y-54328628D01*
X13976190Y-54328628D02*
X13595238Y-54328628D01*
X14595238Y-54281009D02*
X14928571Y-54281009D01*
X15071428Y-54804819D02*
X14595238Y-54804819D01*
X14595238Y-54804819D02*
X14595238Y-53804819D01*
X14595238Y-53804819D02*
X15071428Y-53804819D01*
X15833333Y-54281009D02*
X15500000Y-54281009D01*
X15500000Y-54804819D02*
X15500000Y-53804819D01*
X15500000Y-53804819D02*
X15976190Y-53804819D01*
X16500000Y-53804819D02*
X16500000Y-54042914D01*
X16261905Y-53947676D02*
X16500000Y-54042914D01*
X16500000Y-54042914D02*
X16738095Y-53947676D01*
X16357143Y-54233390D02*
X16500000Y-54042914D01*
X16500000Y-54042914D02*
X16642857Y-54233390D01*
X17261905Y-53804819D02*
X17261905Y-54042914D01*
X17023810Y-53947676D02*
X17261905Y-54042914D01*
X17261905Y-54042914D02*
X17500000Y-53947676D01*
X17119048Y-54233390D02*
X17261905Y-54042914D01*
X17261905Y-54042914D02*
X17404762Y-54233390D01*
X41429580Y-21166666D02*
X41477200Y-21214285D01*
X41477200Y-21214285D02*
X41524819Y-21357142D01*
X41524819Y-21357142D02*
X41524819Y-21452380D01*
X41524819Y-21452380D02*
X41477200Y-21595237D01*
X41477200Y-21595237D02*
X41381961Y-21690475D01*
X41381961Y-21690475D02*
X41286723Y-21738094D01*
X41286723Y-21738094D02*
X41096247Y-21785713D01*
X41096247Y-21785713D02*
X40953390Y-21785713D01*
X40953390Y-21785713D02*
X40762914Y-21738094D01*
X40762914Y-21738094D02*
X40667676Y-21690475D01*
X40667676Y-21690475D02*
X40572438Y-21595237D01*
X40572438Y-21595237D02*
X40524819Y-21452380D01*
X40524819Y-21452380D02*
X40524819Y-21357142D01*
X40524819Y-21357142D02*
X40572438Y-21214285D01*
X40572438Y-21214285D02*
X40620057Y-21166666D01*
X41524819Y-20214285D02*
X41524819Y-20785713D01*
X41524819Y-20499999D02*
X40524819Y-20499999D01*
X40524819Y-20499999D02*
X40667676Y-20595237D01*
X40667676Y-20595237D02*
X40762914Y-20690475D01*
X40762914Y-20690475D02*
X40810533Y-20785713D01*
X57166666Y-54804819D02*
X56833333Y-54328628D01*
X56595238Y-54804819D02*
X56595238Y-53804819D01*
X56595238Y-53804819D02*
X56976190Y-53804819D01*
X56976190Y-53804819D02*
X57071428Y-53852438D01*
X57071428Y-53852438D02*
X57119047Y-53900057D01*
X57119047Y-53900057D02*
X57166666Y-53995295D01*
X57166666Y-53995295D02*
X57166666Y-54138152D01*
X57166666Y-54138152D02*
X57119047Y-54233390D01*
X57119047Y-54233390D02*
X57071428Y-54281009D01*
X57071428Y-54281009D02*
X56976190Y-54328628D01*
X56976190Y-54328628D02*
X56595238Y-54328628D01*
X57595238Y-54281009D02*
X57928571Y-54281009D01*
X58071428Y-54804819D02*
X57595238Y-54804819D01*
X57595238Y-54804819D02*
X57595238Y-53804819D01*
X57595238Y-53804819D02*
X58071428Y-53804819D01*
X58833333Y-54281009D02*
X58500000Y-54281009D01*
X58500000Y-54804819D02*
X58500000Y-53804819D01*
X58500000Y-53804819D02*
X58976190Y-53804819D01*
X59500000Y-53804819D02*
X59500000Y-54042914D01*
X59261905Y-53947676D02*
X59500000Y-54042914D01*
X59500000Y-54042914D02*
X59738095Y-53947676D01*
X59357143Y-54233390D02*
X59500000Y-54042914D01*
X59500000Y-54042914D02*
X59642857Y-54233390D01*
X60261905Y-53804819D02*
X60261905Y-54042914D01*
X60023810Y-53947676D02*
X60261905Y-54042914D01*
X60261905Y-54042914D02*
X60500000Y-53947676D01*
X60119048Y-54233390D02*
X60261905Y-54042914D01*
X60261905Y-54042914D02*
X60404762Y-54233390D01*
X42333333Y-17024819D02*
X42000000Y-16548628D01*
X41761905Y-17024819D02*
X41761905Y-16024819D01*
X41761905Y-16024819D02*
X42142857Y-16024819D01*
X42142857Y-16024819D02*
X42238095Y-16072438D01*
X42238095Y-16072438D02*
X42285714Y-16120057D01*
X42285714Y-16120057D02*
X42333333Y-16215295D01*
X42333333Y-16215295D02*
X42333333Y-16358152D01*
X42333333Y-16358152D02*
X42285714Y-16453390D01*
X42285714Y-16453390D02*
X42238095Y-16501009D01*
X42238095Y-16501009D02*
X42142857Y-16548628D01*
X42142857Y-16548628D02*
X41761905Y-16548628D01*
X42666667Y-16024819D02*
X43285714Y-16024819D01*
X43285714Y-16024819D02*
X42952381Y-16405771D01*
X42952381Y-16405771D02*
X43095238Y-16405771D01*
X43095238Y-16405771D02*
X43190476Y-16453390D01*
X43190476Y-16453390D02*
X43238095Y-16501009D01*
X43238095Y-16501009D02*
X43285714Y-16596247D01*
X43285714Y-16596247D02*
X43285714Y-16834342D01*
X43285714Y-16834342D02*
X43238095Y-16929580D01*
X43238095Y-16929580D02*
X43190476Y-16977200D01*
X43190476Y-16977200D02*
X43095238Y-17024819D01*
X43095238Y-17024819D02*
X42809524Y-17024819D01*
X42809524Y-17024819D02*
X42714286Y-16977200D01*
X42714286Y-16977200D02*
X42666667Y-16929580D01*
X57166666Y-11804819D02*
X56833333Y-11328628D01*
X56595238Y-11804819D02*
X56595238Y-10804819D01*
X56595238Y-10804819D02*
X56976190Y-10804819D01*
X56976190Y-10804819D02*
X57071428Y-10852438D01*
X57071428Y-10852438D02*
X57119047Y-10900057D01*
X57119047Y-10900057D02*
X57166666Y-10995295D01*
X57166666Y-10995295D02*
X57166666Y-11138152D01*
X57166666Y-11138152D02*
X57119047Y-11233390D01*
X57119047Y-11233390D02*
X57071428Y-11281009D01*
X57071428Y-11281009D02*
X56976190Y-11328628D01*
X56976190Y-11328628D02*
X56595238Y-11328628D01*
X57595238Y-11281009D02*
X57928571Y-11281009D01*
X58071428Y-11804819D02*
X57595238Y-11804819D01*
X57595238Y-11804819D02*
X57595238Y-10804819D01*
X57595238Y-10804819D02*
X58071428Y-10804819D01*
X58833333Y-11281009D02*
X58500000Y-11281009D01*
X58500000Y-11804819D02*
X58500000Y-10804819D01*
X58500000Y-10804819D02*
X58976190Y-10804819D01*
X59500000Y-10804819D02*
X59500000Y-11042914D01*
X59261905Y-10947676D02*
X59500000Y-11042914D01*
X59500000Y-11042914D02*
X59738095Y-10947676D01*
X59357143Y-11233390D02*
X59500000Y-11042914D01*
X59500000Y-11042914D02*
X59642857Y-11233390D01*
X60261905Y-10804819D02*
X60261905Y-11042914D01*
X60023810Y-10947676D02*
X60261905Y-11042914D01*
X60261905Y-11042914D02*
X60500000Y-10947676D01*
X60119048Y-11233390D02*
X60261905Y-11042914D01*
X60261905Y-11042914D02*
X60404762Y-11233390D01*
X26833333Y-19024819D02*
X26500000Y-18548628D01*
X26261905Y-19024819D02*
X26261905Y-18024819D01*
X26261905Y-18024819D02*
X26642857Y-18024819D01*
X26642857Y-18024819D02*
X26738095Y-18072438D01*
X26738095Y-18072438D02*
X26785714Y-18120057D01*
X26785714Y-18120057D02*
X26833333Y-18215295D01*
X26833333Y-18215295D02*
X26833333Y-18358152D01*
X26833333Y-18358152D02*
X26785714Y-18453390D01*
X26785714Y-18453390D02*
X26738095Y-18501009D01*
X26738095Y-18501009D02*
X26642857Y-18548628D01*
X26642857Y-18548628D02*
X26261905Y-18548628D01*
X27785714Y-19024819D02*
X27214286Y-19024819D01*
X27500000Y-19024819D02*
X27500000Y-18024819D01*
X27500000Y-18024819D02*
X27404762Y-18167676D01*
X27404762Y-18167676D02*
X27309524Y-18262914D01*
X27309524Y-18262914D02*
X27214286Y-18310533D01*
X35238095Y-22854819D02*
X35238095Y-23664342D01*
X35238095Y-23664342D02*
X35285714Y-23759580D01*
X35285714Y-23759580D02*
X35333333Y-23807200D01*
X35333333Y-23807200D02*
X35428571Y-23854819D01*
X35428571Y-23854819D02*
X35619047Y-23854819D01*
X35619047Y-23854819D02*
X35714285Y-23807200D01*
X35714285Y-23807200D02*
X35761904Y-23759580D01*
X35761904Y-23759580D02*
X35809523Y-23664342D01*
X35809523Y-23664342D02*
X35809523Y-22854819D01*
X36238095Y-22950057D02*
X36285714Y-22902438D01*
X36285714Y-22902438D02*
X36380952Y-22854819D01*
X36380952Y-22854819D02*
X36619047Y-22854819D01*
X36619047Y-22854819D02*
X36714285Y-22902438D01*
X36714285Y-22902438D02*
X36761904Y-22950057D01*
X36761904Y-22950057D02*
X36809523Y-23045295D01*
X36809523Y-23045295D02*
X36809523Y-23140533D01*
X36809523Y-23140533D02*
X36761904Y-23283390D01*
X36761904Y-23283390D02*
X36190476Y-23854819D01*
X36190476Y-23854819D02*
X36809523Y-23854819D01*
X55166667Y-40157200D02*
X55309524Y-40204819D01*
X55309524Y-40204819D02*
X55547619Y-40204819D01*
X55547619Y-40204819D02*
X55642857Y-40157200D01*
X55642857Y-40157200D02*
X55690476Y-40109580D01*
X55690476Y-40109580D02*
X55738095Y-40014342D01*
X55738095Y-40014342D02*
X55738095Y-39919104D01*
X55738095Y-39919104D02*
X55690476Y-39823866D01*
X55690476Y-39823866D02*
X55642857Y-39776247D01*
X55642857Y-39776247D02*
X55547619Y-39728628D01*
X55547619Y-39728628D02*
X55357143Y-39681009D01*
X55357143Y-39681009D02*
X55261905Y-39633390D01*
X55261905Y-39633390D02*
X55214286Y-39585771D01*
X55214286Y-39585771D02*
X55166667Y-39490533D01*
X55166667Y-39490533D02*
X55166667Y-39395295D01*
X55166667Y-39395295D02*
X55214286Y-39300057D01*
X55214286Y-39300057D02*
X55261905Y-39252438D01*
X55261905Y-39252438D02*
X55357143Y-39204819D01*
X55357143Y-39204819D02*
X55595238Y-39204819D01*
X55595238Y-39204819D02*
X55738095Y-39252438D01*
X56071429Y-39204819D02*
X56309524Y-40204819D01*
X56309524Y-40204819D02*
X56500000Y-39490533D01*
X56500000Y-39490533D02*
X56690476Y-40204819D01*
X56690476Y-40204819D02*
X56928572Y-39204819D01*
X57261905Y-39300057D02*
X57309524Y-39252438D01*
X57309524Y-39252438D02*
X57404762Y-39204819D01*
X57404762Y-39204819D02*
X57642857Y-39204819D01*
X57642857Y-39204819D02*
X57738095Y-39252438D01*
X57738095Y-39252438D02*
X57785714Y-39300057D01*
X57785714Y-39300057D02*
X57833333Y-39395295D01*
X57833333Y-39395295D02*
X57833333Y-39490533D01*
X57833333Y-39490533D02*
X57785714Y-39633390D01*
X57785714Y-39633390D02*
X57214286Y-40204819D01*
X57214286Y-40204819D02*
X57833333Y-40204819D01*
X35238095Y-18854819D02*
X35238095Y-19664342D01*
X35238095Y-19664342D02*
X35285714Y-19759580D01*
X35285714Y-19759580D02*
X35333333Y-19807200D01*
X35333333Y-19807200D02*
X35428571Y-19854819D01*
X35428571Y-19854819D02*
X35619047Y-19854819D01*
X35619047Y-19854819D02*
X35714285Y-19807200D01*
X35714285Y-19807200D02*
X35761904Y-19759580D01*
X35761904Y-19759580D02*
X35809523Y-19664342D01*
X35809523Y-19664342D02*
X35809523Y-18854819D01*
X36809523Y-19854819D02*
X36238095Y-19854819D01*
X36523809Y-19854819D02*
X36523809Y-18854819D01*
X36523809Y-18854819D02*
X36428571Y-18997676D01*
X36428571Y-18997676D02*
X36333333Y-19092914D01*
X36333333Y-19092914D02*
X36238095Y-19140533D01*
X46182142Y-30129580D02*
X46134523Y-30177200D01*
X46134523Y-30177200D02*
X45991666Y-30224819D01*
X45991666Y-30224819D02*
X45896428Y-30224819D01*
X45896428Y-30224819D02*
X45753571Y-30177200D01*
X45753571Y-30177200D02*
X45658333Y-30081961D01*
X45658333Y-30081961D02*
X45610714Y-29986723D01*
X45610714Y-29986723D02*
X45563095Y-29796247D01*
X45563095Y-29796247D02*
X45563095Y-29653390D01*
X45563095Y-29653390D02*
X45610714Y-29462914D01*
X45610714Y-29462914D02*
X45658333Y-29367676D01*
X45658333Y-29367676D02*
X45753571Y-29272438D01*
X45753571Y-29272438D02*
X45896428Y-29224819D01*
X45896428Y-29224819D02*
X45991666Y-29224819D01*
X45991666Y-29224819D02*
X46134523Y-29272438D01*
X46134523Y-29272438D02*
X46182142Y-29320057D01*
X47134523Y-30224819D02*
X46563095Y-30224819D01*
X46848809Y-30224819D02*
X46848809Y-29224819D01*
X46848809Y-29224819D02*
X46753571Y-29367676D01*
X46753571Y-29367676D02*
X46658333Y-29462914D01*
X46658333Y-29462914D02*
X46563095Y-29510533D01*
X48086904Y-30224819D02*
X47515476Y-30224819D01*
X47801190Y-30224819D02*
X47801190Y-29224819D01*
X47801190Y-29224819D02*
X47705952Y-29367676D01*
X47705952Y-29367676D02*
X47610714Y-29462914D01*
X47610714Y-29462914D02*
X47515476Y-29510533D01*
X23008333Y-21884819D02*
X22675000Y-21408628D01*
X22436905Y-21884819D02*
X22436905Y-20884819D01*
X22436905Y-20884819D02*
X22817857Y-20884819D01*
X22817857Y-20884819D02*
X22913095Y-20932438D01*
X22913095Y-20932438D02*
X22960714Y-20980057D01*
X22960714Y-20980057D02*
X23008333Y-21075295D01*
X23008333Y-21075295D02*
X23008333Y-21218152D01*
X23008333Y-21218152D02*
X22960714Y-21313390D01*
X22960714Y-21313390D02*
X22913095Y-21361009D01*
X22913095Y-21361009D02*
X22817857Y-21408628D01*
X22817857Y-21408628D02*
X22436905Y-21408628D01*
X23389286Y-20980057D02*
X23436905Y-20932438D01*
X23436905Y-20932438D02*
X23532143Y-20884819D01*
X23532143Y-20884819D02*
X23770238Y-20884819D01*
X23770238Y-20884819D02*
X23865476Y-20932438D01*
X23865476Y-20932438D02*
X23913095Y-20980057D01*
X23913095Y-20980057D02*
X23960714Y-21075295D01*
X23960714Y-21075295D02*
X23960714Y-21170533D01*
X23960714Y-21170533D02*
X23913095Y-21313390D01*
X23913095Y-21313390D02*
X23341667Y-21884819D01*
X23341667Y-21884819D02*
X23960714Y-21884819D01*
X41999405Y-14804819D02*
X41999405Y-13804819D01*
X41999405Y-13804819D02*
X42237500Y-13804819D01*
X42237500Y-13804819D02*
X42380357Y-13852438D01*
X42380357Y-13852438D02*
X42475595Y-13947676D01*
X42475595Y-13947676D02*
X42523214Y-14042914D01*
X42523214Y-14042914D02*
X42570833Y-14233390D01*
X42570833Y-14233390D02*
X42570833Y-14376247D01*
X42570833Y-14376247D02*
X42523214Y-14566723D01*
X42523214Y-14566723D02*
X42475595Y-14661961D01*
X42475595Y-14661961D02*
X42380357Y-14757200D01*
X42380357Y-14757200D02*
X42237500Y-14804819D01*
X42237500Y-14804819D02*
X41999405Y-14804819D01*
X43523214Y-14804819D02*
X42951786Y-14804819D01*
X43237500Y-14804819D02*
X43237500Y-13804819D01*
X43237500Y-13804819D02*
X43142262Y-13947676D01*
X43142262Y-13947676D02*
X43047024Y-14042914D01*
X43047024Y-14042914D02*
X42951786Y-14090533D01*
X24691666Y-19254819D02*
X24691666Y-19969104D01*
X24691666Y-19969104D02*
X24644047Y-20111961D01*
X24644047Y-20111961D02*
X24548809Y-20207200D01*
X24548809Y-20207200D02*
X24405952Y-20254819D01*
X24405952Y-20254819D02*
X24310714Y-20254819D01*
X25691666Y-20254819D02*
X25120238Y-20254819D01*
X25405952Y-20254819D02*
X25405952Y-19254819D01*
X25405952Y-19254819D02*
X25310714Y-19397676D01*
X25310714Y-19397676D02*
X25215476Y-19492914D01*
X25215476Y-19492914D02*
X25120238Y-19540533D01*
X31929580Y-21166666D02*
X31977200Y-21214285D01*
X31977200Y-21214285D02*
X32024819Y-21357142D01*
X32024819Y-21357142D02*
X32024819Y-21452380D01*
X32024819Y-21452380D02*
X31977200Y-21595237D01*
X31977200Y-21595237D02*
X31881961Y-21690475D01*
X31881961Y-21690475D02*
X31786723Y-21738094D01*
X31786723Y-21738094D02*
X31596247Y-21785713D01*
X31596247Y-21785713D02*
X31453390Y-21785713D01*
X31453390Y-21785713D02*
X31262914Y-21738094D01*
X31262914Y-21738094D02*
X31167676Y-21690475D01*
X31167676Y-21690475D02*
X31072438Y-21595237D01*
X31072438Y-21595237D02*
X31024819Y-21452380D01*
X31024819Y-21452380D02*
X31024819Y-21357142D01*
X31024819Y-21357142D02*
X31072438Y-21214285D01*
X31072438Y-21214285D02*
X31120057Y-21166666D01*
X31120057Y-20785713D02*
X31072438Y-20738094D01*
X31072438Y-20738094D02*
X31024819Y-20642856D01*
X31024819Y-20642856D02*
X31024819Y-20404761D01*
X31024819Y-20404761D02*
X31072438Y-20309523D01*
X31072438Y-20309523D02*
X31120057Y-20261904D01*
X31120057Y-20261904D02*
X31215295Y-20214285D01*
X31215295Y-20214285D02*
X31310533Y-20214285D01*
X31310533Y-20214285D02*
X31453390Y-20261904D01*
X31453390Y-20261904D02*
X32024819Y-20833332D01*
X32024819Y-20833332D02*
X32024819Y-20214285D01*
X14166666Y-11804819D02*
X13833333Y-11328628D01*
X13595238Y-11804819D02*
X13595238Y-10804819D01*
X13595238Y-10804819D02*
X13976190Y-10804819D01*
X13976190Y-10804819D02*
X14071428Y-10852438D01*
X14071428Y-10852438D02*
X14119047Y-10900057D01*
X14119047Y-10900057D02*
X14166666Y-10995295D01*
X14166666Y-10995295D02*
X14166666Y-11138152D01*
X14166666Y-11138152D02*
X14119047Y-11233390D01*
X14119047Y-11233390D02*
X14071428Y-11281009D01*
X14071428Y-11281009D02*
X13976190Y-11328628D01*
X13976190Y-11328628D02*
X13595238Y-11328628D01*
X14595238Y-11281009D02*
X14928571Y-11281009D01*
X15071428Y-11804819D02*
X14595238Y-11804819D01*
X14595238Y-11804819D02*
X14595238Y-10804819D01*
X14595238Y-10804819D02*
X15071428Y-10804819D01*
X15833333Y-11281009D02*
X15500000Y-11281009D01*
X15500000Y-11804819D02*
X15500000Y-10804819D01*
X15500000Y-10804819D02*
X15976190Y-10804819D01*
X16500000Y-10804819D02*
X16500000Y-11042914D01*
X16261905Y-10947676D02*
X16500000Y-11042914D01*
X16500000Y-11042914D02*
X16738095Y-10947676D01*
X16357143Y-11233390D02*
X16500000Y-11042914D01*
X16500000Y-11042914D02*
X16642857Y-11233390D01*
X17261905Y-10804819D02*
X17261905Y-11042914D01*
X17023810Y-10947676D02*
X17261905Y-11042914D01*
X17261905Y-11042914D02*
X17500000Y-10947676D01*
X17119048Y-11233390D02*
X17261905Y-11042914D01*
X17261905Y-11042914D02*
X17404762Y-11233390D01*
X44166666Y-53334819D02*
X44166666Y-54049104D01*
X44166666Y-54049104D02*
X44119047Y-54191961D01*
X44119047Y-54191961D02*
X44023809Y-54287200D01*
X44023809Y-54287200D02*
X43880952Y-54334819D01*
X43880952Y-54334819D02*
X43785714Y-54334819D01*
X45071428Y-53668152D02*
X45071428Y-54334819D01*
X44833333Y-53287200D02*
X44595238Y-54001485D01*
X44595238Y-54001485D02*
X45214285Y-54001485D01*
X52134819Y-41366666D02*
X51658628Y-41699999D01*
X52134819Y-41938094D02*
X51134819Y-41938094D01*
X51134819Y-41938094D02*
X51134819Y-41557142D01*
X51134819Y-41557142D02*
X51182438Y-41461904D01*
X51182438Y-41461904D02*
X51230057Y-41414285D01*
X51230057Y-41414285D02*
X51325295Y-41366666D01*
X51325295Y-41366666D02*
X51468152Y-41366666D01*
X51468152Y-41366666D02*
X51563390Y-41414285D01*
X51563390Y-41414285D02*
X51611009Y-41461904D01*
X51611009Y-41461904D02*
X51658628Y-41557142D01*
X51658628Y-41557142D02*
X51658628Y-41938094D01*
X51134819Y-41033332D02*
X51134819Y-40366666D01*
X51134819Y-40366666D02*
X52134819Y-40795237D01*
X46182142Y-32329580D02*
X46134523Y-32377200D01*
X46134523Y-32377200D02*
X45991666Y-32424819D01*
X45991666Y-32424819D02*
X45896428Y-32424819D01*
X45896428Y-32424819D02*
X45753571Y-32377200D01*
X45753571Y-32377200D02*
X45658333Y-32281961D01*
X45658333Y-32281961D02*
X45610714Y-32186723D01*
X45610714Y-32186723D02*
X45563095Y-31996247D01*
X45563095Y-31996247D02*
X45563095Y-31853390D01*
X45563095Y-31853390D02*
X45610714Y-31662914D01*
X45610714Y-31662914D02*
X45658333Y-31567676D01*
X45658333Y-31567676D02*
X45753571Y-31472438D01*
X45753571Y-31472438D02*
X45896428Y-31424819D01*
X45896428Y-31424819D02*
X45991666Y-31424819D01*
X45991666Y-31424819D02*
X46134523Y-31472438D01*
X46134523Y-31472438D02*
X46182142Y-31520057D01*
X47134523Y-32424819D02*
X46563095Y-32424819D01*
X46848809Y-32424819D02*
X46848809Y-31424819D01*
X46848809Y-31424819D02*
X46753571Y-31567676D01*
X46753571Y-31567676D02*
X46658333Y-31662914D01*
X46658333Y-31662914D02*
X46563095Y-31710533D01*
X47753571Y-31424819D02*
X47848809Y-31424819D01*
X47848809Y-31424819D02*
X47944047Y-31472438D01*
X47944047Y-31472438D02*
X47991666Y-31520057D01*
X47991666Y-31520057D02*
X48039285Y-31615295D01*
X48039285Y-31615295D02*
X48086904Y-31805771D01*
X48086904Y-31805771D02*
X48086904Y-32043866D01*
X48086904Y-32043866D02*
X48039285Y-32234342D01*
X48039285Y-32234342D02*
X47991666Y-32329580D01*
X47991666Y-32329580D02*
X47944047Y-32377200D01*
X47944047Y-32377200D02*
X47848809Y-32424819D01*
X47848809Y-32424819D02*
X47753571Y-32424819D01*
X47753571Y-32424819D02*
X47658333Y-32377200D01*
X47658333Y-32377200D02*
X47610714Y-32329580D01*
X47610714Y-32329580D02*
X47563095Y-32234342D01*
X47563095Y-32234342D02*
X47515476Y-32043866D01*
X47515476Y-32043866D02*
X47515476Y-31805771D01*
X47515476Y-31805771D02*
X47563095Y-31615295D01*
X47563095Y-31615295D02*
X47610714Y-31520057D01*
X47610714Y-31520057D02*
X47658333Y-31472438D01*
X47658333Y-31472438D02*
X47753571Y-31424819D01*
X46333333Y-23884819D02*
X46000000Y-23408628D01*
X45761905Y-23884819D02*
X45761905Y-22884819D01*
X45761905Y-22884819D02*
X46142857Y-22884819D01*
X46142857Y-22884819D02*
X46238095Y-22932438D01*
X46238095Y-22932438D02*
X46285714Y-22980057D01*
X46285714Y-22980057D02*
X46333333Y-23075295D01*
X46333333Y-23075295D02*
X46333333Y-23218152D01*
X46333333Y-23218152D02*
X46285714Y-23313390D01*
X46285714Y-23313390D02*
X46238095Y-23361009D01*
X46238095Y-23361009D02*
X46142857Y-23408628D01*
X46142857Y-23408628D02*
X45761905Y-23408628D01*
X47238095Y-22884819D02*
X46761905Y-22884819D01*
X46761905Y-22884819D02*
X46714286Y-23361009D01*
X46714286Y-23361009D02*
X46761905Y-23313390D01*
X46761905Y-23313390D02*
X46857143Y-23265771D01*
X46857143Y-23265771D02*
X47095238Y-23265771D01*
X47095238Y-23265771D02*
X47190476Y-23313390D01*
X47190476Y-23313390D02*
X47238095Y-23361009D01*
X47238095Y-23361009D02*
X47285714Y-23456247D01*
X47285714Y-23456247D02*
X47285714Y-23694342D01*
X47285714Y-23694342D02*
X47238095Y-23789580D01*
X47238095Y-23789580D02*
X47190476Y-23837200D01*
X47190476Y-23837200D02*
X47095238Y-23884819D01*
X47095238Y-23884819D02*
X46857143Y-23884819D01*
X46857143Y-23884819D02*
X46761905Y-23837200D01*
X46761905Y-23837200D02*
X46714286Y-23789580D01*
X13833333Y-51789580D02*
X13785714Y-51837200D01*
X13785714Y-51837200D02*
X13642857Y-51884819D01*
X13642857Y-51884819D02*
X13547619Y-51884819D01*
X13547619Y-51884819D02*
X13404762Y-51837200D01*
X13404762Y-51837200D02*
X13309524Y-51741961D01*
X13309524Y-51741961D02*
X13261905Y-51646723D01*
X13261905Y-51646723D02*
X13214286Y-51456247D01*
X13214286Y-51456247D02*
X13214286Y-51313390D01*
X13214286Y-51313390D02*
X13261905Y-51122914D01*
X13261905Y-51122914D02*
X13309524Y-51027676D01*
X13309524Y-51027676D02*
X13404762Y-50932438D01*
X13404762Y-50932438D02*
X13547619Y-50884819D01*
X13547619Y-50884819D02*
X13642857Y-50884819D01*
X13642857Y-50884819D02*
X13785714Y-50932438D01*
X13785714Y-50932438D02*
X13833333Y-50980057D01*
X14690476Y-51218152D02*
X14690476Y-51884819D01*
X14452381Y-50837200D02*
X14214286Y-51551485D01*
X14214286Y-51551485D02*
X14833333Y-51551485D01*
X55416667Y-54657200D02*
X55559524Y-54704819D01*
X55559524Y-54704819D02*
X55797619Y-54704819D01*
X55797619Y-54704819D02*
X55892857Y-54657200D01*
X55892857Y-54657200D02*
X55940476Y-54609580D01*
X55940476Y-54609580D02*
X55988095Y-54514342D01*
X55988095Y-54514342D02*
X55988095Y-54419104D01*
X55988095Y-54419104D02*
X55940476Y-54323866D01*
X55940476Y-54323866D02*
X55892857Y-54276247D01*
X55892857Y-54276247D02*
X55797619Y-54228628D01*
X55797619Y-54228628D02*
X55607143Y-54181009D01*
X55607143Y-54181009D02*
X55511905Y-54133390D01*
X55511905Y-54133390D02*
X55464286Y-54085771D01*
X55464286Y-54085771D02*
X55416667Y-53990533D01*
X55416667Y-53990533D02*
X55416667Y-53895295D01*
X55416667Y-53895295D02*
X55464286Y-53800057D01*
X55464286Y-53800057D02*
X55511905Y-53752438D01*
X55511905Y-53752438D02*
X55607143Y-53704819D01*
X55607143Y-53704819D02*
X55845238Y-53704819D01*
X55845238Y-53704819D02*
X55988095Y-53752438D01*
X56321429Y-53704819D02*
X56559524Y-54704819D01*
X56559524Y-54704819D02*
X56750000Y-53990533D01*
X56750000Y-53990533D02*
X56940476Y-54704819D01*
X56940476Y-54704819D02*
X57178572Y-53704819D01*
X58083333Y-54704819D02*
X57511905Y-54704819D01*
X57797619Y-54704819D02*
X57797619Y-53704819D01*
X57797619Y-53704819D02*
X57702381Y-53847676D01*
X57702381Y-53847676D02*
X57607143Y-53942914D01*
X57607143Y-53942914D02*
X57511905Y-53990533D01*
X30742507Y-47864141D02*
X30742507Y-47054618D01*
X30742507Y-47054618D02*
X30694888Y-46959380D01*
X30694888Y-46959380D02*
X30647269Y-46911761D01*
X30647269Y-46911761D02*
X30552031Y-46864141D01*
X30552031Y-46864141D02*
X30361555Y-46864141D01*
X30361555Y-46864141D02*
X30266317Y-46911761D01*
X30266317Y-46911761D02*
X30218698Y-46959380D01*
X30218698Y-46959380D02*
X30171079Y-47054618D01*
X30171079Y-47054618D02*
X30171079Y-47864141D01*
X29790126Y-47864141D02*
X29171079Y-47864141D01*
X29171079Y-47864141D02*
X29504412Y-47483189D01*
X29504412Y-47483189D02*
X29361555Y-47483189D01*
X29361555Y-47483189D02*
X29266317Y-47435570D01*
X29266317Y-47435570D02*
X29218698Y-47387951D01*
X29218698Y-47387951D02*
X29171079Y-47292713D01*
X29171079Y-47292713D02*
X29171079Y-47054618D01*
X29171079Y-47054618D02*
X29218698Y-46959380D01*
X29218698Y-46959380D02*
X29266317Y-46911761D01*
X29266317Y-46911761D02*
X29361555Y-46864141D01*
X29361555Y-46864141D02*
X29647269Y-46864141D01*
X29647269Y-46864141D02*
X29742507Y-46911761D01*
X29742507Y-46911761D02*
X29790126Y-46959380D01*
%TO.C,C5*%
D12*
X50890580Y-47990000D02*
X50609420Y-47990000D01*
X50890580Y-49010000D02*
X50609420Y-49010000D01*
%TO.C,C8*%
X30490000Y-21140580D02*
X30490000Y-20859420D01*
X31510000Y-21140580D02*
X31510000Y-20859420D01*
%TO.C,C7*%
X39990000Y-21140580D02*
X39990000Y-20859420D01*
X41010000Y-21140580D02*
X41010000Y-20859420D01*
%TO.C,C9*%
X46640580Y-17490000D02*
X46359420Y-17490000D01*
X46640580Y-18510000D02*
X46359420Y-18510000D01*
%TO.C,R6*%
X50012742Y-51977500D02*
X50487258Y-51977500D01*
X50012742Y-53022500D02*
X50487258Y-53022500D01*
%TO.C,J6*%
X13080000Y-53880000D02*
X13080000Y-52500000D01*
X14460000Y-53880000D02*
X13080000Y-53880000D01*
X15730000Y-51120000D02*
X33620000Y-51120000D01*
X15730000Y-53880000D02*
X15730000Y-51120000D01*
X15730000Y-53880000D02*
X33620000Y-53880000D01*
X33620000Y-53880000D02*
X33620000Y-51120000D01*
%TO.C,J5*%
X50120000Y-16005000D02*
X50120000Y-13355000D01*
X52880000Y-13355000D02*
X50120000Y-13355000D01*
X52880000Y-16005000D02*
X50120000Y-16005000D01*
X52880000Y-16005000D02*
X52880000Y-13355000D01*
X52880000Y-17275000D02*
X52880000Y-18655000D01*
X52880000Y-18655000D02*
X51500000Y-18655000D01*
%TO.C,J3*%
X37620000Y-28040000D02*
X39000000Y-28040000D01*
X37620000Y-29420000D02*
X37620000Y-28040000D01*
X37620000Y-30690000D02*
X37620000Y-48580000D01*
X37620000Y-30690000D02*
X40380000Y-30690000D01*
X37620000Y-48580000D02*
X40380000Y-48580000D01*
X40380000Y-30690000D02*
X40380000Y-48580000D01*
%TO.C,R4*%
X46262742Y-19477500D02*
X46737258Y-19477500D01*
X46262742Y-20522500D02*
X46737258Y-20522500D01*
%TO.C,R10*%
X46737258Y-15477500D02*
X46262742Y-15477500D01*
X46737258Y-16522500D02*
X46262742Y-16522500D01*
%TO.C,J2*%
X52940000Y-20790000D02*
X52940000Y-28610000D01*
X52940000Y-22390000D02*
X53860000Y-22390000D01*
X52940000Y-28610000D02*
X59060000Y-28610000D01*
X53860000Y-20790000D02*
X52940000Y-20790000D01*
X53860000Y-22390000D02*
X53860000Y-20790000D01*
X54140000Y-22390000D02*
X53860000Y-22390000D01*
X54140000Y-22390000D02*
X54140000Y-21175000D01*
X54200000Y-26350000D02*
X54200000Y-28610000D01*
X54700000Y-26350000D02*
X54700000Y-28610000D01*
X55500000Y-24250000D02*
X56500000Y-24250000D01*
X55500000Y-28610000D02*
X55500000Y-24250000D01*
X56500000Y-24250000D02*
X56500000Y-28610000D01*
X58140000Y-20790000D02*
X58140000Y-22390000D01*
X58140000Y-22390000D02*
X57860000Y-22390000D01*
X59060000Y-20790000D02*
X58140000Y-20790000D01*
X59060000Y-22390000D02*
X58140000Y-22390000D01*
X59060000Y-28610000D02*
X59060000Y-20790000D01*
X53700000Y-24750000D02*
X54700000Y-24750000D01*
X54700000Y-26350000D01*
X53700000Y-26350000D01*
X53700000Y-24750000D01*
X57300000Y-24750000D02*
X58300000Y-24750000D01*
X58300000Y-26350000D01*
X57300000Y-26350000D01*
X57300000Y-24750000D01*
%TO.C,R12*%
X14762742Y-25477500D02*
X15237258Y-25477500D01*
X14762742Y-26522500D02*
X15237258Y-26522500D01*
%TO.C,C6*%
X49740000Y-44334420D02*
X49740000Y-44615580D01*
X50760000Y-44334420D02*
X50760000Y-44615580D01*
%TO.C,D3*%
X13315000Y-23040000D02*
X13315000Y-24960000D01*
X13315000Y-24960000D02*
X16000000Y-24960000D01*
X16000000Y-23040000D02*
X13315000Y-23040000D01*
%TO.C,C3*%
X14140580Y-47490000D02*
X13859420Y-47490000D01*
X14140580Y-48510000D02*
X13859420Y-48510000D01*
%TO.C,D2*%
X41052500Y-12740000D02*
X41052500Y-14660000D01*
X41052500Y-14660000D02*
X43737500Y-14660000D01*
X43737500Y-12740000D02*
X41052500Y-12740000D01*
%TO.C,R11*%
X46799758Y-13177500D02*
X46325242Y-13177500D01*
X46799758Y-14222500D02*
X46325242Y-14222500D01*
%TO.C,C1*%
X41990000Y-21140580D02*
X41990000Y-20859420D01*
X43010000Y-21140580D02*
X43010000Y-20859420D01*
%TO.C,R3*%
X42262742Y-17477500D02*
X42737258Y-17477500D01*
X42262742Y-18522500D02*
X42737258Y-18522500D01*
%TO.C,R1*%
X26762742Y-19477500D02*
X27237258Y-19477500D01*
X26762742Y-20522500D02*
X27237258Y-20522500D01*
%TO.C,U2*%
X35090000Y-19440000D02*
X36910000Y-19440000D01*
X35090000Y-19490000D02*
X35090000Y-19440000D01*
X35090000Y-21390000D02*
X35090000Y-20610000D01*
X35090000Y-22560000D02*
X35090000Y-22510000D01*
X36910000Y-19440000D02*
X36910000Y-19490000D01*
X36910000Y-22510000D02*
X36910000Y-22560000D01*
X36910000Y-22560000D02*
X35090000Y-22560000D01*
X37690000Y-22840000D02*
X37210000Y-22840000D01*
X37450000Y-22510000D01*
X37690000Y-22840000D01*
G36*
X37690000Y-22840000D02*
G01*
X37210000Y-22840000D01*
X37450000Y-22510000D01*
X37690000Y-22840000D01*
G37*
%TO.C,SW2*%
X53750000Y-42500000D02*
X53750000Y-44500000D01*
X54800000Y-41200000D02*
X55250000Y-40750000D01*
X54800000Y-45800000D02*
X55250000Y-46250000D01*
X55250000Y-40750000D02*
X57750000Y-40750000D01*
X55250000Y-46250000D02*
X57750000Y-46250000D01*
X58200000Y-41200000D02*
X57750000Y-40750000D01*
X58200000Y-45800000D02*
X57750000Y-46250000D01*
X59250000Y-42500000D02*
X59250000Y-44500000D01*
%TO.C,U1*%
X33940000Y-13440000D02*
X38060000Y-13440000D01*
X33940000Y-13535000D02*
X33940000Y-13440000D01*
X33940000Y-18560000D02*
X33940000Y-18465000D01*
X38060000Y-13440000D02*
X38060000Y-13535000D01*
X38060000Y-18465000D02*
X38060000Y-18560000D01*
X38060000Y-18560000D02*
X33940000Y-18560000D01*
X38840000Y-18800000D02*
X38360000Y-18800000D01*
X38600000Y-18470000D01*
X38840000Y-18800000D01*
G36*
X38840000Y-18800000D02*
G01*
X38360000Y-18800000D01*
X38600000Y-18470000D01*
X38840000Y-18800000D01*
G37*
%TO.C,C11*%
X46684420Y-30690000D02*
X46965580Y-30690000D01*
X46684420Y-31710000D02*
X46965580Y-31710000D01*
%TO.C,R2*%
X23412258Y-19477500D02*
X22937742Y-19477500D01*
X23412258Y-20522500D02*
X22937742Y-20522500D01*
%TO.C,D1*%
X41052500Y-15040000D02*
X41052500Y-16960000D01*
X41052500Y-16960000D02*
X43737500Y-16960000D01*
X43737500Y-15040000D02*
X41052500Y-15040000D01*
%TO.C,J1*%
X20430000Y-12000000D02*
X20430000Y-9270000D01*
X20430000Y-15600000D02*
X20430000Y-14700000D01*
X29500000Y-18680000D02*
X20550000Y-18680000D01*
X29620000Y-9270000D02*
X20430000Y-9270000D01*
X29620000Y-12000000D02*
X29620000Y-9270000D01*
X29620000Y-15600000D02*
X29620000Y-14700000D01*
%TO.C,C2*%
X32490000Y-21140580D02*
X32490000Y-20859420D01*
X33510000Y-21140580D02*
X33510000Y-20859420D01*
%TO.C,J4*%
X43120000Y-50230000D02*
X43120000Y-34880000D01*
X45880000Y-34880000D02*
X43120000Y-34880000D01*
X45880000Y-50230000D02*
X43120000Y-50230000D01*
X45880000Y-50230000D02*
X45880000Y-34880000D01*
X45880000Y-51500000D02*
X45880000Y-52880000D01*
X45880000Y-52880000D02*
X44500000Y-52880000D01*
%TO.C,R7*%
X49727500Y-40962742D02*
X49727500Y-41437258D01*
X50772500Y-40962742D02*
X50772500Y-41437258D01*
%TO.C,C10*%
X46684420Y-32890000D02*
X46965580Y-32890000D01*
X46684420Y-33910000D02*
X46965580Y-33910000D01*
%TO.C,R5*%
X46737258Y-21477500D02*
X46262742Y-21477500D01*
X46737258Y-22522500D02*
X46262742Y-22522500D01*
%TO.C,C4*%
X14140580Y-49490000D02*
X13859420Y-49490000D01*
X14140580Y-50510000D02*
X13859420Y-50510000D01*
%TO.C,SW1*%
X54000000Y-51500000D02*
X54000000Y-49500000D01*
X55050000Y-48200000D02*
X55500000Y-47750000D01*
X55050000Y-52800000D02*
X55500000Y-53250000D01*
X58000000Y-47750000D02*
X55500000Y-47750000D01*
X58000000Y-53250000D02*
X55500000Y-53250000D01*
X58450000Y-48200000D02*
X58000000Y-47750000D01*
X58450000Y-52800000D02*
X58000000Y-53250000D01*
X59500000Y-51500000D02*
X59500000Y-49500000D01*
%TO.C,U3*%
X5680603Y-27618961D02*
X11880603Y-27618961D01*
X5680603Y-46018961D02*
X5680603Y-27618961D01*
X5680603Y-46018961D02*
X11880603Y-46018961D01*
X30530603Y-46018961D02*
X31530603Y-46018961D01*
X31530603Y-27618961D02*
X30530603Y-27618961D01*
X31530603Y-27618961D02*
X31530603Y-29118961D01*
X31530603Y-46018961D02*
X31530603Y-44518961D01*
X12555603Y-46518961D02*
X12055603Y-46018961D01*
X12555603Y-46018961D01*
X12555603Y-46518961D01*
G36*
X12555603Y-46518961D02*
G01*
X12055603Y-46018961D01*
X12555603Y-46018961D01*
X12555603Y-46518961D01*
G37*
%TD*%
%LPC*%
D13*
%TO.C,C5*%
X51525000Y-48500000D03*
X49975000Y-48500000D03*
%TD*%
D14*
%TO.C,C8*%
X31000000Y-21775000D03*
X31000000Y-20225000D03*
%TD*%
%TO.C,C7*%
X40500000Y-21775000D03*
X40500000Y-20225000D03*
%TD*%
D13*
%TO.C,C9*%
X47275000Y-18000000D03*
X45725000Y-18000000D03*
%TD*%
D15*
%TO.C,R6*%
X49425000Y-52500000D03*
X51075000Y-52500000D03*
%TD*%
D16*
%TO.C,J6*%
X14460000Y-52500000D03*
D17*
X17000000Y-52500000D03*
X19540000Y-52500000D03*
X22080000Y-52500000D03*
X24620000Y-52500000D03*
X27160000Y-52500000D03*
X29700000Y-52500000D03*
X32240000Y-52500000D03*
%TD*%
D16*
%TO.C,J5*%
X51500000Y-17275000D03*
D17*
X51500000Y-14735000D03*
%TD*%
D16*
%TO.C,J3*%
X39000000Y-29420000D03*
D17*
X39000000Y-31960000D03*
X39000000Y-34500000D03*
X39000000Y-37040000D03*
X39000000Y-39580000D03*
X39000000Y-42120000D03*
X39000000Y-44660000D03*
X39000000Y-47200000D03*
%TD*%
D15*
%TO.C,R4*%
X45675000Y-20000000D03*
X47325000Y-20000000D03*
%TD*%
D18*
%TO.C,R10*%
X47325000Y-16000000D03*
X45675000Y-16000000D03*
%TD*%
D19*
%TO.C,J2*%
X55000000Y-22250000D03*
D20*
X57000000Y-22250000D03*
%TD*%
D15*
%TO.C,R12*%
X14175000Y-26000000D03*
X15825000Y-26000000D03*
%TD*%
D21*
%TO.C,C6*%
X50250000Y-43700000D03*
X50250000Y-45250000D03*
%TD*%
D22*
%TO.C,D3*%
X14062500Y-24000000D03*
X15937500Y-24000000D03*
%TD*%
D13*
%TO.C,C3*%
X14775000Y-48000000D03*
X13225000Y-48000000D03*
%TD*%
D22*
%TO.C,D2*%
X41800000Y-13700000D03*
X43675000Y-13700000D03*
%TD*%
D18*
%TO.C,R11*%
X47387500Y-13700000D03*
X45737500Y-13700000D03*
%TD*%
D23*
%TO.C,REF\u002A\u002A*%
X15500000Y-58500000D03*
%TD*%
D14*
%TO.C,C1*%
X42500000Y-21775000D03*
X42500000Y-20225000D03*
%TD*%
D23*
%TO.C,REF\u002A\u002A*%
X58500000Y-58500000D03*
%TD*%
D15*
%TO.C,R3*%
X41675000Y-18000000D03*
X43325000Y-18000000D03*
%TD*%
D23*
%TO.C,REF\u002A\u002A*%
X58500000Y-15500000D03*
%TD*%
D15*
%TO.C,R1*%
X26175000Y-20000000D03*
X27825000Y-20000000D03*
%TD*%
D24*
%TO.C,U2*%
X37137500Y-21950000D03*
X37137500Y-21000000D03*
X37137500Y-20050000D03*
X34862500Y-20050000D03*
X34862500Y-21950000D03*
%TD*%
D25*
%TO.C,SW2*%
X53350000Y-41600000D03*
X59650000Y-41600000D03*
X53350000Y-45400000D03*
X59650000Y-45400000D03*
%TD*%
D26*
%TO.C,U1*%
X38475000Y-17905000D03*
X38475000Y-16635000D03*
X38475000Y-15365000D03*
X38475000Y-14095000D03*
X33525000Y-14095000D03*
X33525000Y-15365000D03*
X33525000Y-16635000D03*
X33525000Y-17905000D03*
D27*
X36000000Y-16000000D03*
%TD*%
D28*
%TO.C,C11*%
X46050000Y-31200000D03*
X47600000Y-31200000D03*
%TD*%
D18*
%TO.C,R2*%
X24000000Y-20000000D03*
X22350000Y-20000000D03*
%TD*%
D22*
%TO.C,D1*%
X41800000Y-16000000D03*
X43675000Y-16000000D03*
%TD*%
D29*
%TO.C,J1*%
X28000000Y-18000000D03*
X27150000Y-18000000D03*
X26300000Y-18000000D03*
X25450000Y-18000000D03*
X24600000Y-18000000D03*
X23750000Y-18000000D03*
X22900000Y-18000000D03*
X22050000Y-18000000D03*
X22050000Y-16650000D03*
X22900000Y-16650000D03*
X23750000Y-16650000D03*
X24600000Y-16650000D03*
X25450000Y-16650000D03*
X26300000Y-16650000D03*
X27150000Y-16650000D03*
X28000000Y-16650000D03*
D30*
X29350000Y-17020000D03*
D31*
X29350000Y-13640000D03*
D30*
X20700000Y-17020000D03*
D31*
X20700000Y-13640000D03*
%TD*%
D14*
%TO.C,C2*%
X33000000Y-21775000D03*
X33000000Y-20225000D03*
%TD*%
D23*
%TO.C,REF\u002A\u002A*%
X15500000Y-15500000D03*
%TD*%
D16*
%TO.C,J4*%
X44500000Y-51500000D03*
D17*
X44500000Y-48960000D03*
X44500000Y-46420000D03*
X44500000Y-43880000D03*
X44500000Y-41340000D03*
X44500000Y-38800000D03*
X44500000Y-36260000D03*
%TD*%
D32*
%TO.C,R7*%
X50250000Y-40375000D03*
X50250000Y-42025000D03*
%TD*%
D28*
%TO.C,C10*%
X46050000Y-33400000D03*
X47600000Y-33400000D03*
%TD*%
D18*
%TO.C,R5*%
X47325000Y-22000000D03*
X45675000Y-22000000D03*
%TD*%
D13*
%TO.C,C4*%
X14775000Y-50000000D03*
X13225000Y-50000000D03*
%TD*%
D25*
%TO.C,SW1*%
X59900000Y-52400000D03*
X53600000Y-52400000D03*
X59900000Y-48600000D03*
X53600000Y-48600000D03*
%TD*%
D33*
%TO.C,U3*%
X13320603Y-45568961D03*
X14590603Y-45568961D03*
X15860603Y-45568961D03*
X17130603Y-45568961D03*
X18400603Y-45568961D03*
X19670603Y-45568961D03*
X20940603Y-45568961D03*
X22210603Y-45568961D03*
X23480603Y-45568961D03*
X24750603Y-45568961D03*
X26020603Y-45568961D03*
X27290603Y-45568961D03*
X28560603Y-45568961D03*
X29830603Y-45568961D03*
D34*
X31080603Y-43803961D03*
X31080603Y-42533961D03*
X31080603Y-41263961D03*
X31080603Y-39993961D03*
X31080603Y-38723961D03*
X31080603Y-37453961D03*
X31080603Y-36183961D03*
X31080603Y-34913961D03*
X31080603Y-33643961D03*
X31080603Y-32373961D03*
X31080603Y-31103961D03*
X31080603Y-29833961D03*
D33*
X29830603Y-28068961D03*
X28560603Y-28068961D03*
X27290603Y-28068961D03*
X26020603Y-28068961D03*
X24750603Y-28068961D03*
X23480603Y-28068961D03*
X22210603Y-28068961D03*
X20940603Y-28068961D03*
X19670603Y-28068961D03*
X18400603Y-28068961D03*
X17130603Y-28068961D03*
X15860603Y-28068961D03*
X14590603Y-28068961D03*
X13320603Y-28068961D03*
D35*
X20340603Y-39718961D03*
X21740603Y-39718961D03*
X19640603Y-39018961D03*
X21040603Y-39018961D03*
X22440603Y-39018961D03*
X20340603Y-38318961D03*
D36*
X21040603Y-38318961D03*
D35*
X21740603Y-38318961D03*
X19640603Y-37618961D03*
X21040603Y-37618961D03*
X22440603Y-37618961D03*
X20340603Y-36918961D03*
X21740603Y-36918961D03*
%TD*%
%LPD*%
M02*
