%TF.GenerationSoftware,KiCad,Pcbnew,10.0.1*%
%TF.CreationDate,2026-05-20T22:31:14-07:00*%
%TF.ProjectId,Amigo,416d6967-6f2e-46b6-9963-61645f706362,rev?*%
%TF.SameCoordinates,Original*%
%TF.FileFunction,Legend,Bot*%
%TF.FilePolarity,Positive*%
%FSLAX46Y46*%
G04 Gerber Fmt 4.6, Leading zero omitted, Abs format (unit mm)*
G04 Created by KiCad (PCBNEW 10.0.1) date 2026-05-20 22:31:14*
%MOMM*%
%LPD*%
G01*
G04 APERTURE LIST*
G04 Aperture macros list*
%AMRoundRect*
0 Rectangle with rounded corners*
0 $1 Rounding radius*
0 $2 $3 $4 $5 $6 $7 $8 $9 X,Y pos of 4 corners*
0 Add a 4 corners polygon primitive as box body*
4,1,4,$2,$3,$4,$5,$6,$7,$8,$9,$2,$3,0*
0 Add four circle primitives for the rounded corners*
1,1,$1+$1,$2,$3*
1,1,$1+$1,$4,$5*
1,1,$1+$1,$6,$7*
1,1,$1+$1,$8,$9*
0 Add four rect primitives between the rounded corners*
20,1,$1+$1,$2,$3,$4,$5,0*
20,1,$1+$1,$4,$5,$6,$7,0*
20,1,$1+$1,$6,$7,$8,$9,0*
20,1,$1+$1,$8,$9,$2,$3,0*%
G04 Aperture macros list end*
%ADD10C,0.150000*%
%ADD11C,0.120000*%
%ADD12R,1.700000X1.700000*%
%ADD13C,1.700000*%
%ADD14C,3.200000*%
%ADD15RoundRect,0.250000X0.625000X-0.350000X0.625000X0.350000X-0.625000X0.350000X-0.625000X-0.350000X0*%
%ADD16O,1.750000X1.200000*%
%ADD17C,0.700000*%
%ADD18O,0.900000X2.400000*%
%ADD19O,0.900000X1.700000*%
%ADD20RoundRect,0.225000X0.225000X0.250000X-0.225000X0.250000X-0.225000X-0.250000X0.225000X-0.250000X0*%
G04 APERTURE END LIST*
D10*
X60954819Y-28166666D02*
X61669104Y-28166666D01*
X61669104Y-28166666D02*
X61811961Y-28119047D01*
X61811961Y-28119047D02*
X61907200Y-28023809D01*
X61907200Y-28023809D02*
X61954819Y-27880952D01*
X61954819Y-27880952D02*
X61954819Y-27785714D01*
X60954819Y-29119047D02*
X60954819Y-28642857D01*
X60954819Y-28642857D02*
X61431009Y-28595238D01*
X61431009Y-28595238D02*
X61383390Y-28642857D01*
X61383390Y-28642857D02*
X61335771Y-28738095D01*
X61335771Y-28738095D02*
X61335771Y-28976190D01*
X61335771Y-28976190D02*
X61383390Y-29071428D01*
X61383390Y-29071428D02*
X61431009Y-29119047D01*
X61431009Y-29119047D02*
X61526247Y-29166666D01*
X61526247Y-29166666D02*
X61764342Y-29166666D01*
X61764342Y-29166666D02*
X61859580Y-29119047D01*
X61859580Y-29119047D02*
X61907200Y-29071428D01*
X61907200Y-29071428D02*
X61954819Y-28976190D01*
X61954819Y-28976190D02*
X61954819Y-28738095D01*
X61954819Y-28738095D02*
X61907200Y-28642857D01*
X61907200Y-28642857D02*
X61859580Y-28595238D01*
X53642857Y-54429580D02*
X53690476Y-54477200D01*
X53690476Y-54477200D02*
X53833333Y-54524819D01*
X53833333Y-54524819D02*
X53928571Y-54524819D01*
X53928571Y-54524819D02*
X54071428Y-54477200D01*
X54071428Y-54477200D02*
X54166666Y-54381961D01*
X54166666Y-54381961D02*
X54214285Y-54286723D01*
X54214285Y-54286723D02*
X54261904Y-54096247D01*
X54261904Y-54096247D02*
X54261904Y-53953390D01*
X54261904Y-53953390D02*
X54214285Y-53762914D01*
X54214285Y-53762914D02*
X54166666Y-53667676D01*
X54166666Y-53667676D02*
X54071428Y-53572438D01*
X54071428Y-53572438D02*
X53928571Y-53524819D01*
X53928571Y-53524819D02*
X53833333Y-53524819D01*
X53833333Y-53524819D02*
X53690476Y-53572438D01*
X53690476Y-53572438D02*
X53642857Y-53620057D01*
X52690476Y-54524819D02*
X53261904Y-54524819D01*
X52976190Y-54524819D02*
X52976190Y-53524819D01*
X52976190Y-53524819D02*
X53071428Y-53667676D01*
X53071428Y-53667676D02*
X53166666Y-53762914D01*
X53166666Y-53762914D02*
X53261904Y-53810533D01*
X51738095Y-54524819D02*
X52309523Y-54524819D01*
X52023809Y-54524819D02*
X52023809Y-53524819D01*
X52023809Y-53524819D02*
X52119047Y-53667676D01*
X52119047Y-53667676D02*
X52214285Y-53762914D01*
X52214285Y-53762914D02*
X52309523Y-53810533D01*
X34494819Y-58666666D02*
X35209104Y-58666666D01*
X35209104Y-58666666D02*
X35351961Y-58619047D01*
X35351961Y-58619047D02*
X35447200Y-58523809D01*
X35447200Y-58523809D02*
X35494819Y-58380952D01*
X35494819Y-58380952D02*
X35494819Y-58285714D01*
X34828152Y-59571428D02*
X35494819Y-59571428D01*
X34447200Y-59333333D02*
X35161485Y-59095238D01*
X35161485Y-59095238D02*
X35161485Y-59714285D01*
X50417857Y-54429580D02*
X50465476Y-54477200D01*
X50465476Y-54477200D02*
X50608333Y-54524819D01*
X50608333Y-54524819D02*
X50703571Y-54524819D01*
X50703571Y-54524819D02*
X50846428Y-54477200D01*
X50846428Y-54477200D02*
X50941666Y-54381961D01*
X50941666Y-54381961D02*
X50989285Y-54286723D01*
X50989285Y-54286723D02*
X51036904Y-54096247D01*
X51036904Y-54096247D02*
X51036904Y-53953390D01*
X51036904Y-53953390D02*
X50989285Y-53762914D01*
X50989285Y-53762914D02*
X50941666Y-53667676D01*
X50941666Y-53667676D02*
X50846428Y-53572438D01*
X50846428Y-53572438D02*
X50703571Y-53524819D01*
X50703571Y-53524819D02*
X50608333Y-53524819D01*
X50608333Y-53524819D02*
X50465476Y-53572438D01*
X50465476Y-53572438D02*
X50417857Y-53620057D01*
X49465476Y-54524819D02*
X50036904Y-54524819D01*
X49751190Y-54524819D02*
X49751190Y-53524819D01*
X49751190Y-53524819D02*
X49846428Y-53667676D01*
X49846428Y-53667676D02*
X49941666Y-53762914D01*
X49941666Y-53762914D02*
X50036904Y-53810533D01*
X48846428Y-53524819D02*
X48751190Y-53524819D01*
X48751190Y-53524819D02*
X48655952Y-53572438D01*
X48655952Y-53572438D02*
X48608333Y-53620057D01*
X48608333Y-53620057D02*
X48560714Y-53715295D01*
X48560714Y-53715295D02*
X48513095Y-53905771D01*
X48513095Y-53905771D02*
X48513095Y-54143866D01*
X48513095Y-54143866D02*
X48560714Y-54334342D01*
X48560714Y-54334342D02*
X48608333Y-54429580D01*
X48608333Y-54429580D02*
X48655952Y-54477200D01*
X48655952Y-54477200D02*
X48751190Y-54524819D01*
X48751190Y-54524819D02*
X48846428Y-54524819D01*
X48846428Y-54524819D02*
X48941666Y-54477200D01*
X48941666Y-54477200D02*
X48989285Y-54429580D01*
X48989285Y-54429580D02*
X49036904Y-54334342D01*
X49036904Y-54334342D02*
X49084523Y-54143866D01*
X49084523Y-54143866D02*
X49084523Y-53905771D01*
X49084523Y-53905771D02*
X49036904Y-53715295D01*
X49036904Y-53715295D02*
X48989285Y-53620057D01*
X48989285Y-53620057D02*
X48941666Y-53572438D01*
X48941666Y-53572438D02*
X48846428Y-53524819D01*
%TO.C,J5*%
D11*
X39960000Y-29880000D02*
X39960000Y-27120000D01*
X57850000Y-27120000D02*
X39960000Y-27120000D01*
X57850000Y-29880000D02*
X39960000Y-29880000D01*
X57850000Y-29880000D02*
X57850000Y-27120000D01*
X59120000Y-29880000D02*
X60500000Y-29880000D01*
X60500000Y-29880000D02*
X60500000Y-28500000D01*
%TO.C,C11*%
X53140580Y-54990000D02*
X52859420Y-54990000D01*
X53140580Y-56010000D02*
X52859420Y-56010000D01*
%TO.C,J4*%
X36040000Y-57620000D02*
X36040000Y-59000000D01*
X37420000Y-57620000D02*
X36040000Y-57620000D01*
X38690000Y-57620000D02*
X38690000Y-60380000D01*
X38690000Y-57620000D02*
X54040000Y-57620000D01*
X38690000Y-60380000D02*
X54040000Y-60380000D01*
X54040000Y-57620000D02*
X54040000Y-60380000D01*
%TO.C,C10*%
X49915580Y-54990000D02*
X49634420Y-54990000D01*
X49915580Y-56010000D02*
X49634420Y-56010000D01*
%TD*%
%LPC*%
D12*
%TO.C,J3*%
X25190000Y-59000000D03*
D13*
X27730000Y-59000000D03*
X30270000Y-59000000D03*
X32810000Y-59000000D03*
%TD*%
D12*
%TO.C,J6*%
X14460000Y-52500000D03*
D13*
X17000000Y-52500000D03*
X19540000Y-52500000D03*
X22080000Y-52500000D03*
X24620000Y-52500000D03*
X27160000Y-52500000D03*
X29700000Y-52500000D03*
X32240000Y-52500000D03*
%TD*%
D14*
%TO.C,H3*%
X15500000Y-58500000D03*
%TD*%
%TO.C,H4*%
X58500000Y-58500000D03*
%TD*%
D15*
%TO.C,J2*%
X54000000Y-24000000D03*
D16*
X54000000Y-22000000D03*
%TD*%
D14*
%TO.C,H1*%
X15500000Y-15500000D03*
%TD*%
%TO.C,H2*%
X58500000Y-15500000D03*
%TD*%
D17*
%TO.C,J1*%
X28000000Y-18000000D03*
X27150000Y-18000000D03*
X26300000Y-18000000D03*
X25450000Y-18000000D03*
X24600000Y-18000000D03*
X23750000Y-18000000D03*
X22900000Y-18000000D03*
X22050000Y-18000000D03*
X22050000Y-16650000D03*
X22900000Y-16650000D03*
X23750000Y-16650000D03*
X24600000Y-16650000D03*
X25450000Y-16650000D03*
X26300000Y-16650000D03*
X27150000Y-16650000D03*
X28000000Y-16650000D03*
D18*
X29350000Y-17020000D03*
D19*
X29350000Y-13640000D03*
D18*
X20700000Y-17020000D03*
D19*
X20700000Y-13640000D03*
%TD*%
D12*
%TO.C,J5*%
X59120000Y-28500000D03*
D13*
X56580000Y-28500000D03*
X54040000Y-28500000D03*
X51500000Y-28500000D03*
X48960000Y-28500000D03*
X46420000Y-28500000D03*
X43880000Y-28500000D03*
X41340000Y-28500000D03*
%TD*%
D20*
%TO.C,C11*%
X53775000Y-55500000D03*
X52225000Y-55500000D03*
%TD*%
D12*
%TO.C,J4*%
X37420000Y-59000000D03*
D13*
X39960000Y-59000000D03*
X42500000Y-59000000D03*
X45040000Y-59000000D03*
X47580000Y-59000000D03*
X50120000Y-59000000D03*
X52660000Y-59000000D03*
%TD*%
D20*
%TO.C,C10*%
X50550000Y-55500000D03*
X49000000Y-55500000D03*
%TD*%
%LPD*%
M02*
